G04 #@! TF.GenerationSoftware,KiCad,Pcbnew,(5.1.5-0-10_14)*
G04 #@! TF.CreationDate,2020-05-13T01:35:36-07:00*
G04 #@! TF.ProjectId,prost-pcb,70726f73-742d-4706-9362-2e6b69636164,0.1.0*
G04 #@! TF.SameCoordinates,Original*
G04 #@! TF.FileFunction,Copper,L1,Top*
G04 #@! TF.FilePolarity,Positive*
%FSLAX46Y46*%
G04 Gerber Fmt 4.6, Leading zero omitted, Abs format (unit mm)*
G04 Created by KiCad (PCBNEW (5.1.5-0-10_14)) date 2020-05-13 01:35:36*
%MOMM*%
%LPD*%
G04 APERTURE LIST*
%ADD10C,1.879600*%
%ADD11R,2.200000X2.200000*%
%ADD12R,2.200000X2.800000*%
%ADD13O,1.400000X1.400000*%
%ADD14C,1.400000*%
%ADD15O,1.250000X2.250000*%
%ADD16R,1.250000X2.250000*%
%ADD17O,2.000000X1.000000*%
%ADD18R,2.000000X1.000000*%
%ADD19C,1.750000*%
%ADD20C,0.800000*%
%ADD21C,0.250000*%
%ADD22C,0.254000*%
G04 APERTURE END LIST*
D10*
X157600000Y-117240000D03*
X142380000Y-117240000D03*
D11*
X155000000Y-89900000D03*
D12*
X149100000Y-97300000D03*
D11*
X149100000Y-87900000D03*
D13*
X149800000Y-103020000D03*
D14*
X149800000Y-108100000D03*
D13*
X154800000Y-108080000D03*
D14*
X154800000Y-103000000D03*
D15*
X149800000Y-117290000D03*
X154800000Y-117290000D03*
D16*
X152300000Y-117290000D03*
D10*
X157620000Y-114700000D03*
X157620000Y-112160000D03*
X157620000Y-109620000D03*
X157620000Y-107080000D03*
X157620000Y-104540000D03*
X157620000Y-102000000D03*
X157620000Y-99460000D03*
X157620000Y-96920000D03*
X157620000Y-94380000D03*
X157620000Y-91840000D03*
X157620000Y-89300000D03*
X157620000Y-86760000D03*
X142380000Y-86760000D03*
X142380000Y-89300000D03*
X142380000Y-91840000D03*
X142380000Y-94380000D03*
X142380000Y-96920000D03*
X142380000Y-99460000D03*
X142380000Y-102000000D03*
X142380000Y-104540000D03*
X142380000Y-107080000D03*
X142380000Y-109620000D03*
X142380000Y-112160000D03*
X142380000Y-114700000D03*
X161620000Y-86760000D03*
X161620000Y-89300000D03*
X161620000Y-91840000D03*
X161620000Y-94380000D03*
X161620000Y-96920000D03*
X161620000Y-99460000D03*
X161620000Y-102000000D03*
X161620000Y-104540000D03*
X161620000Y-107080000D03*
X161620000Y-109620000D03*
X161620000Y-112160000D03*
X161620000Y-114700000D03*
X161620000Y-117240000D03*
X146380000Y-117240000D03*
X146380000Y-114700000D03*
X146380000Y-112160000D03*
X146380000Y-109620000D03*
X146380000Y-107080000D03*
X146380000Y-104540000D03*
X146380000Y-102000000D03*
X146380000Y-99460000D03*
X146380000Y-96920000D03*
X146380000Y-94380000D03*
X146380000Y-91840000D03*
X146380000Y-89300000D03*
X146380000Y-86760000D03*
D17*
X137000000Y-111100000D03*
X137000000Y-116100000D03*
X137000000Y-114500000D03*
D18*
X137000000Y-112700000D03*
D17*
X137000000Y-88000000D03*
X137000000Y-93000000D03*
X137000000Y-91400000D03*
D18*
X137000000Y-89600000D03*
D19*
X139250000Y-98750000D03*
X139250000Y-105250000D03*
X134750000Y-98750000D03*
X134750000Y-105250000D03*
D20*
X135900000Y-107600000D03*
X150800000Y-94400000D03*
D21*
X133549999Y-90200001D02*
X135750000Y-88000000D01*
X133549999Y-99326001D02*
X133549999Y-90200001D01*
X135950001Y-101726003D02*
X133549999Y-99326001D01*
X135950001Y-105826001D02*
X135950001Y-101726003D01*
X135900000Y-105876002D02*
X135950001Y-105826001D01*
X135750000Y-88000000D02*
X137000000Y-88000000D01*
X135900000Y-107600000D02*
X135900000Y-105876002D01*
X140450001Y-99401907D02*
X140450001Y-95200001D01*
X140450001Y-95200001D02*
X138250000Y-93000000D01*
X141772895Y-100724801D02*
X140450001Y-99401907D01*
X142924801Y-100724801D02*
X141772895Y-100724801D01*
X138250000Y-93000000D02*
X137000000Y-93000000D01*
X143644801Y-101444801D02*
X142924801Y-100724801D01*
X143644801Y-104344801D02*
X143644801Y-101444801D01*
X146380000Y-107080000D02*
X143644801Y-104344801D01*
X136158270Y-90574990D02*
X138574990Y-90574990D01*
X138574990Y-90574990D02*
X142380000Y-94380000D01*
X135674990Y-91058270D02*
X136158270Y-90574990D01*
X135674990Y-93341730D02*
X135674990Y-91058270D01*
X137000000Y-94666740D02*
X135674990Y-93341730D01*
X137000000Y-111100000D02*
X137000000Y-94666740D01*
X141772895Y-95644801D02*
X143244801Y-95644801D01*
X138303084Y-92174990D02*
X141772895Y-95644801D01*
X137024990Y-92174990D02*
X138303084Y-92174990D01*
X137000000Y-92150000D02*
X137024990Y-92174990D01*
X137000000Y-91400000D02*
X137000000Y-92150000D01*
X143244801Y-95644801D02*
X144400000Y-96800000D01*
X144400000Y-100020000D02*
X146380000Y-102000000D01*
X144400000Y-96800000D02*
X144400000Y-100020000D01*
X138250000Y-114500000D02*
X137000000Y-114500000D01*
X140450001Y-112299999D02*
X138250000Y-114500000D01*
X140450001Y-103929999D02*
X140450001Y-112299999D01*
X142380000Y-102000000D02*
X140450001Y-103929999D01*
X149800000Y-108100000D02*
X149800000Y-117290000D01*
X154800000Y-108080000D02*
X154800000Y-117290000D01*
X142380000Y-114700000D02*
X144880000Y-112200000D01*
X148774999Y-104045001D02*
X149800000Y-103020000D01*
X146976707Y-110895199D02*
X148774999Y-109096907D01*
X145772895Y-110895199D02*
X146976707Y-110895199D01*
X148774999Y-109096907D02*
X148774999Y-104045001D01*
X144880000Y-111788094D02*
X145772895Y-110895199D01*
X144880000Y-112200000D02*
X144880000Y-111788094D01*
X149800000Y-102030051D02*
X149800000Y-103020000D01*
X147674999Y-99905050D02*
X149800000Y-102030051D01*
X147674999Y-93134999D02*
X147674999Y-99905050D01*
X146380000Y-91840000D02*
X147674999Y-93134999D01*
X147644801Y-101382497D02*
X146987105Y-100724801D01*
X145772895Y-100724801D02*
X144900000Y-99851906D01*
X147644801Y-107687105D02*
X147644801Y-101382497D01*
X146987105Y-108344801D02*
X147644801Y-107687105D01*
X145783293Y-108344801D02*
X146987105Y-108344801D01*
X146987105Y-100724801D02*
X145772895Y-100724801D01*
X145115199Y-109424801D02*
X145115199Y-109012895D01*
X145115199Y-109012895D02*
X145783293Y-108344801D01*
X142380000Y-112160000D02*
X145115199Y-109424801D01*
X144900000Y-90780000D02*
X146380000Y-89300000D01*
X144900000Y-99851906D02*
X144900000Y-90780000D01*
X154800000Y-104260000D02*
X154800000Y-103000000D01*
X157620000Y-107080000D02*
X154800000Y-104260000D01*
X143644801Y-88024801D02*
X142380000Y-86760000D01*
X146976707Y-88024801D02*
X143644801Y-88024801D01*
X147674999Y-88723093D02*
X146976707Y-88024801D01*
X147674999Y-89474999D02*
X147674999Y-88723093D01*
X149100000Y-90900000D02*
X147674999Y-89474999D01*
X153650000Y-89900000D02*
X149250000Y-94300000D01*
X155000000Y-89900000D02*
X153650000Y-89900000D01*
X149100000Y-94300000D02*
X149100000Y-90900000D01*
X149250000Y-94300000D02*
X149100000Y-94300000D01*
X149100000Y-97300000D02*
X149100000Y-94300000D01*
X152084801Y-93115199D02*
X150800000Y-94400000D01*
X160344801Y-93115199D02*
X152084801Y-93115199D01*
X161620000Y-91840000D02*
X160344801Y-93115199D01*
D22*
G36*
X139690002Y-95514804D02*
G01*
X139690001Y-97303901D01*
X139479474Y-97250145D01*
X139182457Y-97234196D01*
X138888037Y-97276499D01*
X138607526Y-97375428D01*
X138464025Y-97452132D01*
X138383365Y-97703760D01*
X139250000Y-98570395D01*
X139264143Y-98556253D01*
X139443748Y-98735858D01*
X139429605Y-98750000D01*
X139443748Y-98764143D01*
X139264143Y-98943748D01*
X139250000Y-98929605D01*
X138383365Y-99796240D01*
X138464025Y-100047868D01*
X138732329Y-100176267D01*
X139020526Y-100249855D01*
X139317543Y-100265804D01*
X139611963Y-100223501D01*
X139892474Y-100124572D01*
X140026321Y-100053028D01*
X141081728Y-101108436D01*
X140984430Y-101254052D01*
X140865718Y-101540648D01*
X140805200Y-101844896D01*
X140805200Y-102155104D01*
X140862421Y-102442777D01*
X139939004Y-103366195D01*
X139910000Y-103389998D01*
X139865456Y-103444276D01*
X139815027Y-103505723D01*
X139774724Y-103581125D01*
X139744455Y-103637753D01*
X139700998Y-103781014D01*
X139698529Y-103806078D01*
X139479474Y-103750145D01*
X139182457Y-103734196D01*
X138888037Y-103776499D01*
X138607526Y-103875428D01*
X138464025Y-103952132D01*
X138383365Y-104203760D01*
X139250000Y-105070395D01*
X139264143Y-105056253D01*
X139443748Y-105235858D01*
X139429605Y-105250000D01*
X139443748Y-105264143D01*
X139264143Y-105443748D01*
X139250000Y-105429605D01*
X138383365Y-106296240D01*
X138464025Y-106547868D01*
X138732329Y-106676267D01*
X139020526Y-106749855D01*
X139317543Y-106765804D01*
X139611963Y-106723501D01*
X139690001Y-106695979D01*
X139690002Y-111985196D01*
X138635770Y-113039429D01*
X138635000Y-112985750D01*
X138476250Y-112827000D01*
X137127000Y-112827000D01*
X137127000Y-112847000D01*
X136873000Y-112847000D01*
X136873000Y-112827000D01*
X135523750Y-112827000D01*
X135365000Y-112985750D01*
X135361928Y-113200000D01*
X135374188Y-113324482D01*
X135410498Y-113444180D01*
X135469463Y-113554494D01*
X135548815Y-113651185D01*
X135645506Y-113730537D01*
X135657803Y-113737110D01*
X135551716Y-113866377D01*
X135446324Y-114063553D01*
X135381423Y-114277501D01*
X135359509Y-114500000D01*
X135381423Y-114722499D01*
X135446324Y-114936447D01*
X135551716Y-115133623D01*
X135688258Y-115300000D01*
X135551716Y-115466377D01*
X135446324Y-115663553D01*
X135381423Y-115877501D01*
X135359509Y-116100000D01*
X135381423Y-116322499D01*
X135446324Y-116536447D01*
X135551716Y-116733623D01*
X135693551Y-116906449D01*
X135866377Y-117048284D01*
X136063553Y-117153676D01*
X136277501Y-117218577D01*
X136444248Y-117235000D01*
X137555752Y-117235000D01*
X137722499Y-117218577D01*
X137936447Y-117153676D01*
X138133623Y-117048284D01*
X138306449Y-116906449D01*
X138448284Y-116733623D01*
X138553676Y-116536447D01*
X138618577Y-116322499D01*
X138640491Y-116100000D01*
X138618577Y-115877501D01*
X138553676Y-115663553D01*
X138448284Y-115466377D01*
X138311742Y-115300000D01*
X138349602Y-115253867D01*
X138398986Y-115249003D01*
X138542247Y-115205546D01*
X138674276Y-115134974D01*
X138790001Y-115040001D01*
X138813804Y-115010997D01*
X140961004Y-112863798D01*
X140965457Y-112860143D01*
X140984430Y-112905948D01*
X141156773Y-113163877D01*
X141376123Y-113383227D01*
X141446124Y-113430000D01*
X141376123Y-113476773D01*
X141156773Y-113696123D01*
X140984430Y-113954052D01*
X140865718Y-114240648D01*
X140805200Y-114544896D01*
X140805200Y-114855104D01*
X140865718Y-115159352D01*
X140984430Y-115445948D01*
X141156773Y-115703877D01*
X141376123Y-115923227D01*
X141446124Y-115970000D01*
X141376123Y-116016773D01*
X141156773Y-116236123D01*
X140984430Y-116494052D01*
X140865718Y-116780648D01*
X140805200Y-117084896D01*
X140805200Y-117395104D01*
X140865718Y-117699352D01*
X140950900Y-117905000D01*
X134033991Y-117905000D01*
X133941406Y-117895922D01*
X133885044Y-117878905D01*
X133833057Y-117851263D01*
X133787438Y-117814057D01*
X133749905Y-117768688D01*
X133721906Y-117716905D01*
X133704494Y-117660656D01*
X133695000Y-117570325D01*
X133695000Y-106330462D01*
X133787431Y-106422893D01*
X134034747Y-106588144D01*
X134309549Y-106701971D01*
X134601278Y-106760000D01*
X134898722Y-106760000D01*
X135140001Y-106712006D01*
X135140000Y-106896289D01*
X135096063Y-106940226D01*
X134982795Y-107109744D01*
X134904774Y-107298102D01*
X134865000Y-107498061D01*
X134865000Y-107701939D01*
X134904774Y-107901898D01*
X134982795Y-108090256D01*
X135096063Y-108259774D01*
X135240226Y-108403937D01*
X135409744Y-108517205D01*
X135598102Y-108595226D01*
X135798061Y-108635000D01*
X136001939Y-108635000D01*
X136201898Y-108595226D01*
X136240000Y-108579443D01*
X136240000Y-109992799D01*
X136063553Y-110046324D01*
X135866377Y-110151716D01*
X135693551Y-110293551D01*
X135551716Y-110466377D01*
X135446324Y-110663553D01*
X135381423Y-110877501D01*
X135359509Y-111100000D01*
X135381423Y-111322499D01*
X135446324Y-111536447D01*
X135551716Y-111733623D01*
X135557999Y-111741278D01*
X135548815Y-111748815D01*
X135469463Y-111845506D01*
X135410498Y-111955820D01*
X135374188Y-112075518D01*
X135361928Y-112200000D01*
X135365000Y-112414250D01*
X135523750Y-112573000D01*
X136873000Y-112573000D01*
X136873000Y-112553000D01*
X137127000Y-112553000D01*
X137127000Y-112573000D01*
X138476250Y-112573000D01*
X138635000Y-112414250D01*
X138638072Y-112200000D01*
X138625812Y-112075518D01*
X138589502Y-111955820D01*
X138530537Y-111845506D01*
X138451185Y-111748815D01*
X138442001Y-111741278D01*
X138448284Y-111733623D01*
X138553676Y-111536447D01*
X138618577Y-111322499D01*
X138640491Y-111100000D01*
X138618577Y-110877501D01*
X138553676Y-110663553D01*
X138448284Y-110466377D01*
X138306449Y-110293551D01*
X138133623Y-110151716D01*
X137936447Y-110046324D01*
X137760000Y-109992799D01*
X137760000Y-105497133D01*
X137776499Y-105611963D01*
X137875428Y-105892474D01*
X137952132Y-106035975D01*
X138203760Y-106116635D01*
X139070395Y-105250000D01*
X138203760Y-104383365D01*
X137952132Y-104464025D01*
X137823733Y-104732329D01*
X137760000Y-104981930D01*
X137760000Y-98997133D01*
X137776499Y-99111963D01*
X137875428Y-99392474D01*
X137952132Y-99535975D01*
X138203760Y-99616635D01*
X139070395Y-98750000D01*
X138203760Y-97883365D01*
X137952132Y-97964025D01*
X137823733Y-98232329D01*
X137760000Y-98481930D01*
X137760000Y-94704062D01*
X137763676Y-94666739D01*
X137760000Y-94629416D01*
X137760000Y-94629407D01*
X137749003Y-94517754D01*
X137705546Y-94374493D01*
X137645773Y-94262667D01*
X137634974Y-94242463D01*
X137563799Y-94155737D01*
X137546781Y-94135000D01*
X137555752Y-94135000D01*
X137722499Y-94118577D01*
X137936447Y-94053676D01*
X138127015Y-93951816D01*
X139690002Y-95514804D01*
G37*
X139690002Y-95514804D02*
X139690001Y-97303901D01*
X139479474Y-97250145D01*
X139182457Y-97234196D01*
X138888037Y-97276499D01*
X138607526Y-97375428D01*
X138464025Y-97452132D01*
X138383365Y-97703760D01*
X139250000Y-98570395D01*
X139264143Y-98556253D01*
X139443748Y-98735858D01*
X139429605Y-98750000D01*
X139443748Y-98764143D01*
X139264143Y-98943748D01*
X139250000Y-98929605D01*
X138383365Y-99796240D01*
X138464025Y-100047868D01*
X138732329Y-100176267D01*
X139020526Y-100249855D01*
X139317543Y-100265804D01*
X139611963Y-100223501D01*
X139892474Y-100124572D01*
X140026321Y-100053028D01*
X141081728Y-101108436D01*
X140984430Y-101254052D01*
X140865718Y-101540648D01*
X140805200Y-101844896D01*
X140805200Y-102155104D01*
X140862421Y-102442777D01*
X139939004Y-103366195D01*
X139910000Y-103389998D01*
X139865456Y-103444276D01*
X139815027Y-103505723D01*
X139774724Y-103581125D01*
X139744455Y-103637753D01*
X139700998Y-103781014D01*
X139698529Y-103806078D01*
X139479474Y-103750145D01*
X139182457Y-103734196D01*
X138888037Y-103776499D01*
X138607526Y-103875428D01*
X138464025Y-103952132D01*
X138383365Y-104203760D01*
X139250000Y-105070395D01*
X139264143Y-105056253D01*
X139443748Y-105235858D01*
X139429605Y-105250000D01*
X139443748Y-105264143D01*
X139264143Y-105443748D01*
X139250000Y-105429605D01*
X138383365Y-106296240D01*
X138464025Y-106547868D01*
X138732329Y-106676267D01*
X139020526Y-106749855D01*
X139317543Y-106765804D01*
X139611963Y-106723501D01*
X139690001Y-106695979D01*
X139690002Y-111985196D01*
X138635770Y-113039429D01*
X138635000Y-112985750D01*
X138476250Y-112827000D01*
X137127000Y-112827000D01*
X137127000Y-112847000D01*
X136873000Y-112847000D01*
X136873000Y-112827000D01*
X135523750Y-112827000D01*
X135365000Y-112985750D01*
X135361928Y-113200000D01*
X135374188Y-113324482D01*
X135410498Y-113444180D01*
X135469463Y-113554494D01*
X135548815Y-113651185D01*
X135645506Y-113730537D01*
X135657803Y-113737110D01*
X135551716Y-113866377D01*
X135446324Y-114063553D01*
X135381423Y-114277501D01*
X135359509Y-114500000D01*
X135381423Y-114722499D01*
X135446324Y-114936447D01*
X135551716Y-115133623D01*
X135688258Y-115300000D01*
X135551716Y-115466377D01*
X135446324Y-115663553D01*
X135381423Y-115877501D01*
X135359509Y-116100000D01*
X135381423Y-116322499D01*
X135446324Y-116536447D01*
X135551716Y-116733623D01*
X135693551Y-116906449D01*
X135866377Y-117048284D01*
X136063553Y-117153676D01*
X136277501Y-117218577D01*
X136444248Y-117235000D01*
X137555752Y-117235000D01*
X137722499Y-117218577D01*
X137936447Y-117153676D01*
X138133623Y-117048284D01*
X138306449Y-116906449D01*
X138448284Y-116733623D01*
X138553676Y-116536447D01*
X138618577Y-116322499D01*
X138640491Y-116100000D01*
X138618577Y-115877501D01*
X138553676Y-115663553D01*
X138448284Y-115466377D01*
X138311742Y-115300000D01*
X138349602Y-115253867D01*
X138398986Y-115249003D01*
X138542247Y-115205546D01*
X138674276Y-115134974D01*
X138790001Y-115040001D01*
X138813804Y-115010997D01*
X140961004Y-112863798D01*
X140965457Y-112860143D01*
X140984430Y-112905948D01*
X141156773Y-113163877D01*
X141376123Y-113383227D01*
X141446124Y-113430000D01*
X141376123Y-113476773D01*
X141156773Y-113696123D01*
X140984430Y-113954052D01*
X140865718Y-114240648D01*
X140805200Y-114544896D01*
X140805200Y-114855104D01*
X140865718Y-115159352D01*
X140984430Y-115445948D01*
X141156773Y-115703877D01*
X141376123Y-115923227D01*
X141446124Y-115970000D01*
X141376123Y-116016773D01*
X141156773Y-116236123D01*
X140984430Y-116494052D01*
X140865718Y-116780648D01*
X140805200Y-117084896D01*
X140805200Y-117395104D01*
X140865718Y-117699352D01*
X140950900Y-117905000D01*
X134033991Y-117905000D01*
X133941406Y-117895922D01*
X133885044Y-117878905D01*
X133833057Y-117851263D01*
X133787438Y-117814057D01*
X133749905Y-117768688D01*
X133721906Y-117716905D01*
X133704494Y-117660656D01*
X133695000Y-117570325D01*
X133695000Y-106330462D01*
X133787431Y-106422893D01*
X134034747Y-106588144D01*
X134309549Y-106701971D01*
X134601278Y-106760000D01*
X134898722Y-106760000D01*
X135140001Y-106712006D01*
X135140000Y-106896289D01*
X135096063Y-106940226D01*
X134982795Y-107109744D01*
X134904774Y-107298102D01*
X134865000Y-107498061D01*
X134865000Y-107701939D01*
X134904774Y-107901898D01*
X134982795Y-108090256D01*
X135096063Y-108259774D01*
X135240226Y-108403937D01*
X135409744Y-108517205D01*
X135598102Y-108595226D01*
X135798061Y-108635000D01*
X136001939Y-108635000D01*
X136201898Y-108595226D01*
X136240000Y-108579443D01*
X136240000Y-109992799D01*
X136063553Y-110046324D01*
X135866377Y-110151716D01*
X135693551Y-110293551D01*
X135551716Y-110466377D01*
X135446324Y-110663553D01*
X135381423Y-110877501D01*
X135359509Y-111100000D01*
X135381423Y-111322499D01*
X135446324Y-111536447D01*
X135551716Y-111733623D01*
X135557999Y-111741278D01*
X135548815Y-111748815D01*
X135469463Y-111845506D01*
X135410498Y-111955820D01*
X135374188Y-112075518D01*
X135361928Y-112200000D01*
X135365000Y-112414250D01*
X135523750Y-112573000D01*
X136873000Y-112573000D01*
X136873000Y-112553000D01*
X137127000Y-112553000D01*
X137127000Y-112573000D01*
X138476250Y-112573000D01*
X138635000Y-112414250D01*
X138638072Y-112200000D01*
X138625812Y-112075518D01*
X138589502Y-111955820D01*
X138530537Y-111845506D01*
X138451185Y-111748815D01*
X138442001Y-111741278D01*
X138448284Y-111733623D01*
X138553676Y-111536447D01*
X138618577Y-111322499D01*
X138640491Y-111100000D01*
X138618577Y-110877501D01*
X138553676Y-110663553D01*
X138448284Y-110466377D01*
X138306449Y-110293551D01*
X138133623Y-110151716D01*
X137936447Y-110046324D01*
X137760000Y-109992799D01*
X137760000Y-105497133D01*
X137776499Y-105611963D01*
X137875428Y-105892474D01*
X137952132Y-106035975D01*
X138203760Y-106116635D01*
X139070395Y-105250000D01*
X138203760Y-104383365D01*
X137952132Y-104464025D01*
X137823733Y-104732329D01*
X137760000Y-104981930D01*
X137760000Y-98997133D01*
X137776499Y-99111963D01*
X137875428Y-99392474D01*
X137952132Y-99535975D01*
X138203760Y-99616635D01*
X139070395Y-98750000D01*
X138203760Y-97883365D01*
X137952132Y-97964025D01*
X137823733Y-98232329D01*
X137760000Y-98481930D01*
X137760000Y-94704062D01*
X137763676Y-94666739D01*
X137760000Y-94629416D01*
X137760000Y-94629407D01*
X137749003Y-94517754D01*
X137705546Y-94374493D01*
X137645773Y-94262667D01*
X137634974Y-94242463D01*
X137563799Y-94155737D01*
X137546781Y-94135000D01*
X137555752Y-94135000D01*
X137722499Y-94118577D01*
X137936447Y-94053676D01*
X138127015Y-93951816D01*
X139690002Y-95514804D01*
G36*
X160105718Y-86300648D02*
G01*
X160045200Y-86604896D01*
X160045200Y-86915104D01*
X160105718Y-87219352D01*
X160224430Y-87505948D01*
X160396773Y-87763877D01*
X160616123Y-87983227D01*
X160686124Y-88030000D01*
X160616123Y-88076773D01*
X160396773Y-88296123D01*
X160224430Y-88554052D01*
X160105718Y-88840648D01*
X160045200Y-89144896D01*
X160045200Y-89455104D01*
X160105718Y-89759352D01*
X160224430Y-90045948D01*
X160396773Y-90303877D01*
X160616123Y-90523227D01*
X160752714Y-90614495D01*
X160707129Y-90747524D01*
X161620000Y-91660395D01*
X161634143Y-91646253D01*
X161813748Y-91825858D01*
X161799605Y-91840000D01*
X161813748Y-91854143D01*
X161634143Y-92033748D01*
X161620000Y-92019605D01*
X160707129Y-92932476D01*
X160752714Y-93065505D01*
X160616123Y-93156773D01*
X160396773Y-93376123D01*
X160224430Y-93634052D01*
X160105718Y-93920648D01*
X160045200Y-94224896D01*
X160045200Y-94535104D01*
X160105718Y-94839352D01*
X160224430Y-95125948D01*
X160396773Y-95383877D01*
X160616123Y-95603227D01*
X160686124Y-95650000D01*
X160616123Y-95696773D01*
X160396773Y-95916123D01*
X160224430Y-96174052D01*
X160105718Y-96460648D01*
X160045200Y-96764896D01*
X160045200Y-97075104D01*
X160105718Y-97379352D01*
X160224430Y-97665948D01*
X160396773Y-97923877D01*
X160616123Y-98143227D01*
X160686124Y-98190000D01*
X160616123Y-98236773D01*
X160396773Y-98456123D01*
X160224430Y-98714052D01*
X160105718Y-99000648D01*
X160045200Y-99304896D01*
X160045200Y-99615104D01*
X160105718Y-99919352D01*
X160224430Y-100205948D01*
X160396773Y-100463877D01*
X160616123Y-100683227D01*
X160686124Y-100730000D01*
X160616123Y-100776773D01*
X160396773Y-100996123D01*
X160224430Y-101254052D01*
X160105718Y-101540648D01*
X160045200Y-101844896D01*
X160045200Y-102155104D01*
X160105718Y-102459352D01*
X160224430Y-102745948D01*
X160396773Y-103003877D01*
X160616123Y-103223227D01*
X160686124Y-103270000D01*
X160616123Y-103316773D01*
X160396773Y-103536123D01*
X160224430Y-103794052D01*
X160105718Y-104080648D01*
X160045200Y-104384896D01*
X160045200Y-104695104D01*
X160105718Y-104999352D01*
X160224430Y-105285948D01*
X160396773Y-105543877D01*
X160616123Y-105763227D01*
X160686124Y-105810000D01*
X160616123Y-105856773D01*
X160396773Y-106076123D01*
X160224430Y-106334052D01*
X160105718Y-106620648D01*
X160045200Y-106924896D01*
X160045200Y-107235104D01*
X160105718Y-107539352D01*
X160224430Y-107825948D01*
X160396773Y-108083877D01*
X160616123Y-108303227D01*
X160686124Y-108350000D01*
X160616123Y-108396773D01*
X160396773Y-108616123D01*
X160224430Y-108874052D01*
X160105718Y-109160648D01*
X160045200Y-109464896D01*
X160045200Y-109775104D01*
X160105718Y-110079352D01*
X160224430Y-110365948D01*
X160396773Y-110623877D01*
X160616123Y-110843227D01*
X160686124Y-110890000D01*
X160616123Y-110936773D01*
X160396773Y-111156123D01*
X160224430Y-111414052D01*
X160105718Y-111700648D01*
X160045200Y-112004896D01*
X160045200Y-112315104D01*
X160105718Y-112619352D01*
X160224430Y-112905948D01*
X160396773Y-113163877D01*
X160616123Y-113383227D01*
X160686124Y-113430000D01*
X160616123Y-113476773D01*
X160396773Y-113696123D01*
X160224430Y-113954052D01*
X160105718Y-114240648D01*
X160045200Y-114544896D01*
X160045200Y-114855104D01*
X160105718Y-115159352D01*
X160224430Y-115445948D01*
X160396773Y-115703877D01*
X160616123Y-115923227D01*
X160686124Y-115970000D01*
X160616123Y-116016773D01*
X160396773Y-116236123D01*
X160224430Y-116494052D01*
X160105718Y-116780648D01*
X160045200Y-117084896D01*
X160045200Y-117395104D01*
X160105718Y-117699352D01*
X160190900Y-117905000D01*
X159029100Y-117905000D01*
X159114282Y-117699352D01*
X159174800Y-117395104D01*
X159174800Y-117084896D01*
X159114282Y-116780648D01*
X158995570Y-116494052D01*
X158823227Y-116236123D01*
X158603877Y-116016773D01*
X158543876Y-115976682D01*
X158623877Y-115923227D01*
X158843227Y-115703877D01*
X159015570Y-115445948D01*
X159134282Y-115159352D01*
X159194800Y-114855104D01*
X159194800Y-114544896D01*
X159134282Y-114240648D01*
X159015570Y-113954052D01*
X158843227Y-113696123D01*
X158623877Y-113476773D01*
X158487286Y-113385505D01*
X158532871Y-113252476D01*
X157620000Y-112339605D01*
X156707129Y-113252476D01*
X156752714Y-113385505D01*
X156616123Y-113476773D01*
X156396773Y-113696123D01*
X156224430Y-113954052D01*
X156105718Y-114240648D01*
X156045200Y-114544896D01*
X156045200Y-114855104D01*
X156105718Y-115159352D01*
X156224430Y-115445948D01*
X156396773Y-115703877D01*
X156616123Y-115923227D01*
X156676124Y-115963318D01*
X156596123Y-116016773D01*
X156376773Y-116236123D01*
X156204430Y-116494052D01*
X156085718Y-116780648D01*
X156060000Y-116909943D01*
X156060000Y-116728107D01*
X156041768Y-116542997D01*
X155969720Y-116305486D01*
X155852720Y-116086595D01*
X155695265Y-115894735D01*
X155560000Y-115783727D01*
X155560000Y-112224977D01*
X156038916Y-112224977D01*
X156081973Y-112532184D01*
X156184135Y-112825086D01*
X156269277Y-112984377D01*
X156527524Y-113072871D01*
X157440395Y-112160000D01*
X157799605Y-112160000D01*
X158712476Y-113072871D01*
X158970723Y-112984377D01*
X159105597Y-112705024D01*
X159183381Y-112404725D01*
X159201084Y-112095023D01*
X159158027Y-111787816D01*
X159055865Y-111494914D01*
X158970723Y-111335623D01*
X158712476Y-111247129D01*
X157799605Y-112160000D01*
X157440395Y-112160000D01*
X156527524Y-111247129D01*
X156269277Y-111335623D01*
X156134403Y-111614976D01*
X156056619Y-111915275D01*
X156038916Y-112224977D01*
X155560000Y-112224977D01*
X155560000Y-109177775D01*
X155651013Y-109116962D01*
X155836962Y-108931013D01*
X155983061Y-108712359D01*
X156083696Y-108469405D01*
X156135000Y-108211486D01*
X156135000Y-107948514D01*
X156083696Y-107690595D01*
X155983061Y-107447641D01*
X155836962Y-107228987D01*
X155651013Y-107043038D01*
X155432359Y-106896939D01*
X155189405Y-106796304D01*
X154931486Y-106745000D01*
X154668514Y-106745000D01*
X154410595Y-106796304D01*
X154167641Y-106896939D01*
X153948987Y-107043038D01*
X153763038Y-107228987D01*
X153616939Y-107447641D01*
X153516304Y-107690595D01*
X153465000Y-107948514D01*
X153465000Y-108211486D01*
X153516304Y-108469405D01*
X153616939Y-108712359D01*
X153763038Y-108931013D01*
X153948987Y-109116962D01*
X154040000Y-109177775D01*
X154040001Y-115783726D01*
X153904735Y-115894735D01*
X153747280Y-116086596D01*
X153630280Y-116305487D01*
X153561731Y-116531464D01*
X153563072Y-116165000D01*
X153550812Y-116040518D01*
X153514502Y-115920820D01*
X153455537Y-115810506D01*
X153376185Y-115713815D01*
X153279494Y-115634463D01*
X153169180Y-115575498D01*
X153049482Y-115539188D01*
X152925000Y-115526928D01*
X152585750Y-115530000D01*
X152427000Y-115688750D01*
X152427000Y-117163000D01*
X152447000Y-117163000D01*
X152447000Y-117417000D01*
X152427000Y-117417000D01*
X152427000Y-117437000D01*
X152173000Y-117437000D01*
X152173000Y-117417000D01*
X152153000Y-117417000D01*
X152153000Y-117163000D01*
X152173000Y-117163000D01*
X152173000Y-115688750D01*
X152014250Y-115530000D01*
X151675000Y-115526928D01*
X151550518Y-115539188D01*
X151430820Y-115575498D01*
X151320506Y-115634463D01*
X151223815Y-115713815D01*
X151144463Y-115810506D01*
X151085498Y-115920820D01*
X151049188Y-116040518D01*
X151036928Y-116165000D01*
X151038269Y-116531464D01*
X150969720Y-116305486D01*
X150852720Y-116086595D01*
X150695265Y-115894735D01*
X150560000Y-115783727D01*
X150560000Y-109197775D01*
X150651013Y-109136962D01*
X150836962Y-108951013D01*
X150983061Y-108732359D01*
X151083696Y-108489405D01*
X151135000Y-108231486D01*
X151135000Y-107968514D01*
X151083696Y-107710595D01*
X150983061Y-107467641D01*
X150836962Y-107248987D01*
X150651013Y-107063038D01*
X150432359Y-106916939D01*
X150189405Y-106816304D01*
X149931486Y-106765000D01*
X149668514Y-106765000D01*
X149534999Y-106791558D01*
X149534999Y-104359802D01*
X149561156Y-104333645D01*
X149668514Y-104355000D01*
X149931486Y-104355000D01*
X150189405Y-104303696D01*
X150432359Y-104203061D01*
X150651013Y-104056962D01*
X150836962Y-103871013D01*
X150983061Y-103652359D01*
X151083696Y-103409405D01*
X151135000Y-103151486D01*
X151135000Y-102888514D01*
X151083696Y-102630595D01*
X150983061Y-102387641D01*
X150836962Y-102168987D01*
X150651013Y-101983038D01*
X150552568Y-101917260D01*
X150549003Y-101881065D01*
X150505546Y-101737804D01*
X150434974Y-101605775D01*
X150340001Y-101490050D01*
X150311004Y-101466253D01*
X148434999Y-99590249D01*
X148434999Y-99338072D01*
X150200000Y-99338072D01*
X150324482Y-99325812D01*
X150444180Y-99289502D01*
X150554494Y-99230537D01*
X150651185Y-99151185D01*
X150730537Y-99054494D01*
X150789502Y-98944180D01*
X150825812Y-98824482D01*
X150838072Y-98700000D01*
X150838072Y-95900000D01*
X150833516Y-95853740D01*
X150915000Y-95853740D01*
X150915000Y-96146260D01*
X150972068Y-96433158D01*
X151084010Y-96703411D01*
X151246525Y-96946632D01*
X151453368Y-97153475D01*
X151696589Y-97315990D01*
X151966842Y-97427932D01*
X152253740Y-97485000D01*
X152546260Y-97485000D01*
X152833158Y-97427932D01*
X153103411Y-97315990D01*
X153346632Y-97153475D01*
X153553475Y-96946632D01*
X153715990Y-96703411D01*
X153827932Y-96433158D01*
X153885000Y-96146260D01*
X153885000Y-95853740D01*
X153827932Y-95566842D01*
X153715990Y-95296589D01*
X153553475Y-95053368D01*
X153346632Y-94846525D01*
X153103411Y-94684010D01*
X152833158Y-94572068D01*
X152546260Y-94515000D01*
X152253740Y-94515000D01*
X151966842Y-94572068D01*
X151696589Y-94684010D01*
X151453368Y-94846525D01*
X151246525Y-95053368D01*
X151084010Y-95296589D01*
X150972068Y-95566842D01*
X150915000Y-95853740D01*
X150833516Y-95853740D01*
X150825812Y-95775518D01*
X150789502Y-95655820D01*
X150730537Y-95545506D01*
X150651185Y-95448815D01*
X150554494Y-95369463D01*
X150444180Y-95310498D01*
X150324482Y-95274188D01*
X150200000Y-95261928D01*
X149860000Y-95261928D01*
X149860000Y-94764801D01*
X153334924Y-91289878D01*
X153369463Y-91354494D01*
X153448815Y-91451185D01*
X153545506Y-91530537D01*
X153655820Y-91589502D01*
X153775518Y-91625812D01*
X153900000Y-91638072D01*
X156054514Y-91638072D01*
X156045200Y-91684896D01*
X156045200Y-91995104D01*
X156105718Y-92299352D01*
X156224430Y-92585948D01*
X156396773Y-92843877D01*
X156616123Y-93063227D01*
X156686124Y-93110000D01*
X156616123Y-93156773D01*
X156396773Y-93376123D01*
X156224430Y-93634052D01*
X156105718Y-93920648D01*
X156045200Y-94224896D01*
X156045200Y-94535104D01*
X156105718Y-94839352D01*
X156224430Y-95125948D01*
X156396773Y-95383877D01*
X156616123Y-95603227D01*
X156686124Y-95650000D01*
X156616123Y-95696773D01*
X156396773Y-95916123D01*
X156224430Y-96174052D01*
X156105718Y-96460648D01*
X156045200Y-96764896D01*
X156045200Y-97075104D01*
X156105718Y-97379352D01*
X156224430Y-97665948D01*
X156396773Y-97923877D01*
X156616123Y-98143227D01*
X156686124Y-98190000D01*
X156616123Y-98236773D01*
X156396773Y-98456123D01*
X156224430Y-98714052D01*
X156105718Y-99000648D01*
X156045200Y-99304896D01*
X156045200Y-99615104D01*
X156105718Y-99919352D01*
X156224430Y-100205948D01*
X156396773Y-100463877D01*
X156616123Y-100683227D01*
X156686124Y-100730000D01*
X156616123Y-100776773D01*
X156396773Y-100996123D01*
X156224430Y-101254052D01*
X156105718Y-101540648D01*
X156045200Y-101844896D01*
X156045200Y-102155104D01*
X156105718Y-102459352D01*
X156224430Y-102745948D01*
X156396773Y-103003877D01*
X156616123Y-103223227D01*
X156686124Y-103270000D01*
X156616123Y-103316773D01*
X156396773Y-103536123D01*
X156224430Y-103794052D01*
X156105718Y-104080648D01*
X156045200Y-104384896D01*
X156045200Y-104430399D01*
X155651388Y-104036587D01*
X155836962Y-103851013D01*
X155983061Y-103632359D01*
X156083696Y-103389405D01*
X156135000Y-103131486D01*
X156135000Y-102868514D01*
X156083696Y-102610595D01*
X155983061Y-102367641D01*
X155836962Y-102148987D01*
X155651013Y-101963038D01*
X155432359Y-101816939D01*
X155189405Y-101716304D01*
X154931486Y-101665000D01*
X154668514Y-101665000D01*
X154410595Y-101716304D01*
X154167641Y-101816939D01*
X153948987Y-101963038D01*
X153763038Y-102148987D01*
X153616939Y-102367641D01*
X153516304Y-102610595D01*
X153465000Y-102868514D01*
X153465000Y-103131486D01*
X153516304Y-103389405D01*
X153616939Y-103632359D01*
X153763038Y-103851013D01*
X153948987Y-104036962D01*
X154040000Y-104097775D01*
X154040000Y-104222677D01*
X154036324Y-104260000D01*
X154040000Y-104297322D01*
X154040000Y-104297332D01*
X154050997Y-104408985D01*
X154089146Y-104534747D01*
X154094454Y-104552246D01*
X154165026Y-104684276D01*
X154204463Y-104732329D01*
X154259999Y-104800001D01*
X154289003Y-104823804D01*
X156102421Y-106637223D01*
X156045200Y-106924896D01*
X156045200Y-107235104D01*
X156105718Y-107539352D01*
X156224430Y-107825948D01*
X156396773Y-108083877D01*
X156616123Y-108303227D01*
X156686124Y-108350000D01*
X156616123Y-108396773D01*
X156396773Y-108616123D01*
X156224430Y-108874052D01*
X156105718Y-109160648D01*
X156045200Y-109464896D01*
X156045200Y-109775104D01*
X156105718Y-110079352D01*
X156224430Y-110365948D01*
X156396773Y-110623877D01*
X156616123Y-110843227D01*
X156752714Y-110934495D01*
X156707129Y-111067524D01*
X157620000Y-111980395D01*
X158532871Y-111067524D01*
X158487286Y-110934495D01*
X158623877Y-110843227D01*
X158843227Y-110623877D01*
X159015570Y-110365948D01*
X159134282Y-110079352D01*
X159194800Y-109775104D01*
X159194800Y-109464896D01*
X159134282Y-109160648D01*
X159015570Y-108874052D01*
X158843227Y-108616123D01*
X158623877Y-108396773D01*
X158553876Y-108350000D01*
X158623877Y-108303227D01*
X158843227Y-108083877D01*
X159015570Y-107825948D01*
X159134282Y-107539352D01*
X159194800Y-107235104D01*
X159194800Y-106924896D01*
X159134282Y-106620648D01*
X159015570Y-106334052D01*
X158843227Y-106076123D01*
X158623877Y-105856773D01*
X158553876Y-105810000D01*
X158623877Y-105763227D01*
X158843227Y-105543877D01*
X159015570Y-105285948D01*
X159134282Y-104999352D01*
X159194800Y-104695104D01*
X159194800Y-104384896D01*
X159134282Y-104080648D01*
X159015570Y-103794052D01*
X158843227Y-103536123D01*
X158623877Y-103316773D01*
X158553876Y-103270000D01*
X158623877Y-103223227D01*
X158843227Y-103003877D01*
X159015570Y-102745948D01*
X159134282Y-102459352D01*
X159194800Y-102155104D01*
X159194800Y-101844896D01*
X159134282Y-101540648D01*
X159015570Y-101254052D01*
X158843227Y-100996123D01*
X158623877Y-100776773D01*
X158553876Y-100730000D01*
X158623877Y-100683227D01*
X158843227Y-100463877D01*
X159015570Y-100205948D01*
X159134282Y-99919352D01*
X159194800Y-99615104D01*
X159194800Y-99304896D01*
X159134282Y-99000648D01*
X159015570Y-98714052D01*
X158843227Y-98456123D01*
X158623877Y-98236773D01*
X158553876Y-98190000D01*
X158623877Y-98143227D01*
X158843227Y-97923877D01*
X159015570Y-97665948D01*
X159134282Y-97379352D01*
X159194800Y-97075104D01*
X159194800Y-96764896D01*
X159134282Y-96460648D01*
X159015570Y-96174052D01*
X158843227Y-95916123D01*
X158623877Y-95696773D01*
X158553876Y-95650000D01*
X158623877Y-95603227D01*
X158843227Y-95383877D01*
X159015570Y-95125948D01*
X159134282Y-94839352D01*
X159194800Y-94535104D01*
X159194800Y-94224896D01*
X159134282Y-93920648D01*
X159015570Y-93634052D01*
X158843227Y-93376123D01*
X158623877Y-93156773D01*
X158553876Y-93110000D01*
X158623877Y-93063227D01*
X158843227Y-92843877D01*
X159015570Y-92585948D01*
X159134282Y-92299352D01*
X159194800Y-91995104D01*
X159194800Y-91904977D01*
X160038916Y-91904977D01*
X160081973Y-92212184D01*
X160184135Y-92505086D01*
X160269277Y-92664377D01*
X160527524Y-92752871D01*
X161440395Y-91840000D01*
X160527524Y-90927129D01*
X160269277Y-91015623D01*
X160134403Y-91294976D01*
X160056619Y-91595275D01*
X160038916Y-91904977D01*
X159194800Y-91904977D01*
X159194800Y-91684896D01*
X159134282Y-91380648D01*
X159015570Y-91094052D01*
X158843227Y-90836123D01*
X158623877Y-90616773D01*
X158553876Y-90570000D01*
X158623877Y-90523227D01*
X158843227Y-90303877D01*
X159015570Y-90045948D01*
X159134282Y-89759352D01*
X159194800Y-89455104D01*
X159194800Y-89144896D01*
X159134282Y-88840648D01*
X159015570Y-88554052D01*
X158843227Y-88296123D01*
X158623877Y-88076773D01*
X158553876Y-88030000D01*
X158623877Y-87983227D01*
X158843227Y-87763877D01*
X159015570Y-87505948D01*
X159134282Y-87219352D01*
X159194800Y-86915104D01*
X159194800Y-86604896D01*
X159134282Y-86300648D01*
X159049100Y-86095000D01*
X160190900Y-86095000D01*
X160105718Y-86300648D01*
G37*
X160105718Y-86300648D02*
X160045200Y-86604896D01*
X160045200Y-86915104D01*
X160105718Y-87219352D01*
X160224430Y-87505948D01*
X160396773Y-87763877D01*
X160616123Y-87983227D01*
X160686124Y-88030000D01*
X160616123Y-88076773D01*
X160396773Y-88296123D01*
X160224430Y-88554052D01*
X160105718Y-88840648D01*
X160045200Y-89144896D01*
X160045200Y-89455104D01*
X160105718Y-89759352D01*
X160224430Y-90045948D01*
X160396773Y-90303877D01*
X160616123Y-90523227D01*
X160752714Y-90614495D01*
X160707129Y-90747524D01*
X161620000Y-91660395D01*
X161634143Y-91646253D01*
X161813748Y-91825858D01*
X161799605Y-91840000D01*
X161813748Y-91854143D01*
X161634143Y-92033748D01*
X161620000Y-92019605D01*
X160707129Y-92932476D01*
X160752714Y-93065505D01*
X160616123Y-93156773D01*
X160396773Y-93376123D01*
X160224430Y-93634052D01*
X160105718Y-93920648D01*
X160045200Y-94224896D01*
X160045200Y-94535104D01*
X160105718Y-94839352D01*
X160224430Y-95125948D01*
X160396773Y-95383877D01*
X160616123Y-95603227D01*
X160686124Y-95650000D01*
X160616123Y-95696773D01*
X160396773Y-95916123D01*
X160224430Y-96174052D01*
X160105718Y-96460648D01*
X160045200Y-96764896D01*
X160045200Y-97075104D01*
X160105718Y-97379352D01*
X160224430Y-97665948D01*
X160396773Y-97923877D01*
X160616123Y-98143227D01*
X160686124Y-98190000D01*
X160616123Y-98236773D01*
X160396773Y-98456123D01*
X160224430Y-98714052D01*
X160105718Y-99000648D01*
X160045200Y-99304896D01*
X160045200Y-99615104D01*
X160105718Y-99919352D01*
X160224430Y-100205948D01*
X160396773Y-100463877D01*
X160616123Y-100683227D01*
X160686124Y-100730000D01*
X160616123Y-100776773D01*
X160396773Y-100996123D01*
X160224430Y-101254052D01*
X160105718Y-101540648D01*
X160045200Y-101844896D01*
X160045200Y-102155104D01*
X160105718Y-102459352D01*
X160224430Y-102745948D01*
X160396773Y-103003877D01*
X160616123Y-103223227D01*
X160686124Y-103270000D01*
X160616123Y-103316773D01*
X160396773Y-103536123D01*
X160224430Y-103794052D01*
X160105718Y-104080648D01*
X160045200Y-104384896D01*
X160045200Y-104695104D01*
X160105718Y-104999352D01*
X160224430Y-105285948D01*
X160396773Y-105543877D01*
X160616123Y-105763227D01*
X160686124Y-105810000D01*
X160616123Y-105856773D01*
X160396773Y-106076123D01*
X160224430Y-106334052D01*
X160105718Y-106620648D01*
X160045200Y-106924896D01*
X160045200Y-107235104D01*
X160105718Y-107539352D01*
X160224430Y-107825948D01*
X160396773Y-108083877D01*
X160616123Y-108303227D01*
X160686124Y-108350000D01*
X160616123Y-108396773D01*
X160396773Y-108616123D01*
X160224430Y-108874052D01*
X160105718Y-109160648D01*
X160045200Y-109464896D01*
X160045200Y-109775104D01*
X160105718Y-110079352D01*
X160224430Y-110365948D01*
X160396773Y-110623877D01*
X160616123Y-110843227D01*
X160686124Y-110890000D01*
X160616123Y-110936773D01*
X160396773Y-111156123D01*
X160224430Y-111414052D01*
X160105718Y-111700648D01*
X160045200Y-112004896D01*
X160045200Y-112315104D01*
X160105718Y-112619352D01*
X160224430Y-112905948D01*
X160396773Y-113163877D01*
X160616123Y-113383227D01*
X160686124Y-113430000D01*
X160616123Y-113476773D01*
X160396773Y-113696123D01*
X160224430Y-113954052D01*
X160105718Y-114240648D01*
X160045200Y-114544896D01*
X160045200Y-114855104D01*
X160105718Y-115159352D01*
X160224430Y-115445948D01*
X160396773Y-115703877D01*
X160616123Y-115923227D01*
X160686124Y-115970000D01*
X160616123Y-116016773D01*
X160396773Y-116236123D01*
X160224430Y-116494052D01*
X160105718Y-116780648D01*
X160045200Y-117084896D01*
X160045200Y-117395104D01*
X160105718Y-117699352D01*
X160190900Y-117905000D01*
X159029100Y-117905000D01*
X159114282Y-117699352D01*
X159174800Y-117395104D01*
X159174800Y-117084896D01*
X159114282Y-116780648D01*
X158995570Y-116494052D01*
X158823227Y-116236123D01*
X158603877Y-116016773D01*
X158543876Y-115976682D01*
X158623877Y-115923227D01*
X158843227Y-115703877D01*
X159015570Y-115445948D01*
X159134282Y-115159352D01*
X159194800Y-114855104D01*
X159194800Y-114544896D01*
X159134282Y-114240648D01*
X159015570Y-113954052D01*
X158843227Y-113696123D01*
X158623877Y-113476773D01*
X158487286Y-113385505D01*
X158532871Y-113252476D01*
X157620000Y-112339605D01*
X156707129Y-113252476D01*
X156752714Y-113385505D01*
X156616123Y-113476773D01*
X156396773Y-113696123D01*
X156224430Y-113954052D01*
X156105718Y-114240648D01*
X156045200Y-114544896D01*
X156045200Y-114855104D01*
X156105718Y-115159352D01*
X156224430Y-115445948D01*
X156396773Y-115703877D01*
X156616123Y-115923227D01*
X156676124Y-115963318D01*
X156596123Y-116016773D01*
X156376773Y-116236123D01*
X156204430Y-116494052D01*
X156085718Y-116780648D01*
X156060000Y-116909943D01*
X156060000Y-116728107D01*
X156041768Y-116542997D01*
X155969720Y-116305486D01*
X155852720Y-116086595D01*
X155695265Y-115894735D01*
X155560000Y-115783727D01*
X155560000Y-112224977D01*
X156038916Y-112224977D01*
X156081973Y-112532184D01*
X156184135Y-112825086D01*
X156269277Y-112984377D01*
X156527524Y-113072871D01*
X157440395Y-112160000D01*
X157799605Y-112160000D01*
X158712476Y-113072871D01*
X158970723Y-112984377D01*
X159105597Y-112705024D01*
X159183381Y-112404725D01*
X159201084Y-112095023D01*
X159158027Y-111787816D01*
X159055865Y-111494914D01*
X158970723Y-111335623D01*
X158712476Y-111247129D01*
X157799605Y-112160000D01*
X157440395Y-112160000D01*
X156527524Y-111247129D01*
X156269277Y-111335623D01*
X156134403Y-111614976D01*
X156056619Y-111915275D01*
X156038916Y-112224977D01*
X155560000Y-112224977D01*
X155560000Y-109177775D01*
X155651013Y-109116962D01*
X155836962Y-108931013D01*
X155983061Y-108712359D01*
X156083696Y-108469405D01*
X156135000Y-108211486D01*
X156135000Y-107948514D01*
X156083696Y-107690595D01*
X155983061Y-107447641D01*
X155836962Y-107228987D01*
X155651013Y-107043038D01*
X155432359Y-106896939D01*
X155189405Y-106796304D01*
X154931486Y-106745000D01*
X154668514Y-106745000D01*
X154410595Y-106796304D01*
X154167641Y-106896939D01*
X153948987Y-107043038D01*
X153763038Y-107228987D01*
X153616939Y-107447641D01*
X153516304Y-107690595D01*
X153465000Y-107948514D01*
X153465000Y-108211486D01*
X153516304Y-108469405D01*
X153616939Y-108712359D01*
X153763038Y-108931013D01*
X153948987Y-109116962D01*
X154040000Y-109177775D01*
X154040001Y-115783726D01*
X153904735Y-115894735D01*
X153747280Y-116086596D01*
X153630280Y-116305487D01*
X153561731Y-116531464D01*
X153563072Y-116165000D01*
X153550812Y-116040518D01*
X153514502Y-115920820D01*
X153455537Y-115810506D01*
X153376185Y-115713815D01*
X153279494Y-115634463D01*
X153169180Y-115575498D01*
X153049482Y-115539188D01*
X152925000Y-115526928D01*
X152585750Y-115530000D01*
X152427000Y-115688750D01*
X152427000Y-117163000D01*
X152447000Y-117163000D01*
X152447000Y-117417000D01*
X152427000Y-117417000D01*
X152427000Y-117437000D01*
X152173000Y-117437000D01*
X152173000Y-117417000D01*
X152153000Y-117417000D01*
X152153000Y-117163000D01*
X152173000Y-117163000D01*
X152173000Y-115688750D01*
X152014250Y-115530000D01*
X151675000Y-115526928D01*
X151550518Y-115539188D01*
X151430820Y-115575498D01*
X151320506Y-115634463D01*
X151223815Y-115713815D01*
X151144463Y-115810506D01*
X151085498Y-115920820D01*
X151049188Y-116040518D01*
X151036928Y-116165000D01*
X151038269Y-116531464D01*
X150969720Y-116305486D01*
X150852720Y-116086595D01*
X150695265Y-115894735D01*
X150560000Y-115783727D01*
X150560000Y-109197775D01*
X150651013Y-109136962D01*
X150836962Y-108951013D01*
X150983061Y-108732359D01*
X151083696Y-108489405D01*
X151135000Y-108231486D01*
X151135000Y-107968514D01*
X151083696Y-107710595D01*
X150983061Y-107467641D01*
X150836962Y-107248987D01*
X150651013Y-107063038D01*
X150432359Y-106916939D01*
X150189405Y-106816304D01*
X149931486Y-106765000D01*
X149668514Y-106765000D01*
X149534999Y-106791558D01*
X149534999Y-104359802D01*
X149561156Y-104333645D01*
X149668514Y-104355000D01*
X149931486Y-104355000D01*
X150189405Y-104303696D01*
X150432359Y-104203061D01*
X150651013Y-104056962D01*
X150836962Y-103871013D01*
X150983061Y-103652359D01*
X151083696Y-103409405D01*
X151135000Y-103151486D01*
X151135000Y-102888514D01*
X151083696Y-102630595D01*
X150983061Y-102387641D01*
X150836962Y-102168987D01*
X150651013Y-101983038D01*
X150552568Y-101917260D01*
X150549003Y-101881065D01*
X150505546Y-101737804D01*
X150434974Y-101605775D01*
X150340001Y-101490050D01*
X150311004Y-101466253D01*
X148434999Y-99590249D01*
X148434999Y-99338072D01*
X150200000Y-99338072D01*
X150324482Y-99325812D01*
X150444180Y-99289502D01*
X150554494Y-99230537D01*
X150651185Y-99151185D01*
X150730537Y-99054494D01*
X150789502Y-98944180D01*
X150825812Y-98824482D01*
X150838072Y-98700000D01*
X150838072Y-95900000D01*
X150833516Y-95853740D01*
X150915000Y-95853740D01*
X150915000Y-96146260D01*
X150972068Y-96433158D01*
X151084010Y-96703411D01*
X151246525Y-96946632D01*
X151453368Y-97153475D01*
X151696589Y-97315990D01*
X151966842Y-97427932D01*
X152253740Y-97485000D01*
X152546260Y-97485000D01*
X152833158Y-97427932D01*
X153103411Y-97315990D01*
X153346632Y-97153475D01*
X153553475Y-96946632D01*
X153715990Y-96703411D01*
X153827932Y-96433158D01*
X153885000Y-96146260D01*
X153885000Y-95853740D01*
X153827932Y-95566842D01*
X153715990Y-95296589D01*
X153553475Y-95053368D01*
X153346632Y-94846525D01*
X153103411Y-94684010D01*
X152833158Y-94572068D01*
X152546260Y-94515000D01*
X152253740Y-94515000D01*
X151966842Y-94572068D01*
X151696589Y-94684010D01*
X151453368Y-94846525D01*
X151246525Y-95053368D01*
X151084010Y-95296589D01*
X150972068Y-95566842D01*
X150915000Y-95853740D01*
X150833516Y-95853740D01*
X150825812Y-95775518D01*
X150789502Y-95655820D01*
X150730537Y-95545506D01*
X150651185Y-95448815D01*
X150554494Y-95369463D01*
X150444180Y-95310498D01*
X150324482Y-95274188D01*
X150200000Y-95261928D01*
X149860000Y-95261928D01*
X149860000Y-94764801D01*
X153334924Y-91289878D01*
X153369463Y-91354494D01*
X153448815Y-91451185D01*
X153545506Y-91530537D01*
X153655820Y-91589502D01*
X153775518Y-91625812D01*
X153900000Y-91638072D01*
X156054514Y-91638072D01*
X156045200Y-91684896D01*
X156045200Y-91995104D01*
X156105718Y-92299352D01*
X156224430Y-92585948D01*
X156396773Y-92843877D01*
X156616123Y-93063227D01*
X156686124Y-93110000D01*
X156616123Y-93156773D01*
X156396773Y-93376123D01*
X156224430Y-93634052D01*
X156105718Y-93920648D01*
X156045200Y-94224896D01*
X156045200Y-94535104D01*
X156105718Y-94839352D01*
X156224430Y-95125948D01*
X156396773Y-95383877D01*
X156616123Y-95603227D01*
X156686124Y-95650000D01*
X156616123Y-95696773D01*
X156396773Y-95916123D01*
X156224430Y-96174052D01*
X156105718Y-96460648D01*
X156045200Y-96764896D01*
X156045200Y-97075104D01*
X156105718Y-97379352D01*
X156224430Y-97665948D01*
X156396773Y-97923877D01*
X156616123Y-98143227D01*
X156686124Y-98190000D01*
X156616123Y-98236773D01*
X156396773Y-98456123D01*
X156224430Y-98714052D01*
X156105718Y-99000648D01*
X156045200Y-99304896D01*
X156045200Y-99615104D01*
X156105718Y-99919352D01*
X156224430Y-100205948D01*
X156396773Y-100463877D01*
X156616123Y-100683227D01*
X156686124Y-100730000D01*
X156616123Y-100776773D01*
X156396773Y-100996123D01*
X156224430Y-101254052D01*
X156105718Y-101540648D01*
X156045200Y-101844896D01*
X156045200Y-102155104D01*
X156105718Y-102459352D01*
X156224430Y-102745948D01*
X156396773Y-103003877D01*
X156616123Y-103223227D01*
X156686124Y-103270000D01*
X156616123Y-103316773D01*
X156396773Y-103536123D01*
X156224430Y-103794052D01*
X156105718Y-104080648D01*
X156045200Y-104384896D01*
X156045200Y-104430399D01*
X155651388Y-104036587D01*
X155836962Y-103851013D01*
X155983061Y-103632359D01*
X156083696Y-103389405D01*
X156135000Y-103131486D01*
X156135000Y-102868514D01*
X156083696Y-102610595D01*
X155983061Y-102367641D01*
X155836962Y-102148987D01*
X155651013Y-101963038D01*
X155432359Y-101816939D01*
X155189405Y-101716304D01*
X154931486Y-101665000D01*
X154668514Y-101665000D01*
X154410595Y-101716304D01*
X154167641Y-101816939D01*
X153948987Y-101963038D01*
X153763038Y-102148987D01*
X153616939Y-102367641D01*
X153516304Y-102610595D01*
X153465000Y-102868514D01*
X153465000Y-103131486D01*
X153516304Y-103389405D01*
X153616939Y-103632359D01*
X153763038Y-103851013D01*
X153948987Y-104036962D01*
X154040000Y-104097775D01*
X154040000Y-104222677D01*
X154036324Y-104260000D01*
X154040000Y-104297322D01*
X154040000Y-104297332D01*
X154050997Y-104408985D01*
X154089146Y-104534747D01*
X154094454Y-104552246D01*
X154165026Y-104684276D01*
X154204463Y-104732329D01*
X154259999Y-104800001D01*
X154289003Y-104823804D01*
X156102421Y-106637223D01*
X156045200Y-106924896D01*
X156045200Y-107235104D01*
X156105718Y-107539352D01*
X156224430Y-107825948D01*
X156396773Y-108083877D01*
X156616123Y-108303227D01*
X156686124Y-108350000D01*
X156616123Y-108396773D01*
X156396773Y-108616123D01*
X156224430Y-108874052D01*
X156105718Y-109160648D01*
X156045200Y-109464896D01*
X156045200Y-109775104D01*
X156105718Y-110079352D01*
X156224430Y-110365948D01*
X156396773Y-110623877D01*
X156616123Y-110843227D01*
X156752714Y-110934495D01*
X156707129Y-111067524D01*
X157620000Y-111980395D01*
X158532871Y-111067524D01*
X158487286Y-110934495D01*
X158623877Y-110843227D01*
X158843227Y-110623877D01*
X159015570Y-110365948D01*
X159134282Y-110079352D01*
X159194800Y-109775104D01*
X159194800Y-109464896D01*
X159134282Y-109160648D01*
X159015570Y-108874052D01*
X158843227Y-108616123D01*
X158623877Y-108396773D01*
X158553876Y-108350000D01*
X158623877Y-108303227D01*
X158843227Y-108083877D01*
X159015570Y-107825948D01*
X159134282Y-107539352D01*
X159194800Y-107235104D01*
X159194800Y-106924896D01*
X159134282Y-106620648D01*
X159015570Y-106334052D01*
X158843227Y-106076123D01*
X158623877Y-105856773D01*
X158553876Y-105810000D01*
X158623877Y-105763227D01*
X158843227Y-105543877D01*
X159015570Y-105285948D01*
X159134282Y-104999352D01*
X159194800Y-104695104D01*
X159194800Y-104384896D01*
X159134282Y-104080648D01*
X159015570Y-103794052D01*
X158843227Y-103536123D01*
X158623877Y-103316773D01*
X158553876Y-103270000D01*
X158623877Y-103223227D01*
X158843227Y-103003877D01*
X159015570Y-102745948D01*
X159134282Y-102459352D01*
X159194800Y-102155104D01*
X159194800Y-101844896D01*
X159134282Y-101540648D01*
X159015570Y-101254052D01*
X158843227Y-100996123D01*
X158623877Y-100776773D01*
X158553876Y-100730000D01*
X158623877Y-100683227D01*
X158843227Y-100463877D01*
X159015570Y-100205948D01*
X159134282Y-99919352D01*
X159194800Y-99615104D01*
X159194800Y-99304896D01*
X159134282Y-99000648D01*
X159015570Y-98714052D01*
X158843227Y-98456123D01*
X158623877Y-98236773D01*
X158553876Y-98190000D01*
X158623877Y-98143227D01*
X158843227Y-97923877D01*
X159015570Y-97665948D01*
X159134282Y-97379352D01*
X159194800Y-97075104D01*
X159194800Y-96764896D01*
X159134282Y-96460648D01*
X159015570Y-96174052D01*
X158843227Y-95916123D01*
X158623877Y-95696773D01*
X158553876Y-95650000D01*
X158623877Y-95603227D01*
X158843227Y-95383877D01*
X159015570Y-95125948D01*
X159134282Y-94839352D01*
X159194800Y-94535104D01*
X159194800Y-94224896D01*
X159134282Y-93920648D01*
X159015570Y-93634052D01*
X158843227Y-93376123D01*
X158623877Y-93156773D01*
X158553876Y-93110000D01*
X158623877Y-93063227D01*
X158843227Y-92843877D01*
X159015570Y-92585948D01*
X159134282Y-92299352D01*
X159194800Y-91995104D01*
X159194800Y-91904977D01*
X160038916Y-91904977D01*
X160081973Y-92212184D01*
X160184135Y-92505086D01*
X160269277Y-92664377D01*
X160527524Y-92752871D01*
X161440395Y-91840000D01*
X160527524Y-90927129D01*
X160269277Y-91015623D01*
X160134403Y-91294976D01*
X160056619Y-91595275D01*
X160038916Y-91904977D01*
X159194800Y-91904977D01*
X159194800Y-91684896D01*
X159134282Y-91380648D01*
X159015570Y-91094052D01*
X158843227Y-90836123D01*
X158623877Y-90616773D01*
X158553876Y-90570000D01*
X158623877Y-90523227D01*
X158843227Y-90303877D01*
X159015570Y-90045948D01*
X159134282Y-89759352D01*
X159194800Y-89455104D01*
X159194800Y-89144896D01*
X159134282Y-88840648D01*
X159015570Y-88554052D01*
X158843227Y-88296123D01*
X158623877Y-88076773D01*
X158553876Y-88030000D01*
X158623877Y-87983227D01*
X158843227Y-87763877D01*
X159015570Y-87505948D01*
X159134282Y-87219352D01*
X159194800Y-86915104D01*
X159194800Y-86604896D01*
X159134282Y-86300648D01*
X159049100Y-86095000D01*
X160190900Y-86095000D01*
X160105718Y-86300648D01*
G36*
X144862421Y-106637223D02*
G01*
X144805200Y-106924896D01*
X144805200Y-107235104D01*
X144865718Y-107539352D01*
X144984430Y-107825948D01*
X145081728Y-107971564D01*
X144604197Y-108449096D01*
X144575199Y-108472894D01*
X144480225Y-108588619D01*
X144409653Y-108720648D01*
X144366196Y-108863909D01*
X144355199Y-108975562D01*
X144355199Y-108975573D01*
X144351523Y-109012895D01*
X144355199Y-109050217D01*
X144355199Y-109109999D01*
X143954826Y-109510372D01*
X143918027Y-109247816D01*
X143815865Y-108954914D01*
X143730723Y-108795623D01*
X143472476Y-108707129D01*
X142559605Y-109620000D01*
X142573748Y-109634143D01*
X142394143Y-109813748D01*
X142380000Y-109799605D01*
X141467129Y-110712476D01*
X141512714Y-110845505D01*
X141376123Y-110936773D01*
X141210001Y-111102895D01*
X141210001Y-110506306D01*
X141287524Y-110532871D01*
X142200395Y-109620000D01*
X141287524Y-108707129D01*
X141210001Y-108733694D01*
X141210001Y-108172476D01*
X141467129Y-108172476D01*
X141527961Y-108350000D01*
X141467129Y-108527524D01*
X142380000Y-109440395D01*
X143292871Y-108527524D01*
X143232039Y-108350000D01*
X143292871Y-108172476D01*
X142380000Y-107259605D01*
X141467129Y-108172476D01*
X141210001Y-108172476D01*
X141210001Y-107966306D01*
X141287524Y-107992871D01*
X142200395Y-107080000D01*
X142559605Y-107080000D01*
X143472476Y-107992871D01*
X143730723Y-107904377D01*
X143865597Y-107625024D01*
X143943381Y-107324725D01*
X143961084Y-107015023D01*
X143918027Y-106707816D01*
X143815865Y-106414914D01*
X143730723Y-106255623D01*
X143472476Y-106167129D01*
X142559605Y-107080000D01*
X142200395Y-107080000D01*
X141287524Y-106167129D01*
X141210001Y-106193694D01*
X141210001Y-105597105D01*
X141376123Y-105763227D01*
X141512714Y-105854495D01*
X141467129Y-105987524D01*
X142380000Y-106900395D01*
X143292871Y-105987524D01*
X143247286Y-105854495D01*
X143383877Y-105763227D01*
X143603227Y-105543877D01*
X143669657Y-105444458D01*
X144862421Y-106637223D01*
G37*
X144862421Y-106637223D02*
X144805200Y-106924896D01*
X144805200Y-107235104D01*
X144865718Y-107539352D01*
X144984430Y-107825948D01*
X145081728Y-107971564D01*
X144604197Y-108449096D01*
X144575199Y-108472894D01*
X144480225Y-108588619D01*
X144409653Y-108720648D01*
X144366196Y-108863909D01*
X144355199Y-108975562D01*
X144355199Y-108975573D01*
X144351523Y-109012895D01*
X144355199Y-109050217D01*
X144355199Y-109109999D01*
X143954826Y-109510372D01*
X143918027Y-109247816D01*
X143815865Y-108954914D01*
X143730723Y-108795623D01*
X143472476Y-108707129D01*
X142559605Y-109620000D01*
X142573748Y-109634143D01*
X142394143Y-109813748D01*
X142380000Y-109799605D01*
X141467129Y-110712476D01*
X141512714Y-110845505D01*
X141376123Y-110936773D01*
X141210001Y-111102895D01*
X141210001Y-110506306D01*
X141287524Y-110532871D01*
X142200395Y-109620000D01*
X141287524Y-108707129D01*
X141210001Y-108733694D01*
X141210001Y-108172476D01*
X141467129Y-108172476D01*
X141527961Y-108350000D01*
X141467129Y-108527524D01*
X142380000Y-109440395D01*
X143292871Y-108527524D01*
X143232039Y-108350000D01*
X143292871Y-108172476D01*
X142380000Y-107259605D01*
X141467129Y-108172476D01*
X141210001Y-108172476D01*
X141210001Y-107966306D01*
X141287524Y-107992871D01*
X142200395Y-107080000D01*
X142559605Y-107080000D01*
X143472476Y-107992871D01*
X143730723Y-107904377D01*
X143865597Y-107625024D01*
X143943381Y-107324725D01*
X143961084Y-107015023D01*
X143918027Y-106707816D01*
X143815865Y-106414914D01*
X143730723Y-106255623D01*
X143472476Y-106167129D01*
X142559605Y-107080000D01*
X142200395Y-107080000D01*
X141287524Y-106167129D01*
X141210001Y-106193694D01*
X141210001Y-105597105D01*
X141376123Y-105763227D01*
X141512714Y-105854495D01*
X141467129Y-105987524D01*
X142380000Y-106900395D01*
X143292871Y-105987524D01*
X143247286Y-105854495D01*
X143383877Y-105763227D01*
X143603227Y-105543877D01*
X143669657Y-105444458D01*
X144862421Y-106637223D01*
G36*
X140865718Y-86300648D02*
G01*
X140805200Y-86604896D01*
X140805200Y-86915104D01*
X140865718Y-87219352D01*
X140984430Y-87505948D01*
X141156773Y-87763877D01*
X141376123Y-87983227D01*
X141446124Y-88030000D01*
X141376123Y-88076773D01*
X141156773Y-88296123D01*
X140984430Y-88554052D01*
X140865718Y-88840648D01*
X140805200Y-89144896D01*
X140805200Y-89455104D01*
X140865718Y-89759352D01*
X140984430Y-90045948D01*
X141156773Y-90303877D01*
X141376123Y-90523227D01*
X141446124Y-90570000D01*
X141376123Y-90616773D01*
X141156773Y-90836123D01*
X140984430Y-91094052D01*
X140865718Y-91380648D01*
X140805200Y-91684896D01*
X140805200Y-91730399D01*
X139138794Y-90063993D01*
X139114991Y-90034989D01*
X138999266Y-89940016D01*
X138867237Y-89869444D01*
X138723976Y-89825987D01*
X138612323Y-89814990D01*
X138612312Y-89814990D01*
X138574990Y-89811314D01*
X138561857Y-89812607D01*
X138476250Y-89727000D01*
X137127000Y-89727000D01*
X137127000Y-89747000D01*
X136873000Y-89747000D01*
X136873000Y-89727000D01*
X135523750Y-89727000D01*
X135365000Y-89885750D01*
X135361928Y-90100000D01*
X135374188Y-90224482D01*
X135388104Y-90270355D01*
X135163988Y-90494471D01*
X135134990Y-90518269D01*
X135111192Y-90547267D01*
X135111191Y-90547268D01*
X135040016Y-90633994D01*
X134969444Y-90766024D01*
X134925988Y-90909285D01*
X134911314Y-91058270D01*
X134914991Y-91095602D01*
X134914990Y-93304407D01*
X134911314Y-93341730D01*
X134914990Y-93379052D01*
X134914990Y-93379062D01*
X134925987Y-93490715D01*
X134969337Y-93633623D01*
X134969444Y-93633976D01*
X135040016Y-93766006D01*
X135073207Y-93806449D01*
X135134989Y-93881731D01*
X135163993Y-93905534D01*
X136240001Y-94981543D01*
X136240001Y-98500736D01*
X136201971Y-98309549D01*
X136088144Y-98034747D01*
X135922893Y-97787431D01*
X135712569Y-97577107D01*
X135465253Y-97411856D01*
X135190451Y-97298029D01*
X134898722Y-97240000D01*
X134601278Y-97240000D01*
X134309999Y-97297939D01*
X134309999Y-90514802D01*
X135437776Y-89387026D01*
X135523750Y-89473000D01*
X136873000Y-89473000D01*
X136873000Y-89453000D01*
X137127000Y-89453000D01*
X137127000Y-89473000D01*
X138476250Y-89473000D01*
X138635000Y-89314250D01*
X138638072Y-89100000D01*
X138625812Y-88975518D01*
X138589502Y-88855820D01*
X138530537Y-88745506D01*
X138451185Y-88648815D01*
X138442001Y-88641278D01*
X138448284Y-88633623D01*
X138553676Y-88436447D01*
X138618577Y-88222499D01*
X138640491Y-88000000D01*
X138618577Y-87777501D01*
X138553676Y-87563553D01*
X138448284Y-87366377D01*
X138306449Y-87193551D01*
X138133623Y-87051716D01*
X137936447Y-86946324D01*
X137722499Y-86881423D01*
X137555752Y-86865000D01*
X136444248Y-86865000D01*
X136277501Y-86881423D01*
X136063553Y-86946324D01*
X135866377Y-87051716D01*
X135693551Y-87193551D01*
X135650398Y-87246133D01*
X135601014Y-87250997D01*
X135457753Y-87294454D01*
X135325724Y-87365026D01*
X135209999Y-87459999D01*
X135186201Y-87488997D01*
X133695000Y-88980199D01*
X133695000Y-86433992D01*
X133704078Y-86341405D01*
X133721094Y-86285045D01*
X133748737Y-86233057D01*
X133785943Y-86187437D01*
X133831311Y-86149905D01*
X133883095Y-86121906D01*
X133939341Y-86104495D01*
X134029676Y-86095000D01*
X140950900Y-86095000D01*
X140865718Y-86300648D01*
G37*
X140865718Y-86300648D02*
X140805200Y-86604896D01*
X140805200Y-86915104D01*
X140865718Y-87219352D01*
X140984430Y-87505948D01*
X141156773Y-87763877D01*
X141376123Y-87983227D01*
X141446124Y-88030000D01*
X141376123Y-88076773D01*
X141156773Y-88296123D01*
X140984430Y-88554052D01*
X140865718Y-88840648D01*
X140805200Y-89144896D01*
X140805200Y-89455104D01*
X140865718Y-89759352D01*
X140984430Y-90045948D01*
X141156773Y-90303877D01*
X141376123Y-90523227D01*
X141446124Y-90570000D01*
X141376123Y-90616773D01*
X141156773Y-90836123D01*
X140984430Y-91094052D01*
X140865718Y-91380648D01*
X140805200Y-91684896D01*
X140805200Y-91730399D01*
X139138794Y-90063993D01*
X139114991Y-90034989D01*
X138999266Y-89940016D01*
X138867237Y-89869444D01*
X138723976Y-89825987D01*
X138612323Y-89814990D01*
X138612312Y-89814990D01*
X138574990Y-89811314D01*
X138561857Y-89812607D01*
X138476250Y-89727000D01*
X137127000Y-89727000D01*
X137127000Y-89747000D01*
X136873000Y-89747000D01*
X136873000Y-89727000D01*
X135523750Y-89727000D01*
X135365000Y-89885750D01*
X135361928Y-90100000D01*
X135374188Y-90224482D01*
X135388104Y-90270355D01*
X135163988Y-90494471D01*
X135134990Y-90518269D01*
X135111192Y-90547267D01*
X135111191Y-90547268D01*
X135040016Y-90633994D01*
X134969444Y-90766024D01*
X134925988Y-90909285D01*
X134911314Y-91058270D01*
X134914991Y-91095602D01*
X134914990Y-93304407D01*
X134911314Y-93341730D01*
X134914990Y-93379052D01*
X134914990Y-93379062D01*
X134925987Y-93490715D01*
X134969337Y-93633623D01*
X134969444Y-93633976D01*
X135040016Y-93766006D01*
X135073207Y-93806449D01*
X135134989Y-93881731D01*
X135163993Y-93905534D01*
X136240001Y-94981543D01*
X136240001Y-98500736D01*
X136201971Y-98309549D01*
X136088144Y-98034747D01*
X135922893Y-97787431D01*
X135712569Y-97577107D01*
X135465253Y-97411856D01*
X135190451Y-97298029D01*
X134898722Y-97240000D01*
X134601278Y-97240000D01*
X134309999Y-97297939D01*
X134309999Y-90514802D01*
X135437776Y-89387026D01*
X135523750Y-89473000D01*
X136873000Y-89473000D01*
X136873000Y-89453000D01*
X137127000Y-89453000D01*
X137127000Y-89473000D01*
X138476250Y-89473000D01*
X138635000Y-89314250D01*
X138638072Y-89100000D01*
X138625812Y-88975518D01*
X138589502Y-88855820D01*
X138530537Y-88745506D01*
X138451185Y-88648815D01*
X138442001Y-88641278D01*
X138448284Y-88633623D01*
X138553676Y-88436447D01*
X138618577Y-88222499D01*
X138640491Y-88000000D01*
X138618577Y-87777501D01*
X138553676Y-87563553D01*
X138448284Y-87366377D01*
X138306449Y-87193551D01*
X138133623Y-87051716D01*
X137936447Y-86946324D01*
X137722499Y-86881423D01*
X137555752Y-86865000D01*
X136444248Y-86865000D01*
X136277501Y-86881423D01*
X136063553Y-86946324D01*
X135866377Y-87051716D01*
X135693551Y-87193551D01*
X135650398Y-87246133D01*
X135601014Y-87250997D01*
X135457753Y-87294454D01*
X135325724Y-87365026D01*
X135209999Y-87459999D01*
X135186201Y-87488997D01*
X133695000Y-88980199D01*
X133695000Y-86433992D01*
X133704078Y-86341405D01*
X133721094Y-86285045D01*
X133748737Y-86233057D01*
X133785943Y-86187437D01*
X133831311Y-86149905D01*
X133883095Y-86121906D01*
X133939341Y-86104495D01*
X134029676Y-86095000D01*
X140950900Y-86095000D01*
X140865718Y-86300648D01*
G36*
X146573748Y-96905858D02*
G01*
X146559605Y-96920000D01*
X146573748Y-96934143D01*
X146394143Y-97113748D01*
X146380000Y-97099605D01*
X146365858Y-97113748D01*
X146186253Y-96934143D01*
X146200395Y-96920000D01*
X146186253Y-96905858D01*
X146365858Y-96726253D01*
X146380000Y-96740395D01*
X146394143Y-96726253D01*
X146573748Y-96905858D01*
G37*
X146573748Y-96905858D02*
X146559605Y-96920000D01*
X146573748Y-96934143D01*
X146394143Y-97113748D01*
X146380000Y-97099605D01*
X146365858Y-97113748D01*
X146186253Y-96934143D01*
X146200395Y-96920000D01*
X146186253Y-96905858D01*
X146365858Y-96726253D01*
X146380000Y-96740395D01*
X146394143Y-96726253D01*
X146573748Y-96905858D01*
G36*
X146573748Y-94365858D02*
G01*
X146559605Y-94380000D01*
X146573748Y-94394143D01*
X146394143Y-94573748D01*
X146380000Y-94559605D01*
X146365858Y-94573748D01*
X146186253Y-94394143D01*
X146200395Y-94380000D01*
X146186253Y-94365858D01*
X146365858Y-94186253D01*
X146380000Y-94200395D01*
X146394143Y-94186253D01*
X146573748Y-94365858D01*
G37*
X146573748Y-94365858D02*
X146559605Y-94380000D01*
X146573748Y-94394143D01*
X146394143Y-94573748D01*
X146380000Y-94559605D01*
X146365858Y-94573748D01*
X146186253Y-94394143D01*
X146200395Y-94380000D01*
X146186253Y-94365858D01*
X146365858Y-94186253D01*
X146380000Y-94200395D01*
X146394143Y-94186253D01*
X146573748Y-94365858D01*
G36*
X156105718Y-86300648D02*
G01*
X156045200Y-86604896D01*
X156045200Y-86915104D01*
X156105718Y-87219352D01*
X156224430Y-87505948D01*
X156396773Y-87763877D01*
X156616123Y-87983227D01*
X156686124Y-88030000D01*
X156616123Y-88076773D01*
X156434252Y-88258644D01*
X156344180Y-88210498D01*
X156224482Y-88174188D01*
X156100000Y-88161928D01*
X153900000Y-88161928D01*
X153775518Y-88174188D01*
X153658020Y-88209831D01*
X153553475Y-88053368D01*
X153346632Y-87846525D01*
X153103411Y-87684010D01*
X152833158Y-87572068D01*
X152546260Y-87515000D01*
X152253740Y-87515000D01*
X151966842Y-87572068D01*
X151696589Y-87684010D01*
X151453368Y-87846525D01*
X151246525Y-88053368D01*
X151084010Y-88296589D01*
X150972068Y-88566842D01*
X150915000Y-88853740D01*
X150915000Y-89146260D01*
X150972068Y-89433158D01*
X151084010Y-89703411D01*
X151246525Y-89946632D01*
X151453368Y-90153475D01*
X151696589Y-90315990D01*
X151966842Y-90427932D01*
X152033923Y-90441275D01*
X149860000Y-92615199D01*
X149860000Y-90937325D01*
X149863676Y-90900000D01*
X149860000Y-90862675D01*
X149860000Y-90862667D01*
X149849003Y-90751014D01*
X149805546Y-90607753D01*
X149734974Y-90475724D01*
X149640001Y-90359999D01*
X149611003Y-90336201D01*
X148862026Y-89587224D01*
X148973000Y-89476250D01*
X148973000Y-88027000D01*
X149227000Y-88027000D01*
X149227000Y-89476250D01*
X149385750Y-89635000D01*
X150200000Y-89638072D01*
X150324482Y-89625812D01*
X150444180Y-89589502D01*
X150554494Y-89530537D01*
X150651185Y-89451185D01*
X150730537Y-89354494D01*
X150789502Y-89244180D01*
X150825812Y-89124482D01*
X150838072Y-89000000D01*
X150835000Y-88185750D01*
X150676250Y-88027000D01*
X149227000Y-88027000D01*
X148973000Y-88027000D01*
X148953000Y-88027000D01*
X148953000Y-87773000D01*
X148973000Y-87773000D01*
X148973000Y-86323750D01*
X149227000Y-86323750D01*
X149227000Y-87773000D01*
X150676250Y-87773000D01*
X150835000Y-87614250D01*
X150838072Y-86800000D01*
X150825812Y-86675518D01*
X150789502Y-86555820D01*
X150730537Y-86445506D01*
X150651185Y-86348815D01*
X150554494Y-86269463D01*
X150444180Y-86210498D01*
X150324482Y-86174188D01*
X150200000Y-86161928D01*
X149385750Y-86165000D01*
X149227000Y-86323750D01*
X148973000Y-86323750D01*
X148814250Y-86165000D01*
X148000000Y-86161928D01*
X147875518Y-86174188D01*
X147845653Y-86183247D01*
X147809100Y-86095000D01*
X156190900Y-86095000D01*
X156105718Y-86300648D01*
G37*
X156105718Y-86300648D02*
X156045200Y-86604896D01*
X156045200Y-86915104D01*
X156105718Y-87219352D01*
X156224430Y-87505948D01*
X156396773Y-87763877D01*
X156616123Y-87983227D01*
X156686124Y-88030000D01*
X156616123Y-88076773D01*
X156434252Y-88258644D01*
X156344180Y-88210498D01*
X156224482Y-88174188D01*
X156100000Y-88161928D01*
X153900000Y-88161928D01*
X153775518Y-88174188D01*
X153658020Y-88209831D01*
X153553475Y-88053368D01*
X153346632Y-87846525D01*
X153103411Y-87684010D01*
X152833158Y-87572068D01*
X152546260Y-87515000D01*
X152253740Y-87515000D01*
X151966842Y-87572068D01*
X151696589Y-87684010D01*
X151453368Y-87846525D01*
X151246525Y-88053368D01*
X151084010Y-88296589D01*
X150972068Y-88566842D01*
X150915000Y-88853740D01*
X150915000Y-89146260D01*
X150972068Y-89433158D01*
X151084010Y-89703411D01*
X151246525Y-89946632D01*
X151453368Y-90153475D01*
X151696589Y-90315990D01*
X151966842Y-90427932D01*
X152033923Y-90441275D01*
X149860000Y-92615199D01*
X149860000Y-90937325D01*
X149863676Y-90900000D01*
X149860000Y-90862675D01*
X149860000Y-90862667D01*
X149849003Y-90751014D01*
X149805546Y-90607753D01*
X149734974Y-90475724D01*
X149640001Y-90359999D01*
X149611003Y-90336201D01*
X148862026Y-89587224D01*
X148973000Y-89476250D01*
X148973000Y-88027000D01*
X149227000Y-88027000D01*
X149227000Y-89476250D01*
X149385750Y-89635000D01*
X150200000Y-89638072D01*
X150324482Y-89625812D01*
X150444180Y-89589502D01*
X150554494Y-89530537D01*
X150651185Y-89451185D01*
X150730537Y-89354494D01*
X150789502Y-89244180D01*
X150825812Y-89124482D01*
X150838072Y-89000000D01*
X150835000Y-88185750D01*
X150676250Y-88027000D01*
X149227000Y-88027000D01*
X148973000Y-88027000D01*
X148953000Y-88027000D01*
X148953000Y-87773000D01*
X148973000Y-87773000D01*
X148973000Y-86323750D01*
X149227000Y-86323750D01*
X149227000Y-87773000D01*
X150676250Y-87773000D01*
X150835000Y-87614250D01*
X150838072Y-86800000D01*
X150825812Y-86675518D01*
X150789502Y-86555820D01*
X150730537Y-86445506D01*
X150651185Y-86348815D01*
X150554494Y-86269463D01*
X150444180Y-86210498D01*
X150324482Y-86174188D01*
X150200000Y-86161928D01*
X149385750Y-86165000D01*
X149227000Y-86323750D01*
X148973000Y-86323750D01*
X148814250Y-86165000D01*
X148000000Y-86161928D01*
X147875518Y-86174188D01*
X147845653Y-86183247D01*
X147809100Y-86095000D01*
X156190900Y-86095000D01*
X156105718Y-86300648D01*
M02*
