M48
; DRILL file {KiCad (5.1.5-0-10_14)} date Wednesday, 13 May 2020 at 01:35:39
; FORMAT={-:-/ absolute / inch / decimal}
; #@! TF.CreationDate,2020-05-13T01:35:39-07:00
; #@! TF.GenerationSoftware,Kicad,Pcbnew,(5.1.5-0-10_14)
FMAT,2
INCH
T1C0.0157
T2C0.0276
T3C0.0315
T4C0.0319
T5C0.0320
T6C0.0400
T7C0.0400
T8C0.0669
%
G90
G05
T1
X5.3504Y-4.2362
X5.937Y-3.7165
T2
X5.8976Y-4.0559
X5.8976Y-4.2559
X6.0945Y-4.0551
X6.0945Y-4.2551
T3
X5.8701Y-3.4606
X5.8701Y-3.8307
X6.1024Y-3.5394
X5.3051Y-3.8878
X5.3051Y-4.1437
X5.4823Y-3.8878
X5.4823Y-4.1437
X6.0945Y-4.6177
T4
X5.8976Y-4.6177
X5.9961Y-4.6177
T5
X5.3937Y-3.4646
X5.3937Y-3.5276
X5.3937Y-3.5984
X5.3937Y-3.6614
X5.3937Y-4.374
X5.3937Y-4.437
X5.3937Y-4.5079
X5.3937Y-4.5709
T6
X5.763Y-3.5157
X5.763Y-3.6157
X5.763Y-3.7157
X5.763Y-3.8157
X5.763Y-3.9157
X5.763Y-4.0157
X5.763Y-4.1157
X5.763Y-4.2157
X5.763Y-4.3157
X5.763Y-4.4157
X5.763Y-4.5157
X5.763Y-4.6157
X6.363Y-3.5157
X6.363Y-3.6157
X6.363Y-3.7157
X6.363Y-3.8157
X6.363Y-3.9157
X6.363Y-4.0157
X6.363Y-4.1157
X6.363Y-4.2157
X6.363Y-4.3157
X6.363Y-4.4157
X6.363Y-4.5157
X6.363Y-4.6157
X5.6055Y-3.4157
X5.6055Y-3.5157
X5.6055Y-3.6157
X5.6055Y-3.7157
X5.6055Y-3.8157
X5.6055Y-3.9157
X5.6055Y-4.0157
X5.6055Y-4.1157
X5.6055Y-4.2157
X5.6055Y-4.3157
X5.6055Y-4.4157
X5.6055Y-4.5157
X6.2055Y-3.4157
X6.2055Y-3.5157
X6.2055Y-3.6157
X6.2055Y-3.7157
X6.2055Y-3.8157
X6.2055Y-3.9157
X6.2055Y-4.0157
X6.2055Y-4.1157
X6.2055Y-4.2157
X6.2055Y-4.3157
X6.2055Y-4.4157
X6.2055Y-4.5157
T7
X5.763Y-3.4157
X6.2047Y-4.6157
X6.363Y-3.4157
X5.6055Y-4.6157
T8
X6.0Y-3.5039
X6.0Y-3.7795
T0
M30
