G04 #@! TF.GenerationSoftware,KiCad,Pcbnew,(5.1.5-0-10_14)*
G04 #@! TF.CreationDate,2020-05-13T01:35:36-07:00*
G04 #@! TF.ProjectId,prost-pcb,70726f73-742d-4706-9362-2e6b69636164,0.1.0*
G04 #@! TF.SameCoordinates,Original*
G04 #@! TF.FileFunction,Copper,L2,Bot*
G04 #@! TF.FilePolarity,Positive*
%FSLAX46Y46*%
G04 Gerber Fmt 4.6, Leading zero omitted, Abs format (unit mm)*
G04 Created by KiCad (PCBNEW (5.1.5-0-10_14)) date 2020-05-13 01:35:36*
%MOMM*%
%LPD*%
G04 APERTURE LIST*
%ADD10C,1.879600*%
%ADD11R,2.200000X2.200000*%
%ADD12R,2.200000X2.800000*%
%ADD13O,1.400000X1.400000*%
%ADD14C,1.400000*%
%ADD15O,1.250000X2.250000*%
%ADD16R,1.250000X2.250000*%
%ADD17O,2.000000X1.000000*%
%ADD18R,2.000000X1.000000*%
%ADD19C,1.750000*%
%ADD20C,0.800000*%
%ADD21C,0.250000*%
%ADD22C,0.254000*%
G04 APERTURE END LIST*
D10*
X157600000Y-117240000D03*
X142380000Y-117240000D03*
D11*
X155000000Y-89900000D03*
D12*
X149100000Y-97300000D03*
D11*
X149100000Y-87900000D03*
D13*
X149800000Y-103020000D03*
D14*
X149800000Y-108100000D03*
D13*
X154800000Y-108080000D03*
D14*
X154800000Y-103000000D03*
D15*
X149800000Y-117290000D03*
X154800000Y-117290000D03*
D16*
X152300000Y-117290000D03*
D10*
X157620000Y-114700000D03*
X157620000Y-112160000D03*
X157620000Y-109620000D03*
X157620000Y-107080000D03*
X157620000Y-104540000D03*
X157620000Y-102000000D03*
X157620000Y-99460000D03*
X157620000Y-96920000D03*
X157620000Y-94380000D03*
X157620000Y-91840000D03*
X157620000Y-89300000D03*
X157620000Y-86760000D03*
X142380000Y-86760000D03*
X142380000Y-89300000D03*
X142380000Y-91840000D03*
X142380000Y-94380000D03*
X142380000Y-96920000D03*
X142380000Y-99460000D03*
X142380000Y-102000000D03*
X142380000Y-104540000D03*
X142380000Y-107080000D03*
X142380000Y-109620000D03*
X142380000Y-112160000D03*
X142380000Y-114700000D03*
X161620000Y-86760000D03*
X161620000Y-89300000D03*
X161620000Y-91840000D03*
X161620000Y-94380000D03*
X161620000Y-96920000D03*
X161620000Y-99460000D03*
X161620000Y-102000000D03*
X161620000Y-104540000D03*
X161620000Y-107080000D03*
X161620000Y-109620000D03*
X161620000Y-112160000D03*
X161620000Y-114700000D03*
X161620000Y-117240000D03*
X146380000Y-117240000D03*
X146380000Y-114700000D03*
X146380000Y-112160000D03*
X146380000Y-109620000D03*
X146380000Y-107080000D03*
X146380000Y-104540000D03*
X146380000Y-102000000D03*
X146380000Y-99460000D03*
X146380000Y-96920000D03*
X146380000Y-94380000D03*
X146380000Y-91840000D03*
X146380000Y-89300000D03*
X146380000Y-86760000D03*
D17*
X137000000Y-111100000D03*
X137000000Y-116100000D03*
X137000000Y-114500000D03*
D18*
X137000000Y-112700000D03*
D17*
X137000000Y-88000000D03*
X137000000Y-93000000D03*
X137000000Y-91400000D03*
D18*
X137000000Y-89600000D03*
D19*
X139250000Y-98750000D03*
X139250000Y-105250000D03*
X134750000Y-98750000D03*
X134750000Y-105250000D03*
D20*
X135900000Y-107600000D03*
X150800000Y-94400000D03*
D21*
X133549999Y-104673999D02*
X133549999Y-113899999D01*
X136076002Y-103700000D02*
X134523998Y-103700000D01*
X135750000Y-116100000D02*
X137000000Y-116100000D01*
X133549999Y-113899999D02*
X135750000Y-116100000D01*
X134523998Y-103700000D02*
X133549999Y-104673999D01*
X141440201Y-98335801D02*
X136076002Y-103700000D01*
X141440201Y-97859799D02*
X141440201Y-98335801D01*
X142380000Y-96920000D02*
X141440201Y-97859799D01*
X136644801Y-108344801D02*
X135900000Y-107600000D01*
X145104801Y-108344801D02*
X136644801Y-108344801D01*
X146380000Y-109620000D02*
X145104801Y-108344801D01*
X147750000Y-87900000D02*
X149100000Y-87900000D01*
X140208094Y-89600000D02*
X141772895Y-88035199D01*
X137000000Y-89600000D02*
X140208094Y-89600000D01*
X140384801Y-93115199D02*
X134750000Y-98750000D01*
X160355199Y-93115199D02*
X140384801Y-93115199D01*
X161620000Y-94380000D02*
X160355199Y-93115199D01*
X156680201Y-108680201D02*
X157620000Y-109620000D01*
X156680201Y-108443199D02*
X156680201Y-108680201D01*
X141772895Y-105815199D02*
X154052201Y-105815199D01*
X154052201Y-105815199D02*
X156680201Y-108443199D01*
X135950001Y-106450001D02*
X141138093Y-106450001D01*
X141138093Y-106450001D02*
X141772895Y-105815199D01*
X134750000Y-105250000D02*
X135950001Y-106450001D01*
X160680201Y-90900201D02*
X161620000Y-91840000D01*
X150450000Y-87900000D02*
X150525001Y-87824999D01*
X149100000Y-87900000D02*
X150450000Y-87900000D01*
X146400000Y-94400000D02*
X146380000Y-94380000D01*
X150800000Y-94400000D02*
X146400000Y-94400000D01*
X139250000Y-97512564D02*
X139250000Y-98750000D01*
X141117763Y-95644801D02*
X139250000Y-97512564D01*
X145115199Y-95644801D02*
X141117763Y-95644801D01*
X146380000Y-94380000D02*
X145115199Y-95644801D01*
X147614801Y-88035199D02*
X147750000Y-87900000D01*
X141772895Y-88035199D02*
X147614801Y-88035199D01*
X159800000Y-90020000D02*
X161620000Y-91840000D01*
X157135199Y-88035199D02*
X159235199Y-88035199D01*
X153724999Y-87824999D02*
X156924999Y-87824999D01*
X153200000Y-87300000D02*
X153724999Y-87824999D01*
X159235199Y-88035199D02*
X159800000Y-88600000D01*
X151500000Y-87300000D02*
X153200000Y-87300000D01*
X159800000Y-88600000D02*
X159800000Y-90020000D01*
X150900000Y-87900000D02*
X151500000Y-87300000D01*
X156924999Y-87824999D02*
X157135199Y-88035199D01*
X149100000Y-87900000D02*
X150900000Y-87900000D01*
D22*
G36*
X160102421Y-93937222D02*
G01*
X160045200Y-94224896D01*
X160045200Y-94535104D01*
X160105718Y-94839352D01*
X160224430Y-95125948D01*
X160396773Y-95383877D01*
X160616123Y-95603227D01*
X160686124Y-95650000D01*
X160616123Y-95696773D01*
X160396773Y-95916123D01*
X160224430Y-96174052D01*
X160105718Y-96460648D01*
X160045200Y-96764896D01*
X160045200Y-97075104D01*
X160105718Y-97379352D01*
X160224430Y-97665948D01*
X160396773Y-97923877D01*
X160616123Y-98143227D01*
X160686124Y-98190000D01*
X160616123Y-98236773D01*
X160396773Y-98456123D01*
X160224430Y-98714052D01*
X160105718Y-99000648D01*
X160045200Y-99304896D01*
X160045200Y-99615104D01*
X160105718Y-99919352D01*
X160224430Y-100205948D01*
X160396773Y-100463877D01*
X160616123Y-100683227D01*
X160686124Y-100730000D01*
X160616123Y-100776773D01*
X160396773Y-100996123D01*
X160224430Y-101254052D01*
X160105718Y-101540648D01*
X160045200Y-101844896D01*
X160045200Y-102155104D01*
X160105718Y-102459352D01*
X160224430Y-102745948D01*
X160396773Y-103003877D01*
X160616123Y-103223227D01*
X160686124Y-103270000D01*
X160616123Y-103316773D01*
X160396773Y-103536123D01*
X160224430Y-103794052D01*
X160105718Y-104080648D01*
X160045200Y-104384896D01*
X160045200Y-104695104D01*
X160105718Y-104999352D01*
X160224430Y-105285948D01*
X160396773Y-105543877D01*
X160616123Y-105763227D01*
X160686124Y-105810000D01*
X160616123Y-105856773D01*
X160396773Y-106076123D01*
X160224430Y-106334052D01*
X160105718Y-106620648D01*
X160045200Y-106924896D01*
X160045200Y-107235104D01*
X160105718Y-107539352D01*
X160224430Y-107825948D01*
X160396773Y-108083877D01*
X160616123Y-108303227D01*
X160686124Y-108350000D01*
X160616123Y-108396773D01*
X160396773Y-108616123D01*
X160224430Y-108874052D01*
X160105718Y-109160648D01*
X160045200Y-109464896D01*
X160045200Y-109775104D01*
X160105718Y-110079352D01*
X160224430Y-110365948D01*
X160396773Y-110623877D01*
X160616123Y-110843227D01*
X160686124Y-110890000D01*
X160616123Y-110936773D01*
X160396773Y-111156123D01*
X160224430Y-111414052D01*
X160105718Y-111700648D01*
X160045200Y-112004896D01*
X160045200Y-112315104D01*
X160105718Y-112619352D01*
X160224430Y-112905948D01*
X160396773Y-113163877D01*
X160616123Y-113383227D01*
X160686124Y-113430000D01*
X160616123Y-113476773D01*
X160396773Y-113696123D01*
X160224430Y-113954052D01*
X160105718Y-114240648D01*
X160045200Y-114544896D01*
X160045200Y-114855104D01*
X160105718Y-115159352D01*
X160224430Y-115445948D01*
X160396773Y-115703877D01*
X160616123Y-115923227D01*
X160686124Y-115970000D01*
X160616123Y-116016773D01*
X160396773Y-116236123D01*
X160224430Y-116494052D01*
X160105718Y-116780648D01*
X160045200Y-117084896D01*
X160045200Y-117395104D01*
X160105718Y-117699352D01*
X160190900Y-117905000D01*
X159029100Y-117905000D01*
X159114282Y-117699352D01*
X159174800Y-117395104D01*
X159174800Y-117084896D01*
X159114282Y-116780648D01*
X158995570Y-116494052D01*
X158823227Y-116236123D01*
X158603877Y-116016773D01*
X158543876Y-115976682D01*
X158623877Y-115923227D01*
X158843227Y-115703877D01*
X159015570Y-115445948D01*
X159134282Y-115159352D01*
X159194800Y-114855104D01*
X159194800Y-114544896D01*
X159134282Y-114240648D01*
X159015570Y-113954052D01*
X158843227Y-113696123D01*
X158623877Y-113476773D01*
X158487286Y-113385505D01*
X158532871Y-113252476D01*
X157620000Y-112339605D01*
X156707129Y-113252476D01*
X156752714Y-113385505D01*
X156616123Y-113476773D01*
X156396773Y-113696123D01*
X156224430Y-113954052D01*
X156105718Y-114240648D01*
X156045200Y-114544896D01*
X156045200Y-114855104D01*
X156105718Y-115159352D01*
X156224430Y-115445948D01*
X156396773Y-115703877D01*
X156616123Y-115923227D01*
X156676124Y-115963318D01*
X156596123Y-116016773D01*
X156376773Y-116236123D01*
X156204430Y-116494052D01*
X156085718Y-116780648D01*
X156060000Y-116909943D01*
X156060000Y-116728107D01*
X156041768Y-116542997D01*
X155969720Y-116305486D01*
X155852720Y-116086595D01*
X155695265Y-115894735D01*
X155503404Y-115737280D01*
X155284513Y-115620280D01*
X155047002Y-115548232D01*
X154800000Y-115523904D01*
X154552997Y-115548232D01*
X154315486Y-115620280D01*
X154096595Y-115737280D01*
X153904735Y-115894735D01*
X153747280Y-116086596D01*
X153630280Y-116305487D01*
X153561731Y-116531464D01*
X153563072Y-116165000D01*
X153550812Y-116040518D01*
X153514502Y-115920820D01*
X153455537Y-115810506D01*
X153376185Y-115713815D01*
X153279494Y-115634463D01*
X153169180Y-115575498D01*
X153049482Y-115539188D01*
X152925000Y-115526928D01*
X152585750Y-115530000D01*
X152427000Y-115688750D01*
X152427000Y-117163000D01*
X152447000Y-117163000D01*
X152447000Y-117417000D01*
X152427000Y-117417000D01*
X152427000Y-117437000D01*
X152173000Y-117437000D01*
X152173000Y-117417000D01*
X152153000Y-117417000D01*
X152153000Y-117163000D01*
X152173000Y-117163000D01*
X152173000Y-115688750D01*
X152014250Y-115530000D01*
X151675000Y-115526928D01*
X151550518Y-115539188D01*
X151430820Y-115575498D01*
X151320506Y-115634463D01*
X151223815Y-115713815D01*
X151144463Y-115810506D01*
X151085498Y-115920820D01*
X151049188Y-116040518D01*
X151036928Y-116165000D01*
X151038269Y-116531464D01*
X150969720Y-116305486D01*
X150852720Y-116086595D01*
X150695265Y-115894735D01*
X150503404Y-115737280D01*
X150284513Y-115620280D01*
X150047002Y-115548232D01*
X149800000Y-115523904D01*
X149552997Y-115548232D01*
X149315486Y-115620280D01*
X149096595Y-115737280D01*
X148904735Y-115894735D01*
X148747280Y-116086596D01*
X148630280Y-116305487D01*
X148558232Y-116542998D01*
X148540000Y-116728108D01*
X148540000Y-117851893D01*
X148545231Y-117905000D01*
X147809100Y-117905000D01*
X147894282Y-117699352D01*
X147954800Y-117395104D01*
X147954800Y-117084896D01*
X147894282Y-116780648D01*
X147775570Y-116494052D01*
X147603227Y-116236123D01*
X147383877Y-116016773D01*
X147313876Y-115970000D01*
X147383877Y-115923227D01*
X147603227Y-115703877D01*
X147775570Y-115445948D01*
X147894282Y-115159352D01*
X147954800Y-114855104D01*
X147954800Y-114544896D01*
X147894282Y-114240648D01*
X147775570Y-113954052D01*
X147603227Y-113696123D01*
X147383877Y-113476773D01*
X147313876Y-113430000D01*
X147383877Y-113383227D01*
X147603227Y-113163877D01*
X147775570Y-112905948D01*
X147894282Y-112619352D01*
X147954800Y-112315104D01*
X147954800Y-112224977D01*
X156038916Y-112224977D01*
X156081973Y-112532184D01*
X156184135Y-112825086D01*
X156269277Y-112984377D01*
X156527524Y-113072871D01*
X157440395Y-112160000D01*
X157799605Y-112160000D01*
X158712476Y-113072871D01*
X158970723Y-112984377D01*
X159105597Y-112705024D01*
X159183381Y-112404725D01*
X159201084Y-112095023D01*
X159158027Y-111787816D01*
X159055865Y-111494914D01*
X158970723Y-111335623D01*
X158712476Y-111247129D01*
X157799605Y-112160000D01*
X157440395Y-112160000D01*
X156527524Y-111247129D01*
X156269277Y-111335623D01*
X156134403Y-111614976D01*
X156056619Y-111915275D01*
X156038916Y-112224977D01*
X147954800Y-112224977D01*
X147954800Y-112004896D01*
X147894282Y-111700648D01*
X147775570Y-111414052D01*
X147603227Y-111156123D01*
X147383877Y-110936773D01*
X147313876Y-110890000D01*
X147383877Y-110843227D01*
X147603227Y-110623877D01*
X147775570Y-110365948D01*
X147894282Y-110079352D01*
X147954800Y-109775104D01*
X147954800Y-109464896D01*
X147894282Y-109160648D01*
X147775570Y-108874052D01*
X147603227Y-108616123D01*
X147383877Y-108396773D01*
X147313876Y-108350000D01*
X147383877Y-108303227D01*
X147603227Y-108083877D01*
X147680310Y-107968514D01*
X148465000Y-107968514D01*
X148465000Y-108231486D01*
X148516304Y-108489405D01*
X148616939Y-108732359D01*
X148763038Y-108951013D01*
X148948987Y-109136962D01*
X149167641Y-109283061D01*
X149410595Y-109383696D01*
X149668514Y-109435000D01*
X149931486Y-109435000D01*
X150189405Y-109383696D01*
X150432359Y-109283061D01*
X150651013Y-109136962D01*
X150836962Y-108951013D01*
X150983061Y-108732359D01*
X151083696Y-108489405D01*
X151135000Y-108231486D01*
X151135000Y-107968514D01*
X151083696Y-107710595D01*
X150983061Y-107467641D01*
X150836962Y-107248987D01*
X150651013Y-107063038D01*
X150432359Y-106916939D01*
X150189405Y-106816304D01*
X149931486Y-106765000D01*
X149668514Y-106765000D01*
X149410595Y-106816304D01*
X149167641Y-106916939D01*
X148948987Y-107063038D01*
X148763038Y-107248987D01*
X148616939Y-107467641D01*
X148516304Y-107710595D01*
X148465000Y-107968514D01*
X147680310Y-107968514D01*
X147775570Y-107825948D01*
X147894282Y-107539352D01*
X147954800Y-107235104D01*
X147954800Y-106924896D01*
X147894282Y-106620648D01*
X147875456Y-106575199D01*
X153737400Y-106575199D01*
X154102599Y-106940398D01*
X153948987Y-107043038D01*
X153763038Y-107228987D01*
X153616939Y-107447641D01*
X153516304Y-107690595D01*
X153465000Y-107948514D01*
X153465000Y-108211486D01*
X153516304Y-108469405D01*
X153616939Y-108712359D01*
X153763038Y-108931013D01*
X153948987Y-109116962D01*
X154167641Y-109263061D01*
X154410595Y-109363696D01*
X154668514Y-109415000D01*
X154931486Y-109415000D01*
X155189405Y-109363696D01*
X155432359Y-109263061D01*
X155651013Y-109116962D01*
X155836962Y-108931013D01*
X155927832Y-108795015D01*
X155931198Y-108829187D01*
X155974655Y-108972448D01*
X156045227Y-109104477D01*
X156102910Y-109174764D01*
X156045200Y-109464896D01*
X156045200Y-109775104D01*
X156105718Y-110079352D01*
X156224430Y-110365948D01*
X156396773Y-110623877D01*
X156616123Y-110843227D01*
X156752714Y-110934495D01*
X156707129Y-111067524D01*
X157620000Y-111980395D01*
X158532871Y-111067524D01*
X158487286Y-110934495D01*
X158623877Y-110843227D01*
X158843227Y-110623877D01*
X159015570Y-110365948D01*
X159134282Y-110079352D01*
X159194800Y-109775104D01*
X159194800Y-109464896D01*
X159134282Y-109160648D01*
X159015570Y-108874052D01*
X158843227Y-108616123D01*
X158623877Y-108396773D01*
X158553876Y-108350000D01*
X158623877Y-108303227D01*
X158843227Y-108083877D01*
X159015570Y-107825948D01*
X159134282Y-107539352D01*
X159194800Y-107235104D01*
X159194800Y-106924896D01*
X159134282Y-106620648D01*
X159015570Y-106334052D01*
X158843227Y-106076123D01*
X158623877Y-105856773D01*
X158553876Y-105810000D01*
X158623877Y-105763227D01*
X158843227Y-105543877D01*
X159015570Y-105285948D01*
X159134282Y-104999352D01*
X159194800Y-104695104D01*
X159194800Y-104384896D01*
X159134282Y-104080648D01*
X159015570Y-103794052D01*
X158843227Y-103536123D01*
X158623877Y-103316773D01*
X158553876Y-103270000D01*
X158623877Y-103223227D01*
X158843227Y-103003877D01*
X159015570Y-102745948D01*
X159134282Y-102459352D01*
X159194800Y-102155104D01*
X159194800Y-101844896D01*
X159134282Y-101540648D01*
X159015570Y-101254052D01*
X158843227Y-100996123D01*
X158623877Y-100776773D01*
X158553876Y-100730000D01*
X158623877Y-100683227D01*
X158843227Y-100463877D01*
X159015570Y-100205948D01*
X159134282Y-99919352D01*
X159194800Y-99615104D01*
X159194800Y-99304896D01*
X159134282Y-99000648D01*
X159015570Y-98714052D01*
X158843227Y-98456123D01*
X158623877Y-98236773D01*
X158553876Y-98190000D01*
X158623877Y-98143227D01*
X158843227Y-97923877D01*
X159015570Y-97665948D01*
X159134282Y-97379352D01*
X159194800Y-97075104D01*
X159194800Y-96764896D01*
X159134282Y-96460648D01*
X159015570Y-96174052D01*
X158843227Y-95916123D01*
X158623877Y-95696773D01*
X158553876Y-95650000D01*
X158623877Y-95603227D01*
X158843227Y-95383877D01*
X159015570Y-95125948D01*
X159134282Y-94839352D01*
X159194800Y-94535104D01*
X159194800Y-94224896D01*
X159134282Y-93920648D01*
X159115456Y-93875199D01*
X160040398Y-93875199D01*
X160102421Y-93937222D01*
G37*
X160102421Y-93937222D02*
X160045200Y-94224896D01*
X160045200Y-94535104D01*
X160105718Y-94839352D01*
X160224430Y-95125948D01*
X160396773Y-95383877D01*
X160616123Y-95603227D01*
X160686124Y-95650000D01*
X160616123Y-95696773D01*
X160396773Y-95916123D01*
X160224430Y-96174052D01*
X160105718Y-96460648D01*
X160045200Y-96764896D01*
X160045200Y-97075104D01*
X160105718Y-97379352D01*
X160224430Y-97665948D01*
X160396773Y-97923877D01*
X160616123Y-98143227D01*
X160686124Y-98190000D01*
X160616123Y-98236773D01*
X160396773Y-98456123D01*
X160224430Y-98714052D01*
X160105718Y-99000648D01*
X160045200Y-99304896D01*
X160045200Y-99615104D01*
X160105718Y-99919352D01*
X160224430Y-100205948D01*
X160396773Y-100463877D01*
X160616123Y-100683227D01*
X160686124Y-100730000D01*
X160616123Y-100776773D01*
X160396773Y-100996123D01*
X160224430Y-101254052D01*
X160105718Y-101540648D01*
X160045200Y-101844896D01*
X160045200Y-102155104D01*
X160105718Y-102459352D01*
X160224430Y-102745948D01*
X160396773Y-103003877D01*
X160616123Y-103223227D01*
X160686124Y-103270000D01*
X160616123Y-103316773D01*
X160396773Y-103536123D01*
X160224430Y-103794052D01*
X160105718Y-104080648D01*
X160045200Y-104384896D01*
X160045200Y-104695104D01*
X160105718Y-104999352D01*
X160224430Y-105285948D01*
X160396773Y-105543877D01*
X160616123Y-105763227D01*
X160686124Y-105810000D01*
X160616123Y-105856773D01*
X160396773Y-106076123D01*
X160224430Y-106334052D01*
X160105718Y-106620648D01*
X160045200Y-106924896D01*
X160045200Y-107235104D01*
X160105718Y-107539352D01*
X160224430Y-107825948D01*
X160396773Y-108083877D01*
X160616123Y-108303227D01*
X160686124Y-108350000D01*
X160616123Y-108396773D01*
X160396773Y-108616123D01*
X160224430Y-108874052D01*
X160105718Y-109160648D01*
X160045200Y-109464896D01*
X160045200Y-109775104D01*
X160105718Y-110079352D01*
X160224430Y-110365948D01*
X160396773Y-110623877D01*
X160616123Y-110843227D01*
X160686124Y-110890000D01*
X160616123Y-110936773D01*
X160396773Y-111156123D01*
X160224430Y-111414052D01*
X160105718Y-111700648D01*
X160045200Y-112004896D01*
X160045200Y-112315104D01*
X160105718Y-112619352D01*
X160224430Y-112905948D01*
X160396773Y-113163877D01*
X160616123Y-113383227D01*
X160686124Y-113430000D01*
X160616123Y-113476773D01*
X160396773Y-113696123D01*
X160224430Y-113954052D01*
X160105718Y-114240648D01*
X160045200Y-114544896D01*
X160045200Y-114855104D01*
X160105718Y-115159352D01*
X160224430Y-115445948D01*
X160396773Y-115703877D01*
X160616123Y-115923227D01*
X160686124Y-115970000D01*
X160616123Y-116016773D01*
X160396773Y-116236123D01*
X160224430Y-116494052D01*
X160105718Y-116780648D01*
X160045200Y-117084896D01*
X160045200Y-117395104D01*
X160105718Y-117699352D01*
X160190900Y-117905000D01*
X159029100Y-117905000D01*
X159114282Y-117699352D01*
X159174800Y-117395104D01*
X159174800Y-117084896D01*
X159114282Y-116780648D01*
X158995570Y-116494052D01*
X158823227Y-116236123D01*
X158603877Y-116016773D01*
X158543876Y-115976682D01*
X158623877Y-115923227D01*
X158843227Y-115703877D01*
X159015570Y-115445948D01*
X159134282Y-115159352D01*
X159194800Y-114855104D01*
X159194800Y-114544896D01*
X159134282Y-114240648D01*
X159015570Y-113954052D01*
X158843227Y-113696123D01*
X158623877Y-113476773D01*
X158487286Y-113385505D01*
X158532871Y-113252476D01*
X157620000Y-112339605D01*
X156707129Y-113252476D01*
X156752714Y-113385505D01*
X156616123Y-113476773D01*
X156396773Y-113696123D01*
X156224430Y-113954052D01*
X156105718Y-114240648D01*
X156045200Y-114544896D01*
X156045200Y-114855104D01*
X156105718Y-115159352D01*
X156224430Y-115445948D01*
X156396773Y-115703877D01*
X156616123Y-115923227D01*
X156676124Y-115963318D01*
X156596123Y-116016773D01*
X156376773Y-116236123D01*
X156204430Y-116494052D01*
X156085718Y-116780648D01*
X156060000Y-116909943D01*
X156060000Y-116728107D01*
X156041768Y-116542997D01*
X155969720Y-116305486D01*
X155852720Y-116086595D01*
X155695265Y-115894735D01*
X155503404Y-115737280D01*
X155284513Y-115620280D01*
X155047002Y-115548232D01*
X154800000Y-115523904D01*
X154552997Y-115548232D01*
X154315486Y-115620280D01*
X154096595Y-115737280D01*
X153904735Y-115894735D01*
X153747280Y-116086596D01*
X153630280Y-116305487D01*
X153561731Y-116531464D01*
X153563072Y-116165000D01*
X153550812Y-116040518D01*
X153514502Y-115920820D01*
X153455537Y-115810506D01*
X153376185Y-115713815D01*
X153279494Y-115634463D01*
X153169180Y-115575498D01*
X153049482Y-115539188D01*
X152925000Y-115526928D01*
X152585750Y-115530000D01*
X152427000Y-115688750D01*
X152427000Y-117163000D01*
X152447000Y-117163000D01*
X152447000Y-117417000D01*
X152427000Y-117417000D01*
X152427000Y-117437000D01*
X152173000Y-117437000D01*
X152173000Y-117417000D01*
X152153000Y-117417000D01*
X152153000Y-117163000D01*
X152173000Y-117163000D01*
X152173000Y-115688750D01*
X152014250Y-115530000D01*
X151675000Y-115526928D01*
X151550518Y-115539188D01*
X151430820Y-115575498D01*
X151320506Y-115634463D01*
X151223815Y-115713815D01*
X151144463Y-115810506D01*
X151085498Y-115920820D01*
X151049188Y-116040518D01*
X151036928Y-116165000D01*
X151038269Y-116531464D01*
X150969720Y-116305486D01*
X150852720Y-116086595D01*
X150695265Y-115894735D01*
X150503404Y-115737280D01*
X150284513Y-115620280D01*
X150047002Y-115548232D01*
X149800000Y-115523904D01*
X149552997Y-115548232D01*
X149315486Y-115620280D01*
X149096595Y-115737280D01*
X148904735Y-115894735D01*
X148747280Y-116086596D01*
X148630280Y-116305487D01*
X148558232Y-116542998D01*
X148540000Y-116728108D01*
X148540000Y-117851893D01*
X148545231Y-117905000D01*
X147809100Y-117905000D01*
X147894282Y-117699352D01*
X147954800Y-117395104D01*
X147954800Y-117084896D01*
X147894282Y-116780648D01*
X147775570Y-116494052D01*
X147603227Y-116236123D01*
X147383877Y-116016773D01*
X147313876Y-115970000D01*
X147383877Y-115923227D01*
X147603227Y-115703877D01*
X147775570Y-115445948D01*
X147894282Y-115159352D01*
X147954800Y-114855104D01*
X147954800Y-114544896D01*
X147894282Y-114240648D01*
X147775570Y-113954052D01*
X147603227Y-113696123D01*
X147383877Y-113476773D01*
X147313876Y-113430000D01*
X147383877Y-113383227D01*
X147603227Y-113163877D01*
X147775570Y-112905948D01*
X147894282Y-112619352D01*
X147954800Y-112315104D01*
X147954800Y-112224977D01*
X156038916Y-112224977D01*
X156081973Y-112532184D01*
X156184135Y-112825086D01*
X156269277Y-112984377D01*
X156527524Y-113072871D01*
X157440395Y-112160000D01*
X157799605Y-112160000D01*
X158712476Y-113072871D01*
X158970723Y-112984377D01*
X159105597Y-112705024D01*
X159183381Y-112404725D01*
X159201084Y-112095023D01*
X159158027Y-111787816D01*
X159055865Y-111494914D01*
X158970723Y-111335623D01*
X158712476Y-111247129D01*
X157799605Y-112160000D01*
X157440395Y-112160000D01*
X156527524Y-111247129D01*
X156269277Y-111335623D01*
X156134403Y-111614976D01*
X156056619Y-111915275D01*
X156038916Y-112224977D01*
X147954800Y-112224977D01*
X147954800Y-112004896D01*
X147894282Y-111700648D01*
X147775570Y-111414052D01*
X147603227Y-111156123D01*
X147383877Y-110936773D01*
X147313876Y-110890000D01*
X147383877Y-110843227D01*
X147603227Y-110623877D01*
X147775570Y-110365948D01*
X147894282Y-110079352D01*
X147954800Y-109775104D01*
X147954800Y-109464896D01*
X147894282Y-109160648D01*
X147775570Y-108874052D01*
X147603227Y-108616123D01*
X147383877Y-108396773D01*
X147313876Y-108350000D01*
X147383877Y-108303227D01*
X147603227Y-108083877D01*
X147680310Y-107968514D01*
X148465000Y-107968514D01*
X148465000Y-108231486D01*
X148516304Y-108489405D01*
X148616939Y-108732359D01*
X148763038Y-108951013D01*
X148948987Y-109136962D01*
X149167641Y-109283061D01*
X149410595Y-109383696D01*
X149668514Y-109435000D01*
X149931486Y-109435000D01*
X150189405Y-109383696D01*
X150432359Y-109283061D01*
X150651013Y-109136962D01*
X150836962Y-108951013D01*
X150983061Y-108732359D01*
X151083696Y-108489405D01*
X151135000Y-108231486D01*
X151135000Y-107968514D01*
X151083696Y-107710595D01*
X150983061Y-107467641D01*
X150836962Y-107248987D01*
X150651013Y-107063038D01*
X150432359Y-106916939D01*
X150189405Y-106816304D01*
X149931486Y-106765000D01*
X149668514Y-106765000D01*
X149410595Y-106816304D01*
X149167641Y-106916939D01*
X148948987Y-107063038D01*
X148763038Y-107248987D01*
X148616939Y-107467641D01*
X148516304Y-107710595D01*
X148465000Y-107968514D01*
X147680310Y-107968514D01*
X147775570Y-107825948D01*
X147894282Y-107539352D01*
X147954800Y-107235104D01*
X147954800Y-106924896D01*
X147894282Y-106620648D01*
X147875456Y-106575199D01*
X153737400Y-106575199D01*
X154102599Y-106940398D01*
X153948987Y-107043038D01*
X153763038Y-107228987D01*
X153616939Y-107447641D01*
X153516304Y-107690595D01*
X153465000Y-107948514D01*
X153465000Y-108211486D01*
X153516304Y-108469405D01*
X153616939Y-108712359D01*
X153763038Y-108931013D01*
X153948987Y-109116962D01*
X154167641Y-109263061D01*
X154410595Y-109363696D01*
X154668514Y-109415000D01*
X154931486Y-109415000D01*
X155189405Y-109363696D01*
X155432359Y-109263061D01*
X155651013Y-109116962D01*
X155836962Y-108931013D01*
X155927832Y-108795015D01*
X155931198Y-108829187D01*
X155974655Y-108972448D01*
X156045227Y-109104477D01*
X156102910Y-109174764D01*
X156045200Y-109464896D01*
X156045200Y-109775104D01*
X156105718Y-110079352D01*
X156224430Y-110365948D01*
X156396773Y-110623877D01*
X156616123Y-110843227D01*
X156752714Y-110934495D01*
X156707129Y-111067524D01*
X157620000Y-111980395D01*
X158532871Y-111067524D01*
X158487286Y-110934495D01*
X158623877Y-110843227D01*
X158843227Y-110623877D01*
X159015570Y-110365948D01*
X159134282Y-110079352D01*
X159194800Y-109775104D01*
X159194800Y-109464896D01*
X159134282Y-109160648D01*
X159015570Y-108874052D01*
X158843227Y-108616123D01*
X158623877Y-108396773D01*
X158553876Y-108350000D01*
X158623877Y-108303227D01*
X158843227Y-108083877D01*
X159015570Y-107825948D01*
X159134282Y-107539352D01*
X159194800Y-107235104D01*
X159194800Y-106924896D01*
X159134282Y-106620648D01*
X159015570Y-106334052D01*
X158843227Y-106076123D01*
X158623877Y-105856773D01*
X158553876Y-105810000D01*
X158623877Y-105763227D01*
X158843227Y-105543877D01*
X159015570Y-105285948D01*
X159134282Y-104999352D01*
X159194800Y-104695104D01*
X159194800Y-104384896D01*
X159134282Y-104080648D01*
X159015570Y-103794052D01*
X158843227Y-103536123D01*
X158623877Y-103316773D01*
X158553876Y-103270000D01*
X158623877Y-103223227D01*
X158843227Y-103003877D01*
X159015570Y-102745948D01*
X159134282Y-102459352D01*
X159194800Y-102155104D01*
X159194800Y-101844896D01*
X159134282Y-101540648D01*
X159015570Y-101254052D01*
X158843227Y-100996123D01*
X158623877Y-100776773D01*
X158553876Y-100730000D01*
X158623877Y-100683227D01*
X158843227Y-100463877D01*
X159015570Y-100205948D01*
X159134282Y-99919352D01*
X159194800Y-99615104D01*
X159194800Y-99304896D01*
X159134282Y-99000648D01*
X159015570Y-98714052D01*
X158843227Y-98456123D01*
X158623877Y-98236773D01*
X158553876Y-98190000D01*
X158623877Y-98143227D01*
X158843227Y-97923877D01*
X159015570Y-97665948D01*
X159134282Y-97379352D01*
X159194800Y-97075104D01*
X159194800Y-96764896D01*
X159134282Y-96460648D01*
X159015570Y-96174052D01*
X158843227Y-95916123D01*
X158623877Y-95696773D01*
X158553876Y-95650000D01*
X158623877Y-95603227D01*
X158843227Y-95383877D01*
X159015570Y-95125948D01*
X159134282Y-94839352D01*
X159194800Y-94535104D01*
X159194800Y-94224896D01*
X159134282Y-93920648D01*
X159115456Y-93875199D01*
X160040398Y-93875199D01*
X160102421Y-93937222D01*
G36*
X134601278Y-106760000D02*
G01*
X134898722Y-106760000D01*
X135137668Y-106712470D01*
X135230744Y-106805545D01*
X135096063Y-106940226D01*
X134982795Y-107109744D01*
X134904774Y-107298102D01*
X134865000Y-107498061D01*
X134865000Y-107701939D01*
X134904774Y-107901898D01*
X134982795Y-108090256D01*
X135096063Y-108259774D01*
X135240226Y-108403937D01*
X135409744Y-108517205D01*
X135598102Y-108595226D01*
X135798061Y-108635000D01*
X135860198Y-108635000D01*
X136081002Y-108855803D01*
X136104800Y-108884802D01*
X136220525Y-108979775D01*
X136352554Y-109050347D01*
X136495815Y-109093804D01*
X136607468Y-109104801D01*
X136607476Y-109104801D01*
X136644801Y-109108477D01*
X136682126Y-109104801D01*
X140886678Y-109104801D01*
X140816619Y-109375275D01*
X140798916Y-109684977D01*
X140841973Y-109992184D01*
X140944135Y-110285086D01*
X141029277Y-110444377D01*
X141287524Y-110532871D01*
X142200395Y-109620000D01*
X142186253Y-109605858D01*
X142365858Y-109426253D01*
X142380000Y-109440395D01*
X142394143Y-109426253D01*
X142573748Y-109605858D01*
X142559605Y-109620000D01*
X143472476Y-110532871D01*
X143730723Y-110444377D01*
X143865597Y-110165024D01*
X143943381Y-109864725D01*
X143961084Y-109555023D01*
X143918027Y-109247816D01*
X143868144Y-109104801D01*
X144790000Y-109104801D01*
X144862421Y-109177222D01*
X144805200Y-109464896D01*
X144805200Y-109775104D01*
X144865718Y-110079352D01*
X144984430Y-110365948D01*
X145156773Y-110623877D01*
X145376123Y-110843227D01*
X145446124Y-110890000D01*
X145376123Y-110936773D01*
X145156773Y-111156123D01*
X144984430Y-111414052D01*
X144865718Y-111700648D01*
X144805200Y-112004896D01*
X144805200Y-112315104D01*
X144865718Y-112619352D01*
X144984430Y-112905948D01*
X145156773Y-113163877D01*
X145376123Y-113383227D01*
X145446124Y-113430000D01*
X145376123Y-113476773D01*
X145156773Y-113696123D01*
X144984430Y-113954052D01*
X144865718Y-114240648D01*
X144805200Y-114544896D01*
X144805200Y-114855104D01*
X144865718Y-115159352D01*
X144984430Y-115445948D01*
X145156773Y-115703877D01*
X145376123Y-115923227D01*
X145446124Y-115970000D01*
X145376123Y-116016773D01*
X145156773Y-116236123D01*
X144984430Y-116494052D01*
X144865718Y-116780648D01*
X144805200Y-117084896D01*
X144805200Y-117395104D01*
X144865718Y-117699352D01*
X144950900Y-117905000D01*
X143809100Y-117905000D01*
X143894282Y-117699352D01*
X143954800Y-117395104D01*
X143954800Y-117084896D01*
X143894282Y-116780648D01*
X143775570Y-116494052D01*
X143603227Y-116236123D01*
X143383877Y-116016773D01*
X143313876Y-115970000D01*
X143383877Y-115923227D01*
X143603227Y-115703877D01*
X143775570Y-115445948D01*
X143894282Y-115159352D01*
X143954800Y-114855104D01*
X143954800Y-114544896D01*
X143894282Y-114240648D01*
X143775570Y-113954052D01*
X143603227Y-113696123D01*
X143383877Y-113476773D01*
X143313876Y-113430000D01*
X143383877Y-113383227D01*
X143603227Y-113163877D01*
X143775570Y-112905948D01*
X143894282Y-112619352D01*
X143954800Y-112315104D01*
X143954800Y-112004896D01*
X143894282Y-111700648D01*
X143775570Y-111414052D01*
X143603227Y-111156123D01*
X143383877Y-110936773D01*
X143247286Y-110845505D01*
X143292871Y-110712476D01*
X142380000Y-109799605D01*
X141467129Y-110712476D01*
X141512714Y-110845505D01*
X141376123Y-110936773D01*
X141156773Y-111156123D01*
X140984430Y-111414052D01*
X140865718Y-111700648D01*
X140805200Y-112004896D01*
X140805200Y-112315104D01*
X140865718Y-112619352D01*
X140984430Y-112905948D01*
X141156773Y-113163877D01*
X141376123Y-113383227D01*
X141446124Y-113430000D01*
X141376123Y-113476773D01*
X141156773Y-113696123D01*
X140984430Y-113954052D01*
X140865718Y-114240648D01*
X140805200Y-114544896D01*
X140805200Y-114855104D01*
X140865718Y-115159352D01*
X140984430Y-115445948D01*
X141156773Y-115703877D01*
X141376123Y-115923227D01*
X141446124Y-115970000D01*
X141376123Y-116016773D01*
X141156773Y-116236123D01*
X140984430Y-116494052D01*
X140865718Y-116780648D01*
X140805200Y-117084896D01*
X140805200Y-117395104D01*
X140865718Y-117699352D01*
X140950900Y-117905000D01*
X134033991Y-117905000D01*
X133941406Y-117895922D01*
X133885044Y-117878905D01*
X133833057Y-117851263D01*
X133787438Y-117814057D01*
X133749905Y-117768688D01*
X133721906Y-117716905D01*
X133704494Y-117660656D01*
X133695000Y-117570325D01*
X133695000Y-115119801D01*
X135186201Y-116611003D01*
X135209999Y-116640001D01*
X135325724Y-116734974D01*
X135457753Y-116805546D01*
X135601014Y-116849003D01*
X135650398Y-116853867D01*
X135693551Y-116906449D01*
X135866377Y-117048284D01*
X136063553Y-117153676D01*
X136277501Y-117218577D01*
X136444248Y-117235000D01*
X137555752Y-117235000D01*
X137722499Y-117218577D01*
X137936447Y-117153676D01*
X138133623Y-117048284D01*
X138306449Y-116906449D01*
X138448284Y-116733623D01*
X138553676Y-116536447D01*
X138618577Y-116322499D01*
X138640491Y-116100000D01*
X138618577Y-115877501D01*
X138553676Y-115663553D01*
X138448284Y-115466377D01*
X138311742Y-115300000D01*
X138448284Y-115133623D01*
X138553676Y-114936447D01*
X138618577Y-114722499D01*
X138640491Y-114500000D01*
X138618577Y-114277501D01*
X138553676Y-114063553D01*
X138448284Y-113866377D01*
X138342197Y-113737110D01*
X138354494Y-113730537D01*
X138451185Y-113651185D01*
X138530537Y-113554494D01*
X138589502Y-113444180D01*
X138625812Y-113324482D01*
X138638072Y-113200000D01*
X138635000Y-112985750D01*
X138476250Y-112827000D01*
X137127000Y-112827000D01*
X137127000Y-112847000D01*
X136873000Y-112847000D01*
X136873000Y-112827000D01*
X135523750Y-112827000D01*
X135365000Y-112985750D01*
X135361928Y-113200000D01*
X135374188Y-113324482D01*
X135410498Y-113444180D01*
X135469463Y-113554494D01*
X135548815Y-113651185D01*
X135645506Y-113730537D01*
X135657803Y-113737110D01*
X135551716Y-113866377D01*
X135446324Y-114063553D01*
X135381423Y-114277501D01*
X135359509Y-114500000D01*
X135374226Y-114649424D01*
X134309999Y-113585198D01*
X134309999Y-111100000D01*
X135359509Y-111100000D01*
X135381423Y-111322499D01*
X135446324Y-111536447D01*
X135551716Y-111733623D01*
X135557999Y-111741278D01*
X135548815Y-111748815D01*
X135469463Y-111845506D01*
X135410498Y-111955820D01*
X135374188Y-112075518D01*
X135361928Y-112200000D01*
X135365000Y-112414250D01*
X135523750Y-112573000D01*
X136873000Y-112573000D01*
X136873000Y-112553000D01*
X137127000Y-112553000D01*
X137127000Y-112573000D01*
X138476250Y-112573000D01*
X138635000Y-112414250D01*
X138638072Y-112200000D01*
X138625812Y-112075518D01*
X138589502Y-111955820D01*
X138530537Y-111845506D01*
X138451185Y-111748815D01*
X138442001Y-111741278D01*
X138448284Y-111733623D01*
X138553676Y-111536447D01*
X138618577Y-111322499D01*
X138640491Y-111100000D01*
X138618577Y-110877501D01*
X138553676Y-110663553D01*
X138448284Y-110466377D01*
X138306449Y-110293551D01*
X138133623Y-110151716D01*
X137936447Y-110046324D01*
X137722499Y-109981423D01*
X137555752Y-109965000D01*
X136444248Y-109965000D01*
X136277501Y-109981423D01*
X136063553Y-110046324D01*
X135866377Y-110151716D01*
X135693551Y-110293551D01*
X135551716Y-110466377D01*
X135446324Y-110663553D01*
X135381423Y-110877501D01*
X135359509Y-111100000D01*
X134309999Y-111100000D01*
X134309999Y-106702061D01*
X134601278Y-106760000D01*
G37*
X134601278Y-106760000D02*
X134898722Y-106760000D01*
X135137668Y-106712470D01*
X135230744Y-106805545D01*
X135096063Y-106940226D01*
X134982795Y-107109744D01*
X134904774Y-107298102D01*
X134865000Y-107498061D01*
X134865000Y-107701939D01*
X134904774Y-107901898D01*
X134982795Y-108090256D01*
X135096063Y-108259774D01*
X135240226Y-108403937D01*
X135409744Y-108517205D01*
X135598102Y-108595226D01*
X135798061Y-108635000D01*
X135860198Y-108635000D01*
X136081002Y-108855803D01*
X136104800Y-108884802D01*
X136220525Y-108979775D01*
X136352554Y-109050347D01*
X136495815Y-109093804D01*
X136607468Y-109104801D01*
X136607476Y-109104801D01*
X136644801Y-109108477D01*
X136682126Y-109104801D01*
X140886678Y-109104801D01*
X140816619Y-109375275D01*
X140798916Y-109684977D01*
X140841973Y-109992184D01*
X140944135Y-110285086D01*
X141029277Y-110444377D01*
X141287524Y-110532871D01*
X142200395Y-109620000D01*
X142186253Y-109605858D01*
X142365858Y-109426253D01*
X142380000Y-109440395D01*
X142394143Y-109426253D01*
X142573748Y-109605858D01*
X142559605Y-109620000D01*
X143472476Y-110532871D01*
X143730723Y-110444377D01*
X143865597Y-110165024D01*
X143943381Y-109864725D01*
X143961084Y-109555023D01*
X143918027Y-109247816D01*
X143868144Y-109104801D01*
X144790000Y-109104801D01*
X144862421Y-109177222D01*
X144805200Y-109464896D01*
X144805200Y-109775104D01*
X144865718Y-110079352D01*
X144984430Y-110365948D01*
X145156773Y-110623877D01*
X145376123Y-110843227D01*
X145446124Y-110890000D01*
X145376123Y-110936773D01*
X145156773Y-111156123D01*
X144984430Y-111414052D01*
X144865718Y-111700648D01*
X144805200Y-112004896D01*
X144805200Y-112315104D01*
X144865718Y-112619352D01*
X144984430Y-112905948D01*
X145156773Y-113163877D01*
X145376123Y-113383227D01*
X145446124Y-113430000D01*
X145376123Y-113476773D01*
X145156773Y-113696123D01*
X144984430Y-113954052D01*
X144865718Y-114240648D01*
X144805200Y-114544896D01*
X144805200Y-114855104D01*
X144865718Y-115159352D01*
X144984430Y-115445948D01*
X145156773Y-115703877D01*
X145376123Y-115923227D01*
X145446124Y-115970000D01*
X145376123Y-116016773D01*
X145156773Y-116236123D01*
X144984430Y-116494052D01*
X144865718Y-116780648D01*
X144805200Y-117084896D01*
X144805200Y-117395104D01*
X144865718Y-117699352D01*
X144950900Y-117905000D01*
X143809100Y-117905000D01*
X143894282Y-117699352D01*
X143954800Y-117395104D01*
X143954800Y-117084896D01*
X143894282Y-116780648D01*
X143775570Y-116494052D01*
X143603227Y-116236123D01*
X143383877Y-116016773D01*
X143313876Y-115970000D01*
X143383877Y-115923227D01*
X143603227Y-115703877D01*
X143775570Y-115445948D01*
X143894282Y-115159352D01*
X143954800Y-114855104D01*
X143954800Y-114544896D01*
X143894282Y-114240648D01*
X143775570Y-113954052D01*
X143603227Y-113696123D01*
X143383877Y-113476773D01*
X143313876Y-113430000D01*
X143383877Y-113383227D01*
X143603227Y-113163877D01*
X143775570Y-112905948D01*
X143894282Y-112619352D01*
X143954800Y-112315104D01*
X143954800Y-112004896D01*
X143894282Y-111700648D01*
X143775570Y-111414052D01*
X143603227Y-111156123D01*
X143383877Y-110936773D01*
X143247286Y-110845505D01*
X143292871Y-110712476D01*
X142380000Y-109799605D01*
X141467129Y-110712476D01*
X141512714Y-110845505D01*
X141376123Y-110936773D01*
X141156773Y-111156123D01*
X140984430Y-111414052D01*
X140865718Y-111700648D01*
X140805200Y-112004896D01*
X140805200Y-112315104D01*
X140865718Y-112619352D01*
X140984430Y-112905948D01*
X141156773Y-113163877D01*
X141376123Y-113383227D01*
X141446124Y-113430000D01*
X141376123Y-113476773D01*
X141156773Y-113696123D01*
X140984430Y-113954052D01*
X140865718Y-114240648D01*
X140805200Y-114544896D01*
X140805200Y-114855104D01*
X140865718Y-115159352D01*
X140984430Y-115445948D01*
X141156773Y-115703877D01*
X141376123Y-115923227D01*
X141446124Y-115970000D01*
X141376123Y-116016773D01*
X141156773Y-116236123D01*
X140984430Y-116494052D01*
X140865718Y-116780648D01*
X140805200Y-117084896D01*
X140805200Y-117395104D01*
X140865718Y-117699352D01*
X140950900Y-117905000D01*
X134033991Y-117905000D01*
X133941406Y-117895922D01*
X133885044Y-117878905D01*
X133833057Y-117851263D01*
X133787438Y-117814057D01*
X133749905Y-117768688D01*
X133721906Y-117716905D01*
X133704494Y-117660656D01*
X133695000Y-117570325D01*
X133695000Y-115119801D01*
X135186201Y-116611003D01*
X135209999Y-116640001D01*
X135325724Y-116734974D01*
X135457753Y-116805546D01*
X135601014Y-116849003D01*
X135650398Y-116853867D01*
X135693551Y-116906449D01*
X135866377Y-117048284D01*
X136063553Y-117153676D01*
X136277501Y-117218577D01*
X136444248Y-117235000D01*
X137555752Y-117235000D01*
X137722499Y-117218577D01*
X137936447Y-117153676D01*
X138133623Y-117048284D01*
X138306449Y-116906449D01*
X138448284Y-116733623D01*
X138553676Y-116536447D01*
X138618577Y-116322499D01*
X138640491Y-116100000D01*
X138618577Y-115877501D01*
X138553676Y-115663553D01*
X138448284Y-115466377D01*
X138311742Y-115300000D01*
X138448284Y-115133623D01*
X138553676Y-114936447D01*
X138618577Y-114722499D01*
X138640491Y-114500000D01*
X138618577Y-114277501D01*
X138553676Y-114063553D01*
X138448284Y-113866377D01*
X138342197Y-113737110D01*
X138354494Y-113730537D01*
X138451185Y-113651185D01*
X138530537Y-113554494D01*
X138589502Y-113444180D01*
X138625812Y-113324482D01*
X138638072Y-113200000D01*
X138635000Y-112985750D01*
X138476250Y-112827000D01*
X137127000Y-112827000D01*
X137127000Y-112847000D01*
X136873000Y-112847000D01*
X136873000Y-112827000D01*
X135523750Y-112827000D01*
X135365000Y-112985750D01*
X135361928Y-113200000D01*
X135374188Y-113324482D01*
X135410498Y-113444180D01*
X135469463Y-113554494D01*
X135548815Y-113651185D01*
X135645506Y-113730537D01*
X135657803Y-113737110D01*
X135551716Y-113866377D01*
X135446324Y-114063553D01*
X135381423Y-114277501D01*
X135359509Y-114500000D01*
X135374226Y-114649424D01*
X134309999Y-113585198D01*
X134309999Y-111100000D01*
X135359509Y-111100000D01*
X135381423Y-111322499D01*
X135446324Y-111536447D01*
X135551716Y-111733623D01*
X135557999Y-111741278D01*
X135548815Y-111748815D01*
X135469463Y-111845506D01*
X135410498Y-111955820D01*
X135374188Y-112075518D01*
X135361928Y-112200000D01*
X135365000Y-112414250D01*
X135523750Y-112573000D01*
X136873000Y-112573000D01*
X136873000Y-112553000D01*
X137127000Y-112553000D01*
X137127000Y-112573000D01*
X138476250Y-112573000D01*
X138635000Y-112414250D01*
X138638072Y-112200000D01*
X138625812Y-112075518D01*
X138589502Y-111955820D01*
X138530537Y-111845506D01*
X138451185Y-111748815D01*
X138442001Y-111741278D01*
X138448284Y-111733623D01*
X138553676Y-111536447D01*
X138618577Y-111322499D01*
X138640491Y-111100000D01*
X138618577Y-110877501D01*
X138553676Y-110663553D01*
X138448284Y-110466377D01*
X138306449Y-110293551D01*
X138133623Y-110151716D01*
X137936447Y-110046324D01*
X137722499Y-109981423D01*
X137555752Y-109965000D01*
X136444248Y-109965000D01*
X136277501Y-109981423D01*
X136063553Y-110046324D01*
X135866377Y-110151716D01*
X135693551Y-110293551D01*
X135551716Y-110466377D01*
X135446324Y-110663553D01*
X135381423Y-110877501D01*
X135359509Y-111100000D01*
X134309999Y-111100000D01*
X134309999Y-106702061D01*
X134601278Y-106760000D01*
G36*
X142573748Y-107065858D02*
G01*
X142559605Y-107080000D01*
X142573748Y-107094143D01*
X142394143Y-107273748D01*
X142380000Y-107259605D01*
X142365858Y-107273748D01*
X142186253Y-107094143D01*
X142200395Y-107080000D01*
X142186253Y-107065858D01*
X142365858Y-106886253D01*
X142380000Y-106900395D01*
X142394143Y-106886253D01*
X142573748Y-107065858D01*
G37*
X142573748Y-107065858D02*
X142559605Y-107080000D01*
X142573748Y-107094143D01*
X142394143Y-107273748D01*
X142380000Y-107259605D01*
X142365858Y-107273748D01*
X142186253Y-107094143D01*
X142200395Y-107080000D01*
X142186253Y-107065858D01*
X142365858Y-106886253D01*
X142380000Y-106900395D01*
X142394143Y-106886253D01*
X142573748Y-107065858D01*
G36*
X144816619Y-94135275D02*
G01*
X144798916Y-94444977D01*
X144841973Y-94752184D01*
X144944135Y-95045086D01*
X145029277Y-95204377D01*
X145287524Y-95292871D01*
X146200395Y-94380000D01*
X146186253Y-94365858D01*
X146365858Y-94186253D01*
X146380000Y-94200395D01*
X146394143Y-94186253D01*
X146573748Y-94365858D01*
X146559605Y-94380000D01*
X147472476Y-95292871D01*
X147730723Y-95204377D01*
X147865597Y-94925024D01*
X147943381Y-94624725D01*
X147961084Y-94315023D01*
X147918027Y-94007816D01*
X147871771Y-93875199D01*
X156124544Y-93875199D01*
X156105718Y-93920648D01*
X156045200Y-94224896D01*
X156045200Y-94535104D01*
X156105718Y-94839352D01*
X156224430Y-95125948D01*
X156396773Y-95383877D01*
X156616123Y-95603227D01*
X156686124Y-95650000D01*
X156616123Y-95696773D01*
X156396773Y-95916123D01*
X156224430Y-96174052D01*
X156105718Y-96460648D01*
X156045200Y-96764896D01*
X156045200Y-97075104D01*
X156105718Y-97379352D01*
X156224430Y-97665948D01*
X156396773Y-97923877D01*
X156616123Y-98143227D01*
X156686124Y-98190000D01*
X156616123Y-98236773D01*
X156396773Y-98456123D01*
X156224430Y-98714052D01*
X156105718Y-99000648D01*
X156045200Y-99304896D01*
X156045200Y-99615104D01*
X156105718Y-99919352D01*
X156224430Y-100205948D01*
X156396773Y-100463877D01*
X156616123Y-100683227D01*
X156686124Y-100730000D01*
X156616123Y-100776773D01*
X156396773Y-100996123D01*
X156224430Y-101254052D01*
X156105718Y-101540648D01*
X156045200Y-101844896D01*
X156045200Y-102155104D01*
X156105718Y-102459352D01*
X156224430Y-102745948D01*
X156396773Y-103003877D01*
X156616123Y-103223227D01*
X156686124Y-103270000D01*
X156616123Y-103316773D01*
X156396773Y-103536123D01*
X156224430Y-103794052D01*
X156105718Y-104080648D01*
X156045200Y-104384896D01*
X156045200Y-104695104D01*
X156105718Y-104999352D01*
X156224430Y-105285948D01*
X156396773Y-105543877D01*
X156616123Y-105763227D01*
X156686124Y-105810000D01*
X156616123Y-105856773D01*
X156396773Y-106076123D01*
X156224430Y-106334052D01*
X156105718Y-106620648D01*
X156076972Y-106765168D01*
X154616005Y-105304202D01*
X154592202Y-105275198D01*
X154476477Y-105180225D01*
X154344448Y-105109653D01*
X154201187Y-105066196D01*
X154089534Y-105055199D01*
X154089523Y-105055199D01*
X154052201Y-105051523D01*
X154014879Y-105055199D01*
X147871149Y-105055199D01*
X147894282Y-104999352D01*
X147954800Y-104695104D01*
X147954800Y-104384896D01*
X147894282Y-104080648D01*
X147775570Y-103794052D01*
X147603227Y-103536123D01*
X147383877Y-103316773D01*
X147313876Y-103270000D01*
X147383877Y-103223227D01*
X147603227Y-103003877D01*
X147680310Y-102888514D01*
X148465000Y-102888514D01*
X148465000Y-103151486D01*
X148516304Y-103409405D01*
X148616939Y-103652359D01*
X148763038Y-103871013D01*
X148948987Y-104056962D01*
X149167641Y-104203061D01*
X149410595Y-104303696D01*
X149668514Y-104355000D01*
X149931486Y-104355000D01*
X150189405Y-104303696D01*
X150432359Y-104203061D01*
X150651013Y-104056962D01*
X150836962Y-103871013D01*
X150983061Y-103652359D01*
X151083696Y-103409405D01*
X151135000Y-103151486D01*
X151135000Y-102888514D01*
X151131022Y-102868514D01*
X153465000Y-102868514D01*
X153465000Y-103131486D01*
X153516304Y-103389405D01*
X153616939Y-103632359D01*
X153763038Y-103851013D01*
X153948987Y-104036962D01*
X154167641Y-104183061D01*
X154410595Y-104283696D01*
X154668514Y-104335000D01*
X154931486Y-104335000D01*
X155189405Y-104283696D01*
X155432359Y-104183061D01*
X155651013Y-104036962D01*
X155836962Y-103851013D01*
X155983061Y-103632359D01*
X156083696Y-103389405D01*
X156135000Y-103131486D01*
X156135000Y-102868514D01*
X156083696Y-102610595D01*
X155983061Y-102367641D01*
X155836962Y-102148987D01*
X155651013Y-101963038D01*
X155432359Y-101816939D01*
X155189405Y-101716304D01*
X154931486Y-101665000D01*
X154668514Y-101665000D01*
X154410595Y-101716304D01*
X154167641Y-101816939D01*
X153948987Y-101963038D01*
X153763038Y-102148987D01*
X153616939Y-102367641D01*
X153516304Y-102610595D01*
X153465000Y-102868514D01*
X151131022Y-102868514D01*
X151083696Y-102630595D01*
X150983061Y-102387641D01*
X150836962Y-102168987D01*
X150651013Y-101983038D01*
X150432359Y-101836939D01*
X150189405Y-101736304D01*
X149931486Y-101685000D01*
X149668514Y-101685000D01*
X149410595Y-101736304D01*
X149167641Y-101836939D01*
X148948987Y-101983038D01*
X148763038Y-102168987D01*
X148616939Y-102387641D01*
X148516304Y-102630595D01*
X148465000Y-102888514D01*
X147680310Y-102888514D01*
X147775570Y-102745948D01*
X147894282Y-102459352D01*
X147954800Y-102155104D01*
X147954800Y-101844896D01*
X147894282Y-101540648D01*
X147775570Y-101254052D01*
X147603227Y-100996123D01*
X147383877Y-100776773D01*
X147313876Y-100730000D01*
X147383877Y-100683227D01*
X147603227Y-100463877D01*
X147775570Y-100205948D01*
X147894282Y-99919352D01*
X147954800Y-99615104D01*
X147954800Y-99333620D01*
X148000000Y-99338072D01*
X150200000Y-99338072D01*
X150324482Y-99325812D01*
X150444180Y-99289502D01*
X150554494Y-99230537D01*
X150651185Y-99151185D01*
X150730537Y-99054494D01*
X150789502Y-98944180D01*
X150825812Y-98824482D01*
X150838072Y-98700000D01*
X150838072Y-95900000D01*
X150833516Y-95853740D01*
X150915000Y-95853740D01*
X150915000Y-96146260D01*
X150972068Y-96433158D01*
X151084010Y-96703411D01*
X151246525Y-96946632D01*
X151453368Y-97153475D01*
X151696589Y-97315990D01*
X151966842Y-97427932D01*
X152253740Y-97485000D01*
X152546260Y-97485000D01*
X152833158Y-97427932D01*
X153103411Y-97315990D01*
X153346632Y-97153475D01*
X153553475Y-96946632D01*
X153715990Y-96703411D01*
X153827932Y-96433158D01*
X153885000Y-96146260D01*
X153885000Y-95853740D01*
X153827932Y-95566842D01*
X153715990Y-95296589D01*
X153553475Y-95053368D01*
X153346632Y-94846525D01*
X153103411Y-94684010D01*
X152833158Y-94572068D01*
X152546260Y-94515000D01*
X152253740Y-94515000D01*
X151966842Y-94572068D01*
X151696589Y-94684010D01*
X151453368Y-94846525D01*
X151246525Y-95053368D01*
X151084010Y-95296589D01*
X150972068Y-95566842D01*
X150915000Y-95853740D01*
X150833516Y-95853740D01*
X150825812Y-95775518D01*
X150789502Y-95655820D01*
X150730537Y-95545506D01*
X150651185Y-95448815D01*
X150554494Y-95369463D01*
X150444180Y-95310498D01*
X150324482Y-95274188D01*
X150200000Y-95261928D01*
X148000000Y-95261928D01*
X147875518Y-95274188D01*
X147755820Y-95310498D01*
X147645506Y-95369463D01*
X147548815Y-95448815D01*
X147469463Y-95545506D01*
X147410498Y-95655820D01*
X147386952Y-95733440D01*
X147292870Y-95827522D01*
X147232039Y-95650000D01*
X147292871Y-95472476D01*
X146380000Y-94559605D01*
X145467129Y-95472476D01*
X145527961Y-95650000D01*
X145467129Y-95827524D01*
X146380000Y-96740395D01*
X146394143Y-96726253D01*
X146573748Y-96905858D01*
X146559605Y-96920000D01*
X146573748Y-96934143D01*
X146394143Y-97113748D01*
X146380000Y-97099605D01*
X145467129Y-98012476D01*
X145512714Y-98145505D01*
X145376123Y-98236773D01*
X145156773Y-98456123D01*
X144984430Y-98714052D01*
X144865718Y-99000648D01*
X144805200Y-99304896D01*
X144805200Y-99615104D01*
X144865718Y-99919352D01*
X144984430Y-100205948D01*
X145156773Y-100463877D01*
X145376123Y-100683227D01*
X145446124Y-100730000D01*
X145376123Y-100776773D01*
X145156773Y-100996123D01*
X144984430Y-101254052D01*
X144865718Y-101540648D01*
X144805200Y-101844896D01*
X144805200Y-102155104D01*
X144865718Y-102459352D01*
X144984430Y-102745948D01*
X145156773Y-103003877D01*
X145376123Y-103223227D01*
X145446124Y-103270000D01*
X145376123Y-103316773D01*
X145156773Y-103536123D01*
X144984430Y-103794052D01*
X144865718Y-104080648D01*
X144805200Y-104384896D01*
X144805200Y-104695104D01*
X144865718Y-104999352D01*
X144888851Y-105055199D01*
X143871149Y-105055199D01*
X143894282Y-104999352D01*
X143954800Y-104695104D01*
X143954800Y-104384896D01*
X143894282Y-104080648D01*
X143775570Y-103794052D01*
X143603227Y-103536123D01*
X143383877Y-103316773D01*
X143313876Y-103270000D01*
X143383877Y-103223227D01*
X143603227Y-103003877D01*
X143775570Y-102745948D01*
X143894282Y-102459352D01*
X143954800Y-102155104D01*
X143954800Y-101844896D01*
X143894282Y-101540648D01*
X143775570Y-101254052D01*
X143603227Y-100996123D01*
X143383877Y-100776773D01*
X143313876Y-100730000D01*
X143383877Y-100683227D01*
X143603227Y-100463877D01*
X143775570Y-100205948D01*
X143894282Y-99919352D01*
X143954800Y-99615104D01*
X143954800Y-99304896D01*
X143894282Y-99000648D01*
X143775570Y-98714052D01*
X143603227Y-98456123D01*
X143383877Y-98236773D01*
X143313876Y-98190000D01*
X143383877Y-98143227D01*
X143603227Y-97923877D01*
X143775570Y-97665948D01*
X143894282Y-97379352D01*
X143954800Y-97075104D01*
X143954800Y-96984977D01*
X144798916Y-96984977D01*
X144841973Y-97292184D01*
X144944135Y-97585086D01*
X145029277Y-97744377D01*
X145287524Y-97832871D01*
X146200395Y-96920000D01*
X145287524Y-96007129D01*
X145029277Y-96095623D01*
X144894403Y-96374976D01*
X144816619Y-96675275D01*
X144798916Y-96984977D01*
X143954800Y-96984977D01*
X143954800Y-96764896D01*
X143894282Y-96460648D01*
X143775570Y-96174052D01*
X143603227Y-95916123D01*
X143383877Y-95696773D01*
X143313876Y-95650000D01*
X143383877Y-95603227D01*
X143603227Y-95383877D01*
X143775570Y-95125948D01*
X143894282Y-94839352D01*
X143954800Y-94535104D01*
X143954800Y-94224896D01*
X143894282Y-93920648D01*
X143875456Y-93875199D01*
X144883984Y-93875199D01*
X144816619Y-94135275D01*
G37*
X144816619Y-94135275D02*
X144798916Y-94444977D01*
X144841973Y-94752184D01*
X144944135Y-95045086D01*
X145029277Y-95204377D01*
X145287524Y-95292871D01*
X146200395Y-94380000D01*
X146186253Y-94365858D01*
X146365858Y-94186253D01*
X146380000Y-94200395D01*
X146394143Y-94186253D01*
X146573748Y-94365858D01*
X146559605Y-94380000D01*
X147472476Y-95292871D01*
X147730723Y-95204377D01*
X147865597Y-94925024D01*
X147943381Y-94624725D01*
X147961084Y-94315023D01*
X147918027Y-94007816D01*
X147871771Y-93875199D01*
X156124544Y-93875199D01*
X156105718Y-93920648D01*
X156045200Y-94224896D01*
X156045200Y-94535104D01*
X156105718Y-94839352D01*
X156224430Y-95125948D01*
X156396773Y-95383877D01*
X156616123Y-95603227D01*
X156686124Y-95650000D01*
X156616123Y-95696773D01*
X156396773Y-95916123D01*
X156224430Y-96174052D01*
X156105718Y-96460648D01*
X156045200Y-96764896D01*
X156045200Y-97075104D01*
X156105718Y-97379352D01*
X156224430Y-97665948D01*
X156396773Y-97923877D01*
X156616123Y-98143227D01*
X156686124Y-98190000D01*
X156616123Y-98236773D01*
X156396773Y-98456123D01*
X156224430Y-98714052D01*
X156105718Y-99000648D01*
X156045200Y-99304896D01*
X156045200Y-99615104D01*
X156105718Y-99919352D01*
X156224430Y-100205948D01*
X156396773Y-100463877D01*
X156616123Y-100683227D01*
X156686124Y-100730000D01*
X156616123Y-100776773D01*
X156396773Y-100996123D01*
X156224430Y-101254052D01*
X156105718Y-101540648D01*
X156045200Y-101844896D01*
X156045200Y-102155104D01*
X156105718Y-102459352D01*
X156224430Y-102745948D01*
X156396773Y-103003877D01*
X156616123Y-103223227D01*
X156686124Y-103270000D01*
X156616123Y-103316773D01*
X156396773Y-103536123D01*
X156224430Y-103794052D01*
X156105718Y-104080648D01*
X156045200Y-104384896D01*
X156045200Y-104695104D01*
X156105718Y-104999352D01*
X156224430Y-105285948D01*
X156396773Y-105543877D01*
X156616123Y-105763227D01*
X156686124Y-105810000D01*
X156616123Y-105856773D01*
X156396773Y-106076123D01*
X156224430Y-106334052D01*
X156105718Y-106620648D01*
X156076972Y-106765168D01*
X154616005Y-105304202D01*
X154592202Y-105275198D01*
X154476477Y-105180225D01*
X154344448Y-105109653D01*
X154201187Y-105066196D01*
X154089534Y-105055199D01*
X154089523Y-105055199D01*
X154052201Y-105051523D01*
X154014879Y-105055199D01*
X147871149Y-105055199D01*
X147894282Y-104999352D01*
X147954800Y-104695104D01*
X147954800Y-104384896D01*
X147894282Y-104080648D01*
X147775570Y-103794052D01*
X147603227Y-103536123D01*
X147383877Y-103316773D01*
X147313876Y-103270000D01*
X147383877Y-103223227D01*
X147603227Y-103003877D01*
X147680310Y-102888514D01*
X148465000Y-102888514D01*
X148465000Y-103151486D01*
X148516304Y-103409405D01*
X148616939Y-103652359D01*
X148763038Y-103871013D01*
X148948987Y-104056962D01*
X149167641Y-104203061D01*
X149410595Y-104303696D01*
X149668514Y-104355000D01*
X149931486Y-104355000D01*
X150189405Y-104303696D01*
X150432359Y-104203061D01*
X150651013Y-104056962D01*
X150836962Y-103871013D01*
X150983061Y-103652359D01*
X151083696Y-103409405D01*
X151135000Y-103151486D01*
X151135000Y-102888514D01*
X151131022Y-102868514D01*
X153465000Y-102868514D01*
X153465000Y-103131486D01*
X153516304Y-103389405D01*
X153616939Y-103632359D01*
X153763038Y-103851013D01*
X153948987Y-104036962D01*
X154167641Y-104183061D01*
X154410595Y-104283696D01*
X154668514Y-104335000D01*
X154931486Y-104335000D01*
X155189405Y-104283696D01*
X155432359Y-104183061D01*
X155651013Y-104036962D01*
X155836962Y-103851013D01*
X155983061Y-103632359D01*
X156083696Y-103389405D01*
X156135000Y-103131486D01*
X156135000Y-102868514D01*
X156083696Y-102610595D01*
X155983061Y-102367641D01*
X155836962Y-102148987D01*
X155651013Y-101963038D01*
X155432359Y-101816939D01*
X155189405Y-101716304D01*
X154931486Y-101665000D01*
X154668514Y-101665000D01*
X154410595Y-101716304D01*
X154167641Y-101816939D01*
X153948987Y-101963038D01*
X153763038Y-102148987D01*
X153616939Y-102367641D01*
X153516304Y-102610595D01*
X153465000Y-102868514D01*
X151131022Y-102868514D01*
X151083696Y-102630595D01*
X150983061Y-102387641D01*
X150836962Y-102168987D01*
X150651013Y-101983038D01*
X150432359Y-101836939D01*
X150189405Y-101736304D01*
X149931486Y-101685000D01*
X149668514Y-101685000D01*
X149410595Y-101736304D01*
X149167641Y-101836939D01*
X148948987Y-101983038D01*
X148763038Y-102168987D01*
X148616939Y-102387641D01*
X148516304Y-102630595D01*
X148465000Y-102888514D01*
X147680310Y-102888514D01*
X147775570Y-102745948D01*
X147894282Y-102459352D01*
X147954800Y-102155104D01*
X147954800Y-101844896D01*
X147894282Y-101540648D01*
X147775570Y-101254052D01*
X147603227Y-100996123D01*
X147383877Y-100776773D01*
X147313876Y-100730000D01*
X147383877Y-100683227D01*
X147603227Y-100463877D01*
X147775570Y-100205948D01*
X147894282Y-99919352D01*
X147954800Y-99615104D01*
X147954800Y-99333620D01*
X148000000Y-99338072D01*
X150200000Y-99338072D01*
X150324482Y-99325812D01*
X150444180Y-99289502D01*
X150554494Y-99230537D01*
X150651185Y-99151185D01*
X150730537Y-99054494D01*
X150789502Y-98944180D01*
X150825812Y-98824482D01*
X150838072Y-98700000D01*
X150838072Y-95900000D01*
X150833516Y-95853740D01*
X150915000Y-95853740D01*
X150915000Y-96146260D01*
X150972068Y-96433158D01*
X151084010Y-96703411D01*
X151246525Y-96946632D01*
X151453368Y-97153475D01*
X151696589Y-97315990D01*
X151966842Y-97427932D01*
X152253740Y-97485000D01*
X152546260Y-97485000D01*
X152833158Y-97427932D01*
X153103411Y-97315990D01*
X153346632Y-97153475D01*
X153553475Y-96946632D01*
X153715990Y-96703411D01*
X153827932Y-96433158D01*
X153885000Y-96146260D01*
X153885000Y-95853740D01*
X153827932Y-95566842D01*
X153715990Y-95296589D01*
X153553475Y-95053368D01*
X153346632Y-94846525D01*
X153103411Y-94684010D01*
X152833158Y-94572068D01*
X152546260Y-94515000D01*
X152253740Y-94515000D01*
X151966842Y-94572068D01*
X151696589Y-94684010D01*
X151453368Y-94846525D01*
X151246525Y-95053368D01*
X151084010Y-95296589D01*
X150972068Y-95566842D01*
X150915000Y-95853740D01*
X150833516Y-95853740D01*
X150825812Y-95775518D01*
X150789502Y-95655820D01*
X150730537Y-95545506D01*
X150651185Y-95448815D01*
X150554494Y-95369463D01*
X150444180Y-95310498D01*
X150324482Y-95274188D01*
X150200000Y-95261928D01*
X148000000Y-95261928D01*
X147875518Y-95274188D01*
X147755820Y-95310498D01*
X147645506Y-95369463D01*
X147548815Y-95448815D01*
X147469463Y-95545506D01*
X147410498Y-95655820D01*
X147386952Y-95733440D01*
X147292870Y-95827522D01*
X147232039Y-95650000D01*
X147292871Y-95472476D01*
X146380000Y-94559605D01*
X145467129Y-95472476D01*
X145527961Y-95650000D01*
X145467129Y-95827524D01*
X146380000Y-96740395D01*
X146394143Y-96726253D01*
X146573748Y-96905858D01*
X146559605Y-96920000D01*
X146573748Y-96934143D01*
X146394143Y-97113748D01*
X146380000Y-97099605D01*
X145467129Y-98012476D01*
X145512714Y-98145505D01*
X145376123Y-98236773D01*
X145156773Y-98456123D01*
X144984430Y-98714052D01*
X144865718Y-99000648D01*
X144805200Y-99304896D01*
X144805200Y-99615104D01*
X144865718Y-99919352D01*
X144984430Y-100205948D01*
X145156773Y-100463877D01*
X145376123Y-100683227D01*
X145446124Y-100730000D01*
X145376123Y-100776773D01*
X145156773Y-100996123D01*
X144984430Y-101254052D01*
X144865718Y-101540648D01*
X144805200Y-101844896D01*
X144805200Y-102155104D01*
X144865718Y-102459352D01*
X144984430Y-102745948D01*
X145156773Y-103003877D01*
X145376123Y-103223227D01*
X145446124Y-103270000D01*
X145376123Y-103316773D01*
X145156773Y-103536123D01*
X144984430Y-103794052D01*
X144865718Y-104080648D01*
X144805200Y-104384896D01*
X144805200Y-104695104D01*
X144865718Y-104999352D01*
X144888851Y-105055199D01*
X143871149Y-105055199D01*
X143894282Y-104999352D01*
X143954800Y-104695104D01*
X143954800Y-104384896D01*
X143894282Y-104080648D01*
X143775570Y-103794052D01*
X143603227Y-103536123D01*
X143383877Y-103316773D01*
X143313876Y-103270000D01*
X143383877Y-103223227D01*
X143603227Y-103003877D01*
X143775570Y-102745948D01*
X143894282Y-102459352D01*
X143954800Y-102155104D01*
X143954800Y-101844896D01*
X143894282Y-101540648D01*
X143775570Y-101254052D01*
X143603227Y-100996123D01*
X143383877Y-100776773D01*
X143313876Y-100730000D01*
X143383877Y-100683227D01*
X143603227Y-100463877D01*
X143775570Y-100205948D01*
X143894282Y-99919352D01*
X143954800Y-99615104D01*
X143954800Y-99304896D01*
X143894282Y-99000648D01*
X143775570Y-98714052D01*
X143603227Y-98456123D01*
X143383877Y-98236773D01*
X143313876Y-98190000D01*
X143383877Y-98143227D01*
X143603227Y-97923877D01*
X143775570Y-97665948D01*
X143894282Y-97379352D01*
X143954800Y-97075104D01*
X143954800Y-96984977D01*
X144798916Y-96984977D01*
X144841973Y-97292184D01*
X144944135Y-97585086D01*
X145029277Y-97744377D01*
X145287524Y-97832871D01*
X146200395Y-96920000D01*
X145287524Y-96007129D01*
X145029277Y-96095623D01*
X144894403Y-96374976D01*
X144816619Y-96675275D01*
X144798916Y-96984977D01*
X143954800Y-96984977D01*
X143954800Y-96764896D01*
X143894282Y-96460648D01*
X143775570Y-96174052D01*
X143603227Y-95916123D01*
X143383877Y-95696773D01*
X143313876Y-95650000D01*
X143383877Y-95603227D01*
X143603227Y-95383877D01*
X143775570Y-95125948D01*
X143894282Y-94839352D01*
X143954800Y-94535104D01*
X143954800Y-94224896D01*
X143894282Y-93920648D01*
X143875456Y-93875199D01*
X144883984Y-93875199D01*
X144816619Y-94135275D01*
G36*
X140984430Y-100205948D02*
G01*
X141156773Y-100463877D01*
X141376123Y-100683227D01*
X141446124Y-100730000D01*
X141376123Y-100776773D01*
X141156773Y-100996123D01*
X140984430Y-101254052D01*
X140865718Y-101540648D01*
X140805200Y-101844896D01*
X140805200Y-102155104D01*
X140865718Y-102459352D01*
X140984430Y-102745948D01*
X141156773Y-103003877D01*
X141376123Y-103223227D01*
X141446124Y-103270000D01*
X141376123Y-103316773D01*
X141156773Y-103536123D01*
X140984430Y-103794052D01*
X140865718Y-104080648D01*
X140805200Y-104384896D01*
X140805200Y-104695104D01*
X140865718Y-104999352D01*
X140984430Y-105285948D01*
X141081728Y-105431564D01*
X140823292Y-105690001D01*
X140696099Y-105690001D01*
X140749855Y-105479474D01*
X140765804Y-105182457D01*
X140723501Y-104888037D01*
X140624572Y-104607526D01*
X140547868Y-104464025D01*
X140296240Y-104383365D01*
X139429605Y-105250000D01*
X139443748Y-105264143D01*
X139264143Y-105443748D01*
X139250000Y-105429605D01*
X139235858Y-105443748D01*
X139056253Y-105264143D01*
X139070395Y-105250000D01*
X138203760Y-104383365D01*
X137952132Y-104464025D01*
X137823733Y-104732329D01*
X137750145Y-105020526D01*
X137734196Y-105317543D01*
X137776499Y-105611963D01*
X137804021Y-105690001D01*
X136264803Y-105690001D01*
X136212470Y-105637668D01*
X136260000Y-105398722D01*
X136260000Y-105101278D01*
X136201971Y-104809549D01*
X136088144Y-104534747D01*
X136038200Y-104460000D01*
X136038680Y-104460000D01*
X136076002Y-104463676D01*
X136113324Y-104460000D01*
X136113335Y-104460000D01*
X136224988Y-104449003D01*
X136368249Y-104405546D01*
X136500278Y-104334974D01*
X136616003Y-104240001D01*
X136639806Y-104210997D01*
X136647043Y-104203760D01*
X138383365Y-104203760D01*
X139250000Y-105070395D01*
X140116635Y-104203760D01*
X140035975Y-103952132D01*
X139767671Y-103823733D01*
X139479474Y-103750145D01*
X139182457Y-103734196D01*
X138888037Y-103776499D01*
X138607526Y-103875428D01*
X138464025Y-103952132D01*
X138383365Y-104203760D01*
X136647043Y-104203760D01*
X140884971Y-99965833D01*
X140984430Y-100205948D01*
G37*
X140984430Y-100205948D02*
X141156773Y-100463877D01*
X141376123Y-100683227D01*
X141446124Y-100730000D01*
X141376123Y-100776773D01*
X141156773Y-100996123D01*
X140984430Y-101254052D01*
X140865718Y-101540648D01*
X140805200Y-101844896D01*
X140805200Y-102155104D01*
X140865718Y-102459352D01*
X140984430Y-102745948D01*
X141156773Y-103003877D01*
X141376123Y-103223227D01*
X141446124Y-103270000D01*
X141376123Y-103316773D01*
X141156773Y-103536123D01*
X140984430Y-103794052D01*
X140865718Y-104080648D01*
X140805200Y-104384896D01*
X140805200Y-104695104D01*
X140865718Y-104999352D01*
X140984430Y-105285948D01*
X141081728Y-105431564D01*
X140823292Y-105690001D01*
X140696099Y-105690001D01*
X140749855Y-105479474D01*
X140765804Y-105182457D01*
X140723501Y-104888037D01*
X140624572Y-104607526D01*
X140547868Y-104464025D01*
X140296240Y-104383365D01*
X139429605Y-105250000D01*
X139443748Y-105264143D01*
X139264143Y-105443748D01*
X139250000Y-105429605D01*
X139235858Y-105443748D01*
X139056253Y-105264143D01*
X139070395Y-105250000D01*
X138203760Y-104383365D01*
X137952132Y-104464025D01*
X137823733Y-104732329D01*
X137750145Y-105020526D01*
X137734196Y-105317543D01*
X137776499Y-105611963D01*
X137804021Y-105690001D01*
X136264803Y-105690001D01*
X136212470Y-105637668D01*
X136260000Y-105398722D01*
X136260000Y-105101278D01*
X136201971Y-104809549D01*
X136088144Y-104534747D01*
X136038200Y-104460000D01*
X136038680Y-104460000D01*
X136076002Y-104463676D01*
X136113324Y-104460000D01*
X136113335Y-104460000D01*
X136224988Y-104449003D01*
X136368249Y-104405546D01*
X136500278Y-104334974D01*
X136616003Y-104240001D01*
X136639806Y-104210997D01*
X136647043Y-104203760D01*
X138383365Y-104203760D01*
X139250000Y-105070395D01*
X140116635Y-104203760D01*
X140035975Y-103952132D01*
X139767671Y-103823733D01*
X139479474Y-103750145D01*
X139182457Y-103734196D01*
X138888037Y-103776499D01*
X138607526Y-103875428D01*
X138464025Y-103952132D01*
X138383365Y-104203760D01*
X136647043Y-104203760D01*
X140884971Y-99965833D01*
X140984430Y-100205948D01*
G36*
X140865718Y-93920648D02*
G01*
X140805200Y-94224896D01*
X140805200Y-94535104D01*
X140865718Y-94839352D01*
X140984430Y-95125948D01*
X141156773Y-95383877D01*
X141376123Y-95603227D01*
X141446124Y-95650000D01*
X141376123Y-95696773D01*
X141156773Y-95916123D01*
X140984430Y-96174052D01*
X140865718Y-96460648D01*
X140805200Y-96764896D01*
X140805200Y-97075104D01*
X140862910Y-97365236D01*
X140854546Y-97375428D01*
X140805227Y-97435523D01*
X140778781Y-97485000D01*
X140734655Y-97567553D01*
X140691198Y-97710814D01*
X140680201Y-97822467D01*
X140680201Y-97822477D01*
X140676525Y-97859799D01*
X140680201Y-97897121D01*
X140680201Y-98020999D01*
X140613809Y-98087391D01*
X140547868Y-97964025D01*
X140296240Y-97883365D01*
X139429605Y-98750000D01*
X139443748Y-98764143D01*
X139264143Y-98943748D01*
X139250000Y-98929605D01*
X138383365Y-99796240D01*
X138464025Y-100047868D01*
X138592060Y-100109140D01*
X135761201Y-102940000D01*
X134561331Y-102940000D01*
X134523998Y-102936323D01*
X134486665Y-102940000D01*
X134375012Y-102950997D01*
X134231751Y-102994454D01*
X134099722Y-103065026D01*
X133983997Y-103159999D01*
X133960199Y-103188997D01*
X133695000Y-103454196D01*
X133695000Y-99830462D01*
X133787431Y-99922893D01*
X134034747Y-100088144D01*
X134309549Y-100201971D01*
X134601278Y-100260000D01*
X134898722Y-100260000D01*
X135190451Y-100201971D01*
X135465253Y-100088144D01*
X135712569Y-99922893D01*
X135922893Y-99712569D01*
X136088144Y-99465253D01*
X136201971Y-99190451D01*
X136260000Y-98898722D01*
X136260000Y-98817543D01*
X137734196Y-98817543D01*
X137776499Y-99111963D01*
X137875428Y-99392474D01*
X137952132Y-99535975D01*
X138203760Y-99616635D01*
X139070395Y-98750000D01*
X138203760Y-97883365D01*
X137952132Y-97964025D01*
X137823733Y-98232329D01*
X137750145Y-98520526D01*
X137734196Y-98817543D01*
X136260000Y-98817543D01*
X136260000Y-98601278D01*
X136212470Y-98362331D01*
X136871041Y-97703760D01*
X138383365Y-97703760D01*
X139250000Y-98570395D01*
X140116635Y-97703760D01*
X140035975Y-97452132D01*
X139767671Y-97323733D01*
X139479474Y-97250145D01*
X139182457Y-97234196D01*
X138888037Y-97276499D01*
X138607526Y-97375428D01*
X138464025Y-97452132D01*
X138383365Y-97703760D01*
X136871041Y-97703760D01*
X140699603Y-93875199D01*
X140884544Y-93875199D01*
X140865718Y-93920648D01*
G37*
X140865718Y-93920648D02*
X140805200Y-94224896D01*
X140805200Y-94535104D01*
X140865718Y-94839352D01*
X140984430Y-95125948D01*
X141156773Y-95383877D01*
X141376123Y-95603227D01*
X141446124Y-95650000D01*
X141376123Y-95696773D01*
X141156773Y-95916123D01*
X140984430Y-96174052D01*
X140865718Y-96460648D01*
X140805200Y-96764896D01*
X140805200Y-97075104D01*
X140862910Y-97365236D01*
X140854546Y-97375428D01*
X140805227Y-97435523D01*
X140778781Y-97485000D01*
X140734655Y-97567553D01*
X140691198Y-97710814D01*
X140680201Y-97822467D01*
X140680201Y-97822477D01*
X140676525Y-97859799D01*
X140680201Y-97897121D01*
X140680201Y-98020999D01*
X140613809Y-98087391D01*
X140547868Y-97964025D01*
X140296240Y-97883365D01*
X139429605Y-98750000D01*
X139443748Y-98764143D01*
X139264143Y-98943748D01*
X139250000Y-98929605D01*
X138383365Y-99796240D01*
X138464025Y-100047868D01*
X138592060Y-100109140D01*
X135761201Y-102940000D01*
X134561331Y-102940000D01*
X134523998Y-102936323D01*
X134486665Y-102940000D01*
X134375012Y-102950997D01*
X134231751Y-102994454D01*
X134099722Y-103065026D01*
X133983997Y-103159999D01*
X133960199Y-103188997D01*
X133695000Y-103454196D01*
X133695000Y-99830462D01*
X133787431Y-99922893D01*
X134034747Y-100088144D01*
X134309549Y-100201971D01*
X134601278Y-100260000D01*
X134898722Y-100260000D01*
X135190451Y-100201971D01*
X135465253Y-100088144D01*
X135712569Y-99922893D01*
X135922893Y-99712569D01*
X136088144Y-99465253D01*
X136201971Y-99190451D01*
X136260000Y-98898722D01*
X136260000Y-98817543D01*
X137734196Y-98817543D01*
X137776499Y-99111963D01*
X137875428Y-99392474D01*
X137952132Y-99535975D01*
X138203760Y-99616635D01*
X139070395Y-98750000D01*
X138203760Y-97883365D01*
X137952132Y-97964025D01*
X137823733Y-98232329D01*
X137750145Y-98520526D01*
X137734196Y-98817543D01*
X136260000Y-98817543D01*
X136260000Y-98601278D01*
X136212470Y-98362331D01*
X136871041Y-97703760D01*
X138383365Y-97703760D01*
X139250000Y-98570395D01*
X140116635Y-97703760D01*
X140035975Y-97452132D01*
X139767671Y-97323733D01*
X139479474Y-97250145D01*
X139182457Y-97234196D01*
X138888037Y-97276499D01*
X138607526Y-97375428D01*
X138464025Y-97452132D01*
X138383365Y-97703760D01*
X136871041Y-97703760D01*
X140699603Y-93875199D01*
X140884544Y-93875199D01*
X140865718Y-93920648D01*
G36*
X140865718Y-86300648D02*
G01*
X140805200Y-86604896D01*
X140805200Y-86915104D01*
X140865718Y-87219352D01*
X140984430Y-87505948D01*
X141156773Y-87763877D01*
X141376123Y-87983227D01*
X141446124Y-88030000D01*
X141376123Y-88076773D01*
X141156773Y-88296123D01*
X140984430Y-88554052D01*
X140865718Y-88840648D01*
X140805200Y-89144896D01*
X140805200Y-89455104D01*
X140865718Y-89759352D01*
X140984430Y-90045948D01*
X141156773Y-90303877D01*
X141376123Y-90523227D01*
X141446124Y-90570000D01*
X141376123Y-90616773D01*
X141156773Y-90836123D01*
X140984430Y-91094052D01*
X140865718Y-91380648D01*
X140805200Y-91684896D01*
X140805200Y-91995104D01*
X140865718Y-92299352D01*
X140888851Y-92355199D01*
X140422123Y-92355199D01*
X140384801Y-92351523D01*
X140347478Y-92355199D01*
X140347468Y-92355199D01*
X140235815Y-92366196D01*
X140092554Y-92409653D01*
X139960524Y-92480225D01*
X139893781Y-92535000D01*
X139844800Y-92575198D01*
X139821002Y-92604196D01*
X135137669Y-97287530D01*
X134898722Y-97240000D01*
X134601278Y-97240000D01*
X134309549Y-97298029D01*
X134034747Y-97411856D01*
X133787431Y-97577107D01*
X133695000Y-97669538D01*
X133695000Y-91400000D01*
X135359509Y-91400000D01*
X135381423Y-91622499D01*
X135446324Y-91836447D01*
X135551716Y-92033623D01*
X135688258Y-92200000D01*
X135551716Y-92366377D01*
X135446324Y-92563553D01*
X135381423Y-92777501D01*
X135359509Y-93000000D01*
X135381423Y-93222499D01*
X135446324Y-93436447D01*
X135551716Y-93633623D01*
X135693551Y-93806449D01*
X135866377Y-93948284D01*
X136063553Y-94053676D01*
X136277501Y-94118577D01*
X136444248Y-94135000D01*
X137555752Y-94135000D01*
X137722499Y-94118577D01*
X137936447Y-94053676D01*
X138133623Y-93948284D01*
X138306449Y-93806449D01*
X138448284Y-93633623D01*
X138553676Y-93436447D01*
X138618577Y-93222499D01*
X138640491Y-93000000D01*
X138618577Y-92777501D01*
X138553676Y-92563553D01*
X138448284Y-92366377D01*
X138311742Y-92200000D01*
X138448284Y-92033623D01*
X138553676Y-91836447D01*
X138618577Y-91622499D01*
X138640491Y-91400000D01*
X138618577Y-91177501D01*
X138553676Y-90963553D01*
X138448284Y-90766377D01*
X138342197Y-90637110D01*
X138354494Y-90630537D01*
X138451185Y-90551185D01*
X138530537Y-90454494D01*
X138589502Y-90344180D01*
X138625812Y-90224482D01*
X138638072Y-90100000D01*
X138635000Y-89885750D01*
X138476250Y-89727000D01*
X137127000Y-89727000D01*
X137127000Y-89747000D01*
X136873000Y-89747000D01*
X136873000Y-89727000D01*
X135523750Y-89727000D01*
X135365000Y-89885750D01*
X135361928Y-90100000D01*
X135374188Y-90224482D01*
X135410498Y-90344180D01*
X135469463Y-90454494D01*
X135548815Y-90551185D01*
X135645506Y-90630537D01*
X135657803Y-90637110D01*
X135551716Y-90766377D01*
X135446324Y-90963553D01*
X135381423Y-91177501D01*
X135359509Y-91400000D01*
X133695000Y-91400000D01*
X133695000Y-88000000D01*
X135359509Y-88000000D01*
X135381423Y-88222499D01*
X135446324Y-88436447D01*
X135551716Y-88633623D01*
X135557999Y-88641278D01*
X135548815Y-88648815D01*
X135469463Y-88745506D01*
X135410498Y-88855820D01*
X135374188Y-88975518D01*
X135361928Y-89100000D01*
X135365000Y-89314250D01*
X135523750Y-89473000D01*
X136873000Y-89473000D01*
X136873000Y-89453000D01*
X137127000Y-89453000D01*
X137127000Y-89473000D01*
X138476250Y-89473000D01*
X138635000Y-89314250D01*
X138638072Y-89100000D01*
X138625812Y-88975518D01*
X138589502Y-88855820D01*
X138530537Y-88745506D01*
X138451185Y-88648815D01*
X138442001Y-88641278D01*
X138448284Y-88633623D01*
X138553676Y-88436447D01*
X138618577Y-88222499D01*
X138640491Y-88000000D01*
X138618577Y-87777501D01*
X138553676Y-87563553D01*
X138448284Y-87366377D01*
X138306449Y-87193551D01*
X138133623Y-87051716D01*
X137936447Y-86946324D01*
X137722499Y-86881423D01*
X137555752Y-86865000D01*
X136444248Y-86865000D01*
X136277501Y-86881423D01*
X136063553Y-86946324D01*
X135866377Y-87051716D01*
X135693551Y-87193551D01*
X135551716Y-87366377D01*
X135446324Y-87563553D01*
X135381423Y-87777501D01*
X135359509Y-88000000D01*
X133695000Y-88000000D01*
X133695000Y-86433992D01*
X133704078Y-86341405D01*
X133721094Y-86285045D01*
X133748737Y-86233057D01*
X133785943Y-86187437D01*
X133831311Y-86149905D01*
X133883095Y-86121906D01*
X133939341Y-86104495D01*
X134029676Y-86095000D01*
X140950900Y-86095000D01*
X140865718Y-86300648D01*
G37*
X140865718Y-86300648D02*
X140805200Y-86604896D01*
X140805200Y-86915104D01*
X140865718Y-87219352D01*
X140984430Y-87505948D01*
X141156773Y-87763877D01*
X141376123Y-87983227D01*
X141446124Y-88030000D01*
X141376123Y-88076773D01*
X141156773Y-88296123D01*
X140984430Y-88554052D01*
X140865718Y-88840648D01*
X140805200Y-89144896D01*
X140805200Y-89455104D01*
X140865718Y-89759352D01*
X140984430Y-90045948D01*
X141156773Y-90303877D01*
X141376123Y-90523227D01*
X141446124Y-90570000D01*
X141376123Y-90616773D01*
X141156773Y-90836123D01*
X140984430Y-91094052D01*
X140865718Y-91380648D01*
X140805200Y-91684896D01*
X140805200Y-91995104D01*
X140865718Y-92299352D01*
X140888851Y-92355199D01*
X140422123Y-92355199D01*
X140384801Y-92351523D01*
X140347478Y-92355199D01*
X140347468Y-92355199D01*
X140235815Y-92366196D01*
X140092554Y-92409653D01*
X139960524Y-92480225D01*
X139893781Y-92535000D01*
X139844800Y-92575198D01*
X139821002Y-92604196D01*
X135137669Y-97287530D01*
X134898722Y-97240000D01*
X134601278Y-97240000D01*
X134309549Y-97298029D01*
X134034747Y-97411856D01*
X133787431Y-97577107D01*
X133695000Y-97669538D01*
X133695000Y-91400000D01*
X135359509Y-91400000D01*
X135381423Y-91622499D01*
X135446324Y-91836447D01*
X135551716Y-92033623D01*
X135688258Y-92200000D01*
X135551716Y-92366377D01*
X135446324Y-92563553D01*
X135381423Y-92777501D01*
X135359509Y-93000000D01*
X135381423Y-93222499D01*
X135446324Y-93436447D01*
X135551716Y-93633623D01*
X135693551Y-93806449D01*
X135866377Y-93948284D01*
X136063553Y-94053676D01*
X136277501Y-94118577D01*
X136444248Y-94135000D01*
X137555752Y-94135000D01*
X137722499Y-94118577D01*
X137936447Y-94053676D01*
X138133623Y-93948284D01*
X138306449Y-93806449D01*
X138448284Y-93633623D01*
X138553676Y-93436447D01*
X138618577Y-93222499D01*
X138640491Y-93000000D01*
X138618577Y-92777501D01*
X138553676Y-92563553D01*
X138448284Y-92366377D01*
X138311742Y-92200000D01*
X138448284Y-92033623D01*
X138553676Y-91836447D01*
X138618577Y-91622499D01*
X138640491Y-91400000D01*
X138618577Y-91177501D01*
X138553676Y-90963553D01*
X138448284Y-90766377D01*
X138342197Y-90637110D01*
X138354494Y-90630537D01*
X138451185Y-90551185D01*
X138530537Y-90454494D01*
X138589502Y-90344180D01*
X138625812Y-90224482D01*
X138638072Y-90100000D01*
X138635000Y-89885750D01*
X138476250Y-89727000D01*
X137127000Y-89727000D01*
X137127000Y-89747000D01*
X136873000Y-89747000D01*
X136873000Y-89727000D01*
X135523750Y-89727000D01*
X135365000Y-89885750D01*
X135361928Y-90100000D01*
X135374188Y-90224482D01*
X135410498Y-90344180D01*
X135469463Y-90454494D01*
X135548815Y-90551185D01*
X135645506Y-90630537D01*
X135657803Y-90637110D01*
X135551716Y-90766377D01*
X135446324Y-90963553D01*
X135381423Y-91177501D01*
X135359509Y-91400000D01*
X133695000Y-91400000D01*
X133695000Y-88000000D01*
X135359509Y-88000000D01*
X135381423Y-88222499D01*
X135446324Y-88436447D01*
X135551716Y-88633623D01*
X135557999Y-88641278D01*
X135548815Y-88648815D01*
X135469463Y-88745506D01*
X135410498Y-88855820D01*
X135374188Y-88975518D01*
X135361928Y-89100000D01*
X135365000Y-89314250D01*
X135523750Y-89473000D01*
X136873000Y-89473000D01*
X136873000Y-89453000D01*
X137127000Y-89453000D01*
X137127000Y-89473000D01*
X138476250Y-89473000D01*
X138635000Y-89314250D01*
X138638072Y-89100000D01*
X138625812Y-88975518D01*
X138589502Y-88855820D01*
X138530537Y-88745506D01*
X138451185Y-88648815D01*
X138442001Y-88641278D01*
X138448284Y-88633623D01*
X138553676Y-88436447D01*
X138618577Y-88222499D01*
X138640491Y-88000000D01*
X138618577Y-87777501D01*
X138553676Y-87563553D01*
X138448284Y-87366377D01*
X138306449Y-87193551D01*
X138133623Y-87051716D01*
X137936447Y-86946324D01*
X137722499Y-86881423D01*
X137555752Y-86865000D01*
X136444248Y-86865000D01*
X136277501Y-86881423D01*
X136063553Y-86946324D01*
X135866377Y-87051716D01*
X135693551Y-87193551D01*
X135551716Y-87366377D01*
X135446324Y-87563553D01*
X135381423Y-87777501D01*
X135359509Y-88000000D01*
X133695000Y-88000000D01*
X133695000Y-86433992D01*
X133704078Y-86341405D01*
X133721094Y-86285045D01*
X133748737Y-86233057D01*
X133785943Y-86187437D01*
X133831311Y-86149905D01*
X133883095Y-86121906D01*
X133939341Y-86104495D01*
X134029676Y-86095000D01*
X140950900Y-86095000D01*
X140865718Y-86300648D01*
G36*
X156105718Y-86300648D02*
G01*
X156045200Y-86604896D01*
X156045200Y-86915104D01*
X156105718Y-87219352D01*
X156224430Y-87505948D01*
X156396773Y-87763877D01*
X156616123Y-87983227D01*
X156686124Y-88030000D01*
X156616123Y-88076773D01*
X156434252Y-88258644D01*
X156344180Y-88210498D01*
X156224482Y-88174188D01*
X156100000Y-88161928D01*
X153900000Y-88161928D01*
X153775518Y-88174188D01*
X153658020Y-88209831D01*
X153553475Y-88053368D01*
X153346632Y-87846525D01*
X153103411Y-87684010D01*
X152833158Y-87572068D01*
X152546260Y-87515000D01*
X152253740Y-87515000D01*
X151966842Y-87572068D01*
X151696589Y-87684010D01*
X151453368Y-87846525D01*
X151246525Y-88053368D01*
X151084010Y-88296589D01*
X150972068Y-88566842D01*
X150915000Y-88853740D01*
X150915000Y-89146260D01*
X150972068Y-89433158D01*
X151084010Y-89703411D01*
X151246525Y-89946632D01*
X151453368Y-90153475D01*
X151696589Y-90315990D01*
X151966842Y-90427932D01*
X152253740Y-90485000D01*
X152546260Y-90485000D01*
X152833158Y-90427932D01*
X153103411Y-90315990D01*
X153261928Y-90210072D01*
X153261928Y-91000000D01*
X153274188Y-91124482D01*
X153310498Y-91244180D01*
X153369463Y-91354494D01*
X153448815Y-91451185D01*
X153545506Y-91530537D01*
X153655820Y-91589502D01*
X153775518Y-91625812D01*
X153900000Y-91638072D01*
X156054514Y-91638072D01*
X156045200Y-91684896D01*
X156045200Y-91995104D01*
X156105718Y-92299352D01*
X156128851Y-92355199D01*
X147871149Y-92355199D01*
X147894282Y-92299352D01*
X147954800Y-91995104D01*
X147954800Y-91684896D01*
X147894282Y-91380648D01*
X147775570Y-91094052D01*
X147603227Y-90836123D01*
X147383877Y-90616773D01*
X147313876Y-90570000D01*
X147383877Y-90523227D01*
X147603227Y-90303877D01*
X147775570Y-90045948D01*
X147894282Y-89759352D01*
X147919974Y-89630190D01*
X148000000Y-89638072D01*
X148814250Y-89635000D01*
X148973000Y-89476250D01*
X148973000Y-88027000D01*
X149227000Y-88027000D01*
X149227000Y-89476250D01*
X149385750Y-89635000D01*
X150200000Y-89638072D01*
X150324482Y-89625812D01*
X150444180Y-89589502D01*
X150554494Y-89530537D01*
X150651185Y-89451185D01*
X150730537Y-89354494D01*
X150789502Y-89244180D01*
X150825812Y-89124482D01*
X150838072Y-89000000D01*
X150835000Y-88185750D01*
X150676250Y-88027000D01*
X149227000Y-88027000D01*
X148973000Y-88027000D01*
X148953000Y-88027000D01*
X148953000Y-87773000D01*
X148973000Y-87773000D01*
X148973000Y-86323750D01*
X149227000Y-86323750D01*
X149227000Y-87773000D01*
X150676250Y-87773000D01*
X150835000Y-87614250D01*
X150838072Y-86800000D01*
X150825812Y-86675518D01*
X150789502Y-86555820D01*
X150730537Y-86445506D01*
X150651185Y-86348815D01*
X150554494Y-86269463D01*
X150444180Y-86210498D01*
X150324482Y-86174188D01*
X150200000Y-86161928D01*
X149385750Y-86165000D01*
X149227000Y-86323750D01*
X148973000Y-86323750D01*
X148814250Y-86165000D01*
X148000000Y-86161928D01*
X147875518Y-86174188D01*
X147845653Y-86183247D01*
X147809100Y-86095000D01*
X156190900Y-86095000D01*
X156105718Y-86300648D01*
G37*
X156105718Y-86300648D02*
X156045200Y-86604896D01*
X156045200Y-86915104D01*
X156105718Y-87219352D01*
X156224430Y-87505948D01*
X156396773Y-87763877D01*
X156616123Y-87983227D01*
X156686124Y-88030000D01*
X156616123Y-88076773D01*
X156434252Y-88258644D01*
X156344180Y-88210498D01*
X156224482Y-88174188D01*
X156100000Y-88161928D01*
X153900000Y-88161928D01*
X153775518Y-88174188D01*
X153658020Y-88209831D01*
X153553475Y-88053368D01*
X153346632Y-87846525D01*
X153103411Y-87684010D01*
X152833158Y-87572068D01*
X152546260Y-87515000D01*
X152253740Y-87515000D01*
X151966842Y-87572068D01*
X151696589Y-87684010D01*
X151453368Y-87846525D01*
X151246525Y-88053368D01*
X151084010Y-88296589D01*
X150972068Y-88566842D01*
X150915000Y-88853740D01*
X150915000Y-89146260D01*
X150972068Y-89433158D01*
X151084010Y-89703411D01*
X151246525Y-89946632D01*
X151453368Y-90153475D01*
X151696589Y-90315990D01*
X151966842Y-90427932D01*
X152253740Y-90485000D01*
X152546260Y-90485000D01*
X152833158Y-90427932D01*
X153103411Y-90315990D01*
X153261928Y-90210072D01*
X153261928Y-91000000D01*
X153274188Y-91124482D01*
X153310498Y-91244180D01*
X153369463Y-91354494D01*
X153448815Y-91451185D01*
X153545506Y-91530537D01*
X153655820Y-91589502D01*
X153775518Y-91625812D01*
X153900000Y-91638072D01*
X156054514Y-91638072D01*
X156045200Y-91684896D01*
X156045200Y-91995104D01*
X156105718Y-92299352D01*
X156128851Y-92355199D01*
X147871149Y-92355199D01*
X147894282Y-92299352D01*
X147954800Y-91995104D01*
X147954800Y-91684896D01*
X147894282Y-91380648D01*
X147775570Y-91094052D01*
X147603227Y-90836123D01*
X147383877Y-90616773D01*
X147313876Y-90570000D01*
X147383877Y-90523227D01*
X147603227Y-90303877D01*
X147775570Y-90045948D01*
X147894282Y-89759352D01*
X147919974Y-89630190D01*
X148000000Y-89638072D01*
X148814250Y-89635000D01*
X148973000Y-89476250D01*
X148973000Y-88027000D01*
X149227000Y-88027000D01*
X149227000Y-89476250D01*
X149385750Y-89635000D01*
X150200000Y-89638072D01*
X150324482Y-89625812D01*
X150444180Y-89589502D01*
X150554494Y-89530537D01*
X150651185Y-89451185D01*
X150730537Y-89354494D01*
X150789502Y-89244180D01*
X150825812Y-89124482D01*
X150838072Y-89000000D01*
X150835000Y-88185750D01*
X150676250Y-88027000D01*
X149227000Y-88027000D01*
X148973000Y-88027000D01*
X148953000Y-88027000D01*
X148953000Y-87773000D01*
X148973000Y-87773000D01*
X148973000Y-86323750D01*
X149227000Y-86323750D01*
X149227000Y-87773000D01*
X150676250Y-87773000D01*
X150835000Y-87614250D01*
X150838072Y-86800000D01*
X150825812Y-86675518D01*
X150789502Y-86555820D01*
X150730537Y-86445506D01*
X150651185Y-86348815D01*
X150554494Y-86269463D01*
X150444180Y-86210498D01*
X150324482Y-86174188D01*
X150200000Y-86161928D01*
X149385750Y-86165000D01*
X149227000Y-86323750D01*
X148973000Y-86323750D01*
X148814250Y-86165000D01*
X148000000Y-86161928D01*
X147875518Y-86174188D01*
X147845653Y-86183247D01*
X147809100Y-86095000D01*
X156190900Y-86095000D01*
X156105718Y-86300648D01*
G36*
X160105718Y-86300648D02*
G01*
X160045200Y-86604896D01*
X160045200Y-86915104D01*
X160105718Y-87219352D01*
X160224430Y-87505948D01*
X160396773Y-87763877D01*
X160616123Y-87983227D01*
X160686124Y-88030000D01*
X160616123Y-88076773D01*
X160396773Y-88296123D01*
X160224430Y-88554052D01*
X160105718Y-88840648D01*
X160045200Y-89144896D01*
X160045200Y-89455104D01*
X160105718Y-89759352D01*
X160224430Y-90045948D01*
X160396773Y-90303877D01*
X160616123Y-90523227D01*
X160752714Y-90614495D01*
X160707129Y-90747524D01*
X161620000Y-91660395D01*
X161634143Y-91646253D01*
X161813748Y-91825858D01*
X161799605Y-91840000D01*
X161813748Y-91854143D01*
X161634143Y-92033748D01*
X161620000Y-92019605D01*
X161605858Y-92033748D01*
X161426253Y-91854143D01*
X161440395Y-91840000D01*
X160527524Y-90927129D01*
X160269277Y-91015623D01*
X160134403Y-91294976D01*
X160056619Y-91595275D01*
X160038916Y-91904977D01*
X160081973Y-92212184D01*
X160131856Y-92355199D01*
X159111149Y-92355199D01*
X159134282Y-92299352D01*
X159194800Y-91995104D01*
X159194800Y-91684896D01*
X159134282Y-91380648D01*
X159015570Y-91094052D01*
X158843227Y-90836123D01*
X158623877Y-90616773D01*
X158553876Y-90570000D01*
X158623877Y-90523227D01*
X158843227Y-90303877D01*
X159015570Y-90045948D01*
X159134282Y-89759352D01*
X159194800Y-89455104D01*
X159194800Y-89144896D01*
X159134282Y-88840648D01*
X159015570Y-88554052D01*
X158843227Y-88296123D01*
X158623877Y-88076773D01*
X158553876Y-88030000D01*
X158623877Y-87983227D01*
X158843227Y-87763877D01*
X159015570Y-87505948D01*
X159134282Y-87219352D01*
X159194800Y-86915104D01*
X159194800Y-86604896D01*
X159134282Y-86300648D01*
X159049100Y-86095000D01*
X160190900Y-86095000D01*
X160105718Y-86300648D01*
G37*
X160105718Y-86300648D02*
X160045200Y-86604896D01*
X160045200Y-86915104D01*
X160105718Y-87219352D01*
X160224430Y-87505948D01*
X160396773Y-87763877D01*
X160616123Y-87983227D01*
X160686124Y-88030000D01*
X160616123Y-88076773D01*
X160396773Y-88296123D01*
X160224430Y-88554052D01*
X160105718Y-88840648D01*
X160045200Y-89144896D01*
X160045200Y-89455104D01*
X160105718Y-89759352D01*
X160224430Y-90045948D01*
X160396773Y-90303877D01*
X160616123Y-90523227D01*
X160752714Y-90614495D01*
X160707129Y-90747524D01*
X161620000Y-91660395D01*
X161634143Y-91646253D01*
X161813748Y-91825858D01*
X161799605Y-91840000D01*
X161813748Y-91854143D01*
X161634143Y-92033748D01*
X161620000Y-92019605D01*
X161605858Y-92033748D01*
X161426253Y-91854143D01*
X161440395Y-91840000D01*
X160527524Y-90927129D01*
X160269277Y-91015623D01*
X160134403Y-91294976D01*
X160056619Y-91595275D01*
X160038916Y-91904977D01*
X160081973Y-92212184D01*
X160131856Y-92355199D01*
X159111149Y-92355199D01*
X159134282Y-92299352D01*
X159194800Y-91995104D01*
X159194800Y-91684896D01*
X159134282Y-91380648D01*
X159015570Y-91094052D01*
X158843227Y-90836123D01*
X158623877Y-90616773D01*
X158553876Y-90570000D01*
X158623877Y-90523227D01*
X158843227Y-90303877D01*
X159015570Y-90045948D01*
X159134282Y-89759352D01*
X159194800Y-89455104D01*
X159194800Y-89144896D01*
X159134282Y-88840648D01*
X159015570Y-88554052D01*
X158843227Y-88296123D01*
X158623877Y-88076773D01*
X158553876Y-88030000D01*
X158623877Y-87983227D01*
X158843227Y-87763877D01*
X159015570Y-87505948D01*
X159134282Y-87219352D01*
X159194800Y-86915104D01*
X159194800Y-86604896D01*
X159134282Y-86300648D01*
X159049100Y-86095000D01*
X160190900Y-86095000D01*
X160105718Y-86300648D01*
G36*
X147365000Y-88027002D02*
G01*
X147523748Y-88027002D01*
X147428927Y-88121823D01*
X147383877Y-88076773D01*
X147313876Y-88030000D01*
X147365000Y-87995840D01*
X147365000Y-88027002D01*
G37*
X147365000Y-88027002D02*
X147523748Y-88027002D01*
X147428927Y-88121823D01*
X147383877Y-88076773D01*
X147313876Y-88030000D01*
X147365000Y-87995840D01*
X147365000Y-88027002D01*
M02*
