G04 #@! TF.GenerationSoftware,KiCad,Pcbnew,(5.1.5-0-10_14)*
G04 #@! TF.CreationDate,2020-05-13T01:35:36-07:00*
G04 #@! TF.ProjectId,prost-pcb,70726f73-742d-4706-9362-2e6b69636164,0.1.0*
G04 #@! TF.SameCoordinates,Original*
G04 #@! TF.FileFunction,Soldermask,Bot*
G04 #@! TF.FilePolarity,Negative*
%FSLAX46Y46*%
G04 Gerber Fmt 4.6, Leading zero omitted, Abs format (unit mm)*
G04 Created by KiCad (PCBNEW (5.1.5-0-10_14)) date 2020-05-13 01:35:36*
%MOMM*%
%LPD*%
G04 APERTURE LIST*
%ADD10C,0.100000*%
G04 APERTURE END LIST*
D10*
G36*
X149932479Y-116123979D02*
G01*
X150059867Y-116162622D01*
X150059870Y-116162623D01*
X150163345Y-116217932D01*
X150177270Y-116225375D01*
X150193409Y-116238620D01*
X150280175Y-116309826D01*
X150344119Y-116387743D01*
X150364625Y-116412729D01*
X150364626Y-116412731D01*
X150427377Y-116530129D01*
X150427377Y-116530130D01*
X150427378Y-116530132D01*
X150466021Y-116657520D01*
X150475800Y-116756809D01*
X150475800Y-117823191D01*
X150466021Y-117922480D01*
X150427669Y-118048908D01*
X150427377Y-118049871D01*
X150371066Y-118155221D01*
X150364625Y-118167271D01*
X150342626Y-118194076D01*
X150280175Y-118270175D01*
X150204076Y-118332626D01*
X150177271Y-118354625D01*
X150177269Y-118354626D01*
X150059871Y-118417377D01*
X150059868Y-118417378D01*
X149932480Y-118456021D01*
X149800000Y-118469069D01*
X149667521Y-118456021D01*
X149540133Y-118417378D01*
X149540130Y-118417377D01*
X149422732Y-118354626D01*
X149422730Y-118354625D01*
X149395925Y-118332626D01*
X149319826Y-118270175D01*
X149257375Y-118194076D01*
X149235376Y-118167271D01*
X149228935Y-118155221D01*
X149172624Y-118049871D01*
X149172332Y-118048908D01*
X149133980Y-117922480D01*
X149124201Y-117823191D01*
X149124200Y-116756810D01*
X149125195Y-116746712D01*
X149133979Y-116657523D01*
X149133979Y-116657521D01*
X149172622Y-116530133D01*
X149172623Y-116530130D01*
X149235374Y-116412732D01*
X149235375Y-116412730D01*
X149259102Y-116383819D01*
X149319826Y-116309825D01*
X149397743Y-116245881D01*
X149422729Y-116225375D01*
X149436654Y-116217932D01*
X149540129Y-116162623D01*
X149540132Y-116162622D01*
X149667520Y-116123979D01*
X149800000Y-116110931D01*
X149932479Y-116123979D01*
G37*
G36*
X154932479Y-116123979D02*
G01*
X155059867Y-116162622D01*
X155059870Y-116162623D01*
X155163345Y-116217932D01*
X155177270Y-116225375D01*
X155193409Y-116238620D01*
X155280175Y-116309826D01*
X155344119Y-116387743D01*
X155364625Y-116412729D01*
X155364626Y-116412731D01*
X155427377Y-116530129D01*
X155427377Y-116530130D01*
X155427378Y-116530132D01*
X155466021Y-116657520D01*
X155475800Y-116756809D01*
X155475800Y-117823191D01*
X155466021Y-117922480D01*
X155427669Y-118048908D01*
X155427377Y-118049871D01*
X155371066Y-118155221D01*
X155364625Y-118167271D01*
X155342626Y-118194076D01*
X155280175Y-118270175D01*
X155204076Y-118332626D01*
X155177271Y-118354625D01*
X155177269Y-118354626D01*
X155059871Y-118417377D01*
X155059868Y-118417378D01*
X154932480Y-118456021D01*
X154800000Y-118469069D01*
X154667521Y-118456021D01*
X154540133Y-118417378D01*
X154540130Y-118417377D01*
X154422732Y-118354626D01*
X154422730Y-118354625D01*
X154395925Y-118332626D01*
X154319826Y-118270175D01*
X154257375Y-118194076D01*
X154235376Y-118167271D01*
X154228935Y-118155221D01*
X154172624Y-118049871D01*
X154172332Y-118048908D01*
X154133980Y-117922480D01*
X154124201Y-117823191D01*
X154124200Y-116756810D01*
X154125195Y-116746712D01*
X154133979Y-116657523D01*
X154133979Y-116657521D01*
X154172622Y-116530133D01*
X154172623Y-116530130D01*
X154235374Y-116412732D01*
X154235375Y-116412730D01*
X154259102Y-116383819D01*
X154319826Y-116309825D01*
X154397743Y-116245881D01*
X154422729Y-116225375D01*
X154436654Y-116217932D01*
X154540129Y-116162623D01*
X154540132Y-116162622D01*
X154667520Y-116123979D01*
X154800000Y-116110931D01*
X154932479Y-116123979D01*
G37*
G36*
X152975800Y-118465800D02*
G01*
X151624200Y-118465800D01*
X151624200Y-116114200D01*
X152975800Y-116114200D01*
X152975800Y-118465800D01*
G37*
G36*
X142683765Y-116238620D02*
G01*
X142855672Y-116309826D01*
X142873288Y-116317123D01*
X143043854Y-116431092D01*
X143188908Y-116576146D01*
X143302877Y-116746712D01*
X143381380Y-116936235D01*
X143421400Y-117137431D01*
X143421400Y-117342569D01*
X143381380Y-117543765D01*
X143302877Y-117733288D01*
X143188908Y-117903854D01*
X143043854Y-118048908D01*
X142873288Y-118162877D01*
X142873287Y-118162878D01*
X142873286Y-118162878D01*
X142683765Y-118241380D01*
X142482570Y-118281400D01*
X142277430Y-118281400D01*
X142076235Y-118241380D01*
X141886714Y-118162878D01*
X141886713Y-118162878D01*
X141886712Y-118162877D01*
X141716146Y-118048908D01*
X141571092Y-117903854D01*
X141457123Y-117733288D01*
X141378620Y-117543765D01*
X141338600Y-117342569D01*
X141338600Y-117137431D01*
X141378620Y-116936235D01*
X141457123Y-116746712D01*
X141571092Y-116576146D01*
X141716146Y-116431092D01*
X141886712Y-116317123D01*
X141904329Y-116309826D01*
X142076235Y-116238620D01*
X142277430Y-116198600D01*
X142482570Y-116198600D01*
X142683765Y-116238620D01*
G37*
G36*
X157903765Y-116238620D02*
G01*
X158075672Y-116309826D01*
X158093288Y-116317123D01*
X158263854Y-116431092D01*
X158408908Y-116576146D01*
X158522877Y-116746712D01*
X158601380Y-116936235D01*
X158641400Y-117137431D01*
X158641400Y-117342569D01*
X158601380Y-117543765D01*
X158522877Y-117733288D01*
X158408908Y-117903854D01*
X158263854Y-118048908D01*
X158093288Y-118162877D01*
X158093287Y-118162878D01*
X158093286Y-118162878D01*
X157903765Y-118241380D01*
X157702570Y-118281400D01*
X157497430Y-118281400D01*
X157296235Y-118241380D01*
X157106714Y-118162878D01*
X157106713Y-118162878D01*
X157106712Y-118162877D01*
X156936146Y-118048908D01*
X156791092Y-117903854D01*
X156677123Y-117733288D01*
X156598620Y-117543765D01*
X156558600Y-117342569D01*
X156558600Y-117137431D01*
X156598620Y-116936235D01*
X156677123Y-116746712D01*
X156791092Y-116576146D01*
X156936146Y-116431092D01*
X157106712Y-116317123D01*
X157124329Y-116309826D01*
X157296235Y-116238620D01*
X157497430Y-116198600D01*
X157702570Y-116198600D01*
X157903765Y-116238620D01*
G37*
G36*
X146683765Y-116238620D02*
G01*
X146855672Y-116309826D01*
X146873288Y-116317123D01*
X147043854Y-116431092D01*
X147188908Y-116576146D01*
X147302877Y-116746712D01*
X147381380Y-116936235D01*
X147421400Y-117137431D01*
X147421400Y-117342569D01*
X147381380Y-117543765D01*
X147302877Y-117733288D01*
X147188908Y-117903854D01*
X147043854Y-118048908D01*
X146873288Y-118162877D01*
X146873287Y-118162878D01*
X146873286Y-118162878D01*
X146683765Y-118241380D01*
X146482570Y-118281400D01*
X146277430Y-118281400D01*
X146076235Y-118241380D01*
X145886714Y-118162878D01*
X145886713Y-118162878D01*
X145886712Y-118162877D01*
X145716146Y-118048908D01*
X145571092Y-117903854D01*
X145457123Y-117733288D01*
X145378620Y-117543765D01*
X145338600Y-117342569D01*
X145338600Y-117137431D01*
X145378620Y-116936235D01*
X145457123Y-116746712D01*
X145571092Y-116576146D01*
X145716146Y-116431092D01*
X145886712Y-116317123D01*
X145904329Y-116309826D01*
X146076235Y-116238620D01*
X146277430Y-116198600D01*
X146482570Y-116198600D01*
X146683765Y-116238620D01*
G37*
G36*
X161923765Y-116238620D02*
G01*
X162095672Y-116309826D01*
X162113288Y-116317123D01*
X162283854Y-116431092D01*
X162428908Y-116576146D01*
X162542877Y-116746712D01*
X162621380Y-116936235D01*
X162661400Y-117137431D01*
X162661400Y-117342569D01*
X162621380Y-117543765D01*
X162542877Y-117733288D01*
X162428908Y-117903854D01*
X162283854Y-118048908D01*
X162113288Y-118162877D01*
X162113287Y-118162878D01*
X162113286Y-118162878D01*
X161923765Y-118241380D01*
X161722570Y-118281400D01*
X161517430Y-118281400D01*
X161316235Y-118241380D01*
X161126714Y-118162878D01*
X161126713Y-118162878D01*
X161126712Y-118162877D01*
X160956146Y-118048908D01*
X160811092Y-117903854D01*
X160697123Y-117733288D01*
X160618620Y-117543765D01*
X160578600Y-117342569D01*
X160578600Y-117137431D01*
X160618620Y-116936235D01*
X160697123Y-116746712D01*
X160811092Y-116576146D01*
X160956146Y-116431092D01*
X161126712Y-116317123D01*
X161144329Y-116309826D01*
X161316235Y-116238620D01*
X161517430Y-116198600D01*
X161722570Y-116198600D01*
X161923765Y-116238620D01*
G37*
G36*
X137559009Y-115501302D02*
G01*
X137617934Y-115507105D01*
X137731336Y-115541506D01*
X137835848Y-115597368D01*
X137835849Y-115597369D01*
X137835851Y-115597370D01*
X137927454Y-115672546D01*
X138002630Y-115764149D01*
X138002632Y-115764152D01*
X138058494Y-115868664D01*
X138092895Y-115982066D01*
X138104510Y-116100000D01*
X138092895Y-116217934D01*
X138058494Y-116331336D01*
X138005174Y-116431092D01*
X138002630Y-116435851D01*
X137927454Y-116527454D01*
X137835851Y-116602630D01*
X137835849Y-116602631D01*
X137835848Y-116602632D01*
X137731336Y-116658494D01*
X137617934Y-116692895D01*
X137559009Y-116698698D01*
X137529548Y-116701600D01*
X136470452Y-116701600D01*
X136440991Y-116698698D01*
X136382066Y-116692895D01*
X136268664Y-116658494D01*
X136164152Y-116602632D01*
X136164151Y-116602631D01*
X136164149Y-116602630D01*
X136072546Y-116527454D01*
X135997370Y-116435851D01*
X135994826Y-116431092D01*
X135941506Y-116331336D01*
X135907105Y-116217934D01*
X135895490Y-116100000D01*
X135907105Y-115982066D01*
X135941506Y-115868664D01*
X135997368Y-115764152D01*
X135997370Y-115764149D01*
X136072546Y-115672546D01*
X136164149Y-115597370D01*
X136164151Y-115597369D01*
X136164152Y-115597368D01*
X136268664Y-115541506D01*
X136382066Y-115507105D01*
X136440991Y-115501302D01*
X136470452Y-115498400D01*
X137529548Y-115498400D01*
X137559009Y-115501302D01*
G37*
G36*
X146683765Y-113698620D02*
G01*
X146873288Y-113777123D01*
X147043854Y-113891092D01*
X147188908Y-114036146D01*
X147213230Y-114072547D01*
X147302878Y-114206714D01*
X147381380Y-114396235D01*
X147421400Y-114597430D01*
X147421400Y-114802570D01*
X147381380Y-115003765D01*
X147340856Y-115101600D01*
X147302877Y-115193288D01*
X147188908Y-115363854D01*
X147043854Y-115508908D01*
X146873288Y-115622877D01*
X146873287Y-115622878D01*
X146873286Y-115622878D01*
X146683765Y-115701380D01*
X146482570Y-115741400D01*
X146277430Y-115741400D01*
X146076235Y-115701380D01*
X145886714Y-115622878D01*
X145886713Y-115622878D01*
X145886712Y-115622877D01*
X145716146Y-115508908D01*
X145571092Y-115363854D01*
X145457123Y-115193288D01*
X145419145Y-115101600D01*
X145378620Y-115003765D01*
X145338600Y-114802570D01*
X145338600Y-114597430D01*
X145378620Y-114396235D01*
X145457122Y-114206714D01*
X145546770Y-114072547D01*
X145571092Y-114036146D01*
X145716146Y-113891092D01*
X145886712Y-113777123D01*
X146076235Y-113698620D01*
X146277430Y-113658600D01*
X146482570Y-113658600D01*
X146683765Y-113698620D01*
G37*
G36*
X161923765Y-113698620D02*
G01*
X162113288Y-113777123D01*
X162283854Y-113891092D01*
X162428908Y-114036146D01*
X162453230Y-114072547D01*
X162542878Y-114206714D01*
X162621380Y-114396235D01*
X162661400Y-114597430D01*
X162661400Y-114802570D01*
X162621380Y-115003765D01*
X162580856Y-115101600D01*
X162542877Y-115193288D01*
X162428908Y-115363854D01*
X162283854Y-115508908D01*
X162113288Y-115622877D01*
X162113287Y-115622878D01*
X162113286Y-115622878D01*
X161923765Y-115701380D01*
X161722570Y-115741400D01*
X161517430Y-115741400D01*
X161316235Y-115701380D01*
X161126714Y-115622878D01*
X161126713Y-115622878D01*
X161126712Y-115622877D01*
X160956146Y-115508908D01*
X160811092Y-115363854D01*
X160697123Y-115193288D01*
X160659145Y-115101600D01*
X160618620Y-115003765D01*
X160578600Y-114802570D01*
X160578600Y-114597430D01*
X160618620Y-114396235D01*
X160697122Y-114206714D01*
X160786770Y-114072547D01*
X160811092Y-114036146D01*
X160956146Y-113891092D01*
X161126712Y-113777123D01*
X161316235Y-113698620D01*
X161517430Y-113658600D01*
X161722570Y-113658600D01*
X161923765Y-113698620D01*
G37*
G36*
X157923765Y-113698620D02*
G01*
X158113288Y-113777123D01*
X158283854Y-113891092D01*
X158428908Y-114036146D01*
X158453230Y-114072547D01*
X158542878Y-114206714D01*
X158621380Y-114396235D01*
X158661400Y-114597430D01*
X158661400Y-114802570D01*
X158621380Y-115003765D01*
X158580856Y-115101600D01*
X158542877Y-115193288D01*
X158428908Y-115363854D01*
X158283854Y-115508908D01*
X158113288Y-115622877D01*
X158113287Y-115622878D01*
X158113286Y-115622878D01*
X157923765Y-115701380D01*
X157722570Y-115741400D01*
X157517430Y-115741400D01*
X157316235Y-115701380D01*
X157126714Y-115622878D01*
X157126713Y-115622878D01*
X157126712Y-115622877D01*
X156956146Y-115508908D01*
X156811092Y-115363854D01*
X156697123Y-115193288D01*
X156659145Y-115101600D01*
X156618620Y-115003765D01*
X156578600Y-114802570D01*
X156578600Y-114597430D01*
X156618620Y-114396235D01*
X156697122Y-114206714D01*
X156786770Y-114072547D01*
X156811092Y-114036146D01*
X156956146Y-113891092D01*
X157126712Y-113777123D01*
X157316235Y-113698620D01*
X157517430Y-113658600D01*
X157722570Y-113658600D01*
X157923765Y-113698620D01*
G37*
G36*
X142683765Y-113698620D02*
G01*
X142873288Y-113777123D01*
X143043854Y-113891092D01*
X143188908Y-114036146D01*
X143213230Y-114072547D01*
X143302878Y-114206714D01*
X143381380Y-114396235D01*
X143421400Y-114597430D01*
X143421400Y-114802570D01*
X143381380Y-115003765D01*
X143340856Y-115101600D01*
X143302877Y-115193288D01*
X143188908Y-115363854D01*
X143043854Y-115508908D01*
X142873288Y-115622877D01*
X142873287Y-115622878D01*
X142873286Y-115622878D01*
X142683765Y-115701380D01*
X142482570Y-115741400D01*
X142277430Y-115741400D01*
X142076235Y-115701380D01*
X141886714Y-115622878D01*
X141886713Y-115622878D01*
X141886712Y-115622877D01*
X141716146Y-115508908D01*
X141571092Y-115363854D01*
X141457123Y-115193288D01*
X141419145Y-115101600D01*
X141378620Y-115003765D01*
X141338600Y-114802570D01*
X141338600Y-114597430D01*
X141378620Y-114396235D01*
X141457122Y-114206714D01*
X141546770Y-114072547D01*
X141571092Y-114036146D01*
X141716146Y-113891092D01*
X141886712Y-113777123D01*
X142076235Y-113698620D01*
X142277430Y-113658600D01*
X142482570Y-113658600D01*
X142683765Y-113698620D01*
G37*
G36*
X137559009Y-113901302D02*
G01*
X137617934Y-113907105D01*
X137731336Y-113941506D01*
X137835848Y-113997368D01*
X137835849Y-113997369D01*
X137835851Y-113997370D01*
X137927454Y-114072546D01*
X138002630Y-114164149D01*
X138002632Y-114164152D01*
X138058494Y-114268664D01*
X138092895Y-114382066D01*
X138104510Y-114500000D01*
X138092895Y-114617934D01*
X138058494Y-114731336D01*
X138020419Y-114802570D01*
X138002630Y-114835851D01*
X137927454Y-114927454D01*
X137835851Y-115002630D01*
X137835849Y-115002631D01*
X137835848Y-115002632D01*
X137731336Y-115058494D01*
X137617934Y-115092895D01*
X137559009Y-115098698D01*
X137529548Y-115101600D01*
X136470452Y-115101600D01*
X136440991Y-115098698D01*
X136382066Y-115092895D01*
X136268664Y-115058494D01*
X136164152Y-115002632D01*
X136164151Y-115002631D01*
X136164149Y-115002630D01*
X136072546Y-114927454D01*
X135997370Y-114835851D01*
X135979581Y-114802570D01*
X135941506Y-114731336D01*
X135907105Y-114617934D01*
X135895490Y-114500000D01*
X135907105Y-114382066D01*
X135941506Y-114268664D01*
X135997368Y-114164152D01*
X135997370Y-114164149D01*
X136072546Y-114072546D01*
X136164149Y-113997370D01*
X136164151Y-113997369D01*
X136164152Y-113997368D01*
X136268664Y-113941506D01*
X136382066Y-113907105D01*
X136440991Y-113901302D01*
X136470452Y-113898400D01*
X137529548Y-113898400D01*
X137559009Y-113901302D01*
G37*
G36*
X138101600Y-113301600D02*
G01*
X135898400Y-113301600D01*
X135898400Y-112098400D01*
X138101600Y-112098400D01*
X138101600Y-113301600D01*
G37*
G36*
X157923765Y-111158620D02*
G01*
X158113288Y-111237123D01*
X158283854Y-111351092D01*
X158428908Y-111496146D01*
X158500060Y-111602632D01*
X158542878Y-111666714D01*
X158557328Y-111701600D01*
X158621380Y-111856235D01*
X158661400Y-112057431D01*
X158661400Y-112262569D01*
X158621380Y-112463765D01*
X158542877Y-112653288D01*
X158428908Y-112823854D01*
X158283854Y-112968908D01*
X158113288Y-113082877D01*
X158113287Y-113082878D01*
X158113286Y-113082878D01*
X157923765Y-113161380D01*
X157722570Y-113201400D01*
X157517430Y-113201400D01*
X157316235Y-113161380D01*
X157126714Y-113082878D01*
X157126713Y-113082878D01*
X157126712Y-113082877D01*
X156956146Y-112968908D01*
X156811092Y-112823854D01*
X156697123Y-112653288D01*
X156618620Y-112463765D01*
X156578600Y-112262569D01*
X156578600Y-112057431D01*
X156618620Y-111856235D01*
X156682672Y-111701600D01*
X156697122Y-111666714D01*
X156739940Y-111602632D01*
X156811092Y-111496146D01*
X156956146Y-111351092D01*
X157126712Y-111237123D01*
X157316235Y-111158620D01*
X157517430Y-111118600D01*
X157722570Y-111118600D01*
X157923765Y-111158620D01*
G37*
G36*
X161923765Y-111158620D02*
G01*
X162113288Y-111237123D01*
X162283854Y-111351092D01*
X162428908Y-111496146D01*
X162500060Y-111602632D01*
X162542878Y-111666714D01*
X162557328Y-111701600D01*
X162621380Y-111856235D01*
X162661400Y-112057431D01*
X162661400Y-112262569D01*
X162621380Y-112463765D01*
X162542877Y-112653288D01*
X162428908Y-112823854D01*
X162283854Y-112968908D01*
X162113288Y-113082877D01*
X162113287Y-113082878D01*
X162113286Y-113082878D01*
X161923765Y-113161380D01*
X161722570Y-113201400D01*
X161517430Y-113201400D01*
X161316235Y-113161380D01*
X161126714Y-113082878D01*
X161126713Y-113082878D01*
X161126712Y-113082877D01*
X160956146Y-112968908D01*
X160811092Y-112823854D01*
X160697123Y-112653288D01*
X160618620Y-112463765D01*
X160578600Y-112262569D01*
X160578600Y-112057431D01*
X160618620Y-111856235D01*
X160682672Y-111701600D01*
X160697122Y-111666714D01*
X160739940Y-111602632D01*
X160811092Y-111496146D01*
X160956146Y-111351092D01*
X161126712Y-111237123D01*
X161316235Y-111158620D01*
X161517430Y-111118600D01*
X161722570Y-111118600D01*
X161923765Y-111158620D01*
G37*
G36*
X146683765Y-111158620D02*
G01*
X146873288Y-111237123D01*
X147043854Y-111351092D01*
X147188908Y-111496146D01*
X147260060Y-111602632D01*
X147302878Y-111666714D01*
X147317328Y-111701600D01*
X147381380Y-111856235D01*
X147421400Y-112057431D01*
X147421400Y-112262569D01*
X147381380Y-112463765D01*
X147302877Y-112653288D01*
X147188908Y-112823854D01*
X147043854Y-112968908D01*
X146873288Y-113082877D01*
X146873287Y-113082878D01*
X146873286Y-113082878D01*
X146683765Y-113161380D01*
X146482570Y-113201400D01*
X146277430Y-113201400D01*
X146076235Y-113161380D01*
X145886714Y-113082878D01*
X145886713Y-113082878D01*
X145886712Y-113082877D01*
X145716146Y-112968908D01*
X145571092Y-112823854D01*
X145457123Y-112653288D01*
X145378620Y-112463765D01*
X145338600Y-112262569D01*
X145338600Y-112057431D01*
X145378620Y-111856235D01*
X145442672Y-111701600D01*
X145457122Y-111666714D01*
X145499940Y-111602632D01*
X145571092Y-111496146D01*
X145716146Y-111351092D01*
X145886712Y-111237123D01*
X146076235Y-111158620D01*
X146277430Y-111118600D01*
X146482570Y-111118600D01*
X146683765Y-111158620D01*
G37*
G36*
X142683765Y-111158620D02*
G01*
X142873288Y-111237123D01*
X143043854Y-111351092D01*
X143188908Y-111496146D01*
X143260060Y-111602632D01*
X143302878Y-111666714D01*
X143317328Y-111701600D01*
X143381380Y-111856235D01*
X143421400Y-112057431D01*
X143421400Y-112262569D01*
X143381380Y-112463765D01*
X143302877Y-112653288D01*
X143188908Y-112823854D01*
X143043854Y-112968908D01*
X142873288Y-113082877D01*
X142873287Y-113082878D01*
X142873286Y-113082878D01*
X142683765Y-113161380D01*
X142482570Y-113201400D01*
X142277430Y-113201400D01*
X142076235Y-113161380D01*
X141886714Y-113082878D01*
X141886713Y-113082878D01*
X141886712Y-113082877D01*
X141716146Y-112968908D01*
X141571092Y-112823854D01*
X141457123Y-112653288D01*
X141378620Y-112463765D01*
X141338600Y-112262569D01*
X141338600Y-112057431D01*
X141378620Y-111856235D01*
X141442672Y-111701600D01*
X141457122Y-111666714D01*
X141499940Y-111602632D01*
X141571092Y-111496146D01*
X141716146Y-111351092D01*
X141886712Y-111237123D01*
X142076235Y-111158620D01*
X142277430Y-111118600D01*
X142482570Y-111118600D01*
X142683765Y-111158620D01*
G37*
G36*
X137559009Y-110501302D02*
G01*
X137617934Y-110507105D01*
X137731336Y-110541506D01*
X137835848Y-110597368D01*
X137835849Y-110597369D01*
X137835851Y-110597370D01*
X137927454Y-110672546D01*
X138002630Y-110764149D01*
X138002632Y-110764152D01*
X138058494Y-110868664D01*
X138092895Y-110982066D01*
X138104510Y-111100000D01*
X138092895Y-111217934D01*
X138058494Y-111331336D01*
X138047934Y-111351092D01*
X138002630Y-111435851D01*
X137927454Y-111527454D01*
X137835851Y-111602630D01*
X137835849Y-111602631D01*
X137835848Y-111602632D01*
X137731336Y-111658494D01*
X137617934Y-111692895D01*
X137559009Y-111698698D01*
X137529548Y-111701600D01*
X136470452Y-111701600D01*
X136440991Y-111698698D01*
X136382066Y-111692895D01*
X136268664Y-111658494D01*
X136164152Y-111602632D01*
X136164151Y-111602631D01*
X136164149Y-111602630D01*
X136072546Y-111527454D01*
X135997370Y-111435851D01*
X135952066Y-111351092D01*
X135941506Y-111331336D01*
X135907105Y-111217934D01*
X135895490Y-111100000D01*
X135907105Y-110982066D01*
X135941506Y-110868664D01*
X135997368Y-110764152D01*
X135997370Y-110764149D01*
X136072546Y-110672546D01*
X136164149Y-110597370D01*
X136164151Y-110597369D01*
X136164152Y-110597368D01*
X136268664Y-110541506D01*
X136382066Y-110507105D01*
X136440991Y-110501302D01*
X136470452Y-110498400D01*
X137529548Y-110498400D01*
X137559009Y-110501302D01*
G37*
G36*
X146683765Y-108618620D02*
G01*
X146791355Y-108663185D01*
X146873288Y-108697123D01*
X147043854Y-108811092D01*
X147188908Y-108956146D01*
X147302877Y-109126712D01*
X147381380Y-109316235D01*
X147421400Y-109517431D01*
X147421400Y-109722569D01*
X147381380Y-109923765D01*
X147302877Y-110113288D01*
X147188908Y-110283854D01*
X147043854Y-110428908D01*
X146873288Y-110542877D01*
X146873287Y-110542878D01*
X146873286Y-110542878D01*
X146683765Y-110621380D01*
X146482570Y-110661400D01*
X146277430Y-110661400D01*
X146076235Y-110621380D01*
X145886714Y-110542878D01*
X145886713Y-110542878D01*
X145886712Y-110542877D01*
X145716146Y-110428908D01*
X145571092Y-110283854D01*
X145457123Y-110113288D01*
X145378620Y-109923765D01*
X145338600Y-109722569D01*
X145338600Y-109517431D01*
X145378620Y-109316235D01*
X145457123Y-109126712D01*
X145571092Y-108956146D01*
X145716146Y-108811092D01*
X145886712Y-108697123D01*
X145968646Y-108663185D01*
X146076235Y-108618620D01*
X146277430Y-108578600D01*
X146482570Y-108578600D01*
X146683765Y-108618620D01*
G37*
G36*
X142683765Y-108618620D02*
G01*
X142791355Y-108663185D01*
X142873288Y-108697123D01*
X143043854Y-108811092D01*
X143188908Y-108956146D01*
X143302877Y-109126712D01*
X143381380Y-109316235D01*
X143421400Y-109517431D01*
X143421400Y-109722569D01*
X143381380Y-109923765D01*
X143302877Y-110113288D01*
X143188908Y-110283854D01*
X143043854Y-110428908D01*
X142873288Y-110542877D01*
X142873287Y-110542878D01*
X142873286Y-110542878D01*
X142683765Y-110621380D01*
X142482570Y-110661400D01*
X142277430Y-110661400D01*
X142076235Y-110621380D01*
X141886714Y-110542878D01*
X141886713Y-110542878D01*
X141886712Y-110542877D01*
X141716146Y-110428908D01*
X141571092Y-110283854D01*
X141457123Y-110113288D01*
X141378620Y-109923765D01*
X141338600Y-109722569D01*
X141338600Y-109517431D01*
X141378620Y-109316235D01*
X141457123Y-109126712D01*
X141571092Y-108956146D01*
X141716146Y-108811092D01*
X141886712Y-108697123D01*
X141968646Y-108663185D01*
X142076235Y-108618620D01*
X142277430Y-108578600D01*
X142482570Y-108578600D01*
X142683765Y-108618620D01*
G37*
G36*
X161923765Y-108618620D02*
G01*
X162031355Y-108663185D01*
X162113288Y-108697123D01*
X162283854Y-108811092D01*
X162428908Y-108956146D01*
X162542877Y-109126712D01*
X162621380Y-109316235D01*
X162661400Y-109517431D01*
X162661400Y-109722569D01*
X162621380Y-109923765D01*
X162542877Y-110113288D01*
X162428908Y-110283854D01*
X162283854Y-110428908D01*
X162113288Y-110542877D01*
X162113287Y-110542878D01*
X162113286Y-110542878D01*
X161923765Y-110621380D01*
X161722570Y-110661400D01*
X161517430Y-110661400D01*
X161316235Y-110621380D01*
X161126714Y-110542878D01*
X161126713Y-110542878D01*
X161126712Y-110542877D01*
X160956146Y-110428908D01*
X160811092Y-110283854D01*
X160697123Y-110113288D01*
X160618620Y-109923765D01*
X160578600Y-109722569D01*
X160578600Y-109517431D01*
X160618620Y-109316235D01*
X160697123Y-109126712D01*
X160811092Y-108956146D01*
X160956146Y-108811092D01*
X161126712Y-108697123D01*
X161208646Y-108663185D01*
X161316235Y-108618620D01*
X161517430Y-108578600D01*
X161722570Y-108578600D01*
X161923765Y-108618620D01*
G37*
G36*
X157923765Y-108618620D02*
G01*
X158031355Y-108663185D01*
X158113288Y-108697123D01*
X158283854Y-108811092D01*
X158428908Y-108956146D01*
X158542877Y-109126712D01*
X158621380Y-109316235D01*
X158661400Y-109517431D01*
X158661400Y-109722569D01*
X158621380Y-109923765D01*
X158542877Y-110113288D01*
X158428908Y-110283854D01*
X158283854Y-110428908D01*
X158113288Y-110542877D01*
X158113287Y-110542878D01*
X158113286Y-110542878D01*
X157923765Y-110621380D01*
X157722570Y-110661400D01*
X157517430Y-110661400D01*
X157316235Y-110621380D01*
X157126714Y-110542878D01*
X157126713Y-110542878D01*
X157126712Y-110542877D01*
X156956146Y-110428908D01*
X156811092Y-110283854D01*
X156697123Y-110113288D01*
X156618620Y-109923765D01*
X156578600Y-109722569D01*
X156578600Y-109517431D01*
X156618620Y-109316235D01*
X156697123Y-109126712D01*
X156811092Y-108956146D01*
X156956146Y-108811092D01*
X157126712Y-108697123D01*
X157208646Y-108663185D01*
X157316235Y-108618620D01*
X157517430Y-108578600D01*
X157722570Y-108578600D01*
X157923765Y-108618620D01*
G37*
G36*
X150018999Y-107378052D02*
G01*
X150155639Y-107434650D01*
X150278605Y-107516813D01*
X150383187Y-107621395D01*
X150465350Y-107744361D01*
X150521948Y-107881001D01*
X150550800Y-108026051D01*
X150550800Y-108173949D01*
X150521948Y-108318999D01*
X150465350Y-108455639D01*
X150383187Y-108578605D01*
X150278605Y-108683187D01*
X150155639Y-108765350D01*
X150018999Y-108821948D01*
X149873949Y-108850800D01*
X149726051Y-108850800D01*
X149581001Y-108821948D01*
X149444361Y-108765350D01*
X149321395Y-108683187D01*
X149216813Y-108578605D01*
X149134650Y-108455639D01*
X149078052Y-108318999D01*
X149049200Y-108173949D01*
X149049200Y-108026051D01*
X149078052Y-107881001D01*
X149134650Y-107744361D01*
X149216813Y-107621395D01*
X149321395Y-107516813D01*
X149444361Y-107434650D01*
X149581001Y-107378052D01*
X149726051Y-107349200D01*
X149873949Y-107349200D01*
X150018999Y-107378052D01*
G37*
G36*
X155018999Y-107358052D02*
G01*
X155155639Y-107414650D01*
X155278605Y-107496813D01*
X155383187Y-107601395D01*
X155465350Y-107724361D01*
X155521948Y-107861001D01*
X155550800Y-108006051D01*
X155550800Y-108153949D01*
X155521948Y-108298999D01*
X155465350Y-108435639D01*
X155383187Y-108558605D01*
X155278605Y-108663187D01*
X155155639Y-108745350D01*
X155018999Y-108801948D01*
X154873949Y-108830800D01*
X154726051Y-108830800D01*
X154581001Y-108801948D01*
X154444361Y-108745350D01*
X154321395Y-108663187D01*
X154216813Y-108558605D01*
X154134650Y-108435639D01*
X154078052Y-108298999D01*
X154049200Y-108153949D01*
X154049200Y-108006051D01*
X154078052Y-107861001D01*
X154134650Y-107724361D01*
X154216813Y-107601395D01*
X154321395Y-107496813D01*
X154444361Y-107414650D01*
X154581001Y-107358052D01*
X154726051Y-107329200D01*
X154873949Y-107329200D01*
X155018999Y-107358052D01*
G37*
G36*
X146683765Y-106078620D02*
G01*
X146772686Y-106115452D01*
X146873288Y-106157123D01*
X147043854Y-106271092D01*
X147188908Y-106416146D01*
X147302877Y-106586712D01*
X147381380Y-106776235D01*
X147421400Y-106977431D01*
X147421400Y-107182569D01*
X147381380Y-107383765D01*
X147302877Y-107573288D01*
X147188908Y-107743854D01*
X147043854Y-107888908D01*
X146873288Y-108002877D01*
X146873287Y-108002878D01*
X146873286Y-108002878D01*
X146683765Y-108081380D01*
X146482570Y-108121400D01*
X146277430Y-108121400D01*
X146076235Y-108081380D01*
X145886714Y-108002878D01*
X145886713Y-108002878D01*
X145886712Y-108002877D01*
X145716146Y-107888908D01*
X145571092Y-107743854D01*
X145457123Y-107573288D01*
X145378620Y-107383765D01*
X145338600Y-107182569D01*
X145338600Y-106977431D01*
X145378620Y-106776235D01*
X145457123Y-106586712D01*
X145571092Y-106416146D01*
X145716146Y-106271092D01*
X145886712Y-106157123D01*
X145987315Y-106115452D01*
X146076235Y-106078620D01*
X146277430Y-106038600D01*
X146482570Y-106038600D01*
X146683765Y-106078620D01*
G37*
G36*
X157923765Y-106078620D02*
G01*
X158012686Y-106115452D01*
X158113288Y-106157123D01*
X158283854Y-106271092D01*
X158428908Y-106416146D01*
X158542877Y-106586712D01*
X158621380Y-106776235D01*
X158661400Y-106977431D01*
X158661400Y-107182569D01*
X158621380Y-107383765D01*
X158542877Y-107573288D01*
X158428908Y-107743854D01*
X158283854Y-107888908D01*
X158113288Y-108002877D01*
X158113287Y-108002878D01*
X158113286Y-108002878D01*
X157923765Y-108081380D01*
X157722570Y-108121400D01*
X157517430Y-108121400D01*
X157316235Y-108081380D01*
X157126714Y-108002878D01*
X157126713Y-108002878D01*
X157126712Y-108002877D01*
X156956146Y-107888908D01*
X156811092Y-107743854D01*
X156697123Y-107573288D01*
X156618620Y-107383765D01*
X156578600Y-107182569D01*
X156578600Y-106977431D01*
X156618620Y-106776235D01*
X156697123Y-106586712D01*
X156811092Y-106416146D01*
X156956146Y-106271092D01*
X157126712Y-106157123D01*
X157227315Y-106115452D01*
X157316235Y-106078620D01*
X157517430Y-106038600D01*
X157722570Y-106038600D01*
X157923765Y-106078620D01*
G37*
G36*
X161923765Y-106078620D02*
G01*
X162012686Y-106115452D01*
X162113288Y-106157123D01*
X162283854Y-106271092D01*
X162428908Y-106416146D01*
X162542877Y-106586712D01*
X162621380Y-106776235D01*
X162661400Y-106977431D01*
X162661400Y-107182569D01*
X162621380Y-107383765D01*
X162542877Y-107573288D01*
X162428908Y-107743854D01*
X162283854Y-107888908D01*
X162113288Y-108002877D01*
X162113287Y-108002878D01*
X162113286Y-108002878D01*
X161923765Y-108081380D01*
X161722570Y-108121400D01*
X161517430Y-108121400D01*
X161316235Y-108081380D01*
X161126714Y-108002878D01*
X161126713Y-108002878D01*
X161126712Y-108002877D01*
X160956146Y-107888908D01*
X160811092Y-107743854D01*
X160697123Y-107573288D01*
X160618620Y-107383765D01*
X160578600Y-107182569D01*
X160578600Y-106977431D01*
X160618620Y-106776235D01*
X160697123Y-106586712D01*
X160811092Y-106416146D01*
X160956146Y-106271092D01*
X161126712Y-106157123D01*
X161227315Y-106115452D01*
X161316235Y-106078620D01*
X161517430Y-106038600D01*
X161722570Y-106038600D01*
X161923765Y-106078620D01*
G37*
G36*
X142683765Y-106078620D02*
G01*
X142772686Y-106115452D01*
X142873288Y-106157123D01*
X143043854Y-106271092D01*
X143188908Y-106416146D01*
X143302877Y-106586712D01*
X143381380Y-106776235D01*
X143421400Y-106977431D01*
X143421400Y-107182569D01*
X143381380Y-107383765D01*
X143302877Y-107573288D01*
X143188908Y-107743854D01*
X143043854Y-107888908D01*
X142873288Y-108002877D01*
X142873287Y-108002878D01*
X142873286Y-108002878D01*
X142683765Y-108081380D01*
X142482570Y-108121400D01*
X142277430Y-108121400D01*
X142076235Y-108081380D01*
X141886714Y-108002878D01*
X141886713Y-108002878D01*
X141886712Y-108002877D01*
X141716146Y-107888908D01*
X141571092Y-107743854D01*
X141457123Y-107573288D01*
X141378620Y-107383765D01*
X141338600Y-107182569D01*
X141338600Y-106977431D01*
X141378620Y-106776235D01*
X141457123Y-106586712D01*
X141571092Y-106416146D01*
X141716146Y-106271092D01*
X141886712Y-106157123D01*
X141987315Y-106115452D01*
X142076235Y-106078620D01*
X142277430Y-106038600D01*
X142482570Y-106038600D01*
X142683765Y-106078620D01*
G37*
G36*
X135034863Y-104310930D02*
G01*
X135212592Y-104384548D01*
X135372545Y-104491425D01*
X135508575Y-104627455D01*
X135615452Y-104787408D01*
X135689070Y-104965137D01*
X135726600Y-105153812D01*
X135726600Y-105346188D01*
X135689070Y-105534863D01*
X135615452Y-105712592D01*
X135508575Y-105872545D01*
X135372545Y-106008575D01*
X135212592Y-106115452D01*
X135034863Y-106189070D01*
X134846188Y-106226600D01*
X134653812Y-106226600D01*
X134465137Y-106189070D01*
X134287408Y-106115452D01*
X134127455Y-106008575D01*
X133991425Y-105872545D01*
X133884548Y-105712592D01*
X133810930Y-105534863D01*
X133773400Y-105346188D01*
X133773400Y-105153812D01*
X133810930Y-104965137D01*
X133884548Y-104787408D01*
X133991425Y-104627455D01*
X134127455Y-104491425D01*
X134287408Y-104384548D01*
X134465137Y-104310930D01*
X134653812Y-104273400D01*
X134846188Y-104273400D01*
X135034863Y-104310930D01*
G37*
G36*
X139534863Y-104310930D02*
G01*
X139712592Y-104384548D01*
X139872545Y-104491425D01*
X140008575Y-104627455D01*
X140115452Y-104787408D01*
X140189070Y-104965137D01*
X140226600Y-105153812D01*
X140226600Y-105346188D01*
X140189070Y-105534863D01*
X140115452Y-105712592D01*
X140008575Y-105872545D01*
X139872545Y-106008575D01*
X139712592Y-106115452D01*
X139534863Y-106189070D01*
X139346188Y-106226600D01*
X139153812Y-106226600D01*
X138965137Y-106189070D01*
X138787408Y-106115452D01*
X138627455Y-106008575D01*
X138491425Y-105872545D01*
X138384548Y-105712592D01*
X138310930Y-105534863D01*
X138273400Y-105346188D01*
X138273400Y-105153812D01*
X138310930Y-104965137D01*
X138384548Y-104787408D01*
X138491425Y-104627455D01*
X138627455Y-104491425D01*
X138787408Y-104384548D01*
X138965137Y-104310930D01*
X139153812Y-104273400D01*
X139346188Y-104273400D01*
X139534863Y-104310930D01*
G37*
G36*
X157923765Y-103538620D02*
G01*
X158031355Y-103583185D01*
X158113288Y-103617123D01*
X158283854Y-103731092D01*
X158428908Y-103876146D01*
X158428909Y-103876148D01*
X158542878Y-104046714D01*
X158621380Y-104236235D01*
X158661400Y-104437430D01*
X158661400Y-104642570D01*
X158621380Y-104843765D01*
X158571107Y-104965136D01*
X158542877Y-105033288D01*
X158428908Y-105203854D01*
X158283854Y-105348908D01*
X158113288Y-105462877D01*
X158113287Y-105462878D01*
X158113286Y-105462878D01*
X157923765Y-105541380D01*
X157722570Y-105581400D01*
X157517430Y-105581400D01*
X157316235Y-105541380D01*
X157126714Y-105462878D01*
X157126713Y-105462878D01*
X157126712Y-105462877D01*
X156956146Y-105348908D01*
X156811092Y-105203854D01*
X156697123Y-105033288D01*
X156668894Y-104965136D01*
X156618620Y-104843765D01*
X156578600Y-104642570D01*
X156578600Y-104437430D01*
X156618620Y-104236235D01*
X156697122Y-104046714D01*
X156811091Y-103876148D01*
X156811092Y-103876146D01*
X156956146Y-103731092D01*
X157126712Y-103617123D01*
X157208646Y-103583185D01*
X157316235Y-103538620D01*
X157517430Y-103498600D01*
X157722570Y-103498600D01*
X157923765Y-103538620D01*
G37*
G36*
X161923765Y-103538620D02*
G01*
X162031355Y-103583185D01*
X162113288Y-103617123D01*
X162283854Y-103731092D01*
X162428908Y-103876146D01*
X162428909Y-103876148D01*
X162542878Y-104046714D01*
X162621380Y-104236235D01*
X162661400Y-104437430D01*
X162661400Y-104642570D01*
X162621380Y-104843765D01*
X162571107Y-104965136D01*
X162542877Y-105033288D01*
X162428908Y-105203854D01*
X162283854Y-105348908D01*
X162113288Y-105462877D01*
X162113287Y-105462878D01*
X162113286Y-105462878D01*
X161923765Y-105541380D01*
X161722570Y-105581400D01*
X161517430Y-105581400D01*
X161316235Y-105541380D01*
X161126714Y-105462878D01*
X161126713Y-105462878D01*
X161126712Y-105462877D01*
X160956146Y-105348908D01*
X160811092Y-105203854D01*
X160697123Y-105033288D01*
X160668894Y-104965136D01*
X160618620Y-104843765D01*
X160578600Y-104642570D01*
X160578600Y-104437430D01*
X160618620Y-104236235D01*
X160697122Y-104046714D01*
X160811091Y-103876148D01*
X160811092Y-103876146D01*
X160956146Y-103731092D01*
X161126712Y-103617123D01*
X161208646Y-103583185D01*
X161316235Y-103538620D01*
X161517430Y-103498600D01*
X161722570Y-103498600D01*
X161923765Y-103538620D01*
G37*
G36*
X142683765Y-103538620D02*
G01*
X142791355Y-103583185D01*
X142873288Y-103617123D01*
X143043854Y-103731092D01*
X143188908Y-103876146D01*
X143188909Y-103876148D01*
X143302878Y-104046714D01*
X143381380Y-104236235D01*
X143421400Y-104437430D01*
X143421400Y-104642570D01*
X143381380Y-104843765D01*
X143331107Y-104965136D01*
X143302877Y-105033288D01*
X143188908Y-105203854D01*
X143043854Y-105348908D01*
X142873288Y-105462877D01*
X142873287Y-105462878D01*
X142873286Y-105462878D01*
X142683765Y-105541380D01*
X142482570Y-105581400D01*
X142277430Y-105581400D01*
X142076235Y-105541380D01*
X141886714Y-105462878D01*
X141886713Y-105462878D01*
X141886712Y-105462877D01*
X141716146Y-105348908D01*
X141571092Y-105203854D01*
X141457123Y-105033288D01*
X141428894Y-104965136D01*
X141378620Y-104843765D01*
X141338600Y-104642570D01*
X141338600Y-104437430D01*
X141378620Y-104236235D01*
X141457122Y-104046714D01*
X141571091Y-103876148D01*
X141571092Y-103876146D01*
X141716146Y-103731092D01*
X141886712Y-103617123D01*
X141968646Y-103583185D01*
X142076235Y-103538620D01*
X142277430Y-103498600D01*
X142482570Y-103498600D01*
X142683765Y-103538620D01*
G37*
G36*
X146683765Y-103538620D02*
G01*
X146791355Y-103583185D01*
X146873288Y-103617123D01*
X147043854Y-103731092D01*
X147188908Y-103876146D01*
X147188909Y-103876148D01*
X147302878Y-104046714D01*
X147381380Y-104236235D01*
X147421400Y-104437430D01*
X147421400Y-104642570D01*
X147381380Y-104843765D01*
X147331107Y-104965136D01*
X147302877Y-105033288D01*
X147188908Y-105203854D01*
X147043854Y-105348908D01*
X146873288Y-105462877D01*
X146873287Y-105462878D01*
X146873286Y-105462878D01*
X146683765Y-105541380D01*
X146482570Y-105581400D01*
X146277430Y-105581400D01*
X146076235Y-105541380D01*
X145886714Y-105462878D01*
X145886713Y-105462878D01*
X145886712Y-105462877D01*
X145716146Y-105348908D01*
X145571092Y-105203854D01*
X145457123Y-105033288D01*
X145428894Y-104965136D01*
X145378620Y-104843765D01*
X145338600Y-104642570D01*
X145338600Y-104437430D01*
X145378620Y-104236235D01*
X145457122Y-104046714D01*
X145571091Y-103876148D01*
X145571092Y-103876146D01*
X145716146Y-103731092D01*
X145886712Y-103617123D01*
X145968646Y-103583185D01*
X146076235Y-103538620D01*
X146277430Y-103498600D01*
X146482570Y-103498600D01*
X146683765Y-103538620D01*
G37*
G36*
X150018999Y-102298052D02*
G01*
X150155639Y-102354650D01*
X150278605Y-102436813D01*
X150383187Y-102541395D01*
X150465350Y-102664361D01*
X150521948Y-102801001D01*
X150550800Y-102946051D01*
X150550800Y-103093949D01*
X150521948Y-103238999D01*
X150465350Y-103375639D01*
X150383187Y-103498605D01*
X150278605Y-103603187D01*
X150155639Y-103685350D01*
X150018999Y-103741948D01*
X149873949Y-103770800D01*
X149726051Y-103770800D01*
X149581001Y-103741948D01*
X149444361Y-103685350D01*
X149321395Y-103603187D01*
X149216813Y-103498605D01*
X149134650Y-103375639D01*
X149078052Y-103238999D01*
X149049200Y-103093949D01*
X149049200Y-102946051D01*
X149078052Y-102801001D01*
X149134650Y-102664361D01*
X149216813Y-102541395D01*
X149321395Y-102436813D01*
X149444361Y-102354650D01*
X149581001Y-102298052D01*
X149726051Y-102269200D01*
X149873949Y-102269200D01*
X150018999Y-102298052D01*
G37*
G36*
X155018999Y-102278052D02*
G01*
X155155639Y-102334650D01*
X155278605Y-102416813D01*
X155383187Y-102521395D01*
X155465350Y-102644361D01*
X155521948Y-102781001D01*
X155550800Y-102926051D01*
X155550800Y-103073949D01*
X155521948Y-103218999D01*
X155465350Y-103355639D01*
X155383187Y-103478605D01*
X155278605Y-103583187D01*
X155155639Y-103665350D01*
X155018999Y-103721948D01*
X154873949Y-103750800D01*
X154726051Y-103750800D01*
X154581001Y-103721948D01*
X154444361Y-103665350D01*
X154321395Y-103583187D01*
X154216813Y-103478605D01*
X154134650Y-103355639D01*
X154078052Y-103218999D01*
X154049200Y-103073949D01*
X154049200Y-102926051D01*
X154078052Y-102781001D01*
X154134650Y-102644361D01*
X154216813Y-102521395D01*
X154321395Y-102416813D01*
X154444361Y-102334650D01*
X154581001Y-102278052D01*
X154726051Y-102249200D01*
X154873949Y-102249200D01*
X155018999Y-102278052D01*
G37*
G36*
X146683765Y-100998620D02*
G01*
X146873288Y-101077123D01*
X147043854Y-101191092D01*
X147188908Y-101336146D01*
X147302877Y-101506712D01*
X147381380Y-101696235D01*
X147421400Y-101897431D01*
X147421400Y-102102569D01*
X147381380Y-102303765D01*
X147302877Y-102493288D01*
X147188908Y-102663854D01*
X147043854Y-102808908D01*
X146873288Y-102922877D01*
X146873287Y-102922878D01*
X146873286Y-102922878D01*
X146683765Y-103001380D01*
X146482570Y-103041400D01*
X146277430Y-103041400D01*
X146076235Y-103001380D01*
X145886714Y-102922878D01*
X145886713Y-102922878D01*
X145886712Y-102922877D01*
X145716146Y-102808908D01*
X145571092Y-102663854D01*
X145457123Y-102493288D01*
X145378620Y-102303765D01*
X145338600Y-102102569D01*
X145338600Y-101897431D01*
X145378620Y-101696235D01*
X145457123Y-101506712D01*
X145571092Y-101336146D01*
X145716146Y-101191092D01*
X145886712Y-101077123D01*
X146076235Y-100998620D01*
X146277430Y-100958600D01*
X146482570Y-100958600D01*
X146683765Y-100998620D01*
G37*
G36*
X161923765Y-100998620D02*
G01*
X162113288Y-101077123D01*
X162283854Y-101191092D01*
X162428908Y-101336146D01*
X162542877Y-101506712D01*
X162621380Y-101696235D01*
X162661400Y-101897431D01*
X162661400Y-102102569D01*
X162621380Y-102303765D01*
X162542877Y-102493288D01*
X162428908Y-102663854D01*
X162283854Y-102808908D01*
X162113288Y-102922877D01*
X162113287Y-102922878D01*
X162113286Y-102922878D01*
X161923765Y-103001380D01*
X161722570Y-103041400D01*
X161517430Y-103041400D01*
X161316235Y-103001380D01*
X161126714Y-102922878D01*
X161126713Y-102922878D01*
X161126712Y-102922877D01*
X160956146Y-102808908D01*
X160811092Y-102663854D01*
X160697123Y-102493288D01*
X160618620Y-102303765D01*
X160578600Y-102102569D01*
X160578600Y-101897431D01*
X160618620Y-101696235D01*
X160697123Y-101506712D01*
X160811092Y-101336146D01*
X160956146Y-101191092D01*
X161126712Y-101077123D01*
X161316235Y-100998620D01*
X161517430Y-100958600D01*
X161722570Y-100958600D01*
X161923765Y-100998620D01*
G37*
G36*
X157923765Y-100998620D02*
G01*
X158113288Y-101077123D01*
X158283854Y-101191092D01*
X158428908Y-101336146D01*
X158542877Y-101506712D01*
X158621380Y-101696235D01*
X158661400Y-101897431D01*
X158661400Y-102102569D01*
X158621380Y-102303765D01*
X158542877Y-102493288D01*
X158428908Y-102663854D01*
X158283854Y-102808908D01*
X158113288Y-102922877D01*
X158113287Y-102922878D01*
X158113286Y-102922878D01*
X157923765Y-103001380D01*
X157722570Y-103041400D01*
X157517430Y-103041400D01*
X157316235Y-103001380D01*
X157126714Y-102922878D01*
X157126713Y-102922878D01*
X157126712Y-102922877D01*
X156956146Y-102808908D01*
X156811092Y-102663854D01*
X156697123Y-102493288D01*
X156618620Y-102303765D01*
X156578600Y-102102569D01*
X156578600Y-101897431D01*
X156618620Y-101696235D01*
X156697123Y-101506712D01*
X156811092Y-101336146D01*
X156956146Y-101191092D01*
X157126712Y-101077123D01*
X157316235Y-100998620D01*
X157517430Y-100958600D01*
X157722570Y-100958600D01*
X157923765Y-100998620D01*
G37*
G36*
X142683765Y-100998620D02*
G01*
X142873288Y-101077123D01*
X143043854Y-101191092D01*
X143188908Y-101336146D01*
X143302877Y-101506712D01*
X143381380Y-101696235D01*
X143421400Y-101897431D01*
X143421400Y-102102569D01*
X143381380Y-102303765D01*
X143302877Y-102493288D01*
X143188908Y-102663854D01*
X143043854Y-102808908D01*
X142873288Y-102922877D01*
X142873287Y-102922878D01*
X142873286Y-102922878D01*
X142683765Y-103001380D01*
X142482570Y-103041400D01*
X142277430Y-103041400D01*
X142076235Y-103001380D01*
X141886714Y-102922878D01*
X141886713Y-102922878D01*
X141886712Y-102922877D01*
X141716146Y-102808908D01*
X141571092Y-102663854D01*
X141457123Y-102493288D01*
X141378620Y-102303765D01*
X141338600Y-102102569D01*
X141338600Y-101897431D01*
X141378620Y-101696235D01*
X141457123Y-101506712D01*
X141571092Y-101336146D01*
X141716146Y-101191092D01*
X141886712Y-101077123D01*
X142076235Y-100998620D01*
X142277430Y-100958600D01*
X142482570Y-100958600D01*
X142683765Y-100998620D01*
G37*
G36*
X161923765Y-98458620D02*
G01*
X162113288Y-98537123D01*
X162283854Y-98651092D01*
X162428908Y-98796146D01*
X162428909Y-98796148D01*
X162542878Y-98966714D01*
X162621380Y-99156235D01*
X162661400Y-99357431D01*
X162661400Y-99562569D01*
X162621380Y-99763765D01*
X162542877Y-99953288D01*
X162428908Y-100123854D01*
X162283854Y-100268908D01*
X162113288Y-100382877D01*
X162113287Y-100382878D01*
X162113286Y-100382878D01*
X161923765Y-100461380D01*
X161722570Y-100501400D01*
X161517430Y-100501400D01*
X161316235Y-100461380D01*
X161126714Y-100382878D01*
X161126713Y-100382878D01*
X161126712Y-100382877D01*
X160956146Y-100268908D01*
X160811092Y-100123854D01*
X160697123Y-99953288D01*
X160618620Y-99763765D01*
X160578600Y-99562569D01*
X160578600Y-99357431D01*
X160618620Y-99156235D01*
X160697122Y-98966714D01*
X160811091Y-98796148D01*
X160811092Y-98796146D01*
X160956146Y-98651092D01*
X161126712Y-98537123D01*
X161316235Y-98458620D01*
X161517430Y-98418600D01*
X161722570Y-98418600D01*
X161923765Y-98458620D01*
G37*
G36*
X157923765Y-98458620D02*
G01*
X158113288Y-98537123D01*
X158283854Y-98651092D01*
X158428908Y-98796146D01*
X158428909Y-98796148D01*
X158542878Y-98966714D01*
X158621380Y-99156235D01*
X158661400Y-99357431D01*
X158661400Y-99562569D01*
X158621380Y-99763765D01*
X158542877Y-99953288D01*
X158428908Y-100123854D01*
X158283854Y-100268908D01*
X158113288Y-100382877D01*
X158113287Y-100382878D01*
X158113286Y-100382878D01*
X157923765Y-100461380D01*
X157722570Y-100501400D01*
X157517430Y-100501400D01*
X157316235Y-100461380D01*
X157126714Y-100382878D01*
X157126713Y-100382878D01*
X157126712Y-100382877D01*
X156956146Y-100268908D01*
X156811092Y-100123854D01*
X156697123Y-99953288D01*
X156618620Y-99763765D01*
X156578600Y-99562569D01*
X156578600Y-99357431D01*
X156618620Y-99156235D01*
X156697122Y-98966714D01*
X156811091Y-98796148D01*
X156811092Y-98796146D01*
X156956146Y-98651092D01*
X157126712Y-98537123D01*
X157316235Y-98458620D01*
X157517430Y-98418600D01*
X157722570Y-98418600D01*
X157923765Y-98458620D01*
G37*
G36*
X146683765Y-98458620D02*
G01*
X146873288Y-98537123D01*
X147043854Y-98651092D01*
X147188908Y-98796146D01*
X147188909Y-98796148D01*
X147302878Y-98966714D01*
X147381380Y-99156235D01*
X147421400Y-99357431D01*
X147421400Y-99562569D01*
X147381380Y-99763765D01*
X147302877Y-99953288D01*
X147188908Y-100123854D01*
X147043854Y-100268908D01*
X146873288Y-100382877D01*
X146873287Y-100382878D01*
X146873286Y-100382878D01*
X146683765Y-100461380D01*
X146482570Y-100501400D01*
X146277430Y-100501400D01*
X146076235Y-100461380D01*
X145886714Y-100382878D01*
X145886713Y-100382878D01*
X145886712Y-100382877D01*
X145716146Y-100268908D01*
X145571092Y-100123854D01*
X145457123Y-99953288D01*
X145378620Y-99763765D01*
X145338600Y-99562569D01*
X145338600Y-99357431D01*
X145378620Y-99156235D01*
X145457122Y-98966714D01*
X145571091Y-98796148D01*
X145571092Y-98796146D01*
X145716146Y-98651092D01*
X145886712Y-98537123D01*
X146076235Y-98458620D01*
X146277430Y-98418600D01*
X146482570Y-98418600D01*
X146683765Y-98458620D01*
G37*
G36*
X142683765Y-98458620D02*
G01*
X142873288Y-98537123D01*
X143043854Y-98651092D01*
X143188908Y-98796146D01*
X143188909Y-98796148D01*
X143302878Y-98966714D01*
X143381380Y-99156235D01*
X143421400Y-99357431D01*
X143421400Y-99562569D01*
X143381380Y-99763765D01*
X143302877Y-99953288D01*
X143188908Y-100123854D01*
X143043854Y-100268908D01*
X142873288Y-100382877D01*
X142873287Y-100382878D01*
X142873286Y-100382878D01*
X142683765Y-100461380D01*
X142482570Y-100501400D01*
X142277430Y-100501400D01*
X142076235Y-100461380D01*
X141886714Y-100382878D01*
X141886713Y-100382878D01*
X141886712Y-100382877D01*
X141716146Y-100268908D01*
X141571092Y-100123854D01*
X141457123Y-99953288D01*
X141378620Y-99763765D01*
X141338600Y-99562569D01*
X141338600Y-99357431D01*
X141378620Y-99156235D01*
X141457122Y-98966714D01*
X141571091Y-98796148D01*
X141571092Y-98796146D01*
X141716146Y-98651092D01*
X141886712Y-98537123D01*
X142076235Y-98458620D01*
X142277430Y-98418600D01*
X142482570Y-98418600D01*
X142683765Y-98458620D01*
G37*
G36*
X139534863Y-97810930D02*
G01*
X139712592Y-97884548D01*
X139872545Y-97991425D01*
X140008575Y-98127455D01*
X140115452Y-98287408D01*
X140189070Y-98465137D01*
X140226600Y-98653812D01*
X140226600Y-98846188D01*
X140189070Y-99034863D01*
X140115452Y-99212592D01*
X140008575Y-99372545D01*
X139872545Y-99508575D01*
X139712592Y-99615452D01*
X139534863Y-99689070D01*
X139346188Y-99726600D01*
X139153812Y-99726600D01*
X138965137Y-99689070D01*
X138787408Y-99615452D01*
X138627455Y-99508575D01*
X138491425Y-99372545D01*
X138384548Y-99212592D01*
X138310930Y-99034863D01*
X138273400Y-98846188D01*
X138273400Y-98653812D01*
X138310930Y-98465137D01*
X138384548Y-98287408D01*
X138491425Y-98127455D01*
X138627455Y-97991425D01*
X138787408Y-97884548D01*
X138965137Y-97810930D01*
X139153812Y-97773400D01*
X139346188Y-97773400D01*
X139534863Y-97810930D01*
G37*
G36*
X135034863Y-97810930D02*
G01*
X135212592Y-97884548D01*
X135372545Y-97991425D01*
X135508575Y-98127455D01*
X135615452Y-98287408D01*
X135689070Y-98465137D01*
X135726600Y-98653812D01*
X135726600Y-98846188D01*
X135689070Y-99034863D01*
X135615452Y-99212592D01*
X135508575Y-99372545D01*
X135372545Y-99508575D01*
X135212592Y-99615452D01*
X135034863Y-99689070D01*
X134846188Y-99726600D01*
X134653812Y-99726600D01*
X134465137Y-99689070D01*
X134287408Y-99615452D01*
X134127455Y-99508575D01*
X133991425Y-99372545D01*
X133884548Y-99212592D01*
X133810930Y-99034863D01*
X133773400Y-98846188D01*
X133773400Y-98653812D01*
X133810930Y-98465137D01*
X133884548Y-98287408D01*
X133991425Y-98127455D01*
X134127455Y-97991425D01*
X134287408Y-97884548D01*
X134465137Y-97810930D01*
X134653812Y-97773400D01*
X134846188Y-97773400D01*
X135034863Y-97810930D01*
G37*
G36*
X150250800Y-98750800D02*
G01*
X147949200Y-98750800D01*
X147949200Y-95849200D01*
X150250800Y-95849200D01*
X150250800Y-98750800D01*
G37*
G36*
X161886854Y-95911278D02*
G01*
X161923765Y-95918620D01*
X162113288Y-95997123D01*
X162283854Y-96111092D01*
X162428908Y-96256146D01*
X162542877Y-96426712D01*
X162542878Y-96426714D01*
X162621380Y-96616235D01*
X162657591Y-96798279D01*
X162661400Y-96817431D01*
X162661400Y-97022569D01*
X162621380Y-97223765D01*
X162542877Y-97413288D01*
X162428908Y-97583854D01*
X162283854Y-97728908D01*
X162113288Y-97842877D01*
X162113287Y-97842878D01*
X162113286Y-97842878D01*
X161923765Y-97921380D01*
X161722570Y-97961400D01*
X161517430Y-97961400D01*
X161316235Y-97921380D01*
X161126714Y-97842878D01*
X161126713Y-97842878D01*
X161126712Y-97842877D01*
X160956146Y-97728908D01*
X160811092Y-97583854D01*
X160697123Y-97413288D01*
X160618620Y-97223765D01*
X160578600Y-97022569D01*
X160578600Y-96817431D01*
X160582410Y-96798279D01*
X160618620Y-96616235D01*
X160697122Y-96426714D01*
X160697123Y-96426712D01*
X160811092Y-96256146D01*
X160956146Y-96111092D01*
X161126712Y-95997123D01*
X161316235Y-95918620D01*
X161353146Y-95911278D01*
X161517430Y-95878600D01*
X161722570Y-95878600D01*
X161886854Y-95911278D01*
G37*
G36*
X157886854Y-95911278D02*
G01*
X157923765Y-95918620D01*
X158113288Y-95997123D01*
X158283854Y-96111092D01*
X158428908Y-96256146D01*
X158542877Y-96426712D01*
X158542878Y-96426714D01*
X158621380Y-96616235D01*
X158657591Y-96798279D01*
X158661400Y-96817431D01*
X158661400Y-97022569D01*
X158621380Y-97223765D01*
X158542877Y-97413288D01*
X158428908Y-97583854D01*
X158283854Y-97728908D01*
X158113288Y-97842877D01*
X158113287Y-97842878D01*
X158113286Y-97842878D01*
X157923765Y-97921380D01*
X157722570Y-97961400D01*
X157517430Y-97961400D01*
X157316235Y-97921380D01*
X157126714Y-97842878D01*
X157126713Y-97842878D01*
X157126712Y-97842877D01*
X156956146Y-97728908D01*
X156811092Y-97583854D01*
X156697123Y-97413288D01*
X156618620Y-97223765D01*
X156578600Y-97022569D01*
X156578600Y-96817431D01*
X156582410Y-96798279D01*
X156618620Y-96616235D01*
X156697122Y-96426714D01*
X156697123Y-96426712D01*
X156811092Y-96256146D01*
X156956146Y-96111092D01*
X157126712Y-95997123D01*
X157316235Y-95918620D01*
X157353146Y-95911278D01*
X157517430Y-95878600D01*
X157722570Y-95878600D01*
X157886854Y-95911278D01*
G37*
G36*
X146646854Y-95911278D02*
G01*
X146683765Y-95918620D01*
X146873288Y-95997123D01*
X147043854Y-96111092D01*
X147188908Y-96256146D01*
X147302877Y-96426712D01*
X147302878Y-96426714D01*
X147381380Y-96616235D01*
X147417591Y-96798279D01*
X147421400Y-96817431D01*
X147421400Y-97022569D01*
X147381380Y-97223765D01*
X147302877Y-97413288D01*
X147188908Y-97583854D01*
X147043854Y-97728908D01*
X146873288Y-97842877D01*
X146873287Y-97842878D01*
X146873286Y-97842878D01*
X146683765Y-97921380D01*
X146482570Y-97961400D01*
X146277430Y-97961400D01*
X146076235Y-97921380D01*
X145886714Y-97842878D01*
X145886713Y-97842878D01*
X145886712Y-97842877D01*
X145716146Y-97728908D01*
X145571092Y-97583854D01*
X145457123Y-97413288D01*
X145378620Y-97223765D01*
X145338600Y-97022569D01*
X145338600Y-96817431D01*
X145342410Y-96798279D01*
X145378620Y-96616235D01*
X145457122Y-96426714D01*
X145457123Y-96426712D01*
X145571092Y-96256146D01*
X145716146Y-96111092D01*
X145886712Y-95997123D01*
X146076235Y-95918620D01*
X146113146Y-95911278D01*
X146277430Y-95878600D01*
X146482570Y-95878600D01*
X146646854Y-95911278D01*
G37*
G36*
X142646854Y-95911278D02*
G01*
X142683765Y-95918620D01*
X142873288Y-95997123D01*
X143043854Y-96111092D01*
X143188908Y-96256146D01*
X143302877Y-96426712D01*
X143302878Y-96426714D01*
X143381380Y-96616235D01*
X143417591Y-96798279D01*
X143421400Y-96817431D01*
X143421400Y-97022569D01*
X143381380Y-97223765D01*
X143302877Y-97413288D01*
X143188908Y-97583854D01*
X143043854Y-97728908D01*
X142873288Y-97842877D01*
X142873287Y-97842878D01*
X142873286Y-97842878D01*
X142683765Y-97921380D01*
X142482570Y-97961400D01*
X142277430Y-97961400D01*
X142076235Y-97921380D01*
X141886714Y-97842878D01*
X141886713Y-97842878D01*
X141886712Y-97842877D01*
X141716146Y-97728908D01*
X141571092Y-97583854D01*
X141457123Y-97413288D01*
X141378620Y-97223765D01*
X141338600Y-97022569D01*
X141338600Y-96817431D01*
X141342410Y-96798279D01*
X141378620Y-96616235D01*
X141457122Y-96426714D01*
X141457123Y-96426712D01*
X141571092Y-96256146D01*
X141716146Y-96111092D01*
X141886712Y-95997123D01*
X142076235Y-95918620D01*
X142113146Y-95911278D01*
X142277430Y-95878600D01*
X142482570Y-95878600D01*
X142646854Y-95911278D01*
G37*
G36*
X152546732Y-95110739D02*
G01*
X152662754Y-95133817D01*
X152826689Y-95201721D01*
X152974227Y-95300303D01*
X153099697Y-95425773D01*
X153198279Y-95573311D01*
X153266183Y-95737246D01*
X153300800Y-95911279D01*
X153300800Y-96088721D01*
X153266183Y-96262754D01*
X153198279Y-96426689D01*
X153099697Y-96574227D01*
X152974227Y-96699697D01*
X152826689Y-96798279D01*
X152662754Y-96866183D01*
X152546732Y-96889261D01*
X152488722Y-96900800D01*
X152311278Y-96900800D01*
X152253268Y-96889261D01*
X152137246Y-96866183D01*
X151973311Y-96798279D01*
X151825773Y-96699697D01*
X151700303Y-96574227D01*
X151601721Y-96426689D01*
X151533817Y-96262754D01*
X151499200Y-96088721D01*
X151499200Y-95911279D01*
X151533817Y-95737246D01*
X151601721Y-95573311D01*
X151700303Y-95425773D01*
X151825773Y-95300303D01*
X151973311Y-95201721D01*
X152137246Y-95133817D01*
X152253268Y-95110739D01*
X152311278Y-95099200D01*
X152488722Y-95099200D01*
X152546732Y-95110739D01*
G37*
G36*
X142683765Y-93378620D02*
G01*
X142801659Y-93427453D01*
X142873288Y-93457123D01*
X143043854Y-93571092D01*
X143188908Y-93716146D01*
X143302877Y-93886712D01*
X143381380Y-94076235D01*
X143421400Y-94277431D01*
X143421400Y-94482569D01*
X143381380Y-94683765D01*
X143302877Y-94873288D01*
X143188908Y-95043854D01*
X143043854Y-95188908D01*
X142873288Y-95302877D01*
X142873287Y-95302878D01*
X142873286Y-95302878D01*
X142683765Y-95381380D01*
X142482570Y-95421400D01*
X142277430Y-95421400D01*
X142076235Y-95381380D01*
X141886714Y-95302878D01*
X141886713Y-95302878D01*
X141886712Y-95302877D01*
X141716146Y-95188908D01*
X141571092Y-95043854D01*
X141457123Y-94873288D01*
X141378620Y-94683765D01*
X141338600Y-94482569D01*
X141338600Y-94277431D01*
X141378620Y-94076235D01*
X141457123Y-93886712D01*
X141571092Y-93716146D01*
X141716146Y-93571092D01*
X141886712Y-93457123D01*
X141958342Y-93427453D01*
X142076235Y-93378620D01*
X142277430Y-93338600D01*
X142482570Y-93338600D01*
X142683765Y-93378620D01*
G37*
G36*
X146683765Y-93378620D02*
G01*
X146801659Y-93427453D01*
X146873288Y-93457123D01*
X147043854Y-93571092D01*
X147188908Y-93716146D01*
X147302877Y-93886712D01*
X147381380Y-94076235D01*
X147421400Y-94277431D01*
X147421400Y-94482569D01*
X147381380Y-94683765D01*
X147302877Y-94873288D01*
X147188908Y-95043854D01*
X147043854Y-95188908D01*
X146873288Y-95302877D01*
X146873287Y-95302878D01*
X146873286Y-95302878D01*
X146683765Y-95381380D01*
X146482570Y-95421400D01*
X146277430Y-95421400D01*
X146076235Y-95381380D01*
X145886714Y-95302878D01*
X145886713Y-95302878D01*
X145886712Y-95302877D01*
X145716146Y-95188908D01*
X145571092Y-95043854D01*
X145457123Y-94873288D01*
X145378620Y-94683765D01*
X145338600Y-94482569D01*
X145338600Y-94277431D01*
X145378620Y-94076235D01*
X145457123Y-93886712D01*
X145571092Y-93716146D01*
X145716146Y-93571092D01*
X145886712Y-93457123D01*
X145958342Y-93427453D01*
X146076235Y-93378620D01*
X146277430Y-93338600D01*
X146482570Y-93338600D01*
X146683765Y-93378620D01*
G37*
G36*
X157923765Y-93378620D02*
G01*
X158041659Y-93427453D01*
X158113288Y-93457123D01*
X158283854Y-93571092D01*
X158428908Y-93716146D01*
X158542877Y-93886712D01*
X158621380Y-94076235D01*
X158661400Y-94277431D01*
X158661400Y-94482569D01*
X158621380Y-94683765D01*
X158542877Y-94873288D01*
X158428908Y-95043854D01*
X158283854Y-95188908D01*
X158113288Y-95302877D01*
X158113287Y-95302878D01*
X158113286Y-95302878D01*
X157923765Y-95381380D01*
X157722570Y-95421400D01*
X157517430Y-95421400D01*
X157316235Y-95381380D01*
X157126714Y-95302878D01*
X157126713Y-95302878D01*
X157126712Y-95302877D01*
X156956146Y-95188908D01*
X156811092Y-95043854D01*
X156697123Y-94873288D01*
X156618620Y-94683765D01*
X156578600Y-94482569D01*
X156578600Y-94277431D01*
X156618620Y-94076235D01*
X156697123Y-93886712D01*
X156811092Y-93716146D01*
X156956146Y-93571092D01*
X157126712Y-93457123D01*
X157198342Y-93427453D01*
X157316235Y-93378620D01*
X157517430Y-93338600D01*
X157722570Y-93338600D01*
X157923765Y-93378620D01*
G37*
G36*
X161923765Y-93378620D02*
G01*
X162041659Y-93427453D01*
X162113288Y-93457123D01*
X162283854Y-93571092D01*
X162428908Y-93716146D01*
X162542877Y-93886712D01*
X162621380Y-94076235D01*
X162661400Y-94277431D01*
X162661400Y-94482569D01*
X162621380Y-94683765D01*
X162542877Y-94873288D01*
X162428908Y-95043854D01*
X162283854Y-95188908D01*
X162113288Y-95302877D01*
X162113287Y-95302878D01*
X162113286Y-95302878D01*
X161923765Y-95381380D01*
X161722570Y-95421400D01*
X161517430Y-95421400D01*
X161316235Y-95381380D01*
X161126714Y-95302878D01*
X161126713Y-95302878D01*
X161126712Y-95302877D01*
X160956146Y-95188908D01*
X160811092Y-95043854D01*
X160697123Y-94873288D01*
X160618620Y-94683765D01*
X160578600Y-94482569D01*
X160578600Y-94277431D01*
X160618620Y-94076235D01*
X160697123Y-93886712D01*
X160811092Y-93716146D01*
X160956146Y-93571092D01*
X161126712Y-93457123D01*
X161198342Y-93427453D01*
X161316235Y-93378620D01*
X161517430Y-93338600D01*
X161722570Y-93338600D01*
X161923765Y-93378620D01*
G37*
G36*
X137559009Y-92401302D02*
G01*
X137617934Y-92407105D01*
X137731336Y-92441506D01*
X137835848Y-92497368D01*
X137835849Y-92497369D01*
X137835851Y-92497370D01*
X137927454Y-92572546D01*
X138002630Y-92664149D01*
X138002632Y-92664152D01*
X138058494Y-92768664D01*
X138092895Y-92882066D01*
X138104510Y-93000000D01*
X138092895Y-93117934D01*
X138058494Y-93231336D01*
X138002632Y-93335848D01*
X138002630Y-93335851D01*
X137927454Y-93427454D01*
X137835851Y-93502630D01*
X137835849Y-93502631D01*
X137835848Y-93502632D01*
X137731336Y-93558494D01*
X137617934Y-93592895D01*
X137559009Y-93598698D01*
X137529548Y-93601600D01*
X136470452Y-93601600D01*
X136440991Y-93598698D01*
X136382066Y-93592895D01*
X136268664Y-93558494D01*
X136164152Y-93502632D01*
X136164151Y-93502631D01*
X136164149Y-93502630D01*
X136072546Y-93427454D01*
X135997370Y-93335851D01*
X135997368Y-93335848D01*
X135941506Y-93231336D01*
X135907105Y-93117934D01*
X135895490Y-93000000D01*
X135907105Y-92882066D01*
X135941506Y-92768664D01*
X135997368Y-92664152D01*
X135997370Y-92664149D01*
X136072546Y-92572546D01*
X136164149Y-92497370D01*
X136164151Y-92497369D01*
X136164152Y-92497368D01*
X136268664Y-92441506D01*
X136382066Y-92407105D01*
X136440991Y-92401302D01*
X136470452Y-92398400D01*
X137529548Y-92398400D01*
X137559009Y-92401302D01*
G37*
G36*
X161923765Y-90838620D02*
G01*
X162065596Y-90897368D01*
X162113288Y-90917123D01*
X162283854Y-91031092D01*
X162428908Y-91176146D01*
X162499683Y-91282068D01*
X162542878Y-91346714D01*
X162621380Y-91536235D01*
X162661400Y-91737430D01*
X162661400Y-91942570D01*
X162651390Y-91992895D01*
X162621380Y-92143765D01*
X162542877Y-92333288D01*
X162428908Y-92503854D01*
X162283854Y-92648908D01*
X162113288Y-92762877D01*
X162113287Y-92762878D01*
X162113286Y-92762878D01*
X161923765Y-92841380D01*
X161722570Y-92881400D01*
X161517430Y-92881400D01*
X161316235Y-92841380D01*
X161126714Y-92762878D01*
X161126713Y-92762878D01*
X161126712Y-92762877D01*
X160956146Y-92648908D01*
X160811092Y-92503854D01*
X160697123Y-92333288D01*
X160618620Y-92143765D01*
X160588610Y-91992895D01*
X160578600Y-91942570D01*
X160578600Y-91737430D01*
X160618620Y-91536235D01*
X160697122Y-91346714D01*
X160740317Y-91282068D01*
X160811092Y-91176146D01*
X160956146Y-91031092D01*
X161126712Y-90917123D01*
X161174405Y-90897368D01*
X161316235Y-90838620D01*
X161517430Y-90798600D01*
X161722570Y-90798600D01*
X161923765Y-90838620D01*
G37*
G36*
X146683765Y-90838620D02*
G01*
X146825596Y-90897368D01*
X146873288Y-90917123D01*
X147043854Y-91031092D01*
X147188908Y-91176146D01*
X147259683Y-91282068D01*
X147302878Y-91346714D01*
X147381380Y-91536235D01*
X147421400Y-91737430D01*
X147421400Y-91942570D01*
X147411390Y-91992895D01*
X147381380Y-92143765D01*
X147302877Y-92333288D01*
X147188908Y-92503854D01*
X147043854Y-92648908D01*
X146873288Y-92762877D01*
X146873287Y-92762878D01*
X146873286Y-92762878D01*
X146683765Y-92841380D01*
X146482570Y-92881400D01*
X146277430Y-92881400D01*
X146076235Y-92841380D01*
X145886714Y-92762878D01*
X145886713Y-92762878D01*
X145886712Y-92762877D01*
X145716146Y-92648908D01*
X145571092Y-92503854D01*
X145457123Y-92333288D01*
X145378620Y-92143765D01*
X145348610Y-91992895D01*
X145338600Y-91942570D01*
X145338600Y-91737430D01*
X145378620Y-91536235D01*
X145457122Y-91346714D01*
X145500317Y-91282068D01*
X145571092Y-91176146D01*
X145716146Y-91031092D01*
X145886712Y-90917123D01*
X145934405Y-90897368D01*
X146076235Y-90838620D01*
X146277430Y-90798600D01*
X146482570Y-90798600D01*
X146683765Y-90838620D01*
G37*
G36*
X157923765Y-90838620D02*
G01*
X158065596Y-90897368D01*
X158113288Y-90917123D01*
X158283854Y-91031092D01*
X158428908Y-91176146D01*
X158499683Y-91282068D01*
X158542878Y-91346714D01*
X158621380Y-91536235D01*
X158661400Y-91737430D01*
X158661400Y-91942570D01*
X158651390Y-91992895D01*
X158621380Y-92143765D01*
X158542877Y-92333288D01*
X158428908Y-92503854D01*
X158283854Y-92648908D01*
X158113288Y-92762877D01*
X158113287Y-92762878D01*
X158113286Y-92762878D01*
X157923765Y-92841380D01*
X157722570Y-92881400D01*
X157517430Y-92881400D01*
X157316235Y-92841380D01*
X157126714Y-92762878D01*
X157126713Y-92762878D01*
X157126712Y-92762877D01*
X156956146Y-92648908D01*
X156811092Y-92503854D01*
X156697123Y-92333288D01*
X156618620Y-92143765D01*
X156588610Y-91992895D01*
X156578600Y-91942570D01*
X156578600Y-91737430D01*
X156618620Y-91536235D01*
X156697122Y-91346714D01*
X156740317Y-91282068D01*
X156811092Y-91176146D01*
X156956146Y-91031092D01*
X157126712Y-90917123D01*
X157174405Y-90897368D01*
X157316235Y-90838620D01*
X157517430Y-90798600D01*
X157722570Y-90798600D01*
X157923765Y-90838620D01*
G37*
G36*
X142683765Y-90838620D02*
G01*
X142825596Y-90897368D01*
X142873288Y-90917123D01*
X143043854Y-91031092D01*
X143188908Y-91176146D01*
X143259683Y-91282068D01*
X143302878Y-91346714D01*
X143381380Y-91536235D01*
X143421400Y-91737430D01*
X143421400Y-91942570D01*
X143411390Y-91992895D01*
X143381380Y-92143765D01*
X143302877Y-92333288D01*
X143188908Y-92503854D01*
X143043854Y-92648908D01*
X142873288Y-92762877D01*
X142873287Y-92762878D01*
X142873286Y-92762878D01*
X142683765Y-92841380D01*
X142482570Y-92881400D01*
X142277430Y-92881400D01*
X142076235Y-92841380D01*
X141886714Y-92762878D01*
X141886713Y-92762878D01*
X141886712Y-92762877D01*
X141716146Y-92648908D01*
X141571092Y-92503854D01*
X141457123Y-92333288D01*
X141378620Y-92143765D01*
X141348610Y-91992895D01*
X141338600Y-91942570D01*
X141338600Y-91737430D01*
X141378620Y-91536235D01*
X141457122Y-91346714D01*
X141500317Y-91282068D01*
X141571092Y-91176146D01*
X141716146Y-91031092D01*
X141886712Y-90917123D01*
X141934405Y-90897368D01*
X142076235Y-90838620D01*
X142277430Y-90798600D01*
X142482570Y-90798600D01*
X142683765Y-90838620D01*
G37*
G36*
X137559009Y-90801302D02*
G01*
X137617934Y-90807105D01*
X137731336Y-90841506D01*
X137835848Y-90897368D01*
X137835849Y-90897369D01*
X137835851Y-90897370D01*
X137927454Y-90972546D01*
X138002630Y-91064149D01*
X138002632Y-91064152D01*
X138058494Y-91168664D01*
X138092895Y-91282066D01*
X138104510Y-91400000D01*
X138092895Y-91517934D01*
X138058494Y-91631336D01*
X138002632Y-91735848D01*
X138002630Y-91735851D01*
X137927454Y-91827454D01*
X137835851Y-91902630D01*
X137835849Y-91902631D01*
X137835848Y-91902632D01*
X137731336Y-91958494D01*
X137617934Y-91992895D01*
X137559009Y-91998698D01*
X137529548Y-92001600D01*
X136470452Y-92001600D01*
X136440991Y-91998698D01*
X136382066Y-91992895D01*
X136268664Y-91958494D01*
X136164152Y-91902632D01*
X136164151Y-91902631D01*
X136164149Y-91902630D01*
X136072546Y-91827454D01*
X135997370Y-91735851D01*
X135997368Y-91735848D01*
X135941506Y-91631336D01*
X135907105Y-91517934D01*
X135895490Y-91400000D01*
X135907105Y-91282066D01*
X135941506Y-91168664D01*
X135997368Y-91064152D01*
X135997370Y-91064149D01*
X136072546Y-90972546D01*
X136164149Y-90897370D01*
X136164151Y-90897369D01*
X136164152Y-90897368D01*
X136268664Y-90841506D01*
X136382066Y-90807105D01*
X136440991Y-90801302D01*
X136470452Y-90798400D01*
X137529548Y-90798400D01*
X137559009Y-90801302D01*
G37*
G36*
X156150800Y-91050800D02*
G01*
X153849200Y-91050800D01*
X153849200Y-88749200D01*
X156150800Y-88749200D01*
X156150800Y-91050800D01*
G37*
G36*
X161923765Y-88298620D02*
G01*
X162013642Y-88335848D01*
X162113288Y-88377123D01*
X162283854Y-88491092D01*
X162428908Y-88636146D01*
X162542877Y-88806712D01*
X162542878Y-88806714D01*
X162621380Y-88996235D01*
X162639777Y-89088721D01*
X162661400Y-89197431D01*
X162661400Y-89402569D01*
X162621380Y-89603765D01*
X162542877Y-89793288D01*
X162428908Y-89963854D01*
X162283854Y-90108908D01*
X162113288Y-90222877D01*
X162113287Y-90222878D01*
X162113286Y-90222878D01*
X161923765Y-90301380D01*
X161722570Y-90341400D01*
X161517430Y-90341400D01*
X161316235Y-90301380D01*
X161126714Y-90222878D01*
X161126713Y-90222878D01*
X161126712Y-90222877D01*
X160956146Y-90108908D01*
X160811092Y-89963854D01*
X160697123Y-89793288D01*
X160618620Y-89603765D01*
X160578600Y-89402569D01*
X160578600Y-89197431D01*
X160600224Y-89088721D01*
X160618620Y-88996235D01*
X160697122Y-88806714D01*
X160697123Y-88806712D01*
X160811092Y-88636146D01*
X160956146Y-88491092D01*
X161126712Y-88377123D01*
X161226359Y-88335848D01*
X161316235Y-88298620D01*
X161517430Y-88258600D01*
X161722570Y-88258600D01*
X161923765Y-88298620D01*
G37*
G36*
X157923765Y-88298620D02*
G01*
X158013642Y-88335848D01*
X158113288Y-88377123D01*
X158283854Y-88491092D01*
X158428908Y-88636146D01*
X158542877Y-88806712D01*
X158542878Y-88806714D01*
X158621380Y-88996235D01*
X158639777Y-89088721D01*
X158661400Y-89197431D01*
X158661400Y-89402569D01*
X158621380Y-89603765D01*
X158542877Y-89793288D01*
X158428908Y-89963854D01*
X158283854Y-90108908D01*
X158113288Y-90222877D01*
X158113287Y-90222878D01*
X158113286Y-90222878D01*
X157923765Y-90301380D01*
X157722570Y-90341400D01*
X157517430Y-90341400D01*
X157316235Y-90301380D01*
X157126714Y-90222878D01*
X157126713Y-90222878D01*
X157126712Y-90222877D01*
X156956146Y-90108908D01*
X156811092Y-89963854D01*
X156697123Y-89793288D01*
X156618620Y-89603765D01*
X156578600Y-89402569D01*
X156578600Y-89197431D01*
X156600224Y-89088721D01*
X156618620Y-88996235D01*
X156697122Y-88806714D01*
X156697123Y-88806712D01*
X156811092Y-88636146D01*
X156956146Y-88491092D01*
X157126712Y-88377123D01*
X157226359Y-88335848D01*
X157316235Y-88298620D01*
X157517430Y-88258600D01*
X157722570Y-88258600D01*
X157923765Y-88298620D01*
G37*
G36*
X146683765Y-88298620D02*
G01*
X146773642Y-88335848D01*
X146873288Y-88377123D01*
X147043854Y-88491092D01*
X147188908Y-88636146D01*
X147302877Y-88806712D01*
X147302878Y-88806714D01*
X147381380Y-88996235D01*
X147399777Y-89088721D01*
X147421400Y-89197431D01*
X147421400Y-89402569D01*
X147381380Y-89603765D01*
X147302877Y-89793288D01*
X147188908Y-89963854D01*
X147043854Y-90108908D01*
X146873288Y-90222877D01*
X146873287Y-90222878D01*
X146873286Y-90222878D01*
X146683765Y-90301380D01*
X146482570Y-90341400D01*
X146277430Y-90341400D01*
X146076235Y-90301380D01*
X145886714Y-90222878D01*
X145886713Y-90222878D01*
X145886712Y-90222877D01*
X145716146Y-90108908D01*
X145571092Y-89963854D01*
X145457123Y-89793288D01*
X145378620Y-89603765D01*
X145338600Y-89402569D01*
X145338600Y-89197431D01*
X145360224Y-89088721D01*
X145378620Y-88996235D01*
X145457122Y-88806714D01*
X145457123Y-88806712D01*
X145571092Y-88636146D01*
X145716146Y-88491092D01*
X145886712Y-88377123D01*
X145986359Y-88335848D01*
X146076235Y-88298620D01*
X146277430Y-88258600D01*
X146482570Y-88258600D01*
X146683765Y-88298620D01*
G37*
G36*
X142683765Y-88298620D02*
G01*
X142773642Y-88335848D01*
X142873288Y-88377123D01*
X143043854Y-88491092D01*
X143188908Y-88636146D01*
X143302877Y-88806712D01*
X143302878Y-88806714D01*
X143381380Y-88996235D01*
X143399777Y-89088721D01*
X143421400Y-89197431D01*
X143421400Y-89402569D01*
X143381380Y-89603765D01*
X143302877Y-89793288D01*
X143188908Y-89963854D01*
X143043854Y-90108908D01*
X142873288Y-90222877D01*
X142873287Y-90222878D01*
X142873286Y-90222878D01*
X142683765Y-90301380D01*
X142482570Y-90341400D01*
X142277430Y-90341400D01*
X142076235Y-90301380D01*
X141886714Y-90222878D01*
X141886713Y-90222878D01*
X141886712Y-90222877D01*
X141716146Y-90108908D01*
X141571092Y-89963854D01*
X141457123Y-89793288D01*
X141378620Y-89603765D01*
X141338600Y-89402569D01*
X141338600Y-89197431D01*
X141360224Y-89088721D01*
X141378620Y-88996235D01*
X141457122Y-88806714D01*
X141457123Y-88806712D01*
X141571092Y-88636146D01*
X141716146Y-88491092D01*
X141886712Y-88377123D01*
X141986359Y-88335848D01*
X142076235Y-88298620D01*
X142277430Y-88258600D01*
X142482570Y-88258600D01*
X142683765Y-88298620D01*
G37*
G36*
X138101600Y-90201600D02*
G01*
X135898400Y-90201600D01*
X135898400Y-88998400D01*
X138101600Y-88998400D01*
X138101600Y-90201600D01*
G37*
G36*
X152546732Y-88110739D02*
G01*
X152662754Y-88133817D01*
X152826689Y-88201721D01*
X152974227Y-88300303D01*
X153099697Y-88425773D01*
X153198279Y-88573311D01*
X153266183Y-88737246D01*
X153300800Y-88911279D01*
X153300800Y-89088721D01*
X153266183Y-89262754D01*
X153198279Y-89426689D01*
X153099697Y-89574227D01*
X152974227Y-89699697D01*
X152826689Y-89798279D01*
X152662754Y-89866183D01*
X152546732Y-89889261D01*
X152488722Y-89900800D01*
X152311278Y-89900800D01*
X152253268Y-89889261D01*
X152137246Y-89866183D01*
X151973311Y-89798279D01*
X151825773Y-89699697D01*
X151700303Y-89574227D01*
X151601721Y-89426689D01*
X151533817Y-89262754D01*
X151499200Y-89088721D01*
X151499200Y-88911279D01*
X151533817Y-88737246D01*
X151601721Y-88573311D01*
X151700303Y-88425773D01*
X151825773Y-88300303D01*
X151973311Y-88201721D01*
X152137246Y-88133817D01*
X152253268Y-88110739D01*
X152311278Y-88099200D01*
X152488722Y-88099200D01*
X152546732Y-88110739D01*
G37*
G36*
X150250800Y-89050800D02*
G01*
X147949200Y-89050800D01*
X147949200Y-86749200D01*
X150250800Y-86749200D01*
X150250800Y-89050800D01*
G37*
G36*
X137559009Y-87401302D02*
G01*
X137617934Y-87407105D01*
X137731336Y-87441506D01*
X137835848Y-87497368D01*
X137835849Y-87497369D01*
X137835851Y-87497370D01*
X137927454Y-87572546D01*
X138002630Y-87664149D01*
X138002632Y-87664152D01*
X138058494Y-87768664D01*
X138092895Y-87882066D01*
X138104510Y-88000000D01*
X138092895Y-88117934D01*
X138058494Y-88231336D01*
X138002632Y-88335848D01*
X138002630Y-88335851D01*
X137927454Y-88427454D01*
X137835851Y-88502630D01*
X137835849Y-88502631D01*
X137835848Y-88502632D01*
X137731336Y-88558494D01*
X137617934Y-88592895D01*
X137559009Y-88598698D01*
X137529548Y-88601600D01*
X136470452Y-88601600D01*
X136440991Y-88598698D01*
X136382066Y-88592895D01*
X136268664Y-88558494D01*
X136164152Y-88502632D01*
X136164151Y-88502631D01*
X136164149Y-88502630D01*
X136072546Y-88427454D01*
X135997370Y-88335851D01*
X135997368Y-88335848D01*
X135941506Y-88231336D01*
X135907105Y-88117934D01*
X135895490Y-88000000D01*
X135907105Y-87882066D01*
X135941506Y-87768664D01*
X135997368Y-87664152D01*
X135997370Y-87664149D01*
X136072546Y-87572546D01*
X136164149Y-87497370D01*
X136164151Y-87497369D01*
X136164152Y-87497368D01*
X136268664Y-87441506D01*
X136382066Y-87407105D01*
X136440991Y-87401302D01*
X136470452Y-87398400D01*
X137529548Y-87398400D01*
X137559009Y-87401302D01*
G37*
G36*
X146683765Y-85758620D02*
G01*
X146873288Y-85837123D01*
X147043854Y-85951092D01*
X147188908Y-86096146D01*
X147302877Y-86266712D01*
X147381380Y-86456235D01*
X147421400Y-86657431D01*
X147421400Y-86862569D01*
X147381380Y-87063765D01*
X147302877Y-87253288D01*
X147188908Y-87423854D01*
X147043854Y-87568908D01*
X146873288Y-87682877D01*
X146873287Y-87682878D01*
X146873286Y-87682878D01*
X146683765Y-87761380D01*
X146482570Y-87801400D01*
X146277430Y-87801400D01*
X146076235Y-87761380D01*
X145886714Y-87682878D01*
X145886713Y-87682878D01*
X145886712Y-87682877D01*
X145716146Y-87568908D01*
X145571092Y-87423854D01*
X145457123Y-87253288D01*
X145378620Y-87063765D01*
X145338600Y-86862569D01*
X145338600Y-86657431D01*
X145378620Y-86456235D01*
X145457123Y-86266712D01*
X145571092Y-86096146D01*
X145716146Y-85951092D01*
X145886712Y-85837123D01*
X146076235Y-85758620D01*
X146277430Y-85718600D01*
X146482570Y-85718600D01*
X146683765Y-85758620D01*
G37*
G36*
X161923765Y-85758620D02*
G01*
X162113288Y-85837123D01*
X162283854Y-85951092D01*
X162428908Y-86096146D01*
X162542877Y-86266712D01*
X162621380Y-86456235D01*
X162661400Y-86657431D01*
X162661400Y-86862569D01*
X162621380Y-87063765D01*
X162542877Y-87253288D01*
X162428908Y-87423854D01*
X162283854Y-87568908D01*
X162113288Y-87682877D01*
X162113287Y-87682878D01*
X162113286Y-87682878D01*
X161923765Y-87761380D01*
X161722570Y-87801400D01*
X161517430Y-87801400D01*
X161316235Y-87761380D01*
X161126714Y-87682878D01*
X161126713Y-87682878D01*
X161126712Y-87682877D01*
X160956146Y-87568908D01*
X160811092Y-87423854D01*
X160697123Y-87253288D01*
X160618620Y-87063765D01*
X160578600Y-86862569D01*
X160578600Y-86657431D01*
X160618620Y-86456235D01*
X160697123Y-86266712D01*
X160811092Y-86096146D01*
X160956146Y-85951092D01*
X161126712Y-85837123D01*
X161316235Y-85758620D01*
X161517430Y-85718600D01*
X161722570Y-85718600D01*
X161923765Y-85758620D01*
G37*
G36*
X142683765Y-85758620D02*
G01*
X142873288Y-85837123D01*
X143043854Y-85951092D01*
X143188908Y-86096146D01*
X143302877Y-86266712D01*
X143381380Y-86456235D01*
X143421400Y-86657431D01*
X143421400Y-86862569D01*
X143381380Y-87063765D01*
X143302877Y-87253288D01*
X143188908Y-87423854D01*
X143043854Y-87568908D01*
X142873288Y-87682877D01*
X142873287Y-87682878D01*
X142873286Y-87682878D01*
X142683765Y-87761380D01*
X142482570Y-87801400D01*
X142277430Y-87801400D01*
X142076235Y-87761380D01*
X141886714Y-87682878D01*
X141886713Y-87682878D01*
X141886712Y-87682877D01*
X141716146Y-87568908D01*
X141571092Y-87423854D01*
X141457123Y-87253288D01*
X141378620Y-87063765D01*
X141338600Y-86862569D01*
X141338600Y-86657431D01*
X141378620Y-86456235D01*
X141457123Y-86266712D01*
X141571092Y-86096146D01*
X141716146Y-85951092D01*
X141886712Y-85837123D01*
X142076235Y-85758620D01*
X142277430Y-85718600D01*
X142482570Y-85718600D01*
X142683765Y-85758620D01*
G37*
G36*
X157923765Y-85758620D02*
G01*
X158113288Y-85837123D01*
X158283854Y-85951092D01*
X158428908Y-86096146D01*
X158542877Y-86266712D01*
X158621380Y-86456235D01*
X158661400Y-86657431D01*
X158661400Y-86862569D01*
X158621380Y-87063765D01*
X158542877Y-87253288D01*
X158428908Y-87423854D01*
X158283854Y-87568908D01*
X158113288Y-87682877D01*
X158113287Y-87682878D01*
X158113286Y-87682878D01*
X157923765Y-87761380D01*
X157722570Y-87801400D01*
X157517430Y-87801400D01*
X157316235Y-87761380D01*
X157126714Y-87682878D01*
X157126713Y-87682878D01*
X157126712Y-87682877D01*
X156956146Y-87568908D01*
X156811092Y-87423854D01*
X156697123Y-87253288D01*
X156618620Y-87063765D01*
X156578600Y-86862569D01*
X156578600Y-86657431D01*
X156618620Y-86456235D01*
X156697123Y-86266712D01*
X156811092Y-86096146D01*
X156956146Y-85951092D01*
X157126712Y-85837123D01*
X157316235Y-85758620D01*
X157517430Y-85718600D01*
X157722570Y-85718600D01*
X157923765Y-85758620D01*
G37*
M02*
