G04 #@! TF.GenerationSoftware,KiCad,Pcbnew,(5.1.5-0-10_14)*
G04 #@! TF.CreationDate,2020-05-13T01:35:36-07:00*
G04 #@! TF.ProjectId,prost-pcb,70726f73-742d-4706-9362-2e6b69636164,0.1.0*
G04 #@! TF.SameCoordinates,Original*
G04 #@! TF.FileFunction,Legend,Top*
G04 #@! TF.FilePolarity,Positive*
%FSLAX46Y46*%
G04 Gerber Fmt 4.6, Leading zero omitted, Abs format (unit mm)*
G04 Created by KiCad (PCBNEW (5.1.5-0-10_14)) date 2020-05-13 01:35:36*
%MOMM*%
%LPD*%
G04 APERTURE LIST*
%ADD10C,0.125000*%
%ADD11C,0.120000*%
%ADD12C,0.087500*%
%ADD13C,0.152400*%
G04 APERTURE END LIST*
D10*
X159426190Y-104309523D02*
X159783333Y-104309523D01*
X159854761Y-104333333D01*
X159902380Y-104380952D01*
X159926190Y-104452380D01*
X159926190Y-104500000D01*
X159926190Y-103833333D02*
X159926190Y-104071428D01*
X159426190Y-104071428D01*
X159878571Y-103380952D02*
X159902380Y-103404761D01*
X159926190Y-103476190D01*
X159926190Y-103523809D01*
X159902380Y-103595238D01*
X159854761Y-103642857D01*
X159807142Y-103666666D01*
X159711904Y-103690476D01*
X159640476Y-103690476D01*
X159545238Y-103666666D01*
X159497619Y-103642857D01*
X159450000Y-103595238D01*
X159426190Y-103523809D01*
X159426190Y-103476190D01*
X159450000Y-103404761D01*
X159473809Y-103380952D01*
X159426190Y-103023809D02*
X159783333Y-103023809D01*
X159854761Y-103047619D01*
X159902380Y-103095238D01*
X159926190Y-103166666D01*
X159926190Y-103214285D01*
X159926190Y-102547619D02*
X159926190Y-102785714D01*
X159426190Y-102785714D01*
X159878571Y-102095238D02*
X159902380Y-102119047D01*
X159926190Y-102190476D01*
X159926190Y-102238095D01*
X159902380Y-102309523D01*
X159854761Y-102357142D01*
X159807142Y-102380952D01*
X159711904Y-102404761D01*
X159640476Y-102404761D01*
X159545238Y-102380952D01*
X159497619Y-102357142D01*
X159450000Y-102309523D01*
X159426190Y-102238095D01*
X159426190Y-102190476D01*
X159450000Y-102119047D01*
X159473809Y-102095238D01*
X159426190Y-101738095D02*
X159783333Y-101738095D01*
X159854761Y-101761904D01*
X159902380Y-101809523D01*
X159926190Y-101880952D01*
X159926190Y-101928571D01*
X159926190Y-101261904D02*
X159926190Y-101500000D01*
X159426190Y-101500000D01*
X159878571Y-100809523D02*
X159902380Y-100833333D01*
X159926190Y-100904761D01*
X159926190Y-100952380D01*
X159902380Y-101023809D01*
X159854761Y-101071428D01*
X159807142Y-101095238D01*
X159711904Y-101119047D01*
X159640476Y-101119047D01*
X159545238Y-101095238D01*
X159497619Y-101071428D01*
X159450000Y-101023809D01*
X159426190Y-100952380D01*
X159426190Y-100904761D01*
X159450000Y-100833333D01*
X159473809Y-100809523D01*
X159426190Y-100452380D02*
X159783333Y-100452380D01*
X159854761Y-100476190D01*
X159902380Y-100523809D01*
X159926190Y-100595238D01*
X159926190Y-100642857D01*
X159926190Y-99976190D02*
X159926190Y-100214285D01*
X159426190Y-100214285D01*
X159878571Y-99523809D02*
X159902380Y-99547619D01*
X159926190Y-99619047D01*
X159926190Y-99666666D01*
X159902380Y-99738095D01*
X159854761Y-99785714D01*
X159807142Y-99809523D01*
X159711904Y-99833333D01*
X159640476Y-99833333D01*
X159545238Y-99809523D01*
X159497619Y-99785714D01*
X159450000Y-99738095D01*
X159426190Y-99666666D01*
X159426190Y-99619047D01*
X159450000Y-99547619D01*
X159473809Y-99523809D01*
D11*
X162791537Y-94380000D02*
G75*
G03X162791537Y-94380000I-1171537J0D01*
G01*
X147551537Y-109620000D02*
G75*
G03X147551537Y-109620000I-1171537J0D01*
G01*
X147551537Y-107080000D02*
G75*
G03X147551537Y-107080000I-1171537J0D01*
G01*
X147551537Y-102000000D02*
G75*
G03X147551537Y-102000000I-1171537J0D01*
G01*
X147551537Y-91840000D02*
G75*
G03X147551537Y-91840000I-1171537J0D01*
G01*
X147551537Y-89300000D02*
G75*
G03X147551537Y-89300000I-1171537J0D01*
G01*
X145100000Y-118000000D02*
X145100000Y-86000000D01*
D12*
X136408333Y-86458333D02*
X136241666Y-86458333D01*
X136241666Y-86108333D01*
X136525000Y-86275000D02*
X136641666Y-86275000D01*
X136691666Y-86458333D02*
X136525000Y-86458333D01*
X136525000Y-86108333D01*
X136691666Y-86108333D01*
X136841666Y-86458333D02*
X136841666Y-86108333D01*
X136925000Y-86108333D01*
X136975000Y-86125000D01*
X137008333Y-86158333D01*
X137025000Y-86191666D01*
X137041666Y-86258333D01*
X137041666Y-86308333D01*
X137025000Y-86375000D01*
X137008333Y-86408333D01*
X136975000Y-86441666D01*
X136925000Y-86458333D01*
X136841666Y-86458333D01*
X137191666Y-86325000D02*
X137458333Y-86325000D01*
X137608333Y-86358333D02*
X137775000Y-86358333D01*
X137575000Y-86458333D02*
X137691666Y-86108333D01*
X137808333Y-86458333D01*
X136383333Y-117958333D02*
X136216666Y-117958333D01*
X136216666Y-117608333D01*
X136500000Y-117775000D02*
X136616666Y-117775000D01*
X136666666Y-117958333D02*
X136500000Y-117958333D01*
X136500000Y-117608333D01*
X136666666Y-117608333D01*
X136816666Y-117958333D02*
X136816666Y-117608333D01*
X136900000Y-117608333D01*
X136950000Y-117625000D01*
X136983333Y-117658333D01*
X137000000Y-117691666D01*
X137016666Y-117758333D01*
X137016666Y-117808333D01*
X137000000Y-117875000D01*
X136983333Y-117908333D01*
X136950000Y-117941666D01*
X136900000Y-117958333D01*
X136816666Y-117958333D01*
X137166666Y-117825000D02*
X137433333Y-117825000D01*
X137716666Y-117775000D02*
X137766666Y-117791666D01*
X137783333Y-117808333D01*
X137800000Y-117841666D01*
X137800000Y-117891666D01*
X137783333Y-117925000D01*
X137766666Y-117941666D01*
X137733333Y-117958333D01*
X137600000Y-117958333D01*
X137600000Y-117608333D01*
X137716666Y-117608333D01*
X137750000Y-117625000D01*
X137766666Y-117641666D01*
X137783333Y-117675000D01*
X137783333Y-117708333D01*
X137766666Y-117741666D01*
X137750000Y-117758333D01*
X137716666Y-117775000D01*
X137600000Y-117775000D01*
D10*
X148438392Y-109846190D02*
X148200297Y-109846190D01*
X148200297Y-109346190D01*
X148438392Y-107306190D02*
X148200297Y-107306190D01*
X148200297Y-106806190D01*
X148581250Y-107282380D02*
X148652678Y-107306190D01*
X148771726Y-107306190D01*
X148819345Y-107282380D01*
X148843154Y-107258571D01*
X148866964Y-107210952D01*
X148866964Y-107163333D01*
X148843154Y-107115714D01*
X148819345Y-107091904D01*
X148771726Y-107068095D01*
X148676488Y-107044285D01*
X148628869Y-107020476D01*
X148605059Y-106996666D01*
X148581250Y-106949047D01*
X148581250Y-106901428D01*
X148605059Y-106853809D01*
X148628869Y-106830000D01*
X148676488Y-106806190D01*
X148795535Y-106806190D01*
X148866964Y-106830000D01*
X148438392Y-102226190D02*
X148200297Y-102226190D01*
X148200297Y-101726190D01*
X148605059Y-101726190D02*
X148605059Y-102130952D01*
X148628869Y-102178571D01*
X148652678Y-102202380D01*
X148700297Y-102226190D01*
X148795535Y-102226190D01*
X148843154Y-102202380D01*
X148866964Y-102178571D01*
X148890773Y-102130952D01*
X148890773Y-101726190D01*
X148486011Y-92066190D02*
X148319345Y-91828095D01*
X148200297Y-92066190D02*
X148200297Y-91566190D01*
X148390773Y-91566190D01*
X148438392Y-91590000D01*
X148462202Y-91613809D01*
X148486011Y-91661428D01*
X148486011Y-91732857D01*
X148462202Y-91780476D01*
X148438392Y-91804285D01*
X148390773Y-91828095D01*
X148200297Y-91828095D01*
X148652678Y-91566190D02*
X148986011Y-92066190D01*
X148986011Y-91566190D02*
X148652678Y-92066190D01*
X148128869Y-89026190D02*
X148414583Y-89026190D01*
X148271726Y-89526190D02*
X148271726Y-89026190D01*
X148533630Y-89026190D02*
X148866964Y-89526190D01*
X148866964Y-89026190D02*
X148533630Y-89526190D01*
D11*
X149300000Y-95700000D02*
X149300000Y-89200000D01*
X149300000Y-100100000D02*
X149300000Y-98900000D01*
X155500000Y-100100000D02*
X149300000Y-100100000D01*
X155500000Y-91200000D02*
X155500000Y-100100000D01*
X155500000Y-85400000D02*
X155500000Y-88600000D01*
X155000000Y-85400000D02*
X155500000Y-85400000D01*
X155000000Y-82900000D02*
X155000000Y-85400000D01*
X149800000Y-82900000D02*
X155000000Y-82900000D01*
X149800000Y-85400000D02*
X149800000Y-82900000D01*
X149300000Y-85400000D02*
X149800000Y-85400000D01*
X149300000Y-86600000D02*
X149300000Y-85400000D01*
D13*
X139000000Y-111100000D02*
X135000000Y-111100000D01*
X134970454Y-111123926D02*
G75*
G03X139000000Y-111100000I2029546J-2476074D01*
G01*
X139000000Y-88000000D02*
X135000000Y-88000000D01*
X134970454Y-88023926D02*
G75*
G03X139000000Y-88000000I2029546J-2476074D01*
G01*
X138500000Y-102000000D02*
G75*
G03X138500000Y-102000000I-1500000J0D01*
G01*
X140000000Y-99000000D02*
X140000000Y-105000000D01*
X140000000Y-105000000D02*
X134000000Y-105000000D01*
X134000000Y-99000000D02*
X134000000Y-105000000D01*
X134000000Y-99000000D02*
X140000000Y-99000000D01*
D10*
X138800297Y-86426190D02*
X138800297Y-85926190D01*
X138966964Y-86283333D01*
X139133630Y-85926190D01*
X139133630Y-86426190D01*
X139657440Y-86378571D02*
X139633630Y-86402380D01*
X139562202Y-86426190D01*
X139514583Y-86426190D01*
X139443154Y-86402380D01*
X139395535Y-86354761D01*
X139371726Y-86307142D01*
X139347916Y-86211904D01*
X139347916Y-86140476D01*
X139371726Y-86045238D01*
X139395535Y-85997619D01*
X139443154Y-85950000D01*
X139514583Y-85926190D01*
X139562202Y-85926190D01*
X139633630Y-85950000D01*
X139657440Y-85973809D01*
X139847916Y-86283333D02*
X140086011Y-86283333D01*
X139800297Y-86426190D02*
X139966964Y-85926190D01*
X140133630Y-86426190D01*
X140562202Y-86426190D02*
X140276488Y-86426190D01*
X140419345Y-86426190D02*
X140419345Y-85926190D01*
X140371726Y-85997619D01*
X140324107Y-86045238D01*
X140276488Y-86069047D01*
M02*
