G04 #@! TF.GenerationSoftware,KiCad,Pcbnew,(5.1.5-0-10_14)*
G04 #@! TF.CreationDate,2020-05-24T23:38:13-07:00*
G04 #@! TF.ProjectId,prost-pcb,70726f73-742d-4706-9362-2e6b69636164,0.1.0*
G04 #@! TF.SameCoordinates,Original*
G04 #@! TF.FileFunction,Soldermask,Top*
G04 #@! TF.FilePolarity,Negative*
%FSLAX46Y46*%
G04 Gerber Fmt 4.6, Leading zero omitted, Abs format (unit mm)*
G04 Created by KiCad (PCBNEW (5.1.5-0-10_14)) date 2020-05-24 23:38:13*
%MOMM*%
%LPD*%
G04 APERTURE LIST*
%ADD10C,0.100000*%
G04 APERTURE END LIST*
D10*
G36*
X161923765Y-116238620D02*
G01*
X162113288Y-116317123D01*
X162283854Y-116431092D01*
X162428908Y-116576146D01*
X162542877Y-116746712D01*
X162621380Y-116936235D01*
X162661400Y-117137431D01*
X162661400Y-117342569D01*
X162621380Y-117543765D01*
X162542877Y-117733288D01*
X162428908Y-117903854D01*
X162283854Y-118048908D01*
X162113288Y-118162877D01*
X162113287Y-118162878D01*
X162113286Y-118162878D01*
X161923765Y-118241380D01*
X161722570Y-118281400D01*
X161517430Y-118281400D01*
X161316235Y-118241380D01*
X161126714Y-118162878D01*
X161126713Y-118162878D01*
X161126712Y-118162877D01*
X160956146Y-118048908D01*
X160811092Y-117903854D01*
X160697123Y-117733288D01*
X160618620Y-117543765D01*
X160578600Y-117342569D01*
X160578600Y-117137431D01*
X160618620Y-116936235D01*
X160697123Y-116746712D01*
X160811092Y-116576146D01*
X160956146Y-116431092D01*
X161126712Y-116317123D01*
X161316235Y-116238620D01*
X161517430Y-116198600D01*
X161722570Y-116198600D01*
X161923765Y-116238620D01*
G37*
G36*
X157903765Y-116238620D02*
G01*
X158093288Y-116317123D01*
X158263854Y-116431092D01*
X158408908Y-116576146D01*
X158522877Y-116746712D01*
X158601380Y-116936235D01*
X158641400Y-117137431D01*
X158641400Y-117342569D01*
X158601380Y-117543765D01*
X158522877Y-117733288D01*
X158408908Y-117903854D01*
X158263854Y-118048908D01*
X158093288Y-118162877D01*
X158093287Y-118162878D01*
X158093286Y-118162878D01*
X157903765Y-118241380D01*
X157702570Y-118281400D01*
X157497430Y-118281400D01*
X157296235Y-118241380D01*
X157106714Y-118162878D01*
X157106713Y-118162878D01*
X157106712Y-118162877D01*
X156936146Y-118048908D01*
X156791092Y-117903854D01*
X156677123Y-117733288D01*
X156598620Y-117543765D01*
X156558600Y-117342569D01*
X156558600Y-117137431D01*
X156598620Y-116936235D01*
X156677123Y-116746712D01*
X156791092Y-116576146D01*
X156936146Y-116431092D01*
X157106712Y-116317123D01*
X157296235Y-116238620D01*
X157497430Y-116198600D01*
X157702570Y-116198600D01*
X157903765Y-116238620D01*
G37*
G36*
X146683765Y-116238620D02*
G01*
X146873288Y-116317123D01*
X147043854Y-116431092D01*
X147188908Y-116576146D01*
X147302877Y-116746712D01*
X147381380Y-116936235D01*
X147421400Y-117137431D01*
X147421400Y-117342569D01*
X147381380Y-117543765D01*
X147302877Y-117733288D01*
X147188908Y-117903854D01*
X147043854Y-118048908D01*
X146873288Y-118162877D01*
X146873287Y-118162878D01*
X146873286Y-118162878D01*
X146683765Y-118241380D01*
X146482570Y-118281400D01*
X146277430Y-118281400D01*
X146076235Y-118241380D01*
X145886714Y-118162878D01*
X145886713Y-118162878D01*
X145886712Y-118162877D01*
X145716146Y-118048908D01*
X145571092Y-117903854D01*
X145457123Y-117733288D01*
X145378620Y-117543765D01*
X145338600Y-117342569D01*
X145338600Y-117137431D01*
X145378620Y-116936235D01*
X145457123Y-116746712D01*
X145571092Y-116576146D01*
X145716146Y-116431092D01*
X145886712Y-116317123D01*
X146076235Y-116238620D01*
X146277430Y-116198600D01*
X146482570Y-116198600D01*
X146683765Y-116238620D01*
G37*
G36*
X142683765Y-116238620D02*
G01*
X142873288Y-116317123D01*
X143043854Y-116431092D01*
X143188908Y-116576146D01*
X143302877Y-116746712D01*
X143381380Y-116936235D01*
X143421400Y-117137431D01*
X143421400Y-117342569D01*
X143381380Y-117543765D01*
X143302877Y-117733288D01*
X143188908Y-117903854D01*
X143043854Y-118048908D01*
X142873288Y-118162877D01*
X142873287Y-118162878D01*
X142873286Y-118162878D01*
X142683765Y-118241380D01*
X142482570Y-118281400D01*
X142277430Y-118281400D01*
X142076235Y-118241380D01*
X141886714Y-118162878D01*
X141886713Y-118162878D01*
X141886712Y-118162877D01*
X141716146Y-118048908D01*
X141571092Y-117903854D01*
X141457123Y-117733288D01*
X141378620Y-117543765D01*
X141338600Y-117342569D01*
X141338600Y-117137431D01*
X141378620Y-116936235D01*
X141457123Y-116746712D01*
X141571092Y-116576146D01*
X141716146Y-116431092D01*
X141886712Y-116317123D01*
X142076235Y-116238620D01*
X142277430Y-116198600D01*
X142482570Y-116198600D01*
X142683765Y-116238620D01*
G37*
G36*
X150250800Y-117250800D02*
G01*
X147949200Y-117250800D01*
X147949200Y-114949200D01*
X150250800Y-114949200D01*
X150250800Y-117250800D01*
G37*
G36*
X134950800Y-117250800D02*
G01*
X132649200Y-117250800D01*
X132649200Y-114949200D01*
X134950800Y-114949200D01*
X134950800Y-117250800D01*
G37*
G36*
X152546732Y-114110739D02*
G01*
X152662754Y-114133817D01*
X152826689Y-114201721D01*
X152974227Y-114300303D01*
X153099697Y-114425773D01*
X153198279Y-114573311D01*
X153266183Y-114737246D01*
X153300800Y-114911279D01*
X153300800Y-115088721D01*
X153266183Y-115262754D01*
X153198279Y-115426689D01*
X153099697Y-115574227D01*
X152974227Y-115699697D01*
X152826689Y-115798279D01*
X152662754Y-115866183D01*
X152546732Y-115889261D01*
X152488722Y-115900800D01*
X152311278Y-115900800D01*
X152253268Y-115889261D01*
X152137246Y-115866183D01*
X151973311Y-115798279D01*
X151825773Y-115699697D01*
X151700303Y-115574227D01*
X151601721Y-115426689D01*
X151533817Y-115262754D01*
X151499200Y-115088721D01*
X151499200Y-114911279D01*
X151533817Y-114737246D01*
X151601721Y-114573311D01*
X151700303Y-114425773D01*
X151825773Y-114300303D01*
X151973311Y-114201721D01*
X152137246Y-114133817D01*
X152253268Y-114110739D01*
X152311278Y-114099200D01*
X152488722Y-114099200D01*
X152546732Y-114110739D01*
G37*
G36*
X137246732Y-114110739D02*
G01*
X137362754Y-114133817D01*
X137526689Y-114201721D01*
X137674227Y-114300303D01*
X137799697Y-114425773D01*
X137898279Y-114573311D01*
X137966183Y-114737246D01*
X138000800Y-114911279D01*
X138000800Y-115088721D01*
X137966183Y-115262754D01*
X137898279Y-115426689D01*
X137799697Y-115574227D01*
X137674227Y-115699697D01*
X137526689Y-115798279D01*
X137362754Y-115866183D01*
X137246732Y-115889261D01*
X137188722Y-115900800D01*
X137011278Y-115900800D01*
X136953268Y-115889261D01*
X136837246Y-115866183D01*
X136673311Y-115798279D01*
X136525773Y-115699697D01*
X136400303Y-115574227D01*
X136301721Y-115426689D01*
X136233817Y-115262754D01*
X136199200Y-115088721D01*
X136199200Y-114911279D01*
X136233817Y-114737246D01*
X136301721Y-114573311D01*
X136400303Y-114425773D01*
X136525773Y-114300303D01*
X136673311Y-114201721D01*
X136837246Y-114133817D01*
X136953268Y-114110739D01*
X137011278Y-114099200D01*
X137188722Y-114099200D01*
X137246732Y-114110739D01*
G37*
G36*
X161923765Y-113698620D02*
G01*
X162113288Y-113777123D01*
X162283854Y-113891092D01*
X162428908Y-114036146D01*
X162428909Y-114036148D01*
X162542878Y-114206714D01*
X162621380Y-114396235D01*
X162661400Y-114597430D01*
X162661400Y-114802570D01*
X162632234Y-114949200D01*
X162621380Y-115003765D01*
X162542877Y-115193288D01*
X162428908Y-115363854D01*
X162283854Y-115508908D01*
X162113288Y-115622877D01*
X162113287Y-115622878D01*
X162113286Y-115622878D01*
X161923765Y-115701380D01*
X161722570Y-115741400D01*
X161517430Y-115741400D01*
X161316235Y-115701380D01*
X161126714Y-115622878D01*
X161126713Y-115622878D01*
X161126712Y-115622877D01*
X160956146Y-115508908D01*
X160811092Y-115363854D01*
X160697123Y-115193288D01*
X160618620Y-115003765D01*
X160607766Y-114949200D01*
X160578600Y-114802570D01*
X160578600Y-114597430D01*
X160618620Y-114396235D01*
X160697122Y-114206714D01*
X160811091Y-114036148D01*
X160811092Y-114036146D01*
X160956146Y-113891092D01*
X161126712Y-113777123D01*
X161316235Y-113698620D01*
X161517430Y-113658600D01*
X161722570Y-113658600D01*
X161923765Y-113698620D01*
G37*
G36*
X157923765Y-113698620D02*
G01*
X158113288Y-113777123D01*
X158283854Y-113891092D01*
X158428908Y-114036146D01*
X158428909Y-114036148D01*
X158542878Y-114206714D01*
X158621380Y-114396235D01*
X158661400Y-114597430D01*
X158661400Y-114802570D01*
X158632234Y-114949200D01*
X158621380Y-115003765D01*
X158542877Y-115193288D01*
X158428908Y-115363854D01*
X158283854Y-115508908D01*
X158113288Y-115622877D01*
X158113287Y-115622878D01*
X158113286Y-115622878D01*
X157923765Y-115701380D01*
X157722570Y-115741400D01*
X157517430Y-115741400D01*
X157316235Y-115701380D01*
X157126714Y-115622878D01*
X157126713Y-115622878D01*
X157126712Y-115622877D01*
X156956146Y-115508908D01*
X156811092Y-115363854D01*
X156697123Y-115193288D01*
X156618620Y-115003765D01*
X156607766Y-114949200D01*
X156578600Y-114802570D01*
X156578600Y-114597430D01*
X156618620Y-114396235D01*
X156697122Y-114206714D01*
X156811091Y-114036148D01*
X156811092Y-114036146D01*
X156956146Y-113891092D01*
X157126712Y-113777123D01*
X157316235Y-113698620D01*
X157517430Y-113658600D01*
X157722570Y-113658600D01*
X157923765Y-113698620D01*
G37*
G36*
X146683765Y-113698620D02*
G01*
X146873288Y-113777123D01*
X147043854Y-113891092D01*
X147188908Y-114036146D01*
X147188909Y-114036148D01*
X147302878Y-114206714D01*
X147381380Y-114396235D01*
X147421400Y-114597430D01*
X147421400Y-114802570D01*
X147392234Y-114949200D01*
X147381380Y-115003765D01*
X147302877Y-115193288D01*
X147188908Y-115363854D01*
X147043854Y-115508908D01*
X146873288Y-115622877D01*
X146873287Y-115622878D01*
X146873286Y-115622878D01*
X146683765Y-115701380D01*
X146482570Y-115741400D01*
X146277430Y-115741400D01*
X146076235Y-115701380D01*
X145886714Y-115622878D01*
X145886713Y-115622878D01*
X145886712Y-115622877D01*
X145716146Y-115508908D01*
X145571092Y-115363854D01*
X145457123Y-115193288D01*
X145378620Y-115003765D01*
X145367766Y-114949200D01*
X145338600Y-114802570D01*
X145338600Y-114597430D01*
X145378620Y-114396235D01*
X145457122Y-114206714D01*
X145571091Y-114036148D01*
X145571092Y-114036146D01*
X145716146Y-113891092D01*
X145886712Y-113777123D01*
X146076235Y-113698620D01*
X146277430Y-113658600D01*
X146482570Y-113658600D01*
X146683765Y-113698620D01*
G37*
G36*
X143421400Y-115741400D02*
G01*
X141338600Y-115741400D01*
X141338600Y-113658600D01*
X143421400Y-113658600D01*
X143421400Y-115741400D01*
G37*
G36*
X156150800Y-115250800D02*
G01*
X153849200Y-115250800D01*
X153849200Y-112949200D01*
X156150800Y-112949200D01*
X156150800Y-115250800D01*
G37*
G36*
X140850800Y-115250800D02*
G01*
X138549200Y-115250800D01*
X138549200Y-112949200D01*
X140850800Y-112949200D01*
X140850800Y-115250800D01*
G37*
G36*
X146683765Y-111158620D02*
G01*
X146873288Y-111237123D01*
X147043854Y-111351092D01*
X147188908Y-111496146D01*
X147302877Y-111666712D01*
X147381380Y-111856235D01*
X147421400Y-112057431D01*
X147421400Y-112262569D01*
X147381380Y-112463765D01*
X147302877Y-112653288D01*
X147188908Y-112823854D01*
X147043854Y-112968908D01*
X146873288Y-113082877D01*
X146873287Y-113082878D01*
X146873286Y-113082878D01*
X146683765Y-113161380D01*
X146482570Y-113201400D01*
X146277430Y-113201400D01*
X146076235Y-113161380D01*
X145886714Y-113082878D01*
X145886713Y-113082878D01*
X145886712Y-113082877D01*
X145716146Y-112968908D01*
X145571092Y-112823854D01*
X145457123Y-112653288D01*
X145378620Y-112463765D01*
X145338600Y-112262569D01*
X145338600Y-112057431D01*
X145378620Y-111856235D01*
X145457123Y-111666712D01*
X145571092Y-111496146D01*
X145716146Y-111351092D01*
X145886712Y-111237123D01*
X146076235Y-111158620D01*
X146277430Y-111118600D01*
X146482570Y-111118600D01*
X146683765Y-111158620D01*
G37*
G36*
X142683765Y-111158620D02*
G01*
X142873288Y-111237123D01*
X143043854Y-111351092D01*
X143188908Y-111496146D01*
X143302877Y-111666712D01*
X143381380Y-111856235D01*
X143421400Y-112057431D01*
X143421400Y-112262569D01*
X143381380Y-112463765D01*
X143302877Y-112653288D01*
X143188908Y-112823854D01*
X143043854Y-112968908D01*
X142873288Y-113082877D01*
X142873287Y-113082878D01*
X142873286Y-113082878D01*
X142683765Y-113161380D01*
X142482570Y-113201400D01*
X142277430Y-113201400D01*
X142076235Y-113161380D01*
X141886714Y-113082878D01*
X141886713Y-113082878D01*
X141886712Y-113082877D01*
X141716146Y-112968908D01*
X141571092Y-112823854D01*
X141457123Y-112653288D01*
X141378620Y-112463765D01*
X141338600Y-112262569D01*
X141338600Y-112057431D01*
X141378620Y-111856235D01*
X141457123Y-111666712D01*
X141571092Y-111496146D01*
X141716146Y-111351092D01*
X141886712Y-111237123D01*
X142076235Y-111158620D01*
X142277430Y-111118600D01*
X142482570Y-111118600D01*
X142683765Y-111158620D01*
G37*
G36*
X157923765Y-111158620D02*
G01*
X158113288Y-111237123D01*
X158283854Y-111351092D01*
X158428908Y-111496146D01*
X158542877Y-111666712D01*
X158621380Y-111856235D01*
X158661400Y-112057431D01*
X158661400Y-112262569D01*
X158621380Y-112463765D01*
X158542877Y-112653288D01*
X158428908Y-112823854D01*
X158283854Y-112968908D01*
X158113288Y-113082877D01*
X158113287Y-113082878D01*
X158113286Y-113082878D01*
X157923765Y-113161380D01*
X157722570Y-113201400D01*
X157517430Y-113201400D01*
X157316235Y-113161380D01*
X157126714Y-113082878D01*
X157126713Y-113082878D01*
X157126712Y-113082877D01*
X156956146Y-112968908D01*
X156811092Y-112823854D01*
X156697123Y-112653288D01*
X156618620Y-112463765D01*
X156578600Y-112262569D01*
X156578600Y-112057431D01*
X156618620Y-111856235D01*
X156697123Y-111666712D01*
X156811092Y-111496146D01*
X156956146Y-111351092D01*
X157126712Y-111237123D01*
X157316235Y-111158620D01*
X157517430Y-111118600D01*
X157722570Y-111118600D01*
X157923765Y-111158620D01*
G37*
G36*
X161923765Y-111158620D02*
G01*
X162113288Y-111237123D01*
X162283854Y-111351092D01*
X162428908Y-111496146D01*
X162542877Y-111666712D01*
X162621380Y-111856235D01*
X162661400Y-112057431D01*
X162661400Y-112262569D01*
X162621380Y-112463765D01*
X162542877Y-112653288D01*
X162428908Y-112823854D01*
X162283854Y-112968908D01*
X162113288Y-113082877D01*
X162113287Y-113082878D01*
X162113286Y-113082878D01*
X161923765Y-113161380D01*
X161722570Y-113201400D01*
X161517430Y-113201400D01*
X161316235Y-113161380D01*
X161126714Y-113082878D01*
X161126713Y-113082878D01*
X161126712Y-113082877D01*
X160956146Y-112968908D01*
X160811092Y-112823854D01*
X160697123Y-112653288D01*
X160618620Y-112463765D01*
X160578600Y-112262569D01*
X160578600Y-112057431D01*
X160618620Y-111856235D01*
X160697123Y-111666712D01*
X160811092Y-111496146D01*
X160956146Y-111351092D01*
X161126712Y-111237123D01*
X161316235Y-111158620D01*
X161517430Y-111118600D01*
X161722570Y-111118600D01*
X161923765Y-111158620D01*
G37*
G36*
X142683765Y-108618620D02*
G01*
X142873288Y-108697123D01*
X143043854Y-108811092D01*
X143188908Y-108956146D01*
X143302877Y-109126712D01*
X143381380Y-109316235D01*
X143421400Y-109517431D01*
X143421400Y-109722569D01*
X143381380Y-109923765D01*
X143302877Y-110113288D01*
X143188908Y-110283854D01*
X143043854Y-110428908D01*
X142873288Y-110542877D01*
X142873287Y-110542878D01*
X142873286Y-110542878D01*
X142683765Y-110621380D01*
X142482570Y-110661400D01*
X142277430Y-110661400D01*
X142076235Y-110621380D01*
X141886714Y-110542878D01*
X141886713Y-110542878D01*
X141886712Y-110542877D01*
X141716146Y-110428908D01*
X141571092Y-110283854D01*
X141457123Y-110113288D01*
X141378620Y-109923765D01*
X141338600Y-109722569D01*
X141338600Y-109517431D01*
X141378620Y-109316235D01*
X141457123Y-109126712D01*
X141571092Y-108956146D01*
X141716146Y-108811092D01*
X141886712Y-108697123D01*
X142076235Y-108618620D01*
X142277430Y-108578600D01*
X142482570Y-108578600D01*
X142683765Y-108618620D01*
G37*
G36*
X161923765Y-108618620D02*
G01*
X162113288Y-108697123D01*
X162283854Y-108811092D01*
X162428908Y-108956146D01*
X162542877Y-109126712D01*
X162621380Y-109316235D01*
X162661400Y-109517431D01*
X162661400Y-109722569D01*
X162621380Y-109923765D01*
X162542877Y-110113288D01*
X162428908Y-110283854D01*
X162283854Y-110428908D01*
X162113288Y-110542877D01*
X162113287Y-110542878D01*
X162113286Y-110542878D01*
X161923765Y-110621380D01*
X161722570Y-110661400D01*
X161517430Y-110661400D01*
X161316235Y-110621380D01*
X161126714Y-110542878D01*
X161126713Y-110542878D01*
X161126712Y-110542877D01*
X160956146Y-110428908D01*
X160811092Y-110283854D01*
X160697123Y-110113288D01*
X160618620Y-109923765D01*
X160578600Y-109722569D01*
X160578600Y-109517431D01*
X160618620Y-109316235D01*
X160697123Y-109126712D01*
X160811092Y-108956146D01*
X160956146Y-108811092D01*
X161126712Y-108697123D01*
X161316235Y-108618620D01*
X161517430Y-108578600D01*
X161722570Y-108578600D01*
X161923765Y-108618620D01*
G37*
G36*
X157923765Y-108618620D02*
G01*
X158113288Y-108697123D01*
X158283854Y-108811092D01*
X158428908Y-108956146D01*
X158542877Y-109126712D01*
X158621380Y-109316235D01*
X158661400Y-109517431D01*
X158661400Y-109722569D01*
X158621380Y-109923765D01*
X158542877Y-110113288D01*
X158428908Y-110283854D01*
X158283854Y-110428908D01*
X158113288Y-110542877D01*
X158113287Y-110542878D01*
X158113286Y-110542878D01*
X157923765Y-110621380D01*
X157722570Y-110661400D01*
X157517430Y-110661400D01*
X157316235Y-110621380D01*
X157126714Y-110542878D01*
X157126713Y-110542878D01*
X157126712Y-110542877D01*
X156956146Y-110428908D01*
X156811092Y-110283854D01*
X156697123Y-110113288D01*
X156618620Y-109923765D01*
X156578600Y-109722569D01*
X156578600Y-109517431D01*
X156618620Y-109316235D01*
X156697123Y-109126712D01*
X156811092Y-108956146D01*
X156956146Y-108811092D01*
X157126712Y-108697123D01*
X157316235Y-108618620D01*
X157517430Y-108578600D01*
X157722570Y-108578600D01*
X157923765Y-108618620D01*
G37*
G36*
X146683765Y-108618620D02*
G01*
X146873288Y-108697123D01*
X147043854Y-108811092D01*
X147188908Y-108956146D01*
X147302877Y-109126712D01*
X147381380Y-109316235D01*
X147421400Y-109517431D01*
X147421400Y-109722569D01*
X147381380Y-109923765D01*
X147302877Y-110113288D01*
X147188908Y-110283854D01*
X147043854Y-110428908D01*
X146873288Y-110542877D01*
X146873287Y-110542878D01*
X146873286Y-110542878D01*
X146683765Y-110621380D01*
X146482570Y-110661400D01*
X146277430Y-110661400D01*
X146076235Y-110621380D01*
X145886714Y-110542878D01*
X145886713Y-110542878D01*
X145886712Y-110542877D01*
X145716146Y-110428908D01*
X145571092Y-110283854D01*
X145457123Y-110113288D01*
X145378620Y-109923765D01*
X145338600Y-109722569D01*
X145338600Y-109517431D01*
X145378620Y-109316235D01*
X145457123Y-109126712D01*
X145571092Y-108956146D01*
X145716146Y-108811092D01*
X145886712Y-108697123D01*
X146076235Y-108618620D01*
X146277430Y-108578600D01*
X146482570Y-108578600D01*
X146683765Y-108618620D01*
G37*
G36*
X137246732Y-107110739D02*
G01*
X137362754Y-107133817D01*
X137526689Y-107201721D01*
X137674227Y-107300303D01*
X137799697Y-107425773D01*
X137898279Y-107573311D01*
X137966183Y-107737246D01*
X138000800Y-107911279D01*
X138000800Y-108088721D01*
X137966183Y-108262754D01*
X137898279Y-108426689D01*
X137799697Y-108574227D01*
X137674227Y-108699697D01*
X137526689Y-108798279D01*
X137362754Y-108866183D01*
X137246732Y-108889261D01*
X137188722Y-108900800D01*
X137011278Y-108900800D01*
X136953268Y-108889261D01*
X136837246Y-108866183D01*
X136673311Y-108798279D01*
X136525773Y-108699697D01*
X136400303Y-108574227D01*
X136301721Y-108426689D01*
X136233817Y-108262754D01*
X136199200Y-108088721D01*
X136199200Y-107911279D01*
X136233817Y-107737246D01*
X136301721Y-107573311D01*
X136400303Y-107425773D01*
X136525773Y-107300303D01*
X136673311Y-107201721D01*
X136837246Y-107133817D01*
X136953268Y-107110739D01*
X137011278Y-107099200D01*
X137188722Y-107099200D01*
X137246732Y-107110739D01*
G37*
G36*
X152546732Y-107110739D02*
G01*
X152662754Y-107133817D01*
X152826689Y-107201721D01*
X152974227Y-107300303D01*
X153099697Y-107425773D01*
X153198279Y-107573311D01*
X153266183Y-107737246D01*
X153300800Y-107911279D01*
X153300800Y-108088721D01*
X153266183Y-108262754D01*
X153198279Y-108426689D01*
X153099697Y-108574227D01*
X152974227Y-108699697D01*
X152826689Y-108798279D01*
X152662754Y-108866183D01*
X152546732Y-108889261D01*
X152488722Y-108900800D01*
X152311278Y-108900800D01*
X152253268Y-108889261D01*
X152137246Y-108866183D01*
X151973311Y-108798279D01*
X151825773Y-108699697D01*
X151700303Y-108574227D01*
X151601721Y-108426689D01*
X151533817Y-108262754D01*
X151499200Y-108088721D01*
X151499200Y-107911279D01*
X151533817Y-107737246D01*
X151601721Y-107573311D01*
X151700303Y-107425773D01*
X151825773Y-107300303D01*
X151973311Y-107201721D01*
X152137246Y-107133817D01*
X152253268Y-107110739D01*
X152311278Y-107099200D01*
X152488722Y-107099200D01*
X152546732Y-107110739D01*
G37*
G36*
X150250800Y-108150800D02*
G01*
X147949200Y-108150800D01*
X147949200Y-105249200D01*
X150250800Y-105249200D01*
X150250800Y-108150800D01*
G37*
G36*
X134950800Y-108150800D02*
G01*
X132649200Y-108150800D01*
X132649200Y-105249200D01*
X134950800Y-105249200D01*
X134950800Y-108150800D01*
G37*
G36*
X142683765Y-106078620D02*
G01*
X142873288Y-106157123D01*
X143043854Y-106271092D01*
X143188908Y-106416146D01*
X143188909Y-106416148D01*
X143302878Y-106586714D01*
X143381380Y-106776235D01*
X143421400Y-106977430D01*
X143421400Y-107182570D01*
X143381380Y-107383765D01*
X143302877Y-107573288D01*
X143188908Y-107743854D01*
X143043854Y-107888908D01*
X142873288Y-108002877D01*
X142873287Y-108002878D01*
X142873286Y-108002878D01*
X142683765Y-108081380D01*
X142482570Y-108121400D01*
X142277430Y-108121400D01*
X142076235Y-108081380D01*
X141886714Y-108002878D01*
X141886713Y-108002878D01*
X141886712Y-108002877D01*
X141716146Y-107888908D01*
X141571092Y-107743854D01*
X141457123Y-107573288D01*
X141378620Y-107383765D01*
X141338600Y-107182570D01*
X141338600Y-106977430D01*
X141378620Y-106776235D01*
X141457122Y-106586714D01*
X141571091Y-106416148D01*
X141571092Y-106416146D01*
X141716146Y-106271092D01*
X141886712Y-106157123D01*
X142076235Y-106078620D01*
X142277430Y-106038600D01*
X142482570Y-106038600D01*
X142683765Y-106078620D01*
G37*
G36*
X161923765Y-106078620D02*
G01*
X162113288Y-106157123D01*
X162283854Y-106271092D01*
X162428908Y-106416146D01*
X162428909Y-106416148D01*
X162542878Y-106586714D01*
X162621380Y-106776235D01*
X162661400Y-106977430D01*
X162661400Y-107182570D01*
X162621380Y-107383765D01*
X162542877Y-107573288D01*
X162428908Y-107743854D01*
X162283854Y-107888908D01*
X162113288Y-108002877D01*
X162113287Y-108002878D01*
X162113286Y-108002878D01*
X161923765Y-108081380D01*
X161722570Y-108121400D01*
X161517430Y-108121400D01*
X161316235Y-108081380D01*
X161126714Y-108002878D01*
X161126713Y-108002878D01*
X161126712Y-108002877D01*
X160956146Y-107888908D01*
X160811092Y-107743854D01*
X160697123Y-107573288D01*
X160618620Y-107383765D01*
X160578600Y-107182570D01*
X160578600Y-106977430D01*
X160618620Y-106776235D01*
X160697122Y-106586714D01*
X160811091Y-106416148D01*
X160811092Y-106416146D01*
X160956146Y-106271092D01*
X161126712Y-106157123D01*
X161316235Y-106078620D01*
X161517430Y-106038600D01*
X161722570Y-106038600D01*
X161923765Y-106078620D01*
G37*
G36*
X157923765Y-106078620D02*
G01*
X158113288Y-106157123D01*
X158283854Y-106271092D01*
X158428908Y-106416146D01*
X158428909Y-106416148D01*
X158542878Y-106586714D01*
X158621380Y-106776235D01*
X158661400Y-106977430D01*
X158661400Y-107182570D01*
X158621380Y-107383765D01*
X158542877Y-107573288D01*
X158428908Y-107743854D01*
X158283854Y-107888908D01*
X158113288Y-108002877D01*
X158113287Y-108002878D01*
X158113286Y-108002878D01*
X157923765Y-108081380D01*
X157722570Y-108121400D01*
X157517430Y-108121400D01*
X157316235Y-108081380D01*
X157126714Y-108002878D01*
X157126713Y-108002878D01*
X157126712Y-108002877D01*
X156956146Y-107888908D01*
X156811092Y-107743854D01*
X156697123Y-107573288D01*
X156618620Y-107383765D01*
X156578600Y-107182570D01*
X156578600Y-106977430D01*
X156618620Y-106776235D01*
X156697122Y-106586714D01*
X156811091Y-106416148D01*
X156811092Y-106416146D01*
X156956146Y-106271092D01*
X157126712Y-106157123D01*
X157316235Y-106078620D01*
X157517430Y-106038600D01*
X157722570Y-106038600D01*
X157923765Y-106078620D01*
G37*
G36*
X146683765Y-106078620D02*
G01*
X146873288Y-106157123D01*
X147043854Y-106271092D01*
X147188908Y-106416146D01*
X147188909Y-106416148D01*
X147302878Y-106586714D01*
X147381380Y-106776235D01*
X147421400Y-106977430D01*
X147421400Y-107182570D01*
X147381380Y-107383765D01*
X147302877Y-107573288D01*
X147188908Y-107743854D01*
X147043854Y-107888908D01*
X146873288Y-108002877D01*
X146873287Y-108002878D01*
X146873286Y-108002878D01*
X146683765Y-108081380D01*
X146482570Y-108121400D01*
X146277430Y-108121400D01*
X146076235Y-108081380D01*
X145886714Y-108002878D01*
X145886713Y-108002878D01*
X145886712Y-108002877D01*
X145716146Y-107888908D01*
X145571092Y-107743854D01*
X145457123Y-107573288D01*
X145378620Y-107383765D01*
X145338600Y-107182570D01*
X145338600Y-106977430D01*
X145378620Y-106776235D01*
X145457122Y-106586714D01*
X145571091Y-106416148D01*
X145571092Y-106416146D01*
X145716146Y-106271092D01*
X145886712Y-106157123D01*
X146076235Y-106078620D01*
X146277430Y-106038600D01*
X146482570Y-106038600D01*
X146683765Y-106078620D01*
G37*
G36*
X161923765Y-103538620D02*
G01*
X162113288Y-103617123D01*
X162283854Y-103731092D01*
X162428908Y-103876146D01*
X162542877Y-104046712D01*
X162621380Y-104236235D01*
X162661400Y-104437431D01*
X162661400Y-104642569D01*
X162621380Y-104843765D01*
X162542877Y-105033288D01*
X162428908Y-105203854D01*
X162283854Y-105348908D01*
X162113288Y-105462877D01*
X162113287Y-105462878D01*
X162113286Y-105462878D01*
X161923765Y-105541380D01*
X161722570Y-105581400D01*
X161517430Y-105581400D01*
X161316235Y-105541380D01*
X161126714Y-105462878D01*
X161126713Y-105462878D01*
X161126712Y-105462877D01*
X160956146Y-105348908D01*
X160811092Y-105203854D01*
X160697123Y-105033288D01*
X160618620Y-104843765D01*
X160578600Y-104642569D01*
X160578600Y-104437431D01*
X160618620Y-104236235D01*
X160697123Y-104046712D01*
X160811092Y-103876146D01*
X160956146Y-103731092D01*
X161126712Y-103617123D01*
X161316235Y-103538620D01*
X161517430Y-103498600D01*
X161722570Y-103498600D01*
X161923765Y-103538620D01*
G37*
G36*
X142683765Y-103538620D02*
G01*
X142873288Y-103617123D01*
X143043854Y-103731092D01*
X143188908Y-103876146D01*
X143302877Y-104046712D01*
X143381380Y-104236235D01*
X143421400Y-104437431D01*
X143421400Y-104642569D01*
X143381380Y-104843765D01*
X143302877Y-105033288D01*
X143188908Y-105203854D01*
X143043854Y-105348908D01*
X142873288Y-105462877D01*
X142873287Y-105462878D01*
X142873286Y-105462878D01*
X142683765Y-105541380D01*
X142482570Y-105581400D01*
X142277430Y-105581400D01*
X142076235Y-105541380D01*
X141886714Y-105462878D01*
X141886713Y-105462878D01*
X141886712Y-105462877D01*
X141716146Y-105348908D01*
X141571092Y-105203854D01*
X141457123Y-105033288D01*
X141378620Y-104843765D01*
X141338600Y-104642569D01*
X141338600Y-104437431D01*
X141378620Y-104236235D01*
X141457123Y-104046712D01*
X141571092Y-103876146D01*
X141716146Y-103731092D01*
X141886712Y-103617123D01*
X142076235Y-103538620D01*
X142277430Y-103498600D01*
X142482570Y-103498600D01*
X142683765Y-103538620D01*
G37*
G36*
X157923765Y-103538620D02*
G01*
X158113288Y-103617123D01*
X158283854Y-103731092D01*
X158428908Y-103876146D01*
X158542877Y-104046712D01*
X158621380Y-104236235D01*
X158661400Y-104437431D01*
X158661400Y-104642569D01*
X158621380Y-104843765D01*
X158542877Y-105033288D01*
X158428908Y-105203854D01*
X158283854Y-105348908D01*
X158113288Y-105462877D01*
X158113287Y-105462878D01*
X158113286Y-105462878D01*
X157923765Y-105541380D01*
X157722570Y-105581400D01*
X157517430Y-105581400D01*
X157316235Y-105541380D01*
X157126714Y-105462878D01*
X157126713Y-105462878D01*
X157126712Y-105462877D01*
X156956146Y-105348908D01*
X156811092Y-105203854D01*
X156697123Y-105033288D01*
X156618620Y-104843765D01*
X156578600Y-104642569D01*
X156578600Y-104437431D01*
X156618620Y-104236235D01*
X156697123Y-104046712D01*
X156811092Y-103876146D01*
X156956146Y-103731092D01*
X157126712Y-103617123D01*
X157316235Y-103538620D01*
X157517430Y-103498600D01*
X157722570Y-103498600D01*
X157923765Y-103538620D01*
G37*
G36*
X146683765Y-103538620D02*
G01*
X146873288Y-103617123D01*
X147043854Y-103731092D01*
X147188908Y-103876146D01*
X147302877Y-104046712D01*
X147381380Y-104236235D01*
X147421400Y-104437431D01*
X147421400Y-104642569D01*
X147381380Y-104843765D01*
X147302877Y-105033288D01*
X147188908Y-105203854D01*
X147043854Y-105348908D01*
X146873288Y-105462877D01*
X146873287Y-105462878D01*
X146873286Y-105462878D01*
X146683765Y-105541380D01*
X146482570Y-105581400D01*
X146277430Y-105581400D01*
X146076235Y-105541380D01*
X145886714Y-105462878D01*
X145886713Y-105462878D01*
X145886712Y-105462877D01*
X145716146Y-105348908D01*
X145571092Y-105203854D01*
X145457123Y-105033288D01*
X145378620Y-104843765D01*
X145338600Y-104642569D01*
X145338600Y-104437431D01*
X145378620Y-104236235D01*
X145457123Y-104046712D01*
X145571092Y-103876146D01*
X145716146Y-103731092D01*
X145886712Y-103617123D01*
X146076235Y-103538620D01*
X146277430Y-103498600D01*
X146482570Y-103498600D01*
X146683765Y-103538620D01*
G37*
G36*
X161887593Y-100991425D02*
G01*
X161923765Y-100998620D01*
X162113288Y-101077123D01*
X162283854Y-101191092D01*
X162428908Y-101336146D01*
X162542877Y-101506712D01*
X162621380Y-101696235D01*
X162661400Y-101897431D01*
X162661400Y-102102569D01*
X162621380Y-102303765D01*
X162542877Y-102493288D01*
X162428908Y-102663854D01*
X162283854Y-102808908D01*
X162113288Y-102922877D01*
X162113287Y-102922878D01*
X162113286Y-102922878D01*
X161923765Y-103001380D01*
X161722570Y-103041400D01*
X161517430Y-103041400D01*
X161316235Y-103001380D01*
X161126714Y-102922878D01*
X161126713Y-102922878D01*
X161126712Y-102922877D01*
X160956146Y-102808908D01*
X160811092Y-102663854D01*
X160697123Y-102493288D01*
X160618620Y-102303765D01*
X160578600Y-102102569D01*
X160578600Y-101897431D01*
X160618620Y-101696235D01*
X160697123Y-101506712D01*
X160811092Y-101336146D01*
X160956146Y-101191092D01*
X161126712Y-101077123D01*
X161316235Y-100998620D01*
X161352407Y-100991425D01*
X161517430Y-100958600D01*
X161722570Y-100958600D01*
X161887593Y-100991425D01*
G37*
G36*
X157887593Y-100991425D02*
G01*
X157923765Y-100998620D01*
X158113288Y-101077123D01*
X158283854Y-101191092D01*
X158428908Y-101336146D01*
X158542877Y-101506712D01*
X158621380Y-101696235D01*
X158661400Y-101897431D01*
X158661400Y-102102569D01*
X158621380Y-102303765D01*
X158542877Y-102493288D01*
X158428908Y-102663854D01*
X158283854Y-102808908D01*
X158113288Y-102922877D01*
X158113287Y-102922878D01*
X158113286Y-102922878D01*
X157923765Y-103001380D01*
X157722570Y-103041400D01*
X157517430Y-103041400D01*
X157316235Y-103001380D01*
X157126714Y-102922878D01*
X157126713Y-102922878D01*
X157126712Y-102922877D01*
X156956146Y-102808908D01*
X156811092Y-102663854D01*
X156697123Y-102493288D01*
X156618620Y-102303765D01*
X156578600Y-102102569D01*
X156578600Y-101897431D01*
X156618620Y-101696235D01*
X156697123Y-101506712D01*
X156811092Y-101336146D01*
X156956146Y-101191092D01*
X157126712Y-101077123D01*
X157316235Y-100998620D01*
X157352407Y-100991425D01*
X157517430Y-100958600D01*
X157722570Y-100958600D01*
X157887593Y-100991425D01*
G37*
G36*
X146647593Y-100991425D02*
G01*
X146683765Y-100998620D01*
X146873288Y-101077123D01*
X147043854Y-101191092D01*
X147188908Y-101336146D01*
X147302877Y-101506712D01*
X147381380Y-101696235D01*
X147421400Y-101897431D01*
X147421400Y-102102569D01*
X147381380Y-102303765D01*
X147302877Y-102493288D01*
X147188908Y-102663854D01*
X147043854Y-102808908D01*
X146873288Y-102922877D01*
X146873287Y-102922878D01*
X146873286Y-102922878D01*
X146683765Y-103001380D01*
X146482570Y-103041400D01*
X146277430Y-103041400D01*
X146076235Y-103001380D01*
X145886714Y-102922878D01*
X145886713Y-102922878D01*
X145886712Y-102922877D01*
X145716146Y-102808908D01*
X145571092Y-102663854D01*
X145457123Y-102493288D01*
X145378620Y-102303765D01*
X145338600Y-102102569D01*
X145338600Y-101897431D01*
X145378620Y-101696235D01*
X145457123Y-101506712D01*
X145571092Y-101336146D01*
X145716146Y-101191092D01*
X145886712Y-101077123D01*
X146076235Y-100998620D01*
X146112407Y-100991425D01*
X146277430Y-100958600D01*
X146482570Y-100958600D01*
X146647593Y-100991425D01*
G37*
G36*
X142647593Y-100991425D02*
G01*
X142683765Y-100998620D01*
X142873288Y-101077123D01*
X143043854Y-101191092D01*
X143188908Y-101336146D01*
X143302877Y-101506712D01*
X143381380Y-101696235D01*
X143421400Y-101897431D01*
X143421400Y-102102569D01*
X143381380Y-102303765D01*
X143302877Y-102493288D01*
X143188908Y-102663854D01*
X143043854Y-102808908D01*
X142873288Y-102922877D01*
X142873287Y-102922878D01*
X142873286Y-102922878D01*
X142683765Y-103001380D01*
X142482570Y-103041400D01*
X142277430Y-103041400D01*
X142076235Y-103001380D01*
X141886714Y-102922878D01*
X141886713Y-102922878D01*
X141886712Y-102922877D01*
X141716146Y-102808908D01*
X141571092Y-102663854D01*
X141457123Y-102493288D01*
X141378620Y-102303765D01*
X141338600Y-102102569D01*
X141338600Y-101897431D01*
X141378620Y-101696235D01*
X141457123Y-101506712D01*
X141571092Y-101336146D01*
X141716146Y-101191092D01*
X141886712Y-101077123D01*
X142076235Y-100998620D01*
X142112407Y-100991425D01*
X142277430Y-100958600D01*
X142482570Y-100958600D01*
X142647593Y-100991425D01*
G37*
G36*
X139384863Y-100810930D02*
G01*
X139562592Y-100884548D01*
X139722545Y-100991425D01*
X139858575Y-101127455D01*
X139965452Y-101287408D01*
X140039070Y-101465137D01*
X140076600Y-101653812D01*
X140076600Y-101846188D01*
X140039070Y-102034863D01*
X139965452Y-102212592D01*
X139858575Y-102372545D01*
X139722545Y-102508575D01*
X139562592Y-102615452D01*
X139384863Y-102689070D01*
X139196188Y-102726600D01*
X139003812Y-102726600D01*
X138815137Y-102689070D01*
X138637408Y-102615452D01*
X138477455Y-102508575D01*
X138341425Y-102372545D01*
X138234548Y-102212592D01*
X138160930Y-102034863D01*
X138123400Y-101846188D01*
X138123400Y-101653812D01*
X138160930Y-101465137D01*
X138234548Y-101287408D01*
X138341425Y-101127455D01*
X138477455Y-100991425D01*
X138637408Y-100884548D01*
X138815137Y-100810930D01*
X139003812Y-100773400D01*
X139196188Y-100773400D01*
X139384863Y-100810930D01*
G37*
G36*
X134884863Y-100810930D02*
G01*
X135062592Y-100884548D01*
X135222545Y-100991425D01*
X135358575Y-101127455D01*
X135465452Y-101287408D01*
X135539070Y-101465137D01*
X135576600Y-101653812D01*
X135576600Y-101846188D01*
X135539070Y-102034863D01*
X135465452Y-102212592D01*
X135358575Y-102372545D01*
X135222545Y-102508575D01*
X135062592Y-102615452D01*
X134884863Y-102689070D01*
X134696188Y-102726600D01*
X134503812Y-102726600D01*
X134315137Y-102689070D01*
X134137408Y-102615452D01*
X133977455Y-102508575D01*
X133841425Y-102372545D01*
X133734548Y-102212592D01*
X133660930Y-102034863D01*
X133623400Y-101846188D01*
X133623400Y-101653812D01*
X133660930Y-101465137D01*
X133734548Y-101287408D01*
X133841425Y-101127455D01*
X133977455Y-100991425D01*
X134137408Y-100884548D01*
X134315137Y-100810930D01*
X134503812Y-100773400D01*
X134696188Y-100773400D01*
X134884863Y-100810930D01*
G37*
G36*
X157736621Y-98421395D02*
G01*
X157923765Y-98458620D01*
X158113288Y-98537123D01*
X158283854Y-98651092D01*
X158428908Y-98796146D01*
X158534349Y-98953949D01*
X158542878Y-98966714D01*
X158605956Y-99118999D01*
X158621380Y-99156235D01*
X158661400Y-99357431D01*
X158661400Y-99562569D01*
X158621380Y-99763765D01*
X158542877Y-99953288D01*
X158428908Y-100123854D01*
X158283854Y-100268908D01*
X158113288Y-100382877D01*
X158113287Y-100382878D01*
X158113286Y-100382878D01*
X157923765Y-100461380D01*
X157722570Y-100501400D01*
X157517430Y-100501400D01*
X157316235Y-100461380D01*
X157126714Y-100382878D01*
X157126713Y-100382878D01*
X157126712Y-100382877D01*
X156956146Y-100268908D01*
X156811092Y-100123854D01*
X156697123Y-99953288D01*
X156618620Y-99763765D01*
X156578600Y-99562569D01*
X156578600Y-99357431D01*
X156618620Y-99156235D01*
X156634044Y-99118999D01*
X156697122Y-98966714D01*
X156705651Y-98953949D01*
X156811092Y-98796146D01*
X156956146Y-98651092D01*
X157126712Y-98537123D01*
X157316235Y-98458620D01*
X157503379Y-98421395D01*
X157517430Y-98418600D01*
X157722570Y-98418600D01*
X157736621Y-98421395D01*
G37*
G36*
X161736621Y-98421395D02*
G01*
X161923765Y-98458620D01*
X162113288Y-98537123D01*
X162283854Y-98651092D01*
X162428908Y-98796146D01*
X162534349Y-98953949D01*
X162542878Y-98966714D01*
X162605956Y-99118999D01*
X162621380Y-99156235D01*
X162661400Y-99357431D01*
X162661400Y-99562569D01*
X162621380Y-99763765D01*
X162542877Y-99953288D01*
X162428908Y-100123854D01*
X162283854Y-100268908D01*
X162113288Y-100382877D01*
X162113287Y-100382878D01*
X162113286Y-100382878D01*
X161923765Y-100461380D01*
X161722570Y-100501400D01*
X161517430Y-100501400D01*
X161316235Y-100461380D01*
X161126714Y-100382878D01*
X161126713Y-100382878D01*
X161126712Y-100382877D01*
X160956146Y-100268908D01*
X160811092Y-100123854D01*
X160697123Y-99953288D01*
X160618620Y-99763765D01*
X160578600Y-99562569D01*
X160578600Y-99357431D01*
X160618620Y-99156235D01*
X160634044Y-99118999D01*
X160697122Y-98966714D01*
X160705651Y-98953949D01*
X160811092Y-98796146D01*
X160956146Y-98651092D01*
X161126712Y-98537123D01*
X161316235Y-98458620D01*
X161503379Y-98421395D01*
X161517430Y-98418600D01*
X161722570Y-98418600D01*
X161736621Y-98421395D01*
G37*
G36*
X142496621Y-98421395D02*
G01*
X142683765Y-98458620D01*
X142873288Y-98537123D01*
X143043854Y-98651092D01*
X143188908Y-98796146D01*
X143294349Y-98953949D01*
X143302878Y-98966714D01*
X143365956Y-99118999D01*
X143381380Y-99156235D01*
X143421400Y-99357431D01*
X143421400Y-99562569D01*
X143381380Y-99763765D01*
X143302877Y-99953288D01*
X143188908Y-100123854D01*
X143043854Y-100268908D01*
X142873288Y-100382877D01*
X142873287Y-100382878D01*
X142873286Y-100382878D01*
X142683765Y-100461380D01*
X142482570Y-100501400D01*
X142277430Y-100501400D01*
X142076235Y-100461380D01*
X141886714Y-100382878D01*
X141886713Y-100382878D01*
X141886712Y-100382877D01*
X141716146Y-100268908D01*
X141571092Y-100123854D01*
X141457123Y-99953288D01*
X141378620Y-99763765D01*
X141338600Y-99562569D01*
X141338600Y-99357431D01*
X141378620Y-99156235D01*
X141394044Y-99118999D01*
X141457122Y-98966714D01*
X141465651Y-98953949D01*
X141571092Y-98796146D01*
X141716146Y-98651092D01*
X141886712Y-98537123D01*
X142076235Y-98458620D01*
X142263379Y-98421395D01*
X142277430Y-98418600D01*
X142482570Y-98418600D01*
X142496621Y-98421395D01*
G37*
G36*
X146496621Y-98421395D02*
G01*
X146683765Y-98458620D01*
X146873288Y-98537123D01*
X147043854Y-98651092D01*
X147188908Y-98796146D01*
X147294349Y-98953949D01*
X147302878Y-98966714D01*
X147365956Y-99118999D01*
X147381380Y-99156235D01*
X147421400Y-99357431D01*
X147421400Y-99562569D01*
X147381380Y-99763765D01*
X147302877Y-99953288D01*
X147188908Y-100123854D01*
X147043854Y-100268908D01*
X146873288Y-100382877D01*
X146873287Y-100382878D01*
X146873286Y-100382878D01*
X146683765Y-100461380D01*
X146482570Y-100501400D01*
X146277430Y-100501400D01*
X146076235Y-100461380D01*
X145886714Y-100382878D01*
X145886713Y-100382878D01*
X145886712Y-100382877D01*
X145716146Y-100268908D01*
X145571092Y-100123854D01*
X145457123Y-99953288D01*
X145378620Y-99763765D01*
X145338600Y-99562569D01*
X145338600Y-99357431D01*
X145378620Y-99156235D01*
X145394044Y-99118999D01*
X145457122Y-98966714D01*
X145465651Y-98953949D01*
X145571092Y-98796146D01*
X145716146Y-98651092D01*
X145886712Y-98537123D01*
X146076235Y-98458620D01*
X146263379Y-98421395D01*
X146277430Y-98418600D01*
X146482570Y-98418600D01*
X146496621Y-98421395D01*
G37*
G36*
X153818999Y-98178052D02*
G01*
X153955639Y-98234650D01*
X154078605Y-98316813D01*
X154183187Y-98421395D01*
X154265350Y-98544361D01*
X154321948Y-98681001D01*
X154350800Y-98826051D01*
X154350800Y-98973949D01*
X154321948Y-99118999D01*
X154265350Y-99255639D01*
X154183187Y-99378605D01*
X154078605Y-99483187D01*
X153955639Y-99565350D01*
X153818999Y-99621948D01*
X153673949Y-99650800D01*
X153526051Y-99650800D01*
X153381001Y-99621948D01*
X153244361Y-99565350D01*
X153121395Y-99483187D01*
X153016813Y-99378605D01*
X152934650Y-99255639D01*
X152878052Y-99118999D01*
X152849200Y-98973949D01*
X152849200Y-98826051D01*
X152878052Y-98681001D01*
X152934650Y-98544361D01*
X153016813Y-98421395D01*
X153121395Y-98316813D01*
X153244361Y-98234650D01*
X153381001Y-98178052D01*
X153526051Y-98149200D01*
X153673949Y-98149200D01*
X153818999Y-98178052D01*
G37*
G36*
X150118999Y-98158052D02*
G01*
X150255639Y-98214650D01*
X150378605Y-98296813D01*
X150483187Y-98401395D01*
X150565350Y-98524361D01*
X150621948Y-98661001D01*
X150650800Y-98806051D01*
X150650800Y-98953949D01*
X150621948Y-99098999D01*
X150565350Y-99235639D01*
X150483187Y-99358605D01*
X150378605Y-99463187D01*
X150255639Y-99545350D01*
X150118999Y-99601948D01*
X149973949Y-99630800D01*
X149826051Y-99630800D01*
X149681001Y-99601948D01*
X149544361Y-99545350D01*
X149421395Y-99463187D01*
X149316813Y-99358605D01*
X149234650Y-99235639D01*
X149178052Y-99098999D01*
X149149200Y-98953949D01*
X149149200Y-98806051D01*
X149178052Y-98661001D01*
X149234650Y-98524361D01*
X149316813Y-98401395D01*
X149421395Y-98296813D01*
X149544361Y-98214650D01*
X149681001Y-98158052D01*
X149826051Y-98129200D01*
X149973949Y-98129200D01*
X150118999Y-98158052D01*
G37*
G36*
X142683765Y-95918620D02*
G01*
X142873288Y-95997123D01*
X143043854Y-96111092D01*
X143188908Y-96256146D01*
X143302877Y-96426712D01*
X143381380Y-96616235D01*
X143421400Y-96817431D01*
X143421400Y-97022569D01*
X143381380Y-97223765D01*
X143302877Y-97413288D01*
X143188908Y-97583854D01*
X143043854Y-97728908D01*
X142873288Y-97842877D01*
X142873287Y-97842878D01*
X142873286Y-97842878D01*
X142683765Y-97921380D01*
X142482570Y-97961400D01*
X142277430Y-97961400D01*
X142076235Y-97921380D01*
X141886714Y-97842878D01*
X141886713Y-97842878D01*
X141886712Y-97842877D01*
X141716146Y-97728908D01*
X141571092Y-97583854D01*
X141457123Y-97413288D01*
X141378620Y-97223765D01*
X141338600Y-97022569D01*
X141338600Y-96817431D01*
X141378620Y-96616235D01*
X141457123Y-96426712D01*
X141571092Y-96256146D01*
X141716146Y-96111092D01*
X141886712Y-95997123D01*
X142076235Y-95918620D01*
X142277430Y-95878600D01*
X142482570Y-95878600D01*
X142683765Y-95918620D01*
G37*
G36*
X161923765Y-95918620D02*
G01*
X162113288Y-95997123D01*
X162283854Y-96111092D01*
X162428908Y-96256146D01*
X162542877Y-96426712D01*
X162621380Y-96616235D01*
X162661400Y-96817431D01*
X162661400Y-97022569D01*
X162621380Y-97223765D01*
X162542877Y-97413288D01*
X162428908Y-97583854D01*
X162283854Y-97728908D01*
X162113288Y-97842877D01*
X162113287Y-97842878D01*
X162113286Y-97842878D01*
X161923765Y-97921380D01*
X161722570Y-97961400D01*
X161517430Y-97961400D01*
X161316235Y-97921380D01*
X161126714Y-97842878D01*
X161126713Y-97842878D01*
X161126712Y-97842877D01*
X160956146Y-97728908D01*
X160811092Y-97583854D01*
X160697123Y-97413288D01*
X160618620Y-97223765D01*
X160578600Y-97022569D01*
X160578600Y-96817431D01*
X160618620Y-96616235D01*
X160697123Y-96426712D01*
X160811092Y-96256146D01*
X160956146Y-96111092D01*
X161126712Y-95997123D01*
X161316235Y-95918620D01*
X161517430Y-95878600D01*
X161722570Y-95878600D01*
X161923765Y-95918620D01*
G37*
G36*
X146683765Y-95918620D02*
G01*
X146873288Y-95997123D01*
X147043854Y-96111092D01*
X147188908Y-96256146D01*
X147302877Y-96426712D01*
X147381380Y-96616235D01*
X147421400Y-96817431D01*
X147421400Y-97022569D01*
X147381380Y-97223765D01*
X147302877Y-97413288D01*
X147188908Y-97583854D01*
X147043854Y-97728908D01*
X146873288Y-97842877D01*
X146873287Y-97842878D01*
X146873286Y-97842878D01*
X146683765Y-97921380D01*
X146482570Y-97961400D01*
X146277430Y-97961400D01*
X146076235Y-97921380D01*
X145886714Y-97842878D01*
X145886713Y-97842878D01*
X145886712Y-97842877D01*
X145716146Y-97728908D01*
X145571092Y-97583854D01*
X145457123Y-97413288D01*
X145378620Y-97223765D01*
X145338600Y-97022569D01*
X145338600Y-96817431D01*
X145378620Y-96616235D01*
X145457123Y-96426712D01*
X145571092Y-96256146D01*
X145716146Y-96111092D01*
X145886712Y-95997123D01*
X146076235Y-95918620D01*
X146277430Y-95878600D01*
X146482570Y-95878600D01*
X146683765Y-95918620D01*
G37*
G36*
X157923765Y-95918620D02*
G01*
X158113288Y-95997123D01*
X158283854Y-96111092D01*
X158428908Y-96256146D01*
X158542877Y-96426712D01*
X158621380Y-96616235D01*
X158661400Y-96817431D01*
X158661400Y-97022569D01*
X158621380Y-97223765D01*
X158542877Y-97413288D01*
X158428908Y-97583854D01*
X158283854Y-97728908D01*
X158113288Y-97842877D01*
X158113287Y-97842878D01*
X158113286Y-97842878D01*
X157923765Y-97921380D01*
X157722570Y-97961400D01*
X157517430Y-97961400D01*
X157316235Y-97921380D01*
X157126714Y-97842878D01*
X157126713Y-97842878D01*
X157126712Y-97842877D01*
X156956146Y-97728908D01*
X156811092Y-97583854D01*
X156697123Y-97413288D01*
X156618620Y-97223765D01*
X156578600Y-97022569D01*
X156578600Y-96817431D01*
X156618620Y-96616235D01*
X156697123Y-96426712D01*
X156811092Y-96256146D01*
X156956146Y-96111092D01*
X157126712Y-95997123D01*
X157316235Y-95918620D01*
X157517430Y-95878600D01*
X157722570Y-95878600D01*
X157923765Y-95918620D01*
G37*
G36*
X134884863Y-94310930D02*
G01*
X135062592Y-94384548D01*
X135222545Y-94491425D01*
X135358575Y-94627455D01*
X135465452Y-94787408D01*
X135539070Y-94965137D01*
X135576600Y-95153812D01*
X135576600Y-95346188D01*
X135539070Y-95534863D01*
X135465452Y-95712592D01*
X135358575Y-95872545D01*
X135222545Y-96008575D01*
X135062592Y-96115452D01*
X134884863Y-96189070D01*
X134696188Y-96226600D01*
X134503812Y-96226600D01*
X134315137Y-96189070D01*
X134137408Y-96115452D01*
X133977455Y-96008575D01*
X133841425Y-95872545D01*
X133734548Y-95712592D01*
X133660930Y-95534863D01*
X133623400Y-95346188D01*
X133623400Y-95153812D01*
X133660930Y-94965137D01*
X133734548Y-94787408D01*
X133841425Y-94627455D01*
X133977455Y-94491425D01*
X134137408Y-94384548D01*
X134315137Y-94310930D01*
X134503812Y-94273400D01*
X134696188Y-94273400D01*
X134884863Y-94310930D01*
G37*
G36*
X139384863Y-94310930D02*
G01*
X139562592Y-94384548D01*
X139722545Y-94491425D01*
X139858575Y-94627455D01*
X139965452Y-94787408D01*
X140039070Y-94965137D01*
X140076600Y-95153812D01*
X140076600Y-95346188D01*
X140039070Y-95534863D01*
X139965452Y-95712592D01*
X139858575Y-95872545D01*
X139722545Y-96008575D01*
X139562592Y-96115452D01*
X139384863Y-96189070D01*
X139196188Y-96226600D01*
X139003812Y-96226600D01*
X138815137Y-96189070D01*
X138637408Y-96115452D01*
X138477455Y-96008575D01*
X138341425Y-95872545D01*
X138234548Y-95712592D01*
X138160930Y-95534863D01*
X138123400Y-95346188D01*
X138123400Y-95153812D01*
X138160930Y-94965137D01*
X138234548Y-94787408D01*
X138341425Y-94627455D01*
X138477455Y-94491425D01*
X138637408Y-94384548D01*
X138815137Y-94310930D01*
X139003812Y-94273400D01*
X139196188Y-94273400D01*
X139384863Y-94310930D01*
G37*
G36*
X157736621Y-93341395D02*
G01*
X157923765Y-93378620D01*
X158113288Y-93457123D01*
X158283854Y-93571092D01*
X158428908Y-93716146D01*
X158534349Y-93873949D01*
X158542878Y-93886714D01*
X158621380Y-94076235D01*
X158661400Y-94277430D01*
X158661400Y-94482570D01*
X158659638Y-94491426D01*
X158621380Y-94683765D01*
X158542877Y-94873288D01*
X158428908Y-95043854D01*
X158283854Y-95188908D01*
X158113288Y-95302877D01*
X158113287Y-95302878D01*
X158113286Y-95302878D01*
X157923765Y-95381380D01*
X157722570Y-95421400D01*
X157517430Y-95421400D01*
X157316235Y-95381380D01*
X157126714Y-95302878D01*
X157126713Y-95302878D01*
X157126712Y-95302877D01*
X156956146Y-95188908D01*
X156811092Y-95043854D01*
X156697123Y-94873288D01*
X156618620Y-94683765D01*
X156580362Y-94491426D01*
X156578600Y-94482570D01*
X156578600Y-94277430D01*
X156618620Y-94076235D01*
X156697122Y-93886714D01*
X156705651Y-93873949D01*
X156811092Y-93716146D01*
X156956146Y-93571092D01*
X157126712Y-93457123D01*
X157316235Y-93378620D01*
X157503379Y-93341395D01*
X157517430Y-93338600D01*
X157722570Y-93338600D01*
X157736621Y-93341395D01*
G37*
G36*
X161736621Y-93341395D02*
G01*
X161923765Y-93378620D01*
X162113288Y-93457123D01*
X162283854Y-93571092D01*
X162428908Y-93716146D01*
X162534349Y-93873949D01*
X162542878Y-93886714D01*
X162621380Y-94076235D01*
X162661400Y-94277430D01*
X162661400Y-94482570D01*
X162659638Y-94491426D01*
X162621380Y-94683765D01*
X162542877Y-94873288D01*
X162428908Y-95043854D01*
X162283854Y-95188908D01*
X162113288Y-95302877D01*
X162113287Y-95302878D01*
X162113286Y-95302878D01*
X161923765Y-95381380D01*
X161722570Y-95421400D01*
X161517430Y-95421400D01*
X161316235Y-95381380D01*
X161126714Y-95302878D01*
X161126713Y-95302878D01*
X161126712Y-95302877D01*
X160956146Y-95188908D01*
X160811092Y-95043854D01*
X160697123Y-94873288D01*
X160618620Y-94683765D01*
X160580362Y-94491426D01*
X160578600Y-94482570D01*
X160578600Y-94277430D01*
X160618620Y-94076235D01*
X160697122Y-93886714D01*
X160705651Y-93873949D01*
X160811092Y-93716146D01*
X160956146Y-93571092D01*
X161126712Y-93457123D01*
X161316235Y-93378620D01*
X161503379Y-93341395D01*
X161517430Y-93338600D01*
X161722570Y-93338600D01*
X161736621Y-93341395D01*
G37*
G36*
X142496621Y-93341395D02*
G01*
X142683765Y-93378620D01*
X142873288Y-93457123D01*
X143043854Y-93571092D01*
X143188908Y-93716146D01*
X143294349Y-93873949D01*
X143302878Y-93886714D01*
X143381380Y-94076235D01*
X143421400Y-94277430D01*
X143421400Y-94482570D01*
X143419638Y-94491426D01*
X143381380Y-94683765D01*
X143302877Y-94873288D01*
X143188908Y-95043854D01*
X143043854Y-95188908D01*
X142873288Y-95302877D01*
X142873287Y-95302878D01*
X142873286Y-95302878D01*
X142683765Y-95381380D01*
X142482570Y-95421400D01*
X142277430Y-95421400D01*
X142076235Y-95381380D01*
X141886714Y-95302878D01*
X141886713Y-95302878D01*
X141886712Y-95302877D01*
X141716146Y-95188908D01*
X141571092Y-95043854D01*
X141457123Y-94873288D01*
X141378620Y-94683765D01*
X141340362Y-94491426D01*
X141338600Y-94482570D01*
X141338600Y-94277430D01*
X141378620Y-94076235D01*
X141457122Y-93886714D01*
X141465651Y-93873949D01*
X141571092Y-93716146D01*
X141716146Y-93571092D01*
X141886712Y-93457123D01*
X142076235Y-93378620D01*
X142263379Y-93341395D01*
X142277430Y-93338600D01*
X142482570Y-93338600D01*
X142496621Y-93341395D01*
G37*
G36*
X146496621Y-93341395D02*
G01*
X146683765Y-93378620D01*
X146873288Y-93457123D01*
X147043854Y-93571092D01*
X147188908Y-93716146D01*
X147294349Y-93873949D01*
X147302878Y-93886714D01*
X147381380Y-94076235D01*
X147421400Y-94277430D01*
X147421400Y-94482570D01*
X147419638Y-94491426D01*
X147381380Y-94683765D01*
X147302877Y-94873288D01*
X147188908Y-95043854D01*
X147043854Y-95188908D01*
X146873288Y-95302877D01*
X146873287Y-95302878D01*
X146873286Y-95302878D01*
X146683765Y-95381380D01*
X146482570Y-95421400D01*
X146277430Y-95421400D01*
X146076235Y-95381380D01*
X145886714Y-95302878D01*
X145886713Y-95302878D01*
X145886712Y-95302877D01*
X145716146Y-95188908D01*
X145571092Y-95043854D01*
X145457123Y-94873288D01*
X145378620Y-94683765D01*
X145340362Y-94491426D01*
X145338600Y-94482570D01*
X145338600Y-94277430D01*
X145378620Y-94076235D01*
X145457122Y-93886714D01*
X145465651Y-93873949D01*
X145571092Y-93716146D01*
X145716146Y-93571092D01*
X145886712Y-93457123D01*
X146076235Y-93378620D01*
X146263379Y-93341395D01*
X146277430Y-93338600D01*
X146482570Y-93338600D01*
X146496621Y-93341395D01*
G37*
G36*
X153818999Y-93098052D02*
G01*
X153955639Y-93154650D01*
X154078605Y-93236813D01*
X154183187Y-93341395D01*
X154265350Y-93464361D01*
X154321948Y-93601001D01*
X154350800Y-93746051D01*
X154350800Y-93893949D01*
X154321948Y-94038999D01*
X154265350Y-94175639D01*
X154183187Y-94298605D01*
X154078605Y-94403187D01*
X153955639Y-94485350D01*
X153818999Y-94541948D01*
X153673949Y-94570800D01*
X153526051Y-94570800D01*
X153381001Y-94541948D01*
X153244361Y-94485350D01*
X153121395Y-94403187D01*
X153016813Y-94298605D01*
X152934650Y-94175639D01*
X152878052Y-94038999D01*
X152849200Y-93893949D01*
X152849200Y-93746051D01*
X152878052Y-93601001D01*
X152934650Y-93464361D01*
X153016813Y-93341395D01*
X153121395Y-93236813D01*
X153244361Y-93154650D01*
X153381001Y-93098052D01*
X153526051Y-93069200D01*
X153673949Y-93069200D01*
X153818999Y-93098052D01*
G37*
G36*
X150118999Y-93078052D02*
G01*
X150255639Y-93134650D01*
X150378605Y-93216813D01*
X150483187Y-93321395D01*
X150565350Y-93444361D01*
X150621948Y-93581001D01*
X150650800Y-93726051D01*
X150650800Y-93873949D01*
X150621948Y-94018999D01*
X150565350Y-94155639D01*
X150483187Y-94278605D01*
X150378605Y-94383187D01*
X150255639Y-94465350D01*
X150118999Y-94521948D01*
X149973949Y-94550800D01*
X149826051Y-94550800D01*
X149681001Y-94521948D01*
X149544361Y-94465350D01*
X149421395Y-94383187D01*
X149316813Y-94278605D01*
X149234650Y-94155639D01*
X149178052Y-94018999D01*
X149149200Y-93873949D01*
X149149200Y-93726051D01*
X149178052Y-93581001D01*
X149234650Y-93444361D01*
X149316813Y-93321395D01*
X149421395Y-93216813D01*
X149544361Y-93134650D01*
X149681001Y-93078052D01*
X149826051Y-93049200D01*
X149973949Y-93049200D01*
X150118999Y-93078052D01*
G37*
G36*
X157923765Y-90838620D02*
G01*
X158113288Y-90917123D01*
X158283854Y-91031092D01*
X158428908Y-91176146D01*
X158542877Y-91346712D01*
X158621380Y-91536235D01*
X158661400Y-91737431D01*
X158661400Y-91942569D01*
X158621380Y-92143765D01*
X158542877Y-92333288D01*
X158428908Y-92503854D01*
X158283854Y-92648908D01*
X158113288Y-92762877D01*
X158113287Y-92762878D01*
X158113286Y-92762878D01*
X157923765Y-92841380D01*
X157722570Y-92881400D01*
X157517430Y-92881400D01*
X157316235Y-92841380D01*
X157126714Y-92762878D01*
X157126713Y-92762878D01*
X157126712Y-92762877D01*
X156956146Y-92648908D01*
X156811092Y-92503854D01*
X156697123Y-92333288D01*
X156618620Y-92143765D01*
X156578600Y-91942569D01*
X156578600Y-91737431D01*
X156618620Y-91536235D01*
X156697123Y-91346712D01*
X156811092Y-91176146D01*
X156956146Y-91031092D01*
X157126712Y-90917123D01*
X157316235Y-90838620D01*
X157517430Y-90798600D01*
X157722570Y-90798600D01*
X157923765Y-90838620D01*
G37*
G36*
X142683765Y-90838620D02*
G01*
X142873288Y-90917123D01*
X143043854Y-91031092D01*
X143188908Y-91176146D01*
X143302877Y-91346712D01*
X143381380Y-91536235D01*
X143421400Y-91737431D01*
X143421400Y-91942569D01*
X143381380Y-92143765D01*
X143302877Y-92333288D01*
X143188908Y-92503854D01*
X143043854Y-92648908D01*
X142873288Y-92762877D01*
X142873287Y-92762878D01*
X142873286Y-92762878D01*
X142683765Y-92841380D01*
X142482570Y-92881400D01*
X142277430Y-92881400D01*
X142076235Y-92841380D01*
X141886714Y-92762878D01*
X141886713Y-92762878D01*
X141886712Y-92762877D01*
X141716146Y-92648908D01*
X141571092Y-92503854D01*
X141457123Y-92333288D01*
X141378620Y-92143765D01*
X141338600Y-91942569D01*
X141338600Y-91737431D01*
X141378620Y-91536235D01*
X141457123Y-91346712D01*
X141571092Y-91176146D01*
X141716146Y-91031092D01*
X141886712Y-90917123D01*
X142076235Y-90838620D01*
X142277430Y-90798600D01*
X142482570Y-90798600D01*
X142683765Y-90838620D01*
G37*
G36*
X146683765Y-90838620D02*
G01*
X146873288Y-90917123D01*
X147043854Y-91031092D01*
X147188908Y-91176146D01*
X147302877Y-91346712D01*
X147381380Y-91536235D01*
X147421400Y-91737431D01*
X147421400Y-91942569D01*
X147381380Y-92143765D01*
X147302877Y-92333288D01*
X147188908Y-92503854D01*
X147043854Y-92648908D01*
X146873288Y-92762877D01*
X146873287Y-92762878D01*
X146873286Y-92762878D01*
X146683765Y-92841380D01*
X146482570Y-92881400D01*
X146277430Y-92881400D01*
X146076235Y-92841380D01*
X145886714Y-92762878D01*
X145886713Y-92762878D01*
X145886712Y-92762877D01*
X145716146Y-92648908D01*
X145571092Y-92503854D01*
X145457123Y-92333288D01*
X145378620Y-92143765D01*
X145338600Y-91942569D01*
X145338600Y-91737431D01*
X145378620Y-91536235D01*
X145457123Y-91346712D01*
X145571092Y-91176146D01*
X145716146Y-91031092D01*
X145886712Y-90917123D01*
X146076235Y-90838620D01*
X146277430Y-90798600D01*
X146482570Y-90798600D01*
X146683765Y-90838620D01*
G37*
G36*
X161923765Y-90838620D02*
G01*
X162113288Y-90917123D01*
X162283854Y-91031092D01*
X162428908Y-91176146D01*
X162542877Y-91346712D01*
X162621380Y-91536235D01*
X162661400Y-91737431D01*
X162661400Y-91942569D01*
X162621380Y-92143765D01*
X162542877Y-92333288D01*
X162428908Y-92503854D01*
X162283854Y-92648908D01*
X162113288Y-92762877D01*
X162113287Y-92762878D01*
X162113286Y-92762878D01*
X161923765Y-92841380D01*
X161722570Y-92881400D01*
X161517430Y-92881400D01*
X161316235Y-92841380D01*
X161126714Y-92762878D01*
X161126713Y-92762878D01*
X161126712Y-92762877D01*
X160956146Y-92648908D01*
X160811092Y-92503854D01*
X160697123Y-92333288D01*
X160618620Y-92143765D01*
X160578600Y-91942569D01*
X160578600Y-91737431D01*
X160618620Y-91536235D01*
X160697123Y-91346712D01*
X160811092Y-91176146D01*
X160956146Y-91031092D01*
X161126712Y-90917123D01*
X161316235Y-90838620D01*
X161517430Y-90798600D01*
X161722570Y-90798600D01*
X161923765Y-90838620D01*
G37*
G36*
X135050800Y-91150800D02*
G01*
X133149200Y-91150800D01*
X133149200Y-89249200D01*
X135050800Y-89249200D01*
X135050800Y-91150800D01*
G37*
G36*
X136917338Y-89285738D02*
G01*
X137090373Y-89357412D01*
X137246100Y-89461465D01*
X137378535Y-89593900D01*
X137482588Y-89749627D01*
X137554262Y-89922662D01*
X137590800Y-90106354D01*
X137590800Y-90293646D01*
X137554262Y-90477338D01*
X137482588Y-90650373D01*
X137378535Y-90806100D01*
X137246100Y-90938535D01*
X137090373Y-91042588D01*
X136917338Y-91114262D01*
X136733646Y-91150800D01*
X136546354Y-91150800D01*
X136362662Y-91114262D01*
X136189627Y-91042588D01*
X136033900Y-90938535D01*
X135901465Y-90806100D01*
X135797412Y-90650373D01*
X135725738Y-90477338D01*
X135689200Y-90293646D01*
X135689200Y-90106354D01*
X135725738Y-89922662D01*
X135797412Y-89749627D01*
X135901465Y-89593900D01*
X136033900Y-89461465D01*
X136189627Y-89357412D01*
X136362662Y-89285738D01*
X136546354Y-89249200D01*
X136733646Y-89249200D01*
X136917338Y-89285738D01*
G37*
G36*
X139457338Y-89285738D02*
G01*
X139630373Y-89357412D01*
X139786100Y-89461465D01*
X139918535Y-89593900D01*
X140022588Y-89749627D01*
X140094262Y-89922662D01*
X140130800Y-90106354D01*
X140130800Y-90293646D01*
X140094262Y-90477338D01*
X140022588Y-90650373D01*
X139918535Y-90806100D01*
X139786100Y-90938535D01*
X139630373Y-91042588D01*
X139457338Y-91114262D01*
X139273646Y-91150800D01*
X139086354Y-91150800D01*
X138902662Y-91114262D01*
X138729627Y-91042588D01*
X138573900Y-90938535D01*
X138441465Y-90806100D01*
X138337412Y-90650373D01*
X138265738Y-90477338D01*
X138229200Y-90293646D01*
X138229200Y-90106354D01*
X138265738Y-89922662D01*
X138337412Y-89749627D01*
X138441465Y-89593900D01*
X138573900Y-89461465D01*
X138729627Y-89357412D01*
X138902662Y-89285738D01*
X139086354Y-89249200D01*
X139273646Y-89249200D01*
X139457338Y-89285738D01*
G37*
G36*
X142683765Y-88298620D02*
G01*
X142873288Y-88377123D01*
X143043854Y-88491092D01*
X143188908Y-88636146D01*
X143302877Y-88806712D01*
X143381380Y-88996235D01*
X143421400Y-89197431D01*
X143421400Y-89402569D01*
X143381380Y-89603765D01*
X143302877Y-89793288D01*
X143188908Y-89963854D01*
X143043854Y-90108908D01*
X142873288Y-90222877D01*
X142873287Y-90222878D01*
X142873286Y-90222878D01*
X142683765Y-90301380D01*
X142482570Y-90341400D01*
X142277430Y-90341400D01*
X142076235Y-90301380D01*
X141886714Y-90222878D01*
X141886713Y-90222878D01*
X141886712Y-90222877D01*
X141716146Y-90108908D01*
X141571092Y-89963854D01*
X141457123Y-89793288D01*
X141378620Y-89603765D01*
X141338600Y-89402569D01*
X141338600Y-89197431D01*
X141378620Y-88996235D01*
X141457123Y-88806712D01*
X141571092Y-88636146D01*
X141716146Y-88491092D01*
X141886712Y-88377123D01*
X142076235Y-88298620D01*
X142277430Y-88258600D01*
X142482570Y-88258600D01*
X142683765Y-88298620D01*
G37*
G36*
X157923765Y-88298620D02*
G01*
X158113288Y-88377123D01*
X158283854Y-88491092D01*
X158428908Y-88636146D01*
X158542877Y-88806712D01*
X158621380Y-88996235D01*
X158661400Y-89197431D01*
X158661400Y-89402569D01*
X158621380Y-89603765D01*
X158542877Y-89793288D01*
X158428908Y-89963854D01*
X158283854Y-90108908D01*
X158113288Y-90222877D01*
X158113287Y-90222878D01*
X158113286Y-90222878D01*
X157923765Y-90301380D01*
X157722570Y-90341400D01*
X157517430Y-90341400D01*
X157316235Y-90301380D01*
X157126714Y-90222878D01*
X157126713Y-90222878D01*
X157126712Y-90222877D01*
X156956146Y-90108908D01*
X156811092Y-89963854D01*
X156697123Y-89793288D01*
X156618620Y-89603765D01*
X156578600Y-89402569D01*
X156578600Y-89197431D01*
X156618620Y-88996235D01*
X156697123Y-88806712D01*
X156811092Y-88636146D01*
X156956146Y-88491092D01*
X157126712Y-88377123D01*
X157316235Y-88298620D01*
X157517430Y-88258600D01*
X157722570Y-88258600D01*
X157923765Y-88298620D01*
G37*
G36*
X161923765Y-88298620D02*
G01*
X162113288Y-88377123D01*
X162283854Y-88491092D01*
X162428908Y-88636146D01*
X162542877Y-88806712D01*
X162621380Y-88996235D01*
X162661400Y-89197431D01*
X162661400Y-89402569D01*
X162621380Y-89603765D01*
X162542877Y-89793288D01*
X162428908Y-89963854D01*
X162283854Y-90108908D01*
X162113288Y-90222877D01*
X162113287Y-90222878D01*
X162113286Y-90222878D01*
X161923765Y-90301380D01*
X161722570Y-90341400D01*
X161517430Y-90341400D01*
X161316235Y-90301380D01*
X161126714Y-90222878D01*
X161126713Y-90222878D01*
X161126712Y-90222877D01*
X160956146Y-90108908D01*
X160811092Y-89963854D01*
X160697123Y-89793288D01*
X160618620Y-89603765D01*
X160578600Y-89402569D01*
X160578600Y-89197431D01*
X160618620Y-88996235D01*
X160697123Y-88806712D01*
X160811092Y-88636146D01*
X160956146Y-88491092D01*
X161126712Y-88377123D01*
X161316235Y-88298620D01*
X161517430Y-88258600D01*
X161722570Y-88258600D01*
X161923765Y-88298620D01*
G37*
G36*
X147421400Y-90341400D02*
G01*
X145338600Y-90341400D01*
X145338600Y-88258600D01*
X147421400Y-88258600D01*
X147421400Y-90341400D01*
G37*
G36*
X161923765Y-85758620D02*
G01*
X162113288Y-85837123D01*
X162283854Y-85951092D01*
X162428908Y-86096146D01*
X162542877Y-86266712D01*
X162621380Y-86456235D01*
X162661400Y-86657431D01*
X162661400Y-86862569D01*
X162621380Y-87063765D01*
X162542877Y-87253288D01*
X162428908Y-87423854D01*
X162283854Y-87568908D01*
X162113288Y-87682877D01*
X162113287Y-87682878D01*
X162113286Y-87682878D01*
X161923765Y-87761380D01*
X161722570Y-87801400D01*
X161517430Y-87801400D01*
X161316235Y-87761380D01*
X161126714Y-87682878D01*
X161126713Y-87682878D01*
X161126712Y-87682877D01*
X160956146Y-87568908D01*
X160811092Y-87423854D01*
X160697123Y-87253288D01*
X160618620Y-87063765D01*
X160578600Y-86862569D01*
X160578600Y-86657431D01*
X160618620Y-86456235D01*
X160697123Y-86266712D01*
X160811092Y-86096146D01*
X160956146Y-85951092D01*
X161126712Y-85837123D01*
X161316235Y-85758620D01*
X161517430Y-85718600D01*
X161722570Y-85718600D01*
X161923765Y-85758620D01*
G37*
G36*
X142683765Y-85758620D02*
G01*
X142873288Y-85837123D01*
X143043854Y-85951092D01*
X143188908Y-86096146D01*
X143302877Y-86266712D01*
X143381380Y-86456235D01*
X143421400Y-86657431D01*
X143421400Y-86862569D01*
X143381380Y-87063765D01*
X143302877Y-87253288D01*
X143188908Y-87423854D01*
X143043854Y-87568908D01*
X142873288Y-87682877D01*
X142873287Y-87682878D01*
X142873286Y-87682878D01*
X142683765Y-87761380D01*
X142482570Y-87801400D01*
X142277430Y-87801400D01*
X142076235Y-87761380D01*
X141886714Y-87682878D01*
X141886713Y-87682878D01*
X141886712Y-87682877D01*
X141716146Y-87568908D01*
X141571092Y-87423854D01*
X141457123Y-87253288D01*
X141378620Y-87063765D01*
X141338600Y-86862569D01*
X141338600Y-86657431D01*
X141378620Y-86456235D01*
X141457123Y-86266712D01*
X141571092Y-86096146D01*
X141716146Y-85951092D01*
X141886712Y-85837123D01*
X142076235Y-85758620D01*
X142277430Y-85718600D01*
X142482570Y-85718600D01*
X142683765Y-85758620D01*
G37*
G36*
X157923765Y-85758620D02*
G01*
X158113288Y-85837123D01*
X158283854Y-85951092D01*
X158428908Y-86096146D01*
X158542877Y-86266712D01*
X158621380Y-86456235D01*
X158661400Y-86657431D01*
X158661400Y-86862569D01*
X158621380Y-87063765D01*
X158542877Y-87253288D01*
X158428908Y-87423854D01*
X158283854Y-87568908D01*
X158113288Y-87682877D01*
X158113287Y-87682878D01*
X158113286Y-87682878D01*
X157923765Y-87761380D01*
X157722570Y-87801400D01*
X157517430Y-87801400D01*
X157316235Y-87761380D01*
X157126714Y-87682878D01*
X157126713Y-87682878D01*
X157126712Y-87682877D01*
X156956146Y-87568908D01*
X156811092Y-87423854D01*
X156697123Y-87253288D01*
X156618620Y-87063765D01*
X156578600Y-86862569D01*
X156578600Y-86657431D01*
X156618620Y-86456235D01*
X156697123Y-86266712D01*
X156811092Y-86096146D01*
X156956146Y-85951092D01*
X157126712Y-85837123D01*
X157316235Y-85758620D01*
X157517430Y-85718600D01*
X157722570Y-85718600D01*
X157923765Y-85758620D01*
G37*
G36*
X146683765Y-85758620D02*
G01*
X146873288Y-85837123D01*
X147043854Y-85951092D01*
X147188908Y-86096146D01*
X147302877Y-86266712D01*
X147381380Y-86456235D01*
X147421400Y-86657431D01*
X147421400Y-86862569D01*
X147381380Y-87063765D01*
X147302877Y-87253288D01*
X147188908Y-87423854D01*
X147043854Y-87568908D01*
X146873288Y-87682877D01*
X146873287Y-87682878D01*
X146873286Y-87682878D01*
X146683765Y-87761380D01*
X146482570Y-87801400D01*
X146277430Y-87801400D01*
X146076235Y-87761380D01*
X145886714Y-87682878D01*
X145886713Y-87682878D01*
X145886712Y-87682877D01*
X145716146Y-87568908D01*
X145571092Y-87423854D01*
X145457123Y-87253288D01*
X145378620Y-87063765D01*
X145338600Y-86862569D01*
X145338600Y-86657431D01*
X145378620Y-86456235D01*
X145457123Y-86266712D01*
X145571092Y-86096146D01*
X145716146Y-85951092D01*
X145886712Y-85837123D01*
X146076235Y-85758620D01*
X146277430Y-85718600D01*
X146482570Y-85718600D01*
X146683765Y-85758620D01*
G37*
M02*
