G04 #@! TF.GenerationSoftware,KiCad,Pcbnew,(5.1.5-0-10_14)*
G04 #@! TF.CreationDate,2020-05-24T23:38:13-07:00*
G04 #@! TF.ProjectId,prost-pcb,70726f73-742d-4706-9362-2e6b69636164,0.1.0*
G04 #@! TF.SameCoordinates,Original*
G04 #@! TF.FileFunction,Legend,Top*
G04 #@! TF.FilePolarity,Positive*
%FSLAX46Y46*%
G04 Gerber Fmt 4.6, Leading zero omitted, Abs format (unit mm)*
G04 Created by KiCad (PCBNEW (5.1.5-0-10_14)) date 2020-05-24 23:38:13*
%MOMM*%
%LPD*%
G04 APERTURE LIST*
%ADD10C,0.120000*%
%ADD11C,0.100000*%
%ADD12C,0.200000*%
%ADD13C,0.300000*%
%ADD14C,0.125000*%
G04 APERTURE END LIST*
D10*
X153500000Y-111150000D02*
G75*
G03X153500000Y-111150000I-1200000J0D01*
G01*
D11*
X151750000Y-111150000D02*
G75*
G03X151750000Y-111150000I-150000J0D01*
G01*
D12*
X152400000Y-111850000D02*
G75*
G03X152400000Y-111850000I-100000J0D01*
G01*
D11*
X153200000Y-111150000D02*
G75*
G03X153200000Y-111150000I-150000J0D01*
G01*
D12*
X151900000Y-111650000D02*
G75*
G03X151900000Y-111650000I-100000J0D01*
G01*
X152900000Y-111650000D02*
G75*
G03X152900000Y-111650000I-100000J0D01*
G01*
D11*
G36*
X152600000Y-110300000D02*
G01*
X152000000Y-110300000D01*
X152000000Y-110000000D01*
X152600000Y-110000000D01*
X152600000Y-110300000D01*
G37*
X152600000Y-110300000D02*
X152000000Y-110300000D01*
X152000000Y-110000000D01*
X152600000Y-110000000D01*
X152600000Y-110300000D01*
D10*
X139300000Y-112250000D02*
X135000000Y-112250000D01*
X139300000Y-110050000D02*
X139300000Y-112250000D01*
X135000000Y-110050000D02*
X139300000Y-110050000D01*
X135000000Y-112250000D02*
X135000000Y-110050000D01*
X138150000Y-111250000D02*
G75*
G03X139150000Y-112250000I1000000J0D01*
G01*
X138150000Y-111250000D02*
G75*
G03X137150000Y-110250000I-1000000J0D01*
G01*
X136150000Y-111250000D02*
G75*
G02X135150000Y-112250000I-1000000J0D01*
G01*
X136150000Y-111250000D02*
G75*
G02X137150000Y-110250000I1000000J0D01*
G01*
D13*
X144800000Y-89300000D02*
G75*
G03X144800000Y-89300000I-200000J0D01*
G01*
D14*
X149169047Y-111926190D02*
X148930952Y-111926190D01*
X148907142Y-112164285D01*
X148930952Y-112140476D01*
X148978571Y-112116666D01*
X149097619Y-112116666D01*
X149145238Y-112140476D01*
X149169047Y-112164285D01*
X149192857Y-112211904D01*
X149192857Y-112330952D01*
X149169047Y-112378571D01*
X149145238Y-112402380D01*
X149097619Y-112426190D01*
X148978571Y-112426190D01*
X148930952Y-112402380D01*
X148907142Y-112378571D01*
X153857142Y-113873809D02*
X153880952Y-113850000D01*
X153928571Y-113826190D01*
X154047619Y-113826190D01*
X154095238Y-113850000D01*
X154119047Y-113873809D01*
X154142857Y-113921428D01*
X154142857Y-113969047D01*
X154119047Y-114040476D01*
X153833333Y-114326190D01*
X154142857Y-114326190D01*
X154145238Y-104542857D02*
X154145238Y-104876190D01*
X154026190Y-104352380D02*
X153907142Y-104709523D01*
X154216666Y-104709523D01*
X159426190Y-104309523D02*
X159783333Y-104309523D01*
X159854761Y-104333333D01*
X159902380Y-104380952D01*
X159926190Y-104452380D01*
X159926190Y-104500000D01*
X159926190Y-103833333D02*
X159926190Y-104071428D01*
X159426190Y-104071428D01*
X159878571Y-103380952D02*
X159902380Y-103404761D01*
X159926190Y-103476190D01*
X159926190Y-103523809D01*
X159902380Y-103595238D01*
X159854761Y-103642857D01*
X159807142Y-103666666D01*
X159711904Y-103690476D01*
X159640476Y-103690476D01*
X159545238Y-103666666D01*
X159497619Y-103642857D01*
X159450000Y-103595238D01*
X159426190Y-103523809D01*
X159426190Y-103476190D01*
X159450000Y-103404761D01*
X159473809Y-103380952D01*
X159426190Y-103023809D02*
X159783333Y-103023809D01*
X159854761Y-103047619D01*
X159902380Y-103095238D01*
X159926190Y-103166666D01*
X159926190Y-103214285D01*
X159926190Y-102547619D02*
X159926190Y-102785714D01*
X159426190Y-102785714D01*
X159878571Y-102095238D02*
X159902380Y-102119047D01*
X159926190Y-102190476D01*
X159926190Y-102238095D01*
X159902380Y-102309523D01*
X159854761Y-102357142D01*
X159807142Y-102380952D01*
X159711904Y-102404761D01*
X159640476Y-102404761D01*
X159545238Y-102380952D01*
X159497619Y-102357142D01*
X159450000Y-102309523D01*
X159426190Y-102238095D01*
X159426190Y-102190476D01*
X159450000Y-102119047D01*
X159473809Y-102095238D01*
X159426190Y-101738095D02*
X159783333Y-101738095D01*
X159854761Y-101761904D01*
X159902380Y-101809523D01*
X159926190Y-101880952D01*
X159926190Y-101928571D01*
X159926190Y-101261904D02*
X159926190Y-101500000D01*
X159426190Y-101500000D01*
X159878571Y-100809523D02*
X159902380Y-100833333D01*
X159926190Y-100904761D01*
X159926190Y-100952380D01*
X159902380Y-101023809D01*
X159854761Y-101071428D01*
X159807142Y-101095238D01*
X159711904Y-101119047D01*
X159640476Y-101119047D01*
X159545238Y-101095238D01*
X159497619Y-101071428D01*
X159450000Y-101023809D01*
X159426190Y-100952380D01*
X159426190Y-100904761D01*
X159450000Y-100833333D01*
X159473809Y-100809523D01*
X159426190Y-100452380D02*
X159783333Y-100452380D01*
X159854761Y-100476190D01*
X159902380Y-100523809D01*
X159926190Y-100595238D01*
X159926190Y-100642857D01*
X159926190Y-99976190D02*
X159926190Y-100214285D01*
X159426190Y-100214285D01*
X159878571Y-99523809D02*
X159902380Y-99547619D01*
X159926190Y-99619047D01*
X159926190Y-99666666D01*
X159902380Y-99738095D01*
X159854761Y-99785714D01*
X159807142Y-99809523D01*
X159711904Y-99833333D01*
X159640476Y-99833333D01*
X159545238Y-99809523D01*
X159497619Y-99785714D01*
X159450000Y-99738095D01*
X159426190Y-99666666D01*
X159426190Y-99619047D01*
X159450000Y-99547619D01*
X159473809Y-99523809D01*
D10*
X162791537Y-94380000D02*
G75*
G03X162791537Y-94380000I-1171537J0D01*
G01*
X147551537Y-102000000D02*
G75*
G03X147551537Y-102000000I-1171537J0D01*
G01*
X147551537Y-91840000D02*
G75*
G03X147551537Y-91840000I-1171537J0D01*
G01*
X147551537Y-89300000D02*
G75*
G03X147551537Y-89300000I-1171537J0D01*
G01*
X145100000Y-118000000D02*
X145100000Y-86000000D01*
D14*
X133192857Y-88147321D02*
X133526190Y-88028273D01*
X133192857Y-87909226D01*
X133026190Y-87623511D02*
X133026190Y-87575892D01*
X133050000Y-87528273D01*
X133073809Y-87504464D01*
X133121428Y-87480654D01*
X133216666Y-87456845D01*
X133335714Y-87456845D01*
X133430952Y-87480654D01*
X133478571Y-87504464D01*
X133502380Y-87528273D01*
X133526190Y-87575892D01*
X133526190Y-87623511D01*
X133502380Y-87671130D01*
X133478571Y-87694940D01*
X133430952Y-87718750D01*
X133335714Y-87742559D01*
X133216666Y-87742559D01*
X133121428Y-87718750D01*
X133073809Y-87694940D01*
X133050000Y-87671130D01*
X133026190Y-87623511D01*
X133478571Y-87242559D02*
X133502380Y-87218750D01*
X133526190Y-87242559D01*
X133502380Y-87266369D01*
X133478571Y-87242559D01*
X133526190Y-87242559D01*
X133526190Y-86742559D02*
X133526190Y-87028273D01*
X133526190Y-86885416D02*
X133026190Y-86885416D01*
X133097619Y-86933035D01*
X133145238Y-86980654D01*
X133169047Y-87028273D01*
X133478571Y-86528273D02*
X133502380Y-86504464D01*
X133526190Y-86528273D01*
X133502380Y-86552083D01*
X133478571Y-86528273D01*
X133526190Y-86528273D01*
X133073809Y-86313988D02*
X133050000Y-86290178D01*
X133026190Y-86242559D01*
X133026190Y-86123511D01*
X133050000Y-86075892D01*
X133073809Y-86052083D01*
X133121428Y-86028273D01*
X133169047Y-86028273D01*
X133240476Y-86052083D01*
X133526190Y-86337797D01*
X133526190Y-86028273D01*
X133526190Y-114152678D02*
X133026190Y-114152678D01*
X133026190Y-113962202D01*
X133050000Y-113914583D01*
X133073809Y-113890773D01*
X133121428Y-113866964D01*
X133192857Y-113866964D01*
X133240476Y-113890773D01*
X133264285Y-113914583D01*
X133288095Y-113962202D01*
X133288095Y-114152678D01*
X133526190Y-113652678D02*
X133192857Y-113652678D01*
X133288095Y-113652678D02*
X133240476Y-113628869D01*
X133216666Y-113605059D01*
X133192857Y-113557440D01*
X133192857Y-113509821D01*
X133526190Y-113271726D02*
X133502380Y-113319345D01*
X133478571Y-113343154D01*
X133430952Y-113366964D01*
X133288095Y-113366964D01*
X133240476Y-113343154D01*
X133216666Y-113319345D01*
X133192857Y-113271726D01*
X133192857Y-113200297D01*
X133216666Y-113152678D01*
X133240476Y-113128869D01*
X133288095Y-113105059D01*
X133430952Y-113105059D01*
X133478571Y-113128869D01*
X133502380Y-113152678D01*
X133526190Y-113200297D01*
X133526190Y-113271726D01*
X133502380Y-112914583D02*
X133526190Y-112866964D01*
X133526190Y-112771726D01*
X133502380Y-112724107D01*
X133454761Y-112700297D01*
X133430952Y-112700297D01*
X133383333Y-112724107D01*
X133359523Y-112771726D01*
X133359523Y-112843154D01*
X133335714Y-112890773D01*
X133288095Y-112914583D01*
X133264285Y-112914583D01*
X133216666Y-112890773D01*
X133192857Y-112843154D01*
X133192857Y-112771726D01*
X133216666Y-112724107D01*
X133192857Y-112557440D02*
X133192857Y-112366964D01*
X133026190Y-112486011D02*
X133454761Y-112486011D01*
X133502380Y-112462202D01*
X133526190Y-112414583D01*
X133526190Y-112366964D01*
X133478571Y-112200297D02*
X133502380Y-112176488D01*
X133526190Y-112200297D01*
X133502380Y-112224107D01*
X133478571Y-112200297D01*
X133526190Y-112200297D01*
X133335714Y-112200297D02*
X133050000Y-112224107D01*
X133026190Y-112200297D01*
X133050000Y-112176488D01*
X133335714Y-112200297D01*
X133026190Y-112200297D01*
X147800297Y-101726190D02*
X147800297Y-102130952D01*
X147824107Y-102178571D01*
X147847916Y-102202380D01*
X147895535Y-102226190D01*
X147990773Y-102226190D01*
X148038392Y-102202380D01*
X148062202Y-102178571D01*
X148086011Y-102130952D01*
X148086011Y-101726190D01*
X148300297Y-102202380D02*
X148371726Y-102226190D01*
X148490773Y-102226190D01*
X148538392Y-102202380D01*
X148562202Y-102178571D01*
X148586011Y-102130952D01*
X148586011Y-102083333D01*
X148562202Y-102035714D01*
X148538392Y-102011904D01*
X148490773Y-101988095D01*
X148395535Y-101964285D01*
X148347916Y-101940476D01*
X148324107Y-101916666D01*
X148300297Y-101869047D01*
X148300297Y-101821428D01*
X148324107Y-101773809D01*
X148347916Y-101750000D01*
X148395535Y-101726190D01*
X148514583Y-101726190D01*
X148586011Y-101750000D01*
X148966964Y-101964285D02*
X149038392Y-101988095D01*
X149062202Y-102011904D01*
X149086011Y-102059523D01*
X149086011Y-102130952D01*
X149062202Y-102178571D01*
X149038392Y-102202380D01*
X148990773Y-102226190D01*
X148800297Y-102226190D01*
X148800297Y-101726190D01*
X148966964Y-101726190D01*
X149014583Y-101750000D01*
X149038392Y-101773809D01*
X149062202Y-101821428D01*
X149062202Y-101869047D01*
X149038392Y-101916666D01*
X149014583Y-101940476D01*
X148966964Y-101964285D01*
X148800297Y-101964285D01*
X149300297Y-102035714D02*
X149681250Y-102035714D01*
X149919345Y-102226190D02*
X149919345Y-101726190D01*
X150157440Y-102226190D02*
X150157440Y-101726190D01*
X150443154Y-102226190D01*
X150443154Y-101726190D01*
X148086011Y-92066190D02*
X147919345Y-91828095D01*
X147800297Y-92066190D02*
X147800297Y-91566190D01*
X147990773Y-91566190D01*
X148038392Y-91590000D01*
X148062202Y-91613809D01*
X148086011Y-91661428D01*
X148086011Y-91732857D01*
X148062202Y-91780476D01*
X148038392Y-91804285D01*
X147990773Y-91828095D01*
X147800297Y-91828095D01*
X148252678Y-91566190D02*
X148586011Y-92066190D01*
X148586011Y-91566190D02*
X148252678Y-92066190D01*
X147728869Y-89026190D02*
X148014583Y-89026190D01*
X147871726Y-89526190D02*
X147871726Y-89026190D01*
X148133630Y-89026190D02*
X148466964Y-89526190D01*
X148466964Y-89026190D02*
X148133630Y-89526190D01*
X150230952Y-86526190D02*
X150230952Y-86026190D01*
X150397619Y-86383333D01*
X150564285Y-86026190D01*
X150564285Y-86526190D01*
X151088095Y-86478571D02*
X151064285Y-86502380D01*
X150992857Y-86526190D01*
X150945238Y-86526190D01*
X150873809Y-86502380D01*
X150826190Y-86454761D01*
X150802380Y-86407142D01*
X150778571Y-86311904D01*
X150778571Y-86240476D01*
X150802380Y-86145238D01*
X150826190Y-86097619D01*
X150873809Y-86050000D01*
X150945238Y-86026190D01*
X150992857Y-86026190D01*
X151064285Y-86050000D01*
X151088095Y-86073809D01*
X151278571Y-86383333D02*
X151516666Y-86383333D01*
X151230952Y-86526190D02*
X151397619Y-86026190D01*
X151564285Y-86526190D01*
X151992857Y-86526190D02*
X151707142Y-86526190D01*
X151850000Y-86526190D02*
X151850000Y-86026190D01*
X151802380Y-86097619D01*
X151754761Y-86145238D01*
X151707142Y-86169047D01*
M02*
