G04 #@! TF.GenerationSoftware,KiCad,Pcbnew,(5.1.5-0-10_14)*
G04 #@! TF.CreationDate,2020-05-24T23:38:13-07:00*
G04 #@! TF.ProjectId,prost-pcb,70726f73-742d-4706-9362-2e6b69636164,0.1.0*
G04 #@! TF.SameCoordinates,Original*
G04 #@! TF.FileFunction,Legend,Bot*
G04 #@! TF.FilePolarity,Positive*
%FSLAX46Y46*%
G04 Gerber Fmt 4.6, Leading zero omitted, Abs format (unit mm)*
G04 Created by KiCad (PCBNEW (5.1.5-0-10_14)) date 2020-05-24 23:38:13*
%MOMM*%
%LPD*%
G04 APERTURE LIST*
%ADD10C,0.125000*%
%ADD11C,0.120000*%
%ADD12C,0.300000*%
%ADD13C,0.100000*%
%ADD14C,0.200000*%
%ADD15C,0.087500*%
%ADD16C,0.152400*%
G04 APERTURE END LIST*
D10*
X145114583Y-97122380D02*
X145043154Y-97146190D01*
X144924107Y-97146190D01*
X144876488Y-97122380D01*
X144852678Y-97098571D01*
X144828869Y-97050952D01*
X144828869Y-97003333D01*
X144852678Y-96955714D01*
X144876488Y-96931904D01*
X144924107Y-96908095D01*
X145019345Y-96884285D01*
X145066964Y-96860476D01*
X145090773Y-96836666D01*
X145114583Y-96789047D01*
X145114583Y-96741428D01*
X145090773Y-96693809D01*
X145066964Y-96670000D01*
X145019345Y-96646190D01*
X144900297Y-96646190D01*
X144828869Y-96670000D01*
X144614583Y-96884285D02*
X144447916Y-96884285D01*
X144376488Y-97146190D02*
X144614583Y-97146190D01*
X144614583Y-96646190D01*
X144376488Y-96646190D01*
X143876488Y-97146190D02*
X144043154Y-96908095D01*
X144162202Y-97146190D02*
X144162202Y-96646190D01*
X143971726Y-96646190D01*
X143924107Y-96670000D01*
X143900297Y-96693809D01*
X143876488Y-96741428D01*
X143876488Y-96812857D01*
X143900297Y-96860476D01*
X143924107Y-96884285D01*
X143971726Y-96908095D01*
X144162202Y-96908095D01*
D11*
X143551537Y-86760000D02*
G75*
G03X143551537Y-86760000I-1171537J0D01*
G01*
D10*
X144114583Y-86048690D02*
X143828869Y-86048690D01*
X143971726Y-86548690D02*
X143971726Y-86048690D01*
X143876488Y-87423690D02*
X144043154Y-87185595D01*
X144162202Y-87423690D02*
X144162202Y-86923690D01*
X143971726Y-86923690D01*
X143924107Y-86947500D01*
X143900297Y-86971309D01*
X143876488Y-87018928D01*
X143876488Y-87090357D01*
X143900297Y-87137976D01*
X143924107Y-87161785D01*
X143971726Y-87185595D01*
X144162202Y-87185595D01*
X160362202Y-106338690D02*
X160195535Y-106838690D01*
X160028869Y-106338690D01*
X159576488Y-106791071D02*
X159600297Y-106814880D01*
X159671726Y-106838690D01*
X159719345Y-106838690D01*
X159790773Y-106814880D01*
X159838392Y-106767261D01*
X159862202Y-106719642D01*
X159886011Y-106624404D01*
X159886011Y-106552976D01*
X159862202Y-106457738D01*
X159838392Y-106410119D01*
X159790773Y-106362500D01*
X159719345Y-106338690D01*
X159671726Y-106338690D01*
X159600297Y-106362500D01*
X159576488Y-106386309D01*
X159076488Y-106791071D02*
X159100297Y-106814880D01*
X159171726Y-106838690D01*
X159219345Y-106838690D01*
X159290773Y-106814880D01*
X159338392Y-106767261D01*
X159362202Y-106719642D01*
X159386011Y-106624404D01*
X159386011Y-106552976D01*
X159362202Y-106457738D01*
X159338392Y-106410119D01*
X159290773Y-106362500D01*
X159219345Y-106338690D01*
X159171726Y-106338690D01*
X159100297Y-106362500D01*
X159076488Y-106386309D01*
X159124107Y-107380357D02*
X159124107Y-107713690D01*
X159243154Y-107189880D02*
X159362202Y-107547023D01*
X159052678Y-107547023D01*
D11*
X139300000Y-110050000D02*
X139300000Y-112250000D01*
X136150000Y-111250000D02*
G75*
G02X135150000Y-112250000I-1000000J0D01*
G01*
X135000000Y-112250000D02*
X135000000Y-110050000D01*
X139300000Y-112250000D02*
X135000000Y-112250000D01*
X138150000Y-111250000D02*
G75*
G03X139150000Y-112250000I1000000J0D01*
G01*
X138150000Y-111250000D02*
G75*
G03X137150000Y-110250000I-1000000J0D01*
G01*
X135000000Y-110050000D02*
X139300000Y-110050000D01*
X136150000Y-111250000D02*
G75*
G02X137150000Y-110250000I1000000J0D01*
G01*
D12*
X140850000Y-114700000D02*
G75*
G03X140850000Y-114700000I-200000J0D01*
G01*
D13*
G36*
X152600000Y-110300000D02*
G01*
X152000000Y-110300000D01*
X152000000Y-110000000D01*
X152600000Y-110000000D01*
X152600000Y-110300000D01*
G37*
X152600000Y-110300000D02*
X152000000Y-110300000D01*
X152000000Y-110000000D01*
X152600000Y-110000000D01*
X152600000Y-110300000D01*
D14*
X152900000Y-111650000D02*
G75*
G03X152900000Y-111650000I-100000J0D01*
G01*
X151900000Y-111650000D02*
G75*
G03X151900000Y-111650000I-100000J0D01*
G01*
D13*
X153200000Y-111150000D02*
G75*
G03X153200000Y-111150000I-150000J0D01*
G01*
D14*
X152400000Y-111850000D02*
G75*
G03X152400000Y-111850000I-100000J0D01*
G01*
D13*
X151750000Y-111150000D02*
G75*
G03X151750000Y-111150000I-150000J0D01*
G01*
D11*
X153500000Y-111150000D02*
G75*
G03X153500000Y-111150000I-1200000J0D01*
G01*
X158791537Y-107080000D02*
G75*
G03X158791537Y-107080000I-1171537J0D01*
G01*
X158791537Y-109620000D02*
G75*
G03X158791537Y-109620000I-1171537J0D01*
G01*
X143551537Y-114700000D02*
G75*
G03X143551537Y-114700000I-1171537J0D01*
G01*
X143551537Y-112160000D02*
G75*
G03X143551537Y-112160000I-1171537J0D01*
G01*
X143551537Y-96920000D02*
G75*
G03X143551537Y-96920000I-1171537J0D01*
G01*
X158900000Y-118000000D02*
X158900000Y-86000000D01*
X141100000Y-118000000D02*
X141100000Y-86000000D01*
D15*
X137691666Y-86358333D02*
X137525000Y-86358333D01*
X137725000Y-86458333D02*
X137608333Y-86108333D01*
X137491666Y-86458333D01*
X137175000Y-86425000D02*
X137191666Y-86441666D01*
X137241666Y-86458333D01*
X137275000Y-86458333D01*
X137325000Y-86441666D01*
X137358333Y-86408333D01*
X137375000Y-86375000D01*
X137391666Y-86308333D01*
X137391666Y-86258333D01*
X137375000Y-86191666D01*
X137358333Y-86158333D01*
X137325000Y-86125000D01*
X137275000Y-86108333D01*
X137241666Y-86108333D01*
X137191666Y-86125000D01*
X137175000Y-86141666D01*
X137075000Y-86108333D02*
X136875000Y-86108333D01*
X136975000Y-86458333D02*
X136975000Y-86108333D01*
X136758333Y-86458333D02*
X136758333Y-86108333D01*
X136641666Y-86108333D02*
X136525000Y-86458333D01*
X136408333Y-86108333D01*
X136291666Y-86458333D02*
X136291666Y-86108333D01*
X136175000Y-86108333D02*
X135975000Y-86108333D01*
X136075000Y-86458333D02*
X136075000Y-86108333D01*
X135791666Y-86291666D02*
X135791666Y-86458333D01*
X135908333Y-86108333D02*
X135791666Y-86291666D01*
X135675000Y-86108333D01*
D10*
X144352678Y-112386190D02*
X144519345Y-112148095D01*
X144638392Y-112386190D02*
X144638392Y-111886190D01*
X144447916Y-111886190D01*
X144400297Y-111910000D01*
X144376488Y-111933809D01*
X144352678Y-111981428D01*
X144352678Y-112052857D01*
X144376488Y-112100476D01*
X144400297Y-112124285D01*
X144447916Y-112148095D01*
X144638392Y-112148095D01*
X144186011Y-111886190D02*
X143852678Y-112386190D01*
X143852678Y-111886190D02*
X144186011Y-112386190D01*
X144590773Y-113988690D02*
X144305059Y-113988690D01*
X144447916Y-114488690D02*
X144447916Y-113988690D01*
X144186011Y-113988690D02*
X143852678Y-114488690D01*
X143852678Y-113988690D02*
X144186011Y-114488690D01*
X143900297Y-114863690D02*
X144138392Y-114863690D01*
X144162202Y-115101785D01*
X144138392Y-115077976D01*
X144090773Y-115054166D01*
X143971726Y-115054166D01*
X143924107Y-115077976D01*
X143900297Y-115101785D01*
X143876488Y-115149404D01*
X143876488Y-115268452D01*
X143900297Y-115316071D01*
X143924107Y-115339880D01*
X143971726Y-115363690D01*
X144090773Y-115363690D01*
X144138392Y-115339880D01*
X144162202Y-115316071D01*
D11*
X149300000Y-108300000D02*
X149300000Y-114800000D01*
X149300000Y-103900000D02*
X149300000Y-105100000D01*
X155500000Y-103900000D02*
X149300000Y-103900000D01*
X155500000Y-112800000D02*
X155500000Y-103900000D01*
X155500000Y-118600000D02*
X155500000Y-115400000D01*
X155000000Y-118600000D02*
X155500000Y-118600000D01*
X155000000Y-121100000D02*
X155000000Y-118600000D01*
X149800000Y-121100000D02*
X155000000Y-121100000D01*
X149800000Y-118600000D02*
X149800000Y-121100000D01*
X149300000Y-118600000D02*
X149800000Y-118600000D01*
X149300000Y-117400000D02*
X149300000Y-118600000D01*
X134000000Y-108300000D02*
X134000000Y-114800000D01*
X134000000Y-103900000D02*
X134000000Y-105100000D01*
X140200000Y-103900000D02*
X134000000Y-103900000D01*
X140200000Y-112800000D02*
X140200000Y-103900000D01*
X140200000Y-118600000D02*
X140200000Y-115400000D01*
X139700000Y-118600000D02*
X140200000Y-118600000D01*
X139700000Y-121100000D02*
X139700000Y-118600000D01*
X134500000Y-121100000D02*
X139700000Y-121100000D01*
X134500000Y-118600000D02*
X134500000Y-121100000D01*
X134000000Y-118600000D02*
X134500000Y-118600000D01*
X134000000Y-117400000D02*
X134000000Y-118600000D01*
X134080000Y-89120000D02*
X134080000Y-88655000D01*
X134080000Y-91745000D02*
X134080000Y-91280000D01*
X138894479Y-89119571D02*
G75*
G03X134385316Y-89120000I-2254479J-1080429D01*
G01*
X138894479Y-91280429D02*
G75*
G02X134385316Y-91280000I-2254479J1080429D01*
G01*
X139427815Y-89119173D02*
G75*
G03X134080000Y-88655170I-2787815J-1080827D01*
G01*
X139427815Y-91280827D02*
G75*
G02X134080000Y-91744830I-2787815J1080827D01*
G01*
D16*
X138350000Y-98500000D02*
G75*
G03X138350000Y-98500000I-1500000J0D01*
G01*
X139850000Y-101500000D02*
X139850000Y-95500000D01*
X139850000Y-95500000D02*
X133850000Y-95500000D01*
X133850000Y-101500000D02*
X133850000Y-95500000D01*
X133850000Y-101500000D02*
X139850000Y-101500000D01*
D11*
X152680000Y-98280000D02*
X152680000Y-94440000D01*
X154520000Y-98280000D02*
X154520000Y-94440000D01*
X150820000Y-94420000D02*
X150820000Y-98260000D01*
X148980000Y-94420000D02*
X148980000Y-98260000D01*
D10*
X153373809Y-95780952D02*
X153350000Y-95804761D01*
X153326190Y-95852380D01*
X153326190Y-95971428D01*
X153350000Y-96019047D01*
X153373809Y-96042857D01*
X153421428Y-96066666D01*
X153469047Y-96066666D01*
X153540476Y-96042857D01*
X153826190Y-95757142D01*
X153826190Y-96066666D01*
X153373809Y-96257142D02*
X153350000Y-96280952D01*
X153326190Y-96328571D01*
X153326190Y-96447619D01*
X153350000Y-96495238D01*
X153373809Y-96519047D01*
X153421428Y-96542857D01*
X153469047Y-96542857D01*
X153540476Y-96519047D01*
X153826190Y-96233333D01*
X153826190Y-96542857D01*
X153326190Y-96852380D02*
X153326190Y-96900000D01*
X153350000Y-96947619D01*
X153373809Y-96971428D01*
X153421428Y-96995238D01*
X153516666Y-97019047D01*
X153635714Y-97019047D01*
X153730952Y-96995238D01*
X153778571Y-96971428D01*
X153802380Y-96947619D01*
X153826190Y-96900000D01*
X153826190Y-96852380D01*
X153802380Y-96804761D01*
X153778571Y-96780952D01*
X153730952Y-96757142D01*
X153635714Y-96733333D01*
X153516666Y-96733333D01*
X153421428Y-96757142D01*
X153373809Y-96780952D01*
X153350000Y-96804761D01*
X153326190Y-96852380D01*
X149673809Y-95680952D02*
X149650000Y-95704761D01*
X149626190Y-95752380D01*
X149626190Y-95871428D01*
X149650000Y-95919047D01*
X149673809Y-95942857D01*
X149721428Y-95966666D01*
X149769047Y-95966666D01*
X149840476Y-95942857D01*
X150126190Y-95657142D01*
X150126190Y-95966666D01*
X149673809Y-96157142D02*
X149650000Y-96180952D01*
X149626190Y-96228571D01*
X149626190Y-96347619D01*
X149650000Y-96395238D01*
X149673809Y-96419047D01*
X149721428Y-96442857D01*
X149769047Y-96442857D01*
X149840476Y-96419047D01*
X150126190Y-96133333D01*
X150126190Y-96442857D01*
X149626190Y-96752380D02*
X149626190Y-96800000D01*
X149650000Y-96847619D01*
X149673809Y-96871428D01*
X149721428Y-96895238D01*
X149816666Y-96919047D01*
X149935714Y-96919047D01*
X150030952Y-96895238D01*
X150078571Y-96871428D01*
X150102380Y-96847619D01*
X150126190Y-96800000D01*
X150126190Y-96752380D01*
X150102380Y-96704761D01*
X150078571Y-96680952D01*
X150030952Y-96657142D01*
X149935714Y-96633333D01*
X149816666Y-96633333D01*
X149721428Y-96657142D01*
X149673809Y-96680952D01*
X149650000Y-96704761D01*
X149626190Y-96752380D01*
X153799702Y-117826190D02*
X153799702Y-117326190D01*
X153633035Y-117683333D01*
X153466369Y-117326190D01*
X153466369Y-117826190D01*
X152942559Y-117778571D02*
X152966369Y-117802380D01*
X153037797Y-117826190D01*
X153085416Y-117826190D01*
X153156845Y-117802380D01*
X153204464Y-117754761D01*
X153228273Y-117707142D01*
X153252083Y-117611904D01*
X153252083Y-117540476D01*
X153228273Y-117445238D01*
X153204464Y-117397619D01*
X153156845Y-117350000D01*
X153085416Y-117326190D01*
X153037797Y-117326190D01*
X152966369Y-117350000D01*
X152942559Y-117373809D01*
X152561607Y-117564285D02*
X152490178Y-117588095D01*
X152466369Y-117611904D01*
X152442559Y-117659523D01*
X152442559Y-117730952D01*
X152466369Y-117778571D01*
X152490178Y-117802380D01*
X152537797Y-117826190D01*
X152728273Y-117826190D01*
X152728273Y-117326190D01*
X152561607Y-117326190D01*
X152513988Y-117350000D01*
X152490178Y-117373809D01*
X152466369Y-117421428D01*
X152466369Y-117469047D01*
X152490178Y-117516666D01*
X152513988Y-117540476D01*
X152561607Y-117564285D01*
X152728273Y-117564285D01*
X151966369Y-117826190D02*
X152252083Y-117826190D01*
X152109226Y-117826190D02*
X152109226Y-117326190D01*
X152156845Y-117397619D01*
X152204464Y-117445238D01*
X152252083Y-117469047D01*
M02*
