M48
; DRILL file {KiCad (5.1.5-0-10_14)} date Sunday, 24 May 2020 at 23:38:16
; FORMAT={-:-/ absolute / inch / decimal}
; #@! TF.CreationDate,2020-05-24T23:38:16-07:00
; #@! TF.GenerationSoftware,Kicad,Pcbnew,(5.1.5-0-10_14)
FMAT,2
INCH
T1C0.0276
T2C0.0315
T3C0.0354
T4C0.0394
T5C0.0400
T6C0.0400
T7C0.0669
%
G90
G05
T1
X6.0472Y-3.6937
X6.0472Y-3.8937
X5.9016Y-3.6929
X5.9016Y-3.8929
T2
X5.2992Y-3.75
X5.2992Y-4.0059
X5.4764Y-3.75
X5.4764Y-4.0059
T3
X5.2795Y-3.5512
X5.3795Y-3.5512
X5.4795Y-3.5512
T4
X5.8701Y-4.2008
X5.8701Y-4.5709
X6.1024Y-4.4921
X5.2677Y-4.2008
X5.2677Y-4.5709
X5.5Y-4.4921
T5
X5.6055Y-3.4157
X5.6055Y-3.5157
X5.6055Y-3.6157
X5.6055Y-3.7157
X5.6055Y-3.8157
X5.6055Y-3.9157
X5.6055Y-4.0157
X5.6055Y-4.1157
X5.6055Y-4.2157
X5.6055Y-4.3157
X5.6055Y-4.4157
X5.6055Y-4.5157
X6.2055Y-3.4157
X6.2055Y-3.5157
X6.2055Y-3.6157
X6.2055Y-3.7157
X6.2055Y-3.8157
X6.2055Y-3.9157
X6.2055Y-4.0157
X6.2055Y-4.1157
X6.2055Y-4.2157
X6.2055Y-4.3157
X6.2055Y-4.4157
X6.2055Y-4.5157
X5.763Y-3.5157
X5.763Y-3.6157
X5.763Y-3.7157
X5.763Y-3.8157
X5.763Y-3.9157
X5.763Y-4.0157
X5.763Y-4.1157
X5.763Y-4.2157
X5.763Y-4.3157
X5.763Y-4.4157
X5.763Y-4.5157
X5.763Y-4.6157
X6.363Y-3.5157
X6.363Y-3.6157
X6.363Y-3.7157
X6.363Y-3.8157
X6.363Y-3.9157
X6.363Y-4.0157
X6.363Y-4.1157
X6.363Y-4.2157
X6.363Y-4.3157
X6.363Y-4.4157
X6.363Y-4.5157
X6.363Y-4.6157
T6
X5.763Y-3.4157
X6.2047Y-4.6157
X5.6055Y-4.6157
X6.363Y-3.4157
T7
X6.0Y-4.252
X6.0Y-4.5276
X5.3976Y-4.252
X5.3976Y-4.5276
T0
M30
